<svg width="200" height="50" fill="none" xmlns="http://www.w3.org/2000/svg"><rect x="2.728" y=".35" width="197.395" height="36.912" rx="8" transform="rotate(3.452 2.728 .35)" fill="#1E1D2F"/><rect x="2.728" y=".35" width="197.395" height="36.912" rx="8" transform="rotate(3.452 2.728 .35)" fill="url(#paint0_linear)"/><rect x="2.728" y=".35" width="197.395" height="36.912" rx="8" transform="rotate(3.452 2.728 .35)" fill="url(#paint1_linear)"/><path d="M74.778 17.358l-.234 3.881-3.984-.24.234-3.881-2.922-.176-.623 10.329 2.922.176.242-4.028 3.985.24-.243 4.028 2.921.176.623-10.328-2.921-.177zm12.456 11.118l3.04.184-3.951-10.605-2.878-.174-5.182 10.054 2.98.18.933-1.958 4.368.264.69 2.055zm-4.072-4.422l1.527-3.225 1.129 3.386-2.656-.16zm14.162-5.336l-.27 4.486c-.531.205-1.173.285-1.851.244-1.284-.078-1.909-.767-1.828-2.11l.172-2.848-2.878-.173-.19 3.172c-.16 2.627 1.32 4.138 4.211 4.312.68.041 1.41-.048 2.223-.265l-.212 3.511 2.878.174.623-10.33-2.878-.173zm12.404 11.115l3.04.184-3.951-10.605-2.878-.174-5.182 10.054 2.98.18.933-1.958 4.368.264.69 2.055zm-4.072-4.422l1.527-3.225 1.129 3.386-2.656-.16zm16.722-5.181l-9.207-.556-.14 2.317 3.172.191-.483 8.013 2.877.173.484-8.012 3.157.19.14-2.316zm6.416 3.69l-2.39-.145.198-3.29-2.877-.174-.623 10.329 4.884.295c2.686.162 4.429-.992 4.575-3.412.136-2.258-1.258-3.452-3.767-3.604zm-.873 4.908l-1.815-.11.172-2.862 1.815.11c.989.059 1.586.465 1.528 1.439-.059.974-.727 1.482-1.7 1.423z" fill="#03EEEE"/><defs><linearGradient id="paint0_linear" x1="181.355" y1="207.647" x2="170.975" y2="-25.028" gradientUnits="userSpaceOnUse"><stop offset=".302" stop-color="#05E1E1"/><stop offset=".598" stop-color="#fff" stop-opacity="0"/></linearGradient><linearGradient id="paint1_linear" x1="77.962" y1="-118.654" x2="116.701" y2="96.562" gradientUnits="userSpaceOnUse"><stop stop-color="#fff"/><stop offset=".683" stop-color="#fff" stop-opacity="0"/><stop offset="1" stop-color="#3AE7E7"/></linearGradient></defs></svg>