<svg width="1440" height="253" fill="none" xmlns="http://www.w3.org/2000/svg"><path d="M569.113 71.335C387.954 9.83 73.436-6.784-107.872 4.317v271.961H1471.17V4.317c-55.5 24.05-33.67 36.119-161.85 121.16-128.17 85.041-386.902 65.808-740.207-54.142z" fill="#9B51E0"/><path d="M569.113 71.335C387.954 9.83 73.436-6.784-107.872 4.317v271.961H1471.17V4.317c-55.5 24.05-33.67 36.119-161.85 121.16-128.17 85.041-386.902 65.808-740.207-54.142z" fill="url(#paint0_linear)"/><path d="M569.113 71.335C387.954 9.83 73.436-6.784-107.872 4.317v271.961H1471.17V4.317c-55.5 24.05-33.67 36.119-161.85 121.16-128.17 85.041-386.902 65.808-740.207-54.142z" stroke="url(#paint1_linear)" stroke-opacity=".6" stroke-width="2"/><defs><linearGradient id="paint0_linear" x1="705.545" y1="26.679" x2="765.758" y2="461.919" gradientUnits="userSpaceOnUse"><stop stop-color="#9B51E0"/><stop offset="1" stop-color="#AFCCF4"/></linearGradient><linearGradient id="paint1_linear" x1="-147.596" y1="-286.178" x2="1143.19" y2="217.122" gradientUnits="userSpaceOnUse"><stop stop-color="#fff" stop-opacity=".94"/><stop offset=".335" stop-color="#fff" stop-opacity="0"/><stop offset=".598" stop-color="#fff" stop-opacity="0"/><stop offset=".753" stop-color="#fff" stop-opacity=".83"/><stop offset="1" stop-color="#fff" stop-opacity="0"/></linearGradient></defs></svg>