<svg width="320" height="217" fill="none" xmlns="http://www.w3.org/2000/svg"><path d="M-160.381 43.56C-269.879 6.385-459.982-3.657-569.569 3.052v212.712h954.416V3.052C351.3 17.59 364.494 24.883 287.022 76.284 209.55 127.686 53.166 116.061-160.381 43.56z" fill="#9B51E0"/><path d="M-160.381 43.56C-269.879 6.385-459.982-3.657-569.569 3.052v212.712h954.416V3.052C351.3 17.59 364.494 24.883 287.022 76.284 209.55 127.686 53.166 116.061-160.381 43.56z" fill="url(#paint0_linear)"/><path d="M-160.381 43.56C-269.879 6.385-459.982-3.657-569.569 3.052v212.712h954.416V3.052C351.3 17.59 364.494 24.883 287.022 76.284 209.55 127.686 53.166 116.061-160.381 43.56z" stroke="url(#paint1_linear)" stroke-opacity=".6" stroke-width="2"/><defs><linearGradient id="paint0_linear" x1="-77.918" y1="16.569" x2="-35.588" y2="304.561" gradientUnits="userSpaceOnUse"><stop stop-color="#9B51E0"/><stop offset=".818" stop-color="#AFCCF4"/><stop offset="1" stop-color="#AE44BA"/></linearGradient><linearGradient id="paint1_linear" x1="-593.58" y1="-172.531" x2="186.604" y2="131.677" gradientUnits="userSpaceOnUse"><stop stop-color="#fff" stop-opacity=".94"/><stop offset=".335" stop-color="#fff" stop-opacity="0"/><stop offset=".598" stop-color="#fff" stop-opacity="0"/><stop offset=".753" stop-color="#fff" stop-opacity=".83"/><stop offset="1" stop-color="#fff" stop-opacity="0"/></linearGradient></defs></svg>