<svg width="320" height="217" fill="none" xmlns="http://www.w3.org/2000/svg"><path d="M-160.381 43.447C-269.879 6.272-459.982-3.77-569.569 2.939v212.712h954.416V2.939C351.3 17.476 364.494 24.77 287.022 76.171c-77.472 51.401-233.856 39.777-447.403-32.724z" fill="#9B51E0"/><path d="M-160.381 43.447C-269.879 6.272-459.982-3.77-569.569 2.939v212.712h954.416V2.939C351.3 17.476 364.494 24.77 287.022 76.171c-77.472 51.401-233.856 39.777-447.403-32.724z" fill="url(#paint0_linear)"/><path d="M-160.381 43.447C-269.879 6.272-459.982-3.77-569.569 2.939v212.712h954.416V2.939C351.3 17.476 364.494 24.77 287.022 76.171c-77.472 51.401-233.856 39.777-447.403-32.724z" stroke="url(#paint1_linear)" stroke-opacity=".6" stroke-width="2"/><g filter="url(#filter0_f)"><ellipse cx="291.815" cy="110.861" rx="11.563" ry="11.117" fill="#AFCCF4"/><ellipse cx="291.815" cy="110.861" rx="11.563" ry="11.117" fill="url(#paint2_radial)"/></g><g filter="url(#filter1_f)"><ellipse cx="291.816" cy="110.86" rx="8.522" ry="8.194" fill="#AFCCF4"/><ellipse cx="291.816" cy="110.86" rx="8.522" ry="8.194" fill="url(#paint3_radial)"/></g><g filter="url(#filter2_f)"><ellipse cx="291.815" cy="110.861" rx="11.563" ry="11.117" fill="#AFCCF4"/><ellipse cx="291.815" cy="110.861" rx="11.563" ry="11.117" fill="url(#paint4_radial)"/></g><g filter="url(#filter3_f)"><ellipse cx="291.816" cy="110.86" rx="8.522" ry="8.194" fill="#AFCCF4"/><ellipse cx="291.816" cy="110.86" rx="8.522" ry="8.194" fill="url(#paint5_radial)"/></g><defs><radialGradient id="paint2_radial" cx="0" cy="0" r="1" gradientUnits="userSpaceOnUse" gradientTransform="matrix(0 11.1171 -11.5627 0 291.815 110.861)"><stop stop-color="#AFCCF4"/><stop offset="1" stop-color="#fff" stop-opacity="0"/></radialGradient><radialGradient id="paint3_radial" cx="0" cy="0" r="1" gradientUnits="userSpaceOnUse" gradientTransform="matrix(0 8.19384 -8.52227 0 291.816 110.86)"><stop stop-color="#AFCCF4"/><stop offset="1" stop-color="#fff" stop-opacity="0"/></radialGradient><radialGradient id="paint4_radial" cx="0" cy="0" r="1" gradientUnits="userSpaceOnUse" gradientTransform="matrix(0 11.1171 -11.5627 0 291.815 110.861)"><stop stop-color="#AFCCF4"/><stop offset="1" stop-color="#fff" stop-opacity="0"/></radialGradient><radialGradient id="paint5_radial" cx="0" cy="0" r="1" gradientUnits="userSpaceOnUse" gradientTransform="matrix(0 8.19384 -8.52227 0 291.816 110.86)"><stop stop-color="#AFCCF4"/><stop offset="1" stop-color="#fff" stop-opacity="0"/></radialGradient><filter id="filter0_f" x="265.253" y="84.743" width="53.125" height="52.234" filterUnits="userSpaceOnUse" color-interpolation-filters="sRGB"><feFlood flood-opacity="0" result="BackgroundImageFix"/><feBlend in="SourceGraphic" in2="BackgroundImageFix" result="shape"/><feGaussianBlur stdDeviation="7.5" result="effect1_foregroundBlur"/></filter><filter id="filter1_f" x="280.293" y="99.666" width="23.044" height="22.388" filterUnits="userSpaceOnUse" color-interpolation-filters="sRGB"><feFlood flood-opacity="0" result="BackgroundImageFix"/><feBlend in="SourceGraphic" in2="BackgroundImageFix" result="shape"/><feGaussianBlur stdDeviation="1.5" result="effect1_foregroundBlur"/></filter><filter id="filter2_f" x="265.253" y="84.743" width="53.125" height="52.234" filterUnits="userSpaceOnUse" color-interpolation-filters="sRGB"><feFlood flood-opacity="0" result="BackgroundImageFix"/><feBlend in="SourceGraphic" in2="BackgroundImageFix" result="shape"/><feGaussianBlur stdDeviation="7.5" result="effect1_foregroundBlur"/></filter><filter id="filter3_f" x="280.293" y="99.666" width="23.044" height="22.388" filterUnits="userSpaceOnUse" color-interpolation-filters="sRGB"><feFlood flood-opacity="0" result="BackgroundImageFix"/><feBlend in="SourceGraphic" in2="BackgroundImageFix" result="shape"/><feGaussianBlur stdDeviation="1.5" result="effect1_foregroundBlur"/></filter><linearGradient id="paint0_linear" x1="-77.918" y1="16.456" x2="-35.588" y2="304.448" gradientUnits="userSpaceOnUse"><stop stop-color="#9B51E0"/><stop offset=".818" stop-color="#AFCCF4"/><stop offset="1" stop-color="#AE44BA"/></linearGradient><linearGradient id="paint1_linear" x1="-593.58" y1="-172.644" x2="186.604" y2="131.564" gradientUnits="userSpaceOnUse"><stop stop-color="#fff" stop-opacity=".94"/><stop offset=".335" stop-color="#fff" stop-opacity="0"/><stop offset=".598" stop-color="#fff" stop-opacity="0"/><stop offset=".753" stop-color="#fff" stop-opacity=".83"/><stop offset="1" stop-color="#fff" stop-opacity="0"/></linearGradient></defs></svg>