<svg width="1424" height="686" fill="none" xmlns="http://www.w3.org/2000/svg"><path d="M442.417 490.033L783.878 250.57M442.417 490.033L584.413-8.199l-351.799 263.37-15.011 277.586m224.814-42.724l-61.239 235.395m402.7-474.858l104.7 187.88 175.412-334.79 258.25 162.347-210.9 43.808-39.09 39.731-112.948 99.834 526.638 276.048M783.878 250.57l82.419-295.084M217.603 532.757l-7.979 147.544L1.113 179.454l215.521 4.628L373.189-44.514l370.148 762.015-525.734-184.744z" stroke="#9B51E0"/><path d="M442.417 490.033L783.878 250.57M442.417 490.033L584.413-8.199l-351.799 263.37-15.011 277.586m224.814-42.724l-61.239 235.395m402.7-474.858l104.7 187.88 175.412-334.79 258.25 162.347-210.9 43.808-39.09 39.731-112.948 99.834 526.638 276.048M783.878 250.57l82.419-295.084M217.603 532.757l-7.979 147.544L1.113 179.454l215.521 4.628L373.189-44.514l370.148 762.015-525.734-184.744z" stroke="url(#paint0_linear)"/><g filter="url(#filter0_f)" transform="rotate(-180 830.33 335.987)"><circle cx="830.33" cy="335.987" r="5.89" fill="#C050D8"/><circle cx="830.33" cy="335.987" r="5.89" fill="url(#paint1_radial)"/></g><g filter="url(#filter1_f)" transform="rotate(-180 216.367 183.295)"><ellipse cx="216.367" cy="183.295" rx="4.813" ry="4.627" fill="#AFCCF4"/><ellipse cx="216.367" cy="183.295" rx="4.813" ry="4.627" fill="url(#paint2_radial)"/></g><g filter="url(#filter2_f)" transform="rotate(-180 541.372 144.59)"><circle cx="541.372" cy="144.59" r="6.334" fill="#AFCCF4"/><circle cx="541.372" cy="144.59" r="6.334" fill="url(#paint3_radial)"/></g><g filter="url(#filter3_f)" transform="rotate(-180 783.953 251.423)"><circle cx="783.953" cy="251.423" r="3.359" fill="#03EEEE"/><circle cx="783.953" cy="251.423" r="3.359" fill="url(#paint4_radial)"/></g><g filter="url(#filter4_f)" transform="rotate(-180 1111.34 309.477)"><circle cx="1111.34" cy="309.477" r="4.19" fill="#03EEEE"/><circle cx="1111.34" cy="309.477" r="4.19" fill="url(#paint5_radial)"/></g><g filter="url(#filter5_f)"><circle cx="1063.91" cy="105.943" r="3.359" transform="rotate(-180 1063.91 105.943)" fill="#fff"/></g><g filter="url(#filter6_f)"><circle cx="1072.45" cy="350.432" r="2.517" transform="rotate(-180 1072.45 350.432)" fill="#fff"/></g><g filter="url(#filter7_f)"><circle cx="1072.45" cy="350.432" r="2.517" transform="rotate(-180 1072.45 350.432)" fill="#fff"/></g><g filter="url(#filter8_f)" transform="rotate(-180 922.898 372.761)" fill="#AFCCF4"><circle cx="922.898" cy="372.761" r="2.383"/><circle cx="922.898" cy="372.761" r="2.383"/></g><g filter="url(#filter9_f)" transform="rotate(-180 922.898 372.761)" fill="#AFCCF4"><circle cx="922.898" cy="372.761" r="2.383"/><circle cx="922.898" cy="372.761" r="2.383"/></g><g filter="url(#filter10_d)" transform="rotate(-180 690.611 315.861)" fill="#E0EDFF"><g filter="url(#filter11_f)"><circle cx="690.611" cy="315.861" r="2.383"/><circle cx="690.611" cy="315.861" r="2.383"/></g><g filter="url(#filter12_f)"><circle cx="690.611" cy="315.861" r="2.383"/><circle cx="690.611" cy="315.861" r="2.383"/></g></g><defs><filter id="filter0_f" x="821.44" y="327.097" width="17.779" height="17.779" filterUnits="userSpaceOnUse" color-interpolation-filters="sRGB"><feFlood flood-opacity="0" result="BackgroundImageFix"/><feBlend in="SourceGraphic" in2="BackgroundImageFix" result="shape"/><feGaussianBlur stdDeviation="1.5" result="effect1_foregroundBlur"/></filter><filter id="filter1_f" x="208.554" y="175.667" width="15.626" height="15.255" filterUnits="userSpaceOnUse" color-interpolation-filters="sRGB"><feFlood flood-opacity="0" result="BackgroundImageFix"/><feBlend in="SourceGraphic" in2="BackgroundImageFix" result="shape"/><feGaussianBlur stdDeviation="1.5" result="effect1_foregroundBlur"/></filter><filter id="filter2_f" x="531.038" y="134.256" width="20.668" height="20.668" filterUnits="userSpaceOnUse" color-interpolation-filters="sRGB"><feFlood flood-opacity="0" result="BackgroundImageFix"/><feBlend in="SourceGraphic" in2="BackgroundImageFix" result="shape"/><feGaussianBlur stdDeviation="2" result="effect1_foregroundBlur"/></filter><filter id="filter3_f" x="778.594" y="246.064" width="10.719" height="10.719" filterUnits="userSpaceOnUse" color-interpolation-filters="sRGB"><feFlood flood-opacity="0" result="BackgroundImageFix"/><feBlend in="SourceGraphic" in2="BackgroundImageFix" result="shape"/><feGaussianBlur stdDeviation="1" result="effect1_foregroundBlur"/></filter><filter id="filter4_f" x="1105.15" y="303.287" width="12.38" height="12.38" filterUnits="userSpaceOnUse" color-interpolation-filters="sRGB"><feFlood flood-opacity="0" result="BackgroundImageFix"/><feBlend in="SourceGraphic" in2="BackgroundImageFix" result="shape"/><feGaussianBlur stdDeviation="1" result="effect1_foregroundBlur"/></filter><filter id="filter5_f" x="1058.55" y="100.584" width="10.719" height="10.719" filterUnits="userSpaceOnUse" color-interpolation-filters="sRGB"><feFlood flood-opacity="0" result="BackgroundImageFix"/><feBlend in="SourceGraphic" in2="BackgroundImageFix" result="shape"/><feGaussianBlur stdDeviation="1" result="effect1_foregroundBlur"/></filter><filter id="filter6_f" x="1064.93" y="342.916" width="15.033" height="15.033" filterUnits="userSpaceOnUse" color-interpolation-filters="sRGB"><feFlood flood-opacity="0" result="BackgroundImageFix"/><feBlend in="SourceGraphic" in2="BackgroundImageFix" result="shape"/><feGaussianBlur stdDeviation="2.5" result="effect1_foregroundBlur"/></filter><filter id="filter7_f" x="1067.93" y="345.916" width="9.033" height="9.033" filterUnits="userSpaceOnUse" color-interpolation-filters="sRGB"><feFlood flood-opacity="0" result="BackgroundImageFix"/><feBlend in="SourceGraphic" in2="BackgroundImageFix" result="shape"/><feGaussianBlur stdDeviation="1" result="effect1_foregroundBlur"/></filter><filter id="filter8_f" x="915.514" y="365.377" width="14.767" height="14.767" filterUnits="userSpaceOnUse" color-interpolation-filters="sRGB"><feFlood flood-opacity="0" result="BackgroundImageFix"/><feBlend in="SourceGraphic" in2="BackgroundImageFix" result="shape"/><feGaussianBlur stdDeviation="2.5" result="effect1_foregroundBlur"/></filter><filter id="filter9_f" x="918.514" y="368.377" width="8.767" height="8.767" filterUnits="userSpaceOnUse" color-interpolation-filters="sRGB"><feFlood flood-opacity="0" result="BackgroundImageFix"/><feBlend in="SourceGraphic" in2="BackgroundImageFix" result="shape"/><feGaussianBlur stdDeviation="1" result="effect1_foregroundBlur"/></filter><filter id="filter10_d" x="684.228" y="313.477" width="12.767" height="12.767" filterUnits="userSpaceOnUse" color-interpolation-filters="sRGB"><feFlood flood-opacity="0" result="BackgroundImageFix"/><feColorMatrix in="SourceAlpha" values="0 0 0 0 0 0 0 0 0 0 0 0 0 0 0 0 0 0 127 0"/><feOffset dy="4"/><feGaussianBlur stdDeviation="2"/><feColorMatrix values="0 0 0 0 0 0 0 0 0 0 0 0 0 0 0 0 0 0 0.25 0"/><feBlend in2="BackgroundImageFix" result="effect1_dropShadow"/><feBlend in="SourceGraphic" in2="effect1_dropShadow" result="shape"/></filter><filter id="filter11_f" x="679.228" y="304.477" width="22.767" height="22.767" filterUnits="userSpaceOnUse" color-interpolation-filters="sRGB"><feFlood flood-opacity="0" result="BackgroundImageFix"/><feBlend in="SourceGraphic" in2="BackgroundImageFix" result="shape"/><feGaussianBlur stdDeviation="4.5" result="effect1_foregroundBlur"/></filter><filter id="filter12_f" x="686.228" y="311.477" width="8.767" height="8.767" filterUnits="userSpaceOnUse" color-interpolation-filters="sRGB"><feFlood flood-opacity="0" result="BackgroundImageFix"/><feBlend in="SourceGraphic" in2="BackgroundImageFix" result="shape"/><feGaussianBlur stdDeviation="1" result="effect1_foregroundBlur"/></filter><radialGradient id="paint1_radial" cx="0" cy="0" r="1" gradientUnits="userSpaceOnUse" gradientTransform="rotate(90 247.171 583.159) scale(5.88969)"><stop stop-color="#AFCCF4"/><stop offset="1" stop-color="#fff" stop-opacity="0"/></radialGradient><radialGradient id="paint2_radial" cx="0" cy="0" r="1" gradientUnits="userSpaceOnUse" gradientTransform="matrix(0 4.62747 -4.81295 0 216.367 183.295)"><stop stop-color="#AFCCF4"/><stop offset="1" stop-color="#fff" stop-opacity="0"/></radialGradient><radialGradient id="paint3_radial" cx="0" cy="0" r="1" gradientUnits="userSpaceOnUse" gradientTransform="rotate(90 198.391 342.981) scale(6.33409)"><stop stop-color="#fff"/><stop offset="1" stop-color="#fff" stop-opacity="0"/></radialGradient><radialGradient id="paint4_radial" cx="0" cy="0" r="1" gradientUnits="userSpaceOnUse" gradientTransform="rotate(90 266.265 517.688) scale(3.35925)"><stop stop-color="#fff"/><stop offset="1" stop-color="#fff" stop-opacity="0"/></radialGradient><radialGradient id="paint5_radial" cx="0" cy="0" r="1" gradientUnits="userSpaceOnUse" gradientTransform="rotate(90 400.931 710.409) scale(4.19001)"><stop stop-color="#fff"/><stop offset="1" stop-color="#fff" stop-opacity="0"/></radialGradient><linearGradient id="paint0_linear" x1="616.687" y1="550.063" x2="616.687" y2="-8.199" gradientUnits="userSpaceOnUse"><stop stop-color="#7F2FCB"/><stop offset=".698" stop-color="#AFCCF4"/></linearGradient></defs></svg>