<svg width="1487" height="772" fill="none" xmlns="http://www.w3.org/2000/svg"><path d="M442.304 535.547l341.461-239.463M442.304 535.547L584.301 37.315l-351.8 263.37L217.49 578.27m224.814-42.723l-61.239 235.394m402.7-474.857l104.7 187.88 175.415-334.79 258.25 162.347-210.9 43.807-39.09 39.732-112.951 99.833 526.641 276.048M783.765 296.084L866.185 1M217.49 578.27l-7.979 147.545L1 224.968l215.521 4.628L373.076 1l370.148 762.014L217.49 578.27z" stroke="#9B51E0"/><path d="M442.304 535.547l341.461-239.463M442.304 535.547L584.301 37.315l-351.8 263.37L217.49 578.27m224.814-42.723l-61.239 235.394m402.7-474.857l104.7 187.88 175.415-334.79 258.25 162.347-210.9 43.807-39.09 39.732-112.951 99.833 526.641 276.048M783.765 296.084L866.185 1M217.49 578.27l-7.979 147.545L1 224.968l215.521 4.628L373.076 1l370.148 762.014L217.49 578.27z" stroke="url(#paint0_linear)"/><g filter="url(#filter0_f)" transform="rotate(-180 830.217 381.501)"><circle cx="830.217" cy="381.501" r="5.89" fill="#C050D8"/><circle cx="830.217" cy="381.501" r="5.89" fill="url(#paint1_radial)"/></g><g filter="url(#filter1_f)" transform="rotate(-180 216.254 228.808)"><ellipse cx="216.254" cy="228.808" rx="4.813" ry="4.627" fill="#AFCCF4"/><ellipse cx="216.254" cy="228.808" rx="4.813" ry="4.627" fill="url(#paint2_radial)"/></g><g filter="url(#filter2_f)" transform="rotate(-180 216.254 228.808)"><ellipse cx="216.254" cy="228.808" rx="4.813" ry="4.627" fill="#AFCCF4"/><ellipse cx="216.254" cy="228.808" rx="4.813" ry="4.627" fill="url(#paint3_radial)"/></g><g filter="url(#filter3_f)" transform="rotate(-180 541.259 190.104)"><circle cx="541.259" cy="190.104" r="6.334" fill="#AFCCF4"/><circle cx="541.259" cy="190.104" r="6.334" fill="url(#paint4_radial)"/></g><g filter="url(#filter4_f)" transform="rotate(-180 783.84 296.937)"><circle cx="783.84" cy="296.937" r="3.359" fill="#03EEEE"/><circle cx="783.84" cy="296.937" r="3.359" fill="url(#paint5_radial)"/></g><g filter="url(#filter5_f)" transform="rotate(-180 1111.23 354.99)"><circle cx="1111.23" cy="354.99" r="4.19" fill="#03EEEE"/><circle cx="1111.23" cy="354.99" r="4.19" fill="url(#paint6_radial)"/></g><g filter="url(#filter6_f)"><circle cx="1063.8" cy="151.457" r="3.359" transform="rotate(-180 1063.8 151.457)" fill="#fff"/></g><g filter="url(#filter7_f)"><circle cx="1072.33" cy="395.946" r="2.517" transform="rotate(-180 1072.33 395.946)" fill="#fff"/></g><g filter="url(#filter8_f)"><circle cx="1072.33" cy="395.946" r="2.517" transform="rotate(-180 1072.33 395.946)" fill="#fff"/></g><g filter="url(#filter9_f)"><circle cx="1321.23" cy="311.126" r="2.517" transform="rotate(-180 1321.23 311.126)" fill="#fff"/></g><g filter="url(#filter10_f)"><circle cx="1321.23" cy="311.126" r="2.517" transform="rotate(-180 1321.23 311.126)" fill="#fff"/></g><g filter="url(#filter11_f)" transform="rotate(-180 922.785 418.274)" fill="#AFCCF4"><circle cx="922.785" cy="418.274" r="2.383"/><circle cx="922.785" cy="418.274" r="2.383"/></g><g filter="url(#filter12_f)" transform="rotate(-180 922.785 418.274)" fill="#AFCCF4"><circle cx="922.785" cy="418.274" r="2.383"/><circle cx="922.785" cy="418.274" r="2.383"/></g><g filter="url(#filter13_d)" transform="rotate(-180 690.498 361.374)" fill="#E0EDFF"><g filter="url(#filter14_f)"><circle cx="690.498" cy="361.374" r="2.383"/><circle cx="690.498" cy="361.374" r="2.383"/></g><g filter="url(#filter15_f)"><circle cx="690.498" cy="361.374" r="2.383"/><circle cx="690.498" cy="361.374" r="2.383"/></g></g><defs><filter id="filter0_f" x="821.327" y="372.611" width="17.779" height="17.779" filterUnits="userSpaceOnUse" color-interpolation-filters="sRGB"><feFlood flood-opacity="0" result="BackgroundImageFix"/><feBlend in="SourceGraphic" in2="BackgroundImageFix" result="shape"/><feGaussianBlur stdDeviation="1.5" result="effect1_foregroundBlur"/></filter><filter id="filter1_f" x="197.441" y="210.181" width="37.626" height="37.255" filterUnits="userSpaceOnUse" color-interpolation-filters="sRGB"><feFlood flood-opacity="0" result="BackgroundImageFix"/><feBlend in="SourceGraphic" in2="BackgroundImageFix" result="shape"/><feGaussianBlur stdDeviation="7" result="effect1_foregroundBlur"/></filter><filter id="filter2_f" x="208.441" y="221.181" width="15.626" height="15.255" filterUnits="userSpaceOnUse" color-interpolation-filters="sRGB"><feFlood flood-opacity="0" result="BackgroundImageFix"/><feBlend in="SourceGraphic" in2="BackgroundImageFix" result="shape"/><feGaussianBlur stdDeviation="1.5" result="effect1_foregroundBlur"/></filter><filter id="filter3_f" x="530.925" y="179.77" width="20.668" height="20.668" filterUnits="userSpaceOnUse" color-interpolation-filters="sRGB"><feFlood flood-opacity="0" result="BackgroundImageFix"/><feBlend in="SourceGraphic" in2="BackgroundImageFix" result="shape"/><feGaussianBlur stdDeviation="2" result="effect1_foregroundBlur"/></filter><filter id="filter4_f" x="778.481" y="291.578" width="10.719" height="10.719" filterUnits="userSpaceOnUse" color-interpolation-filters="sRGB"><feFlood flood-opacity="0" result="BackgroundImageFix"/><feBlend in="SourceGraphic" in2="BackgroundImageFix" result="shape"/><feGaussianBlur stdDeviation="1" result="effect1_foregroundBlur"/></filter><filter id="filter5_f" x="1105.04" y="348.8" width="12.38" height="12.38" filterUnits="userSpaceOnUse" color-interpolation-filters="sRGB"><feFlood flood-opacity="0" result="BackgroundImageFix"/><feBlend in="SourceGraphic" in2="BackgroundImageFix" result="shape"/><feGaussianBlur stdDeviation="1" result="effect1_foregroundBlur"/></filter><filter id="filter6_f" x="1058.44" y="146.097" width="10.719" height="10.719" filterUnits="userSpaceOnUse" color-interpolation-filters="sRGB"><feFlood flood-opacity="0" result="BackgroundImageFix"/><feBlend in="SourceGraphic" in2="BackgroundImageFix" result="shape"/><feGaussianBlur stdDeviation="1" result="effect1_foregroundBlur"/></filter><filter id="filter7_f" x="1064.82" y="388.429" width="15.033" height="15.033" filterUnits="userSpaceOnUse" color-interpolation-filters="sRGB"><feFlood flood-opacity="0" result="BackgroundImageFix"/><feBlend in="SourceGraphic" in2="BackgroundImageFix" result="shape"/><feGaussianBlur stdDeviation="2.5" result="effect1_foregroundBlur"/></filter><filter id="filter8_f" x="1067.82" y="391.429" width="9.033" height="9.033" filterUnits="userSpaceOnUse" color-interpolation-filters="sRGB"><feFlood flood-opacity="0" result="BackgroundImageFix"/><feBlend in="SourceGraphic" in2="BackgroundImageFix" result="shape"/><feGaussianBlur stdDeviation="1" result="effect1_foregroundBlur"/></filter><filter id="filter9_f" x="1313.72" y="303.61" width="15.033" height="15.033" filterUnits="userSpaceOnUse" color-interpolation-filters="sRGB"><feFlood flood-opacity="0" result="BackgroundImageFix"/><feBlend in="SourceGraphic" in2="BackgroundImageFix" result="shape"/><feGaussianBlur stdDeviation="2.5" result="effect1_foregroundBlur"/></filter><filter id="filter10_f" x="1316.72" y="306.61" width="9.033" height="9.033" filterUnits="userSpaceOnUse" color-interpolation-filters="sRGB"><feFlood flood-opacity="0" result="BackgroundImageFix"/><feBlend in="SourceGraphic" in2="BackgroundImageFix" result="shape"/><feGaussianBlur stdDeviation="1" result="effect1_foregroundBlur"/></filter><filter id="filter11_f" x="915.401" y="410.891" width="14.767" height="14.767" filterUnits="userSpaceOnUse" color-interpolation-filters="sRGB"><feFlood flood-opacity="0" result="BackgroundImageFix"/><feBlend in="SourceGraphic" in2="BackgroundImageFix" result="shape"/><feGaussianBlur stdDeviation="2.5" result="effect1_foregroundBlur"/></filter><filter id="filter12_f" x="918.401" y="413.891" width="8.767" height="8.767" filterUnits="userSpaceOnUse" color-interpolation-filters="sRGB"><feFlood flood-opacity="0" result="BackgroundImageFix"/><feBlend in="SourceGraphic" in2="BackgroundImageFix" result="shape"/><feGaussianBlur stdDeviation="1" result="effect1_foregroundBlur"/></filter><filter id="filter13_d" x="684.115" y="358.991" width="12.767" height="12.767" filterUnits="userSpaceOnUse" color-interpolation-filters="sRGB"><feFlood flood-opacity="0" result="BackgroundImageFix"/><feColorMatrix in="SourceAlpha" values="0 0 0 0 0 0 0 0 0 0 0 0 0 0 0 0 0 0 127 0"/><feOffset dy="4"/><feGaussianBlur stdDeviation="2"/><feColorMatrix values="0 0 0 0 0 0 0 0 0 0 0 0 0 0 0 0 0 0 0.25 0"/><feBlend in2="BackgroundImageFix" result="effect1_dropShadow"/><feBlend in="SourceGraphic" in2="effect1_dropShadow" result="shape"/></filter><filter id="filter14_f" x="679.115" y="349.991" width="22.767" height="22.767" filterUnits="userSpaceOnUse" color-interpolation-filters="sRGB"><feFlood flood-opacity="0" result="BackgroundImageFix"/><feBlend in="SourceGraphic" in2="BackgroundImageFix" result="shape"/><feGaussianBlur stdDeviation="4.5" result="effect1_foregroundBlur"/></filter><filter id="filter15_f" x="686.115" y="356.991" width="8.767" height="8.767" filterUnits="userSpaceOnUse" color-interpolation-filters="sRGB"><feFlood flood-opacity="0" result="BackgroundImageFix"/><feBlend in="SourceGraphic" in2="BackgroundImageFix" result="shape"/><feGaussianBlur stdDeviation="1" result="effect1_foregroundBlur"/></filter><radialGradient id="paint1_radial" cx="0" cy="0" r="1" gradientUnits="userSpaceOnUse" gradientTransform="rotate(90 224.358 605.859) scale(5.88969)"><stop stop-color="#AFCCF4"/><stop offset="1" stop-color="#fff" stop-opacity="0"/></radialGradient><radialGradient id="paint2_radial" cx="0" cy="0" r="1" gradientUnits="userSpaceOnUse" gradientTransform="matrix(0 4.62747 -4.81295 0 216.254 228.808)"><stop stop-color="#AFCCF4"/><stop offset="1" stop-color="#fff" stop-opacity="0"/></radialGradient><radialGradient id="paint3_radial" cx="0" cy="0" r="1" gradientUnits="userSpaceOnUse" gradientTransform="matrix(0 4.62747 -4.81295 0 216.254 228.808)"><stop stop-color="#AFCCF4"/><stop offset="1" stop-color="#fff" stop-opacity="0"/></radialGradient><radialGradient id="paint4_radial" cx="0" cy="0" r="1" gradientUnits="userSpaceOnUse" gradientTransform="rotate(90 175.577 365.682) scale(6.33409)"><stop stop-color="#fff"/><stop offset="1" stop-color="#fff" stop-opacity="0"/></radialGradient><radialGradient id="paint5_radial" cx="0" cy="0" r="1" gradientUnits="userSpaceOnUse" gradientTransform="rotate(90 243.451 540.389) scale(3.35925)"><stop stop-color="#fff"/><stop offset="1" stop-color="#fff" stop-opacity="0"/></radialGradient><radialGradient id="paint6_radial" cx="0" cy="0" r="1" gradientUnits="userSpaceOnUse" gradientTransform="rotate(90 378.12 733.11) scale(4.19001)"><stop stop-color="#fff"/><stop offset="1" stop-color="#fff" stop-opacity="0"/></radialGradient><linearGradient id="paint0_linear" x1="616.574" y1="595.576" x2="616.574" y2="37.315" gradientUnits="userSpaceOnUse"><stop stop-color="#7F2FCB"/><stop offset=".698" stop-color="#AFCCF4"/></linearGradient></defs></svg>