<svg width="426" height="71" fill="none" xmlns="http://www.w3.org/2000/svg"><path d="M164.05 15.298h14.437v40.563h-8.085V21.183l-7.755 34.678h-11.165l-7.892-34.733v34.733h-8.113V15.298h14.438l7.04 34.788 7.095-34.788z" fill="#fff"/><path d="M164.05 15.298h14.437v40.563h-8.085V21.183l-7.755 34.678h-11.165l-7.892-34.733v34.733h-8.113V15.298h14.438l7.04 34.788 7.095-34.788z" fill="url(#paint0_linear)"/><path d="M189.404 21.898c-1.32 0-2.475-.348-3.465-1.045-.972-.697-1.457-1.677-1.457-2.942 0-1.284.485-2.274 1.457-2.97.99-.697 2.145-1.045 3.465-1.045 1.32 0 2.475.348 3.465 1.045.99.696 1.485 1.686 1.485 2.97 0 1.283-.495 2.273-1.485 2.97-.99.678-2.145 1.017-3.465 1.017zm-4.207 33.963V26.656h8.442V55.86h-8.442z" fill="#fff"/><path d="M189.404 21.898c-1.32 0-2.475-.348-3.465-1.045-.972-.697-1.457-1.677-1.457-2.942 0-1.284.485-2.274 1.457-2.97.99-.697 2.145-1.045 3.465-1.045 1.32 0 2.475.348 3.465 1.045.99.696 1.485 1.686 1.485 2.97 0 1.283-.495 2.273-1.485 2.97-.99.678-2.145 1.017-3.465 1.017zm-4.207 33.963V26.656h8.442V55.86h-8.442z" fill="url(#paint1_linear)"/><path d="M199.921 55.86V26.657h8.525v4.482a11.576 11.576 0 014.29-3.685c1.742-.898 3.648-1.347 5.72-1.347 3.593 0 6.243 1.054 7.948 3.162 1.723 2.108 2.585 4.877 2.585 8.305v18.288h-8.498V40.02c0-1.21-.156-2.31-.467-3.3-.312-1.009-.88-1.815-1.705-2.42-.807-.605-1.962-.908-3.465-.908-1.98 0-3.548.67-4.703 2.008-1.137 1.32-1.705 3.043-1.705 5.17v15.29h-8.525z" fill="#fff"/><path d="M199.921 55.86V26.657h8.525v4.482a11.576 11.576 0 014.29-3.685c1.742-.898 3.648-1.347 5.72-1.347 3.593 0 6.243 1.054 7.948 3.162 1.723 2.108 2.585 4.877 2.585 8.305v18.288h-8.498V40.02c0-1.21-.156-2.31-.467-3.3-.312-1.009-.88-1.815-1.705-2.42-.807-.605-1.962-.908-3.465-.908-1.98 0-3.548.67-4.703 2.008-1.137 1.32-1.705 3.043-1.705 5.17v15.29h-8.525z" fill="url(#paint2_linear)"/><path d="M247.58 56.52c-2.438 0-4.684-.577-6.737-1.732-2.053-1.173-3.703-2.906-4.95-5.197-1.247-2.292-1.87-5.115-1.87-8.47 0-3.209.632-5.931 1.897-8.168 1.284-2.237 2.952-3.932 5.005-5.087a13.29 13.29 0 016.655-1.76 11.8 11.8 0 014.923 1.045 12.227 12.227 0 014.07 2.86V12.878h8.552v42.983h-8.552v-3.41a12.766 12.766 0 01-4.043 2.97c-1.54.733-3.19 1.1-4.95 1.1zm2.173-7.397a6.885 6.885 0 003.3-.825 6.74 6.74 0 002.53-2.392c.66-1.027.99-2.237.99-3.63v-2.393c0-1.375-.33-2.557-.99-3.547a6.66 6.66 0 00-2.558-2.283 6.932 6.932 0 00-3.272-.825c-1.87 0-3.502.633-4.895 1.898-1.375 1.246-2.063 3.245-2.063 5.995s.688 4.775 2.063 6.077c1.393 1.283 3.025 1.925 4.895 1.925z" fill="#fff"/><path d="M247.58 56.52c-2.438 0-4.684-.577-6.737-1.732-2.053-1.173-3.703-2.906-4.95-5.197-1.247-2.292-1.87-5.115-1.87-8.47 0-3.209.632-5.931 1.897-8.168 1.284-2.237 2.952-3.932 5.005-5.087a13.29 13.29 0 016.655-1.76 11.8 11.8 0 014.923 1.045 12.227 12.227 0 014.07 2.86V12.878h8.552v42.983h-8.552v-3.41a12.766 12.766 0 01-4.043 2.97c-1.54.733-3.19 1.1-4.95 1.1zm2.173-7.397a6.885 6.885 0 003.3-.825 6.74 6.74 0 002.53-2.392c.66-1.027.99-2.237.99-3.63v-2.393c0-1.375-.33-2.557-.99-3.547a6.66 6.66 0 00-2.558-2.283 6.932 6.932 0 00-3.272-.825c-1.87 0-3.502.633-4.895 1.898-1.375 1.246-2.063 3.245-2.063 5.995s.688 4.775 2.063 6.077c1.393 1.283 3.025 1.925 4.895 1.925z" fill="url(#paint3_linear)"/><path d="M280.453 12.878v42.983h-8.415V12.878h8.415z" fill="#fff"/><path d="M280.453 12.878v42.983h-8.415V12.878h8.415z" fill="url(#paint4_linear)"/><path d="M289.675 68.483c-.917 0-1.742-.037-2.475-.11-.715-.073-1.164-.137-1.347-.192v-6.463c.238.11.65.193 1.237.248.605.073 1.247.11 1.925.11 1.357 0 2.503-.395 3.438-1.183.953-.788 1.65-1.842 2.09-3.162l.495-1.485-10.065-29.59h8.882l5.83 22.055 5.638-22.055h8.772l-10.037 30.662c-.752 2.31-1.678 4.3-2.778 5.968a10.66 10.66 0 01-4.4 3.85c-1.833.898-4.235 1.347-7.205 1.347z" fill="#fff"/><path d="M289.675 68.483c-.917 0-1.742-.037-2.475-.11-.715-.073-1.164-.137-1.347-.192v-6.463c.238.11.65.193 1.237.248.605.073 1.247.11 1.925.11 1.357 0 2.503-.395 3.438-1.183.953-.788 1.65-1.842 2.09-3.162l.495-1.485-10.065-29.59h8.882l5.83 22.055 5.638-22.055h8.772l-10.037 30.662c-.752 2.31-1.678 4.3-2.778 5.968a10.66 10.66 0 01-4.4 3.85c-1.833.898-4.235 1.347-7.205 1.347z" fill="url(#paint5_linear)"/><path d="M331.889 55.86V12.879h8.552v17.133a12.499 12.499 0 014.043-2.833 12.053 12.053 0 014.977-1.045c2.347 0 4.547.578 6.6 1.733 2.072 1.155 3.74 2.85 5.005 5.087 1.284 2.237 1.925 4.96 1.925 8.168 0 3.355-.623 6.178-1.87 8.47-1.246 2.273-2.896 3.996-4.95 5.17-2.053 1.155-4.29 1.732-6.71 1.732a11.79 11.79 0 01-4.977-1.072 12.986 12.986 0 01-4.043-2.998v3.438h-8.552zm15.372-22.632a6.935 6.935 0 00-3.272.825 6.66 6.66 0 00-2.558 2.283c-.66.99-.99 2.172-.99 3.547v2.503c0 1.356.33 2.548.99 3.575a6.87 6.87 0 002.53 2.337 6.989 6.989 0 003.3.825c1.87 0 3.493-.642 4.868-1.925 1.393-1.302 2.09-3.327 2.09-6.077s-.688-4.749-2.063-5.995c-1.375-1.265-3.006-1.898-4.895-1.898z" fill="#fff"/><path d="M331.889 55.86V12.879h8.552v17.133a12.499 12.499 0 014.043-2.833 12.053 12.053 0 014.977-1.045c2.347 0 4.547.578 6.6 1.733 2.072 1.155 3.74 2.85 5.005 5.087 1.284 2.237 1.925 4.96 1.925 8.168 0 3.355-.623 6.178-1.87 8.47-1.246 2.273-2.896 3.996-4.95 5.17-2.053 1.155-4.29 1.732-6.71 1.732a11.79 11.79 0 01-4.977-1.072 12.986 12.986 0 01-4.043-2.998v3.438h-8.552zm15.372-22.632a6.935 6.935 0 00-3.272.825 6.66 6.66 0 00-2.558 2.283c-.66.99-.99 2.172-.99 3.547v2.503c0 1.356.33 2.548.99 3.575a6.87 6.87 0 002.53 2.337 6.989 6.989 0 003.3.825c1.87 0 3.493-.642 4.868-1.925 1.393-1.302 2.09-3.327 2.09-6.077s-.688-4.749-2.063-5.995c-1.375-1.265-3.006-1.898-4.895-1.898z" fill="url(#paint6_linear)"/><path d="M382.935 56.493c-3.153 0-5.931-.65-8.333-1.952-2.401-1.302-4.28-3.09-5.637-5.363-1.338-2.292-2.008-4.932-2.008-7.92 0-2.97.67-5.592 2.008-7.865 1.357-2.292 3.236-4.07 5.637-5.335 2.402-1.283 5.18-1.925 8.333-1.925 3.153 0 5.931.642 8.332 1.925 2.402 1.265 4.272 3.043 5.61 5.335 1.357 2.273 2.035 4.895 2.035 7.865 0 2.988-.678 5.628-2.035 7.92-1.338 2.274-3.208 4.06-5.61 5.363-2.401 1.301-5.179 1.952-8.332 1.952zm0-6.765c2.218 0 3.997-.77 5.335-2.31s2.007-3.593 2.007-6.16-.669-4.602-2.007-6.105c-1.338-1.503-3.117-2.255-5.335-2.255s-3.997.752-5.335 2.255-2.008 3.538-2.008 6.105c0 2.567.67 4.62 2.008 6.16s3.117 2.31 5.335 2.31z" fill="#fff"/><path d="M382.935 56.493c-3.153 0-5.931-.65-8.333-1.952-2.401-1.302-4.28-3.09-5.637-5.363-1.338-2.292-2.008-4.932-2.008-7.92 0-2.97.67-5.592 2.008-7.865 1.357-2.292 3.236-4.07 5.637-5.335 2.402-1.283 5.18-1.925 8.333-1.925 3.153 0 5.931.642 8.332 1.925 2.402 1.265 4.272 3.043 5.61 5.335 1.357 2.273 2.035 4.895 2.035 7.865 0 2.988-.678 5.628-2.035 7.92-1.338 2.274-3.208 4.06-5.61 5.363-2.401 1.301-5.179 1.952-8.332 1.952zm0-6.765c2.218 0 3.997-.77 5.335-2.31s2.007-3.593 2.007-6.16-.669-4.602-2.007-6.105c-1.338-1.503-3.117-2.255-5.335-2.255s-3.997.752-5.335 2.255-2.008 3.538-2.008 6.105c0 2.567.67 4.62 2.008 6.16s3.117 2.31 5.335 2.31z" fill="url(#paint7_linear)"/><path d="M418.324 56.466c-1.118 0-2.273-.101-3.465-.303a9.635 9.635 0 01-3.272-1.127c-1.009-.587-1.834-1.44-2.475-2.558-.624-1.118-.935-2.594-.935-4.427V33.256h-6.738v-6.6h1.898c1.485 0 2.566-.101 3.245-.303.696-.202 1.136-.715 1.319-1.54.184-.843.276-2.21.276-4.097V17.03h8.552v9.625h8.498v6.6h-8.498V45.63c0 1.265.147 2.291.44 3.08.312.788 1.073 1.182 2.283 1.182.605 0 1.173-.055 1.704-.165.55-.11.963-.22 1.238-.33v6.408c-.385.165-.926.311-1.622.44-.697.146-1.513.22-2.448.22z" fill="#fff"/><path d="M418.324 56.466c-1.118 0-2.273-.101-3.465-.303a9.635 9.635 0 01-3.272-1.127c-1.009-.587-1.834-1.44-2.475-2.558-.624-1.118-.935-2.594-.935-4.427V33.256h-6.738v-6.6h1.898c1.485 0 2.566-.101 3.245-.303.696-.202 1.136-.715 1.319-1.54.184-.843.276-2.21.276-4.097V17.03h8.552v9.625h8.498v6.6h-8.498V45.63c0 1.265.147 2.291.44 3.08.312.788 1.073 1.182 2.283 1.182.605 0 1.173-.055 1.704-.165.55-.11.963-.22 1.238-.33v6.408c-.385.165-.926.311-1.622.44-.697.146-1.513.22-2.448.22z" fill="url(#paint8_linear)"/><g filter="url(#filter0_f)"><circle cx="189.424" cy="17.324" r="5.839" fill="#03EEEE"/><circle cx="189.424" cy="17.324" r="5.839" fill="url(#paint9_radial)"/></g><g filter="url(#filter1_f)"><circle cx="189.424" cy="17.324" r="5.839" fill="#03EEEE"/><circle cx="189.424" cy="17.324" r="5.839" fill="url(#paint10_radial)"/></g><path fill-rule="evenodd" clip-rule="evenodd" d="M113.656 28.355c4.378 4.975 3.894 12.558-1.082 16.936l-11.321 9.963A12 12 0 0184.16 53.99l-1.224-1.448-3.421 2.483a12 12 0 01-8.9 2.146l-.771 4.065a12 12 0 01-23.65-.41l-.594-3.85a12 12 0 01-9.29-1.548l-4.585-2.93-.86.937c-4.443 4.833-11.945 5.2-16.837.821L4.7 45.91c-4.939-4.419-5.36-12.005-.94-16.944 4.42-4.939 12.006-5.36 16.944-.94l.51.457a12.002 12.002 0 0113.97-2.19l4.12-16.363A12 12 0 0160.857 6.1a12 12 0 0116.884 8.175l2.48 10.957a12.004 12.004 0 0113.852 3.305l.516.611 2.13-1.875c4.976-4.378 12.559-3.894 16.937 1.082z" fill="url(#paint11_linear)"/><path fill-rule="evenodd" clip-rule="evenodd" d="M107.274 33.97a3.5 3.5 0 01-.315 4.94l-11.322 9.963a3.5 3.5 0 01-4.985-.369l-6.32-7.48-9.811 7.122a3.5 3.5 0 01-5.47-2.06L66.34 34.109l-4.846 25.543a3.5 3.5 0 01-6.898-.12l-4.48-29.056-3.952 15.694a3.5 3.5 0 01-5.277 2.095L30.29 41.498l-5.684 6.184a3.5 3.5 0 01-4.911.24l-9.327-8.346a3.5 3.5 0 014.668-5.216l6.753 6.043 5.334-5.803a3.5 3.5 0 014.46-.582l8.977 5.733 6.986-27.745a3.5 3.5 0 016.854.321l4.01 26.015 4.188-22.07a3.5 3.5 0 016.852-.12l5.255 23.21 8.144-5.912a3.5 3.5 0 014.73.573l6.114 7.235 8.641-7.603a3.5 3.5 0 014.939.315z" fill="#fff"/><defs><linearGradient id="paint0_linear" x1="547.066" y1="12.861" x2="507.907" y2="152.135" gradientUnits="userSpaceOnUse"><stop stop-color="#9B51E0"/><stop offset="1" stop-color="#AFCCF4"/></linearGradient><linearGradient id="paint1_linear" x1="547.066" y1="12.861" x2="507.907" y2="152.135" gradientUnits="userSpaceOnUse"><stop stop-color="#9B51E0"/><stop offset="1" stop-color="#AFCCF4"/></linearGradient><linearGradient id="paint2_linear" x1="547.066" y1="12.861" x2="507.907" y2="152.135" gradientUnits="userSpaceOnUse"><stop stop-color="#9B51E0"/><stop offset="1" stop-color="#AFCCF4"/></linearGradient><linearGradient id="paint3_linear" x1="547.066" y1="12.861" x2="507.907" y2="152.135" gradientUnits="userSpaceOnUse"><stop stop-color="#9B51E0"/><stop offset="1" stop-color="#AFCCF4"/></linearGradient><linearGradient id="paint4_linear" x1="547.066" y1="12.861" x2="507.907" y2="152.135" gradientUnits="userSpaceOnUse"><stop stop-color="#9B51E0"/><stop offset="1" stop-color="#AFCCF4"/></linearGradient><linearGradient id="paint5_linear" x1="547.066" y1="12.861" x2="507.907" y2="152.135" gradientUnits="userSpaceOnUse"><stop stop-color="#9B51E0"/><stop offset="1" stop-color="#AFCCF4"/></linearGradient><linearGradient id="paint6_linear" x1="547.066" y1="12.861" x2="507.907" y2="152.135" gradientUnits="userSpaceOnUse"><stop stop-color="#9B51E0"/><stop offset="1" stop-color="#AFCCF4"/></linearGradient><linearGradient id="paint7_linear" x1="547.066" y1="12.861" x2="507.907" y2="152.135" gradientUnits="userSpaceOnUse"><stop stop-color="#9B51E0"/><stop offset="1" stop-color="#AFCCF4"/></linearGradient><linearGradient id="paint8_linear" x1="547.066" y1="12.861" x2="507.907" y2="152.135" gradientUnits="userSpaceOnUse"><stop stop-color="#9B51E0"/><stop offset="1" stop-color="#AFCCF4"/></linearGradient><linearGradient id="paint11_linear" x1="104.647" y1="35.93" x2="17.273" y2="55.911" gradientUnits="userSpaceOnUse"><stop stop-color="#03EEEE"/><stop offset="1" stop-color="#953CE8"/></linearGradient><radialGradient id="paint9_radial" cx="0" cy="0" r="1" gradientUnits="userSpaceOnUse" gradientTransform="rotate(90 86.05 103.374) scale(5.83922)"><stop stop-color="#fff"/><stop offset="1" stop-color="#fff" stop-opacity="0"/></radialGradient><radialGradient id="paint10_radial" cx="0" cy="0" r="1" gradientUnits="userSpaceOnUse" gradientTransform="rotate(90 86.05 103.374) scale(5.83922)"><stop stop-color="#fff"/><stop offset="1" stop-color="#fff" stop-opacity="0"/></radialGradient><filter id="filter0_f" x="176.585" y="4.485" width="25.678" height="25.678" filterUnits="userSpaceOnUse" color-interpolation-filters="sRGB"><feFlood flood-opacity="0" result="BackgroundImageFix"/><feBlend in="SourceGraphic" in2="BackgroundImageFix" result="shape"/><feGaussianBlur stdDeviation="3.5" result="effect1_foregroundBlur"/></filter><filter id="filter1_f" x="181.585" y="9.485" width="15.678" height="15.678" filterUnits="userSpaceOnUse" color-interpolation-filters="sRGB"><feFlood flood-opacity="0" result="BackgroundImageFix"/><feBlend in="SourceGraphic" in2="BackgroundImageFix" result="shape"/><feGaussianBlur stdDeviation="1" result="effect1_foregroundBlur"/></filter></defs></svg>