<svg width="320" height="236" fill="none" xmlns="http://www.w3.org/2000/svg"><path d="M-160.562 47.273C-270.126 6.747-460.346-4.2-570 3.113V235h955V3.114c-33.568 15.847-20.366 23.8-97.885 79.834-77.52 56.034-234 43.361-447.677-35.675z" fill="#9B51E0"/><path d="M-160.562 47.273C-270.126 6.747-460.346-4.2-570 3.113V235h955V3.114c-33.568 15.847-20.366 23.8-97.885 79.834-77.52 56.034-234 43.361-447.677-35.675z" fill="url(#paint0_linear)"/><path d="M-160.562 47.273C-270.126 6.747-460.346-4.2-570 3.113V235h955V3.114c-33.568 15.847-20.366 23.8-97.885 79.834-77.52 56.034-234 43.361-447.677-35.675z" stroke="url(#paint1_linear)" stroke-opacity=".6" stroke-width="2"/><defs><linearGradient id="paint0_linear" x1="-78.048" y1="17.849" x2="-27.972" y2="330.566" gradientUnits="userSpaceOnUse"><stop stop-color="#9B51E0"/><stop offset=".818" stop-color="#AFCCF4"/><stop offset="1" stop-color="#AE44BA"/></linearGradient><linearGradient id="paint1_linear" x1="-594.025" y1="-188.297" x2="203.208" y2="97.029" gradientUnits="userSpaceOnUse"><stop stop-color="#fff" stop-opacity=".94"/><stop offset=".335" stop-color="#fff" stop-opacity="0"/><stop offset=".598" stop-color="#fff" stop-opacity="0"/><stop offset=".753" stop-color="#fff" stop-opacity=".83"/><stop offset="1" stop-color="#fff" stop-opacity="0"/></linearGradient></defs></svg>