<svg width="320" height="686" fill="none" xmlns="http://www.w3.org/2000/svg"><g clip-path="url(#clip0)"><g opacity=".5"><g opacity=".3"><path opacity=".3" d="M176.012 347.191l47.518-73.392 68.263 7.695-115.781 65.697zm0 0L62.334 376.475l113.678-29.284zm0 0L39.017 439.889l136.995-92.698zm1.116 114.747l100.483-134.826 79.529 13.712-60.742 73.705-136.982 143.617L39.017 439.889l138.111 22.049zM37.598 237.101l24.736 139.374-24.735-139.374zm24.736 139.374l-23.317 63.414 23.317-63.414zm-23.317 63.414L-194.2 210.818l-93.421 153.571-139.784 4.545 149.156 215.111 1.692-174.78 220.465-182.313-74.552 327.74L39.017 439.889z" stroke="#9B51E0"/><path opacity=".3" d="M176.012 347.191l47.518-73.392 68.263 7.695-115.781 65.697zm0 0L62.334 376.475l113.678-29.284zm0 0L39.017 439.889l136.995-92.698zm1.116 114.747l100.483-134.826 79.529 13.712-60.742 73.705-136.982 143.617L39.017 439.889l138.111 22.049zM37.598 237.101l24.736 139.374-24.735-139.374zm24.736 139.374l-23.317 63.414 23.317-63.414zm-23.317 63.414L-194.2 210.818l-93.421 153.571-139.784 4.545 149.156 215.111 1.692-174.78 220.465-182.313-74.552 327.74L39.017 439.889z" stroke="url(#paint0_linear)"/><path opacity=".3" d="M-237.632 562.137l168.763-104.153 79.064 21.384 105.478-38.703 60.999 21.268 78.245-51.31 42.035 101.47-385.823 81.158-212.66-136.65-25.865 89.222" stroke="#9B51E0"/></g><g opacity=".5" filter="url(#filter0_f)"><path opacity=".5" d="M37.768 240.345a3.131 3.131 0 100-6.263 3.131 3.131 0 000 6.263z" fill="#AFCCF4"/></g><g opacity=".5" filter="url(#filter1_f)"><path opacity=".5" d="M37.768 240.345a3.131 3.131 0 100-6.263 3.131 3.131 0 000 6.263z" fill="#93BEFA"/></g><g opacity=".5" filter="url(#filter2_f)"><path opacity=".5" d="M37.768 240.345a3.131 3.131 0 100-6.263 3.131 3.131 0 000 6.263z" fill="#93BEFA"/></g><g opacity=".5" filter="url(#filter3_f)"><path opacity=".5" d="M37.768 240.345a3.131 3.131 0 100-6.263 3.131 3.131 0 000 6.263z" fill="#93BEFA"/></g><g opacity=".5" filter="url(#filter4_f)"><path opacity=".5" d="M255.872 405.178a4.7 4.7 0 10.506 9.386 4.7 4.7 0 00-.506-9.386z" fill="url(#paint1_radial)"/></g><g opacity=".5" filter="url(#filter5_f)"><path opacity=".5" d="M296.608 508.12a3.85 3.85 0 10.415 7.689 3.85 3.85 0 00-.415-7.689z" fill="#AFCCF4"/><path opacity=".5" d="M296.608 508.12a3.85 3.85 0 10.415 7.689 3.85 3.85 0 00-.415-7.689z" fill="url(#paint2_radial)"/></g><g opacity=".5" filter="url(#filter6_f)"><path opacity=".5" d="M114.762 432.086a9.248 9.248 0 10.999 18.469 9.248 9.248 0 00-.999-18.469z" fill="#C050D8"/><path opacity=".5" d="M114.762 432.086a9.248 9.248 0 10.999 18.469 9.248 9.248 0 00-.999-18.469z" fill="url(#paint3_radial)"/></g><g opacity=".5" filter="url(#filter7_f)"><path opacity=".5" d="M114.762 432.086a9.248 9.248 0 10.999 18.469 9.248 9.248 0 00-.999-18.469z" fill="#C050D8"/><path opacity=".5" d="M114.762 432.086a9.248 9.248 0 10.999 18.469 9.248 9.248 0 00-.999-18.469z" fill="url(#paint4_radial)"/></g><g opacity=".5" filter="url(#filter8_f)"><path opacity=".5" d="M296.236 411.595a2.718 2.718 0 10.294 5.428 2.718 2.718 0 00-.294-5.428z" fill="#03EEEE"/><path opacity=".5" d="M296.236 411.595a2.718 2.718 0 10.294 5.428 2.718 2.718 0 00-.294-5.428z" fill="url(#paint5_radial)"/></g><g opacity=".5" filter="url(#filter9_f)"><path opacity=".5" d="M10.382 475.803a3.492 3.492 0 10.376 6.973 3.492 3.492 0 00-.376-6.973z" fill="#CAE0FD"/></g><g opacity=".5" filter="url(#filter10_f)"><path opacity=".5" d="M10.382 475.803a3.492 3.492 0 10.376 6.973 3.492 3.492 0 00-.376-6.973z" fill="#CAE0FD"/></g><g opacity=".5" filter="url(#filter11_f)"><path opacity=".5" d="M223.016 271.491a2.18 2.18 0 10.236 4.352 2.18 2.18 0 00-.236-4.352z" fill="#fff"/></g><g opacity=".5" filter="url(#filter12_f)"><path opacity=".5" d="M175.763 345.095a2.18 2.18 0 10.236 4.352 2.18 2.18 0 00-.236-4.352z" fill="#fff"/></g><g opacity=".5" filter="url(#filter13_f)"><path opacity=".5" d="M268.314 442.783a1.631 1.631 0 10.176 3.26 1.632 1.632 0 10-.176-3.26z" fill="#fff"/></g><g opacity=".5" filter="url(#filter14_f)"><path opacity=".5" d="M268.314 442.783a1.631 1.631 0 10.176 3.26 1.632 1.632 0 10-.176-3.26z" fill="#fff"/></g><g opacity=".5" filter="url(#filter15_f)" fill="#AFCCF4"><path opacity=".5" d="M176.435 460.359a1.546 1.546 0 10.167 3.088 1.546 1.546 0 00-.167-3.088z"/><path opacity=".5" d="M176.435 460.359a1.546 1.546 0 10.167 3.088 1.546 1.546 0 00-.167-3.088z"/></g></g><g opacity=".5"><g opacity=".4"><path opacity=".4" d="M540.504 547.404l-32.294 92.427L63.272 764.917l-188.798-189.104 43.93 99.552L5.25 607.031l62.987 25.851 113.206-34.734 81.991 27 183.529-100.016-149.371-12.757-1.016-98.024" stroke="#9B51E0"/><path opacity=".4" d="M28.872 701.511l56.193 39.113m151.787 126.937l242.384-179.333 11.718-183.844 144.742 234.865-147.367-3.165-107.048 156.308-245.78-374.039 41.462-56.994 59.889 406.202zm0 0l97.093-340.677L28.872 701.511l207.98 166.05zm0 0l29.758 58.395 29.897-84.255-59.655 25.86zm-207.98-166.05V562.155L-91.07 791.075l-29.156-50.451-3.22-90.512 59.047-61.294 53.545-103.397 39.727 216.09z" stroke="#9B51E0"/><path opacity=".4" d="M28.872 701.511l56.193 39.113m151.787 126.937l242.384-179.333 11.718-183.844 144.742 234.865-147.367-3.165-107.048 156.308-245.78-374.039 41.462-56.994 59.889 406.202zm0 0l97.093-340.677L28.872 701.511l207.98 166.05zm0 0l29.758 58.395 29.897-84.255-59.655 25.86zm-207.98-166.05V562.155L-91.07 791.075l-29.156-50.451-3.22-90.512 59.047-61.294 53.545-103.397 39.727 216.09z" stroke="url(#paint6_linear)"/></g><g opacity=".5" filter="url(#filter16_f)"><path opacity=".5" d="M313.782 601.81a4.027 4.027 0 100-8.054 4.027 4.027 0 000 8.054z" fill="#C050D8"/><path opacity=".5" d="M313.782 601.81a4.027 4.027 0 100-8.054 4.027 4.027 0 000 8.054z" fill="url(#paint7_radial)"/></g><g opacity=".5" filter="url(#filter17_f)"><path opacity=".5" d="M313.782 601.81a4.027 4.027 0 100-8.054 4.027 4.027 0 000 8.054z" fill="#C050D8"/><path opacity=".5" d="M313.782 601.81a4.027 4.027 0 100-8.054 4.027 4.027 0 000 8.054z" fill="url(#paint8_radial)"/></g><g opacity=".5" filter="url(#filter18_f)"><path opacity=".5" d="M51.685 523.184a3.583 3.583 0 100-7.166 3.583 3.583 0 000 7.166z" fill="#fff"/><path opacity=".5" d="M51.685 523.184a3.583 3.583 0 100-7.166 3.583 3.583 0 000 7.166z" fill="url(#paint9_radial)"/></g><g opacity=".5" filter="url(#filter19_f)"><path opacity=".5" d="M51.685 523.184a3.583 3.583 0 100-7.166 3.583 3.583 0 000 7.166z" fill="#fff"/><path opacity=".5" d="M51.685 523.184a3.583 3.583 0 100-7.166 3.583 3.583 0 000 7.166z" fill="url(#paint10_radial)"/></g><g opacity=".5" filter="url(#filter20_f)"><path opacity=".5" d="M263.596 627.549a2.54 2.54 0 100-5.08 2.54 2.54 0 000 5.08z" fill="#AFCCF4"/></g><g opacity=".5" filter="url(#filter21_f)"><path opacity=".5" d="M263.596 627.549a2.54 2.54 0 100-5.08 2.54 2.54 0 000 5.08z" fill="#93BEFA"/></g><g opacity=".5" filter="url(#filter22_f)"><path opacity=".5" d="M181.037 601.889a3.68 3.68 0 100-7.36 3.68 3.68 0 000 7.36z" fill="#CAE0FD"/></g><g opacity=".5" filter="url(#filter23_f)"><path opacity=".5" d="M181.037 601.889a3.68 3.68 0 100-7.36 3.68 3.68 0 000 7.36z" fill="#CAE0FD"/></g><g opacity=".5" filter="url(#filter24_f)" fill="#AFCCF4"><path opacity=".5" d="M5.406 608.701a1.63 1.63 0 100-3.26 1.63 1.63 0 000 3.26z"/><path opacity=".5" d="M5.406 608.701a1.63 1.63 0 100-3.26 1.63 1.63 0 000 3.26z"/></g><g opacity=".5" filter="url(#filter25_f)" fill="#AFCCF4"><path opacity=".5" d="M5.406 608.701a1.63 1.63 0 100-3.26 1.63 1.63 0 000 3.26z"/><path opacity=".5" d="M5.406 608.701a1.63 1.63 0 100-3.26 1.63 1.63 0 000 3.26z"/></g><g opacity=".5" filter="url(#filter26_d)" fill="#E0EDFF"><g opacity=".5" filter="url(#filter27_f)"><path opacity=".5" d="M164.236 647.608a1.63 1.63 0 100-3.26 1.63 1.63 0 000 3.26z"/><path opacity=".5" d="M164.236 647.608a1.63 1.63 0 100-3.26 1.63 1.63 0 000 3.26z"/></g><g opacity=".5" filter="url(#filter28_f)"><path opacity=".5" d="M164.236 647.608a1.63 1.63 0 100-3.26 1.63 1.63 0 000 3.26z"/><path opacity=".5" d="M164.236 647.608a1.63 1.63 0 100-3.26 1.63 1.63 0 000 3.26z"/></g></g></g><g opacity=".3"><g opacity=".4"><path opacity=".4" d="M3.119 758.491l122.821-66.932 54.87 18.069 75.759-23.245 49.789 31.869 50.482-60.3h-17.154L156.644 794.96-106.81 681.749l-14.813 60.309" stroke="#9B51E0"/><path opacity=".4" d="M235.003 647.743l86.846-128.912m-86.846 128.912l-83.999 68.129L51.54 519.329l6.404 231.349-114.549-70.636-66.58-64.841 107.554 66.465-20.89-207.925 386.983 131.052-115.459 42.95zm0 0l47.91 85.972 80.268-153.197 19.511 33.762 2.155 60.573-39.515 41.019-30.057 22.844-80.272-90.973z" stroke="#9B51E0"/><path opacity=".4" d="M235.003 647.743l86.846-128.912m-86.846 128.912l-83.999 68.129L51.54 519.329l6.404 231.349-114.549-70.636-66.58-64.841 107.554 66.465-20.89-207.925 386.983 131.052-115.459 42.95zm0 0l47.91 85.972 80.268-153.197 19.511 33.762 2.155 60.573-39.515 41.019-30.057 22.844-80.272-90.973z" stroke="url(#paint11_linear)"/></g><g opacity=".3" filter="url(#filter29_f)"><path opacity=".3" d="M256.258 684.134a2.694 2.694 0 10-.002 5.388 2.694 2.694 0 00.002-5.388z" fill="#C050D8"/><path opacity=".3" d="M256.258 684.134a2.694 2.694 0 10-.002 5.388 2.694 2.694 0 00.002-5.388z" fill="url(#paint12_radial)"/></g><g opacity=".3" filter="url(#filter30_f)"><path opacity=".3" d="M256.258 684.134a2.694 2.694 0 10-.002 5.388 2.694 2.694 0 00.002-5.388z" fill="#C050D8"/><path opacity=".3" d="M256.258 684.134a2.694 2.694 0 10-.002 5.388 2.694 2.694 0 00.002-5.388z" fill="url(#paint13_radial)"/></g><g opacity=".3" filter="url(#filter32_f)"><path opacity=".3" d="M160 552.153a3.943 3.943 0 100 7.885 3.943 3.943 0 000-7.885z" fill="#AFCCF4"/><path opacity=".3" d="M160 552.153a3.943 3.943 0 100 7.885 3.943 3.943 0 000-7.885z" fill="url(#paint14_radial)"/></g><g opacity=".3" filter="url(#filter33_f)"><path opacity=".3" d="M160 552.153a3.943 3.943 0 100 7.885 3.943 3.943 0 000-7.885z" fill="#AFCCF4"/><path opacity=".3" d="M160 552.153a3.943 3.943 0 100 7.885 3.943 3.943 0 000-7.885z" fill="url(#paint15_radial)"/></g><g opacity=".3" filter="url(#filter34_f)"><path opacity=".3" d="M235.036 646.596a1.537 1.537 0 100 3.074 1.537 1.537 0 000-3.074z" fill="#03EEEE"/><path opacity=".3" d="M235.036 646.596a1.537 1.537 0 100 3.074 1.537 1.537 0 000-3.074z" fill="url(#paint16_radial)"/></g><g opacity=".3" filter="url(#filter35_d)" fill="#E0EDFF"><g opacity=".3" filter="url(#filter36_f)"><path opacity=".3" d="M192.325 675.366a2.254 2.254 0 100 4.508 2.254 2.254 0 000-4.508z"/><path opacity=".3" d="M192.325 675.366a2.254 2.254 0 100 4.508 2.254 2.254 0 000-4.508z"/></g><g opacity=".3" filter="url(#filter37_f)"><path opacity=".3" d="M192.325 675.366a2.254 2.254 0 100 4.508 2.254 2.254 0 000-4.508z"/><path opacity=".3" d="M192.325 675.366a2.254 2.254 0 100 4.508 2.254 2.254 0 000-4.508z"/></g></g></g><g opacity=".5"><g opacity=".4"><path opacity=".4" d="M514.093-11.802L287.779 111.531 186.673 78.236 47.075 121.068l-77.67-31.877-107.093 84.264-45.485-157.793L323.219-62.61l266.4 192.247 39.822-113.975" stroke="#9B51E0"/><path opacity=".4" d="M-1.466 205.696V33.852L-149.372 316.14l-35.952-62.212-3.971-111.613 72.812-75.584L27.864-60.257m227.135 470.714l298.891-221.14 14.449-226.704 178.486 289.619-181.723-3.903-132.003 192.748L27.864-19.093l227.135 429.55zm0 0L374.727-9.642-1.466 205.696l256.465 204.761zm0 0L-1.466 205.696l256.465 204.761z" stroke="#9B51E0"/><path opacity=".4" d="M-1.466 205.696V33.852L-149.372 316.14l-35.952-62.212-3.971-111.613 72.812-75.584L27.864-60.257m227.135 470.714l298.891-221.14 14.449-226.704 178.486 289.619-181.723-3.903-132.003 192.748L27.864-19.093l227.135 429.55zm0 0L374.727-9.642-1.466 205.696l256.465 204.761zm0 0L-1.466 205.696l256.465 204.761z" stroke="url(#paint17_linear)"/></g><g opacity=".5" filter="url(#filter38_f)"><path opacity=".5" d="M20.558 346.366a8.616 8.616 0 100-17.233 8.616 8.616 0 000 17.233z" fill="#C050D8"/><path opacity=".5" d="M20.558 346.366a8.616 8.616 0 100-17.233 8.616 8.616 0 000 17.233z" fill="url(#paint18_radial)"/></g><g opacity=".5" filter="url(#filter39_f)"><path opacity=".5" d="M20.558 346.366a8.616 8.616 0 100-17.233 8.616 8.616 0 000 17.233z" fill="#C050D8"/><path opacity=".5" d="M20.558 346.366a8.616 8.616 0 100-17.233 8.616 8.616 0 000 17.233z" fill="url(#paint19_radial)"/></g><g opacity=".5" filter="url(#filter40_f)"><path opacity=".5" d="M287.978 114.492a3.132 3.132 0 100-6.263 3.132 3.132 0 000 6.263z" fill="#AFCCF4"/></g><g opacity=".5" filter="url(#filter41_f)"><path opacity=".5" d="M287.978 114.492a3.132 3.132 0 100-6.263 3.132 3.132 0 000 6.263z" fill="#93BEFA"/></g><g opacity=".6" filter="url(#filter42_f)"><g opacity=".6" filter="url(#filter43_f)"><path opacity=".6" d="M37.768 240.346a3.132 3.132 0 100-6.264 3.132 3.132 0 000 6.264z" fill="#AFCCF4"/></g><g opacity=".6" filter="url(#filter44_f)"><path opacity=".6" d="M37.768 240.346a3.132 3.132 0 100-6.264 3.132 3.132 0 000 6.264z" fill="#93BEFA"/></g></g><g opacity=".5" filter="url(#filter45_f)"><path opacity=".5" d="M291.288 286.97a5.341 5.341 0 100-10.683 5.341 5.341 0 000 10.683z" fill="#AFCCF4"/><path opacity=".5" d="M291.288 286.97a5.341 5.341 0 100-10.683 5.341 5.341 0 000 10.683z" fill="url(#paint20_radial)"/></g><g opacity=".5" filter="url(#filter46_f)"><path opacity=".5" d="M61.87 381.887a5.045 5.045 0 10-.001-10.09 5.045 5.045 0 000 10.09z" fill="#AFCCF4"/><path opacity=".5" d="M61.87 381.887a5.045 5.045 0 10-.001-10.09 5.045 5.045 0 000 10.09z" fill="url(#paint21_radial)"/></g><g opacity=".5" filter="url(#filter47_f)"><path opacity=".5" d="M186.173 82.85a4.539 4.539 0 100-9.078 4.539 4.539 0 000 9.078z" fill="#CAE0FD"/></g><g opacity=".5" filter="url(#filter48_f)"><path opacity=".5" d="M186.173 82.85a4.539 4.539 0 100-9.078 4.539 4.539 0 000 9.078z" fill="#CAE0FD"/></g><g opacity=".5" filter="url(#filter49_d)" fill="#E0EDFF"><g opacity=".5" filter="url(#filter50_f)"><path opacity=".5" d="M165.454 139.227a2.01 2.01 0 100-4.02 2.01 2.01 0 000 4.02z"/><path opacity=".5" d="M165.454 139.227a2.01 2.01 0 100-4.02 2.01 2.01 0 000 4.02z"/></g><g opacity=".5" filter="url(#filter51_f)"><path opacity=".5" d="M165.454 139.227a2.01 2.01 0 100-4.02 2.01 2.01 0 000 4.02z"/><path opacity=".5" d="M165.454 139.227a2.01 2.01 0 100-4.02 2.01 2.01 0 000 4.02z"/></g></g></g><g opacity=".6" filter="url(#filter52_f)"><g opacity=".6" filter="url(#filter53_f)"><path opacity=".6" d="M19.132 439.263a3.132 3.132 0 100-6.263 3.132 3.132 0 000 6.263z" fill="#AFCCF4"/></g><g opacity=".6" filter="url(#filter54_f)"><path opacity=".6" d="M19.132 439.263a3.132 3.132 0 100-6.263 3.132 3.132 0 000 6.263z" fill="#93BEFA"/></g></g><g opacity=".6" filter="url(#filter55_f)"><g opacity=".6" filter="url(#filter56_f)"><path opacity=".6" d="M19.132 439.263a3.132 3.132 0 100-6.263 3.132 3.132 0 000 6.263z" fill="#AFCCF4"/></g><g opacity=".6" filter="url(#filter57_f)"><path opacity=".6" d="M19.132 439.263a3.132 3.132 0 100-6.263 3.132 3.132 0 000 6.263z" fill="#93BEFA"/></g></g><g opacity=".3"><g opacity=".4"><path opacity=".4" d="M-33.223 275.96l151.454-82.536 67.662 22.282 93.421-28.664 61.396 39.298 62.251-74.357h-21.153" stroke="#9B51E0"/><path opacity=".4" d="M229.888 390.593L20.981-27.114l-88.34 128.99-121.612-2.611 119.446 193.817 11.183-151.093L140.168-6.622 115.804 80.57m136.915 58.822l59.08 106.015L410.78 56.496l24.06 41.633 2.657 74.694-48.727 50.582-37.064 28.17-98.987-112.182zm0 0l46.507-166.507-46.507 166.507zm0 0l-52.968 36.623 52.968-36.623z" stroke="#9B51E0"/><path opacity=".4" d="M229.888 390.593L20.981-27.114l-88.34 128.99-121.612-2.611 119.446 193.817 11.183-151.093L140.168-6.622 115.804 80.57m136.915 58.822l59.08 106.015L410.78 56.496l24.06 41.633 2.657 74.694-48.727 50.582-37.064 28.17-98.987-112.182zm0 0l46.507-166.507-46.507 166.507zm0 0l-52.968 36.623 52.968-36.623z" stroke="url(#paint22_linear)"/></g><g opacity=".3" filter="url(#filter58_f)"><path opacity=".3" d="M278.931 184.268a3.323 3.323 0 100 6.645 3.323 3.323 0 000-6.645z" fill="#C050D8"/><path opacity=".3" d="M278.931 184.268a3.323 3.323 0 100 6.645 3.323 3.323 0 000-6.645z" fill="url(#paint23_radial)"/></g><g opacity=".3" filter="url(#filter59_f)"><path opacity=".3" d="M278.931 184.268a3.323 3.323 0 100 6.645 3.323 3.323 0 000-6.645z" fill="#C050D8"/><path opacity=".3" d="M278.931 184.268a3.323 3.323 0 100 6.645 3.323 3.323 0 000-6.645z" fill="url(#paint24_radial)"/></g><g opacity=".3" filter="url(#filter60_f)"><path opacity=".3" d="M118.099 191.442a2.096 2.096 0 100 4.192 2.096 2.096 0 000-4.192z" fill="#AFCCF4"/></g><g opacity=".3" filter="url(#filter61_f)"><path opacity=".3" d="M118.099 191.442a2.096 2.096 0 100 4.192 2.096 2.096 0 000-4.192z" fill="#93BEFA"/></g><g opacity=".3" filter="url(#filter62_f)"><path opacity=".3" d="M115.88 76.017a3.574 3.574 0 100 7.148 3.574 3.574 0 000-7.148z" fill="#AFCCF4"/><path opacity=".3" d="M115.88 76.017a3.574 3.574 0 100 7.148 3.574 3.574 0 000-7.148z" fill="url(#paint25_radial)"/></g><g opacity=".3" filter="url(#filter63_f)"><path opacity=".3" d="M252.761 137.979a1.896 1.896 0 100 3.792 1.896 1.896 0 000-3.792z" fill="#03EEEE"/><path opacity=".3" d="M252.761 137.979a1.896 1.896 0 100 3.792 1.896 1.896 0 000-3.792z" fill="url(#paint26_radial)"/></g><g opacity=".3" filter="url(#filter64_f)"><path opacity=".3" d="M186.226 212.618a3.037 3.037 0 100 6.075 3.037 3.037 0 000-6.075z" fill="#CAE0FD"/></g><g opacity=".3" filter="url(#filter65_f)"><path opacity=".3" d="M186.226 212.618a3.037 3.037 0 100 6.075 3.037 3.037 0 000-6.075z" fill="#CAE0FD"/></g><g opacity=".3" filter="url(#filter66_d)" fill="#E0EDFF"><g opacity=".3" filter="url(#filter67_f)"><path opacity=".3" d="M200.093 173.456a2.78 2.78 0 100 5.56 2.78 2.78 0 000-5.56z"/><path opacity=".3" d="M200.093 173.456a2.78 2.78 0 100 5.56 2.78 2.78 0 000-5.56z"/></g><g opacity=".3" filter="url(#filter68_f)"><path opacity=".3" d="M200.093 173.456a2.78 2.78 0 100 5.56 2.78 2.78 0 000-5.56z"/><path opacity=".3" d="M200.093 173.456a2.78 2.78 0 100 5.56 2.78 2.78 0 000-5.56z"/></g></g></g></g><defs><filter id="filter0_f" x="26.636" y="226.082" width="22.264" height="22.264" filterUnits="userSpaceOnUse" color-interpolation-filters="sRGB"><feFlood flood-opacity="0" result="BackgroundImageFix"/><feBlend in="SourceGraphic" in2="BackgroundImageFix" result="shape"/><feGaussianBlur stdDeviation="4" result="effect1_foregroundBlur"/></filter><filter id="filter1_f" x="32.636" y="232.082" width="10.264" height="10.264" filterUnits="userSpaceOnUse" color-interpolation-filters="sRGB"><feFlood flood-opacity="0" result="BackgroundImageFix"/><feBlend in="SourceGraphic" in2="BackgroundImageFix" result="shape"/><feGaussianBlur stdDeviation="1" result="effect1_foregroundBlur"/></filter><filter id="filter2_f" x="32.636" y="232.082" width="10.264" height="10.264" filterUnits="userSpaceOnUse" color-interpolation-filters="sRGB"><feFlood flood-opacity="0" result="BackgroundImageFix"/><feBlend in="SourceGraphic" in2="BackgroundImageFix" result="shape"/><feGaussianBlur stdDeviation="1" result="effect1_foregroundBlur"/></filter><filter id="filter3_f" x="33.636" y="233.082" width="8.263" height="8.263" filterUnits="userSpaceOnUse" color-interpolation-filters="sRGB"><feFlood flood-opacity="0" result="BackgroundImageFix"/><feBlend in="SourceGraphic" in2="BackgroundImageFix" result="shape"/><feGaussianBlur stdDeviation=".5" result="effect1_foregroundBlur"/></filter><filter id="filter4_f" x="245.425" y="399.171" width="21.4" height="21.4" filterUnits="userSpaceOnUse" color-interpolation-filters="sRGB"><feFlood flood-opacity="0" result="BackgroundImageFix"/><feBlend in="SourceGraphic" in2="BackgroundImageFix" result="shape"/><feGaussianBlur stdDeviation="3" result="effect1_foregroundBlur"/></filter><filter id="filter5_f" x="288.965" y="504.114" width="15.702" height="15.702" filterUnits="userSpaceOnUse" color-interpolation-filters="sRGB"><feFlood flood-opacity="0" result="BackgroundImageFix"/><feBlend in="SourceGraphic" in2="BackgroundImageFix" result="shape"/><feGaussianBlur stdDeviation="2" result="effect1_foregroundBlur"/></filter><filter id="filter6_f" x="78.013" y="404.072" width="74.495" height="74.495" filterUnits="userSpaceOnUse" color-interpolation-filters="sRGB"><feFlood flood-opacity="0" result="BackgroundImageFix"/><feBlend in="SourceGraphic" in2="BackgroundImageFix" result="shape"/><feGaussianBlur stdDeviation="14" result="effect1_foregroundBlur"/></filter><filter id="filter7_f" x="97.013" y="423.072" width="36.495" height="36.495" filterUnits="userSpaceOnUse" color-interpolation-filters="sRGB"><feFlood flood-opacity="0" result="BackgroundImageFix"/><feBlend in="SourceGraphic" in2="BackgroundImageFix" result="shape"/><feGaussianBlur stdDeviation="4.5" result="effect1_foregroundBlur"/></filter><filter id="filter8_f" x="291.665" y="409.592" width="9.437" height="9.437" filterUnits="userSpaceOnUse" color-interpolation-filters="sRGB"><feFlood flood-opacity="0" result="BackgroundImageFix"/><feBlend in="SourceGraphic" in2="BackgroundImageFix" result="shape"/><feGaussianBlur stdDeviation="1" result="effect1_foregroundBlur"/></filter><filter id="filter9_f" x=".078" y="468.798" width="20.985" height="20.985" filterUnits="userSpaceOnUse" color-interpolation-filters="sRGB"><feFlood flood-opacity="0" result="BackgroundImageFix"/><feBlend in="SourceGraphic" in2="BackgroundImageFix" result="shape"/><feGaussianBlur stdDeviation="3.5" result="effect1_foregroundBlur"/></filter><filter id="filter10_f" x="5.078" y="473.798" width="10.985" height="10.985" filterUnits="userSpaceOnUse" color-interpolation-filters="sRGB"><feFlood flood-opacity="0" result="BackgroundImageFix"/><feBlend in="SourceGraphic" in2="BackgroundImageFix" result="shape"/><feGaussianBlur stdDeviation="1" result="effect1_foregroundBlur"/></filter><filter id="filter11_f" x="218.955" y="269.488" width="8.359" height="8.359" filterUnits="userSpaceOnUse" color-interpolation-filters="sRGB"><feFlood flood-opacity="0" result="BackgroundImageFix"/><feBlend in="SourceGraphic" in2="BackgroundImageFix" result="shape"/><feGaussianBlur stdDeviation="1" result="effect1_foregroundBlur"/></filter><filter id="filter12_f" x="171.702" y="343.092" width="8.359" height="8.359" filterUnits="userSpaceOnUse" color-interpolation-filters="sRGB"><feFlood flood-opacity="0" result="BackgroundImageFix"/><feBlend in="SourceGraphic" in2="BackgroundImageFix" result="shape"/><feGaussianBlur stdDeviation="1" result="effect1_foregroundBlur"/></filter><filter id="filter13_f" x="261.769" y="437.78" width="13.266" height="13.265" filterUnits="userSpaceOnUse" color-interpolation-filters="sRGB"><feFlood flood-opacity="0" result="BackgroundImageFix"/><feBlend in="SourceGraphic" in2="BackgroundImageFix" result="shape"/><feGaussianBlur stdDeviation="2.5" result="effect1_foregroundBlur"/></filter><filter id="filter14_f" x="264.769" y="440.78" width="7.266" height="7.266" filterUnits="userSpaceOnUse" color-interpolation-filters="sRGB"><feFlood flood-opacity="0" result="BackgroundImageFix"/><feBlend in="SourceGraphic" in2="BackgroundImageFix" result="shape"/><feGaussianBlur stdDeviation="1" result="effect1_foregroundBlur"/></filter><filter id="filter15_f" x="169.972" y="455.356" width="13.093" height="13.093" filterUnits="userSpaceOnUse" color-interpolation-filters="sRGB"><feFlood flood-opacity="0" result="BackgroundImageFix"/><feBlend in="SourceGraphic" in2="BackgroundImageFix" result="shape"/><feGaussianBlur stdDeviation="2.5" result="effect1_foregroundBlur"/></filter><filter id="filter16_f" x="295.755" y="579.756" width="36.054" height="36.054" filterUnits="userSpaceOnUse" color-interpolation-filters="sRGB"><feFlood flood-opacity="0" result="BackgroundImageFix"/><feBlend in="SourceGraphic" in2="BackgroundImageFix" result="shape"/><feGaussianBlur stdDeviation="7" result="effect1_foregroundBlur"/></filter><filter id="filter17_f" x="306.755" y="590.756" width="14.054" height="14.054" filterUnits="userSpaceOnUse" color-interpolation-filters="sRGB"><feFlood flood-opacity="0" result="BackgroundImageFix"/><feBlend in="SourceGraphic" in2="BackgroundImageFix" result="shape"/><feGaussianBlur stdDeviation="1.5" result="effect1_foregroundBlur"/></filter><filter id="filter18_f" x="34.102" y="502.018" width="35.166" height="35.166" filterUnits="userSpaceOnUse" color-interpolation-filters="sRGB"><feFlood flood-opacity="0" result="BackgroundImageFix"/><feBlend in="SourceGraphic" in2="BackgroundImageFix" result="shape"/><feGaussianBlur stdDeviation="7" result="effect1_foregroundBlur"/></filter><filter id="filter19_f" x="45.102" y="513.018" width="13.166" height="13.166" filterUnits="userSpaceOnUse" color-interpolation-filters="sRGB"><feFlood flood-opacity="0" result="BackgroundImageFix"/><feBlend in="SourceGraphic" in2="BackgroundImageFix" result="shape"/><feGaussianBlur stdDeviation="1.5" result="effect1_foregroundBlur"/></filter><filter id="filter20_f" x="253.056" y="614.469" width="21.079" height="21.079" filterUnits="userSpaceOnUse" color-interpolation-filters="sRGB"><feFlood flood-opacity="0" result="BackgroundImageFix"/><feBlend in="SourceGraphic" in2="BackgroundImageFix" result="shape"/><feGaussianBlur stdDeviation="4" result="effect1_foregroundBlur"/></filter><filter id="filter21_f" x="259.056" y="620.469" width="9.079" height="9.079" filterUnits="userSpaceOnUse" color-interpolation-filters="sRGB"><feFlood flood-opacity="0" result="BackgroundImageFix"/><feBlend in="SourceGraphic" in2="BackgroundImageFix" result="shape"/><feGaussianBlur stdDeviation="1" result="effect1_foregroundBlur"/></filter><filter id="filter22_f" x="170.356" y="587.528" width="21.361" height="21.361" filterUnits="userSpaceOnUse" color-interpolation-filters="sRGB"><feFlood flood-opacity="0" result="BackgroundImageFix"/><feBlend in="SourceGraphic" in2="BackgroundImageFix" result="shape"/><feGaussianBlur stdDeviation="3.5" result="effect1_foregroundBlur"/></filter><filter id="filter23_f" x="175.356" y="592.528" width="11.361" height="11.361" filterUnits="userSpaceOnUse" color-interpolation-filters="sRGB"><feFlood flood-opacity="0" result="BackgroundImageFix"/><feBlend in="SourceGraphic" in2="BackgroundImageFix" result="shape"/><feGaussianBlur stdDeviation="1" result="effect1_foregroundBlur"/></filter><filter id="filter24_f" x="-1.224" y="600.441" width="13.259" height="13.259" filterUnits="userSpaceOnUse" color-interpolation-filters="sRGB"><feFlood flood-opacity="0" result="BackgroundImageFix"/><feBlend in="SourceGraphic" in2="BackgroundImageFix" result="shape"/><feGaussianBlur stdDeviation="2.5" result="effect1_foregroundBlur"/></filter><filter id="filter25_f" x="1.776" y="603.441" width="7.259" height="7.259" filterUnits="userSpaceOnUse" color-interpolation-filters="sRGB"><feFlood flood-opacity="0" result="BackgroundImageFix"/><feBlend in="SourceGraphic" in2="BackgroundImageFix" result="shape"/><feGaussianBlur stdDeviation="1" result="effect1_foregroundBlur"/></filter><filter id="filter26_d" x="158.606" y="644.348" width="11.259" height="11.259" filterUnits="userSpaceOnUse" color-interpolation-filters="sRGB"><feFlood flood-opacity="0" result="BackgroundImageFix"/><feColorMatrix in="SourceAlpha" values="0 0 0 0 0 0 0 0 0 0 0 0 0 0 0 0 0 0 127 0"/><feOffset dy="4"/><feGaussianBlur stdDeviation="2"/><feColorMatrix values="0 0 0 0 0 0 0 0 0 0 0 0 0 0 0 0 0 0 0.25 0"/><feBlend in2="BackgroundImageFix" result="effect1_dropShadow"/><feBlend in="SourceGraphic" in2="effect1_dropShadow" result="shape"/></filter><filter id="filter27_f" x="153.606" y="635.348" width="21.259" height="21.259" filterUnits="userSpaceOnUse" color-interpolation-filters="sRGB"><feFlood flood-opacity="0" result="BackgroundImageFix"/><feBlend in="SourceGraphic" in2="BackgroundImageFix" result="shape"/><feGaussianBlur stdDeviation="4.5" result="effect1_foregroundBlur"/></filter><filter id="filter28_f" x="160.606" y="642.348" width="7.259" height="7.259" filterUnits="userSpaceOnUse" color-interpolation-filters="sRGB"><feFlood flood-opacity="0" result="BackgroundImageFix"/><feBlend in="SourceGraphic" in2="BackgroundImageFix" result="shape"/><feGaussianBlur stdDeviation="1" result="effect1_foregroundBlur"/></filter><filter id="filter29_f" x="239.563" y="670.134" width="33.39" height="33.39" filterUnits="userSpaceOnUse" color-interpolation-filters="sRGB"><feFlood flood-opacity="0" result="BackgroundImageFix"/><feBlend in="SourceGraphic" in2="BackgroundImageFix" result="shape"/><feGaussianBlur stdDeviation="7" result="effect1_foregroundBlur"/></filter><filter id="filter30_f" x="250.563" y="681.134" width="11.39" height="11.39" filterUnits="userSpaceOnUse" color-interpolation-filters="sRGB"><feFlood flood-opacity="0" result="BackgroundImageFix"/><feBlend in="SourceGraphic" in2="BackgroundImageFix" result="shape"/><feGaussianBlur stdDeviation="1.5" result="effect1_foregroundBlur"/></filter><filter id="filter31_f" x="116.132" y="681.951" width="19.399" height="19.399" filterUnits="userSpaceOnUse" color-interpolation-filters="sRGB"><feFlood flood-opacity="0" result="BackgroundImageFix"/><feBlend in="SourceGraphic" in2="BackgroundImageFix" result="shape"/><feGaussianBlur stdDeviation="4" result="effect1_foregroundBlur"/></filter><filter id="filter32_f" x="154.057" y="550.153" width="11.886" height="11.886" filterUnits="userSpaceOnUse" color-interpolation-filters="sRGB"><feFlood flood-opacity="0" result="BackgroundImageFix"/><feBlend in="SourceGraphic" in2="BackgroundImageFix" result="shape"/><feGaussianBlur stdDeviation="1" result="effect1_foregroundBlur"/></filter><filter id="filter33_f" x="152.057" y="548.153" width="15.886" height="15.886" filterUnits="userSpaceOnUse" color-interpolation-filters="sRGB"><feFlood flood-opacity="0" result="BackgroundImageFix"/><feBlend in="SourceGraphic" in2="BackgroundImageFix" result="shape"/><feGaussianBlur stdDeviation="2" result="effect1_foregroundBlur"/></filter><filter id="filter34_f" x="231.499" y="644.596" width="7.074" height="7.074" filterUnits="userSpaceOnUse" color-interpolation-filters="sRGB"><feFlood flood-opacity="0" result="BackgroundImageFix"/><feBlend in="SourceGraphic" in2="BackgroundImageFix" result="shape"/><feGaussianBlur stdDeviation="1" result="effect1_foregroundBlur"/></filter><filter id="filter35_d" x="186.071" y="675.366" width="12.508" height="12.508" filterUnits="userSpaceOnUse" color-interpolation-filters="sRGB"><feFlood flood-opacity="0" result="BackgroundImageFix"/><feColorMatrix in="SourceAlpha" values="0 0 0 0 0 0 0 0 0 0 0 0 0 0 0 0 0 0 127 0"/><feOffset dy="4"/><feGaussianBlur stdDeviation="2"/><feColorMatrix values="0 0 0 0 0 0 0 0 0 0 0 0 0 0 0 0 0 0 0.25 0"/><feBlend in2="BackgroundImageFix" result="effect1_dropShadow"/><feBlend in="SourceGraphic" in2="effect1_dropShadow" result="shape"/></filter><filter id="filter36_f" x="181.071" y="666.366" width="22.508" height="22.508" filterUnits="userSpaceOnUse" color-interpolation-filters="sRGB"><feFlood flood-opacity="0" result="BackgroundImageFix"/><feBlend in="SourceGraphic" in2="BackgroundImageFix" result="shape"/><feGaussianBlur stdDeviation="4.5" result="effect1_foregroundBlur"/></filter><filter id="filter37_f" x="188.071" y="673.366" width="8.508" height="8.508" filterUnits="userSpaceOnUse" color-interpolation-filters="sRGB"><feFlood flood-opacity="0" result="BackgroundImageFix"/><feBlend in="SourceGraphic" in2="BackgroundImageFix" result="shape"/><feGaussianBlur stdDeviation="1" result="effect1_foregroundBlur"/></filter><filter id="filter38_f" x="-16.057" y="301.134" width="73.232" height="73.232" filterUnits="userSpaceOnUse" color-interpolation-filters="sRGB"><feFlood flood-opacity="0" result="BackgroundImageFix"/><feBlend in="SourceGraphic" in2="BackgroundImageFix" result="shape"/><feGaussianBlur stdDeviation="14" result="effect1_foregroundBlur"/></filter><filter id="filter39_f" x="2.943" y="320.134" width="35.232" height="35.232" filterUnits="userSpaceOnUse" color-interpolation-filters="sRGB"><feFlood flood-opacity="0" result="BackgroundImageFix"/><feBlend in="SourceGraphic" in2="BackgroundImageFix" result="shape"/><feGaussianBlur stdDeviation="4.5" result="effect1_foregroundBlur"/></filter><filter id="filter40_f" x="276.846" y="100.228" width="22.264" height="22.264" filterUnits="userSpaceOnUse" color-interpolation-filters="sRGB"><feFlood flood-opacity="0" result="BackgroundImageFix"/><feBlend in="SourceGraphic" in2="BackgroundImageFix" result="shape"/><feGaussianBlur stdDeviation="4" result="effect1_foregroundBlur"/></filter><filter id="filter41_f" x="282.846" y="106.228" width="10.264" height="10.264" filterUnits="userSpaceOnUse" color-interpolation-filters="sRGB"><feFlood flood-opacity="0" result="BackgroundImageFix"/><feBlend in="SourceGraphic" in2="BackgroundImageFix" result="shape"/><feGaussianBlur stdDeviation="1" result="effect1_foregroundBlur"/></filter><filter id="filter42_f" x="29.636" y="229.082" width="16.264" height="16.264" filterUnits="userSpaceOnUse" color-interpolation-filters="sRGB"><feFlood flood-opacity="0" result="BackgroundImageFix"/><feBlend in="SourceGraphic" in2="BackgroundImageFix" result="shape"/><feGaussianBlur stdDeviation="2.5" result="effect1_foregroundBlur"/></filter><filter id="filter43_f" x="26.636" y="226.082" width="22.264" height="22.264" filterUnits="userSpaceOnUse" color-interpolation-filters="sRGB"><feFlood flood-opacity="0" result="BackgroundImageFix"/><feBlend in="SourceGraphic" in2="BackgroundImageFix" result="shape"/><feGaussianBlur stdDeviation="4" result="effect1_foregroundBlur"/></filter><filter id="filter44_f" x="32.636" y="232.082" width="10.264" height="10.264" filterUnits="userSpaceOnUse" color-interpolation-filters="sRGB"><feFlood flood-opacity="0" result="BackgroundImageFix"/><feBlend in="SourceGraphic" in2="BackgroundImageFix" result="shape"/><feGaussianBlur stdDeviation="1" result="effect1_foregroundBlur"/></filter><filter id="filter45_f" x="281.947" y="272.288" width="18.681" height="18.681" filterUnits="userSpaceOnUse" color-interpolation-filters="sRGB"><feFlood flood-opacity="0" result="BackgroundImageFix"/><feBlend in="SourceGraphic" in2="BackgroundImageFix" result="shape"/><feGaussianBlur stdDeviation="2" result="effect1_foregroundBlur"/></filter><filter id="filter46_f" x="52.825" y="367.797" width="18.089" height="18.089" filterUnits="userSpaceOnUse" color-interpolation-filters="sRGB"><feFlood flood-opacity="0" result="BackgroundImageFix"/><feBlend in="SourceGraphic" in2="BackgroundImageFix" result="shape"/><feGaussianBlur stdDeviation="2" result="effect1_foregroundBlur"/></filter><filter id="filter47_f" x="174.634" y="66.772" width="23.077" height="23.077" filterUnits="userSpaceOnUse" color-interpolation-filters="sRGB"><feFlood flood-opacity="0" result="BackgroundImageFix"/><feBlend in="SourceGraphic" in2="BackgroundImageFix" result="shape"/><feGaussianBlur stdDeviation="3.5" result="effect1_foregroundBlur"/></filter><filter id="filter48_f" x="179.634" y="71.772" width="13.077" height="13.077" filterUnits="userSpaceOnUse" color-interpolation-filters="sRGB"><feFlood flood-opacity="0" result="BackgroundImageFix"/><feBlend in="SourceGraphic" in2="BackgroundImageFix" result="shape"/><feGaussianBlur stdDeviation="1" result="effect1_foregroundBlur"/></filter><filter id="filter49_d" x="159.444" y="135.207" width="12.019" height="12.019" filterUnits="userSpaceOnUse" color-interpolation-filters="sRGB"><feFlood flood-opacity="0" result="BackgroundImageFix"/><feColorMatrix in="SourceAlpha" values="0 0 0 0 0 0 0 0 0 0 0 0 0 0 0 0 0 0 127 0"/><feOffset dy="4"/><feGaussianBlur stdDeviation="2"/><feColorMatrix values="0 0 0 0 0 0 0 0 0 0 0 0 0 0 0 0 0 0 0.25 0"/><feBlend in2="BackgroundImageFix" result="effect1_dropShadow"/><feBlend in="SourceGraphic" in2="effect1_dropShadow" result="shape"/></filter><filter id="filter50_f" x="154.444" y="126.207" width="22.019" height="22.019" filterUnits="userSpaceOnUse" color-interpolation-filters="sRGB"><feFlood flood-opacity="0" result="BackgroundImageFix"/><feBlend in="SourceGraphic" in2="BackgroundImageFix" result="shape"/><feGaussianBlur stdDeviation="4.5" result="effect1_foregroundBlur"/></filter><filter id="filter51_f" x="161.444" y="133.207" width="8.019" height="8.019" filterUnits="userSpaceOnUse" color-interpolation-filters="sRGB"><feFlood flood-opacity="0" result="BackgroundImageFix"/><feBlend in="SourceGraphic" in2="BackgroundImageFix" result="shape"/><feGaussianBlur stdDeviation="1" result="effect1_foregroundBlur"/></filter><filter id="filter52_f" x="11" y="428" width="16.264" height="16.264" filterUnits="userSpaceOnUse" color-interpolation-filters="sRGB"><feFlood flood-opacity="0" result="BackgroundImageFix"/><feBlend in="SourceGraphic" in2="BackgroundImageFix" result="shape"/><feGaussianBlur stdDeviation="2.5" result="effect1_foregroundBlur"/></filter><filter id="filter53_f" x="8" y="425" width="22.264" height="22.264" filterUnits="userSpaceOnUse" color-interpolation-filters="sRGB"><feFlood flood-opacity="0" result="BackgroundImageFix"/><feBlend in="SourceGraphic" in2="BackgroundImageFix" result="shape"/><feGaussianBlur stdDeviation="4" result="effect1_foregroundBlur"/></filter><filter id="filter54_f" x="14" y="431" width="10.264" height="10.264" filterUnits="userSpaceOnUse" color-interpolation-filters="sRGB"><feFlood flood-opacity="0" result="BackgroundImageFix"/><feBlend in="SourceGraphic" in2="BackgroundImageFix" result="shape"/><feGaussianBlur stdDeviation="1" result="effect1_foregroundBlur"/></filter><filter id="filter55_f" x="11" y="428" width="16.264" height="16.264" filterUnits="userSpaceOnUse" color-interpolation-filters="sRGB"><feFlood flood-opacity="0" result="BackgroundImageFix"/><feBlend in="SourceGraphic" in2="BackgroundImageFix" result="shape"/><feGaussianBlur stdDeviation="2.5" result="effect1_foregroundBlur"/></filter><filter id="filter56_f" x="8" y="425" width="22.264" height="22.264" filterUnits="userSpaceOnUse" color-interpolation-filters="sRGB"><feFlood flood-opacity="0" result="BackgroundImageFix"/><feBlend in="SourceGraphic" in2="BackgroundImageFix" result="shape"/><feGaussianBlur stdDeviation="4" result="effect1_foregroundBlur"/></filter><filter id="filter57_f" x="14" y="431" width="10.264" height="10.264" filterUnits="userSpaceOnUse" color-interpolation-filters="sRGB"><feFlood flood-opacity="0" result="BackgroundImageFix"/><feBlend in="SourceGraphic" in2="BackgroundImageFix" result="shape"/><feGaussianBlur stdDeviation="1" result="effect1_foregroundBlur"/></filter><filter id="filter58_f" x="261.608" y="170.268" width="34.647" height="34.647" filterUnits="userSpaceOnUse" color-interpolation-filters="sRGB"><feFlood flood-opacity="0" result="BackgroundImageFix"/><feBlend in="SourceGraphic" in2="BackgroundImageFix" result="shape"/><feGaussianBlur stdDeviation="7" result="effect1_foregroundBlur"/></filter><filter id="filter59_f" x="272.608" y="181.268" width="12.647" height="12.647" filterUnits="userSpaceOnUse" color-interpolation-filters="sRGB"><feFlood flood-opacity="0" result="BackgroundImageFix"/><feBlend in="SourceGraphic" in2="BackgroundImageFix" result="shape"/><feGaussianBlur stdDeviation="1.5" result="effect1_foregroundBlur"/></filter><filter id="filter60_f" x="108.003" y="183.442" width="20.192" height="20.192" filterUnits="userSpaceOnUse" color-interpolation-filters="sRGB"><feFlood flood-opacity="0" result="BackgroundImageFix"/><feBlend in="SourceGraphic" in2="BackgroundImageFix" result="shape"/><feGaussianBlur stdDeviation="4" result="effect1_foregroundBlur"/></filter><filter id="filter61_f" x="114.003" y="189.442" width="8.192" height="8.192" filterUnits="userSpaceOnUse" color-interpolation-filters="sRGB"><feFlood flood-opacity="0" result="BackgroundImageFix"/><feBlend in="SourceGraphic" in2="BackgroundImageFix" result="shape"/><feGaussianBlur stdDeviation="1" result="effect1_foregroundBlur"/></filter><filter id="filter62_f" x="108.306" y="72.018" width="15.148" height="15.148" filterUnits="userSpaceOnUse" color-interpolation-filters="sRGB"><feFlood flood-opacity="0" result="BackgroundImageFix"/><feBlend in="SourceGraphic" in2="BackgroundImageFix" result="shape"/><feGaussianBlur stdDeviation="2" result="effect1_foregroundBlur"/></filter><filter id="filter63_f" x="248.865" y="135.979" width="7.791" height="7.791" filterUnits="userSpaceOnUse" color-interpolation-filters="sRGB"><feFlood flood-opacity="0" result="BackgroundImageFix"/><feBlend in="SourceGraphic" in2="BackgroundImageFix" result="shape"/><feGaussianBlur stdDeviation="1" result="effect1_foregroundBlur"/></filter><filter id="filter64_f" x="176.189" y="205.618" width="20.075" height="20.075" filterUnits="userSpaceOnUse" color-interpolation-filters="sRGB"><feFlood flood-opacity="0" result="BackgroundImageFix"/><feBlend in="SourceGraphic" in2="BackgroundImageFix" result="shape"/><feGaussianBlur stdDeviation="3.5" result="effect1_foregroundBlur"/></filter><filter id="filter65_f" x="181.189" y="210.618" width="10.075" height="10.075" filterUnits="userSpaceOnUse" color-interpolation-filters="sRGB"><feFlood flood-opacity="0" result="BackgroundImageFix"/><feBlend in="SourceGraphic" in2="BackgroundImageFix" result="shape"/><feGaussianBlur stdDeviation="1" result="effect1_foregroundBlur"/></filter><filter id="filter66_d" x="193.313" y="173.456" width="13.559" height="13.559" filterUnits="userSpaceOnUse" color-interpolation-filters="sRGB"><feFlood flood-opacity="0" result="BackgroundImageFix"/><feColorMatrix in="SourceAlpha" values="0 0 0 0 0 0 0 0 0 0 0 0 0 0 0 0 0 0 127 0"/><feOffset dy="4"/><feGaussianBlur stdDeviation="2"/><feColorMatrix values="0 0 0 0 0 0 0 0 0 0 0 0 0 0 0 0 0 0 0.25 0"/><feBlend in2="BackgroundImageFix" result="effect1_dropShadow"/><feBlend in="SourceGraphic" in2="effect1_dropShadow" result="shape"/></filter><filter id="filter67_f" x="188.313" y="164.456" width="23.559" height="23.559" filterUnits="userSpaceOnUse" color-interpolation-filters="sRGB"><feFlood flood-opacity="0" result="BackgroundImageFix"/><feBlend in="SourceGraphic" in2="BackgroundImageFix" result="shape"/><feGaussianBlur stdDeviation="4.5" result="effect1_foregroundBlur"/></filter><filter id="filter68_f" x="195.313" y="171.456" width="9.559" height="9.559" filterUnits="userSpaceOnUse" color-interpolation-filters="sRGB"><feFlood flood-opacity="0" result="BackgroundImageFix"/><feBlend in="SourceGraphic" in2="BackgroundImageFix" result="shape"/><feGaussianBlur stdDeviation="1" result="effect1_foregroundBlur"/></filter><radialGradient id="paint1_radial" cx="0" cy="0" r="1" gradientUnits="userSpaceOnUse" gradientTransform="rotate(-93.092 322.227 83.604) scale(4.69989)"><stop offset=".276" stop-color="#AFCCF4"/><stop offset="1" stop-color="#AE44BA"/></radialGradient><radialGradient id="paint2_radial" cx="0" cy="0" r="1" gradientUnits="userSpaceOnUse" gradientTransform="rotate(-93.092 390.936 115.375) scale(3.85074)"><stop stop-color="#fff"/><stop offset="1" stop-color="#fff" stop-opacity="0"/></radialGradient><radialGradient id="paint3_radial" cx="0" cy="0" r="1" gradientUnits="userSpaceOnUse" gradientTransform="rotate(-93.092 266.693 166.059) scale(9.24744)"><stop stop-color="#AFCCF4"/><stop offset="1" stop-color="#fff" stop-opacity="0"/></radialGradient><radialGradient id="paint4_radial" cx="0" cy="0" r="1" gradientUnits="userSpaceOnUse" gradientTransform="rotate(-93.092 266.693 166.059) scale(9.24744)"><stop stop-color="#AFCCF4"/><stop offset="1" stop-color="#fff" stop-opacity="0"/></radialGradient><radialGradient id="paint5_radial" cx="0" cy="0" r="1" gradientUnits="userSpaceOnUse" gradientTransform="rotate(-93.092 344.458 66.752) scale(2.71838)"><stop stop-color="#fff"/><stop offset="1" stop-color="#fff" stop-opacity="0"/></radialGradient><radialGradient id="paint7_radial" cx="0" cy="0" r="1" gradientUnits="userSpaceOnUse" gradientTransform="rotate(90 -142 455.782) scale(4.02719)"><stop stop-color="#AFCCF4"/><stop offset="1" stop-color="#fff" stop-opacity="0"/></radialGradient><radialGradient id="paint8_radial" cx="0" cy="0" r="1" gradientUnits="userSpaceOnUse" gradientTransform="rotate(90 -142 455.782) scale(4.02719)"><stop stop-color="#AFCCF4"/><stop offset="1" stop-color="#fff" stop-opacity="0"/></radialGradient><radialGradient id="paint9_radial" cx="0" cy="0" r="1" gradientUnits="userSpaceOnUse" gradientTransform="rotate(90 -233.958 285.643) scale(3.58325)"><stop stop-color="#AFCCF4"/><stop offset="1" stop-color="#fff" stop-opacity="0"/></radialGradient><radialGradient id="paint10_radial" cx="0" cy="0" r="1" gradientUnits="userSpaceOnUse" gradientTransform="rotate(90 -233.958 285.643) scale(3.58325)"><stop stop-color="#AFCCF4"/><stop offset="1" stop-color="#fff" stop-opacity="0"/></radialGradient><radialGradient id="paint12_radial" cx="0" cy="0" r="1" gradientUnits="userSpaceOnUse" gradientTransform="rotate(-90 471.543 215.285) scale(2.6951)"><stop stop-color="#AFCCF4"/><stop offset="1" stop-color="#fff" stop-opacity="0"/></radialGradient><radialGradient id="paint13_radial" cx="0" cy="0" r="1" gradientUnits="userSpaceOnUse" gradientTransform="rotate(-90 471.543 215.285) scale(2.6951)"><stop stop-color="#AFCCF4"/><stop offset="1" stop-color="#fff" stop-opacity="0"/></radialGradient><radialGradient id="paint14_radial" cx="0" cy="0" r="1" gradientUnits="userSpaceOnUse" gradientTransform="matrix(0 -3.94318 3.94318 0 160 556.096)"><stop stop-color="#fff"/><stop offset="1" stop-color="#fff" stop-opacity="0"/></radialGradient><radialGradient id="paint15_radial" cx="0" cy="0" r="1" gradientUnits="userSpaceOnUse" gradientTransform="matrix(0 -3.94318 3.94318 0 160 556.096)"><stop stop-color="#fff"/><stop offset="1" stop-color="#fff" stop-opacity="0"/></radialGradient><radialGradient id="paint16_radial" cx="0" cy="0" r="1" gradientUnits="userSpaceOnUse" gradientTransform="rotate(-90 441.585 206.548) scale(1.53717)"><stop stop-color="#fff"/><stop offset="1" stop-color="#fff" stop-opacity="0"/></radialGradient><radialGradient id="paint18_radial" cx="0" cy="0" r="1" gradientUnits="userSpaceOnUse" gradientTransform="rotate(90 -158.596 179.154) scale(8.61597)"><stop stop-color="#AFCCF4"/><stop offset="1" stop-color="#fff" stop-opacity="0"/></radialGradient><radialGradient id="paint19_radial" cx="0" cy="0" r="1" gradientUnits="userSpaceOnUse" gradientTransform="rotate(90 -158.596 179.154) scale(8.61597)"><stop stop-color="#AFCCF4"/><stop offset="1" stop-color="#fff" stop-opacity="0"/></radialGradient><radialGradient id="paint20_radial" cx="0" cy="0" r="1" gradientUnits="userSpaceOnUse" gradientTransform="rotate(90 4.83 286.459) scale(5.34076)"><stop stop-color="#fff"/><stop offset="1" stop-color="#fff" stop-opacity="0"/></radialGradient><radialGradient id="paint21_radial" cx="0" cy="0" r="1" gradientUnits="userSpaceOnUse" gradientTransform="rotate(90 -157.486 219.356) scale(5.04471)"><stop stop-color="#fff"/><stop offset="1" stop-color="#fff" stop-opacity="0"/></radialGradient><radialGradient id="paint23_radial" cx="0" cy="0" r="1" gradientUnits="userSpaceOnUse" gradientTransform="rotate(-90 233.261 -45.67) scale(3.32337)"><stop stop-color="#AFCCF4"/><stop offset="1" stop-color="#fff" stop-opacity="0"/></radialGradient><radialGradient id="paint24_radial" cx="0" cy="0" r="1" gradientUnits="userSpaceOnUse" gradientTransform="rotate(-90 233.261 -45.67) scale(3.32337)"><stop stop-color="#AFCCF4"/><stop offset="1" stop-color="#fff" stop-opacity="0"/></radialGradient><radialGradient id="paint25_radial" cx="0" cy="0" r="1" gradientUnits="userSpaceOnUse" gradientTransform="rotate(-90 97.736 -18.144) scale(3.57413)"><stop stop-color="#fff"/><stop offset="1" stop-color="#fff" stop-opacity="0"/></radialGradient><radialGradient id="paint26_radial" cx="0" cy="0" r="1" gradientUnits="userSpaceOnUse" gradientTransform="rotate(-90 196.318 -56.443) scale(1.89552)"><stop stop-color="#fff"/><stop offset="1" stop-color="#fff" stop-opacity="0"/></radialGradient><linearGradient id="paint0_linear" x1="-15.646" y1="587.482" x2="-35.185" y2="225.822" gradientUnits="userSpaceOnUse"><stop stop-color="#7F2FCB"/><stop offset=".698" stop-color="#AFCCF4"/></linearGradient><linearGradient id="paint6_linear" x1="214.784" y1="485.837" x2="214.784" y2="867.561" gradientUnits="userSpaceOnUse"><stop stop-color="#7F2FCB"/><stop offset=".698" stop-color="#AFCCF4"/></linearGradient><linearGradient id="paint11_linear" x1="158.497" y1="784.788" x2="158.497" y2="529.332" gradientUnits="userSpaceOnUse"><stop stop-color="#7F2FCB"/><stop offset=".698" stop-color="#AFCCF4"/></linearGradient><linearGradient id="paint17_linear" x1="227.787" y1="-60.257" x2="227.787" y2="410.457" gradientUnits="userSpaceOnUse"><stop stop-color="#7F2FCB"/><stop offset=".698" stop-color="#AFCCF4"/></linearGradient><linearGradient id="paint22_linear" x1="158.378" y1="308.387" x2="158.378" y2="-6.623" gradientUnits="userSpaceOnUse"><stop stop-color="#7F2FCB"/><stop offset=".698" stop-color="#AFCCF4"/></linearGradient><clipPath id="clip0"><path fill="#fff" d="M0 0h320v686H0z"/></clipPath></defs></svg>