<svg width="320" height="211" fill="none" xmlns="http://www.w3.org/2000/svg"><path d="M33.496 22.54c243.581 35.41 298.302 32.295 320.509-8.373v201.748h-694.518V14.167c24.412 17.842 14.811 26.794 71.187 89.879C-212.951 167.132-161.389-5.792 33.496 22.54z" fill="#9B51E0"/><path d="M33.496 22.54c243.581 35.41 298.302 32.295 320.509-8.373v201.748h-694.518V14.167c24.412 17.842 14.811 26.794 71.187 89.879C-212.951 167.132-161.389-5.792 33.496 22.54z" fill="url(#paint0_linear)"/><path d="M33.496 22.54c243.581 35.41 298.302 32.295 320.509-8.373v201.748h-694.518V14.167c24.412 17.842 14.811 26.794 71.187 89.879C-212.951 167.132-161.389-5.792 33.496 22.54z" stroke="url(#paint1_linear)" stroke-opacity=".6" stroke-width="2"/><g filter="url(#filter0_f)" transform="rotate(-178.913 42.252 169.587)"><circle cx="42.252" cy="169.587" r="2.848" fill="#C050D8"/><circle cx="42.252" cy="169.587" r="2.848" fill="url(#paint2_radial)"/></g><g filter="url(#filter1_f)" transform="rotate(-178.913 42.252 169.587)"><circle cx="42.252" cy="169.587" r="2.848" fill="#C050D8"/><circle cx="42.252" cy="169.587" r="2.848" fill="url(#paint3_radial)"/></g><g filter="url(#filter2_f)" transform="rotate(-178.913 230.589 118.756)"><circle cx="230.589" cy="118.756" r="6.892" fill="#C050D8"/><circle cx="230.589" cy="118.756" r="6.892" fill="url(#paint4_radial)"/></g><g filter="url(#filter3_f)"><circle cx="78.102" cy="151.01" r="1.796" transform="rotate(-178.913 78.102 151.01)" fill="#AFCCF4"/></g><g filter="url(#filter4_f)"><circle cx="78.102" cy="151.01" r="1.796" transform="rotate(-178.913 78.102 151.01)" fill="#93BEFA"/></g><g filter="url(#filter5_f)" transform="rotate(-178.913 78.055 53.346)"><circle cx="78.055" cy="53.346" r="3.063" fill="#AFCCF4"/><circle cx="78.055" cy="53.346" r="3.063" fill="url(#paint5_radial)"/></g><g filter="url(#filter6_f)"><circle cx="108.18" cy="197.047" r="2.603" transform="rotate(-178.913 108.18 197.047)" fill="#CAE0FD"/></g><g filter="url(#filter7_f)"><circle cx="108.18" cy="197.047" r="2.603" transform="rotate(-178.913 108.18 197.047)" fill="#CAE0FD"/></g><g filter="url(#filter8_f)"><circle cx="302.523" cy="71.609" r="1.624" transform="rotate(-178.913 302.523 71.61)" fill="#fff"/></g><g filter="url(#filter9_f)" transform="rotate(-178.913 260.412 167.156)" fill="#AFCCF4"><circle cx="260.412" cy="167.156" r="1.152"/><circle cx="260.412" cy="167.156" r="1.152"/></g><g filter="url(#filter10_f)" transform="rotate(-178.913 260.412 167.156)" fill="#AFCCF4"><circle cx="260.412" cy="167.156" r="1.152"/><circle cx="260.412" cy="167.156" r="1.152"/></g><defs><filter id="filter0_f" x="25.351" y="152.686" width="33.803" height="33.803" filterUnits="userSpaceOnUse" color-interpolation-filters="sRGB"><feFlood flood-opacity="0" result="BackgroundImageFix"/><feBlend in="SourceGraphic" in2="BackgroundImageFix" result="shape"/><feGaussianBlur stdDeviation="7" result="effect1_foregroundBlur"/></filter><filter id="filter1_f" x="36.35" y="163.686" width="11.803" height="11.803" filterUnits="userSpaceOnUse" color-interpolation-filters="sRGB"><feFlood flood-opacity="0" result="BackgroundImageFix"/><feBlend in="SourceGraphic" in2="BackgroundImageFix" result="shape"/><feGaussianBlur stdDeviation="1.5" result="effect1_foregroundBlur"/></filter><filter id="filter2_f" x="214.567" y="102.734" width="32.044" height="32.044" filterUnits="userSpaceOnUse" color-interpolation-filters="sRGB"><feFlood flood-opacity="0" result="BackgroundImageFix"/><feBlend in="SourceGraphic" in2="BackgroundImageFix" result="shape"/><feGaussianBlur stdDeviation="4.5" result="effect1_foregroundBlur"/></filter><filter id="filter3_f" x="68.272" y="141.18" width="19.659" height="19.659" filterUnits="userSpaceOnUse" color-interpolation-filters="sRGB"><feFlood flood-opacity="0" result="BackgroundImageFix"/><feBlend in="SourceGraphic" in2="BackgroundImageFix" result="shape"/><feGaussianBlur stdDeviation="4" result="effect1_foregroundBlur"/></filter><filter id="filter4_f" x="74.272" y="147.18" width="7.659" height="7.659" filterUnits="userSpaceOnUse" color-interpolation-filters="sRGB"><feFlood flood-opacity="0" result="BackgroundImageFix"/><feBlend in="SourceGraphic" in2="BackgroundImageFix" result="shape"/><feGaussianBlur stdDeviation="1" result="effect1_foregroundBlur"/></filter><filter id="filter5_f" x="70.934" y="46.226" width="14.241" height="14.241" filterUnits="userSpaceOnUse" color-interpolation-filters="sRGB"><feFlood flood-opacity="0" result="BackgroundImageFix"/><feBlend in="SourceGraphic" in2="BackgroundImageFix" result="shape"/><feGaussianBlur stdDeviation="2" result="effect1_foregroundBlur"/></filter><filter id="filter6_f" x="98.528" y="187.395" width="19.303" height="19.303" filterUnits="userSpaceOnUse" color-interpolation-filters="sRGB"><feFlood flood-opacity="0" result="BackgroundImageFix"/><feBlend in="SourceGraphic" in2="BackgroundImageFix" result="shape"/><feGaussianBlur stdDeviation="3.5" result="effect1_foregroundBlur"/></filter><filter id="filter7_f" x="103.529" y="192.395" width="9.303" height="9.303" filterUnits="userSpaceOnUse" color-interpolation-filters="sRGB"><feFlood flood-opacity="0" result="BackgroundImageFix"/><feBlend in="SourceGraphic" in2="BackgroundImageFix" result="shape"/><feGaussianBlur stdDeviation="1" result="effect1_foregroundBlur"/></filter><filter id="filter8_f" x="298.869" y="67.955" width="7.31" height="7.31" filterUnits="userSpaceOnUse" color-interpolation-filters="sRGB"><feFlood flood-opacity="0" result="BackgroundImageFix"/><feBlend in="SourceGraphic" in2="BackgroundImageFix" result="shape"/><feGaussianBlur stdDeviation="1" result="effect1_foregroundBlur"/></filter><filter id="filter9_f" x="254.238" y="160.982" width="12.348" height="12.348" filterUnits="userSpaceOnUse" color-interpolation-filters="sRGB"><feFlood flood-opacity="0" result="BackgroundImageFix"/><feBlend in="SourceGraphic" in2="BackgroundImageFix" result="shape"/><feGaussianBlur stdDeviation="2.5" result="effect1_foregroundBlur"/></filter><filter id="filter10_f" x="257.238" y="163.982" width="6.348" height="6.348" filterUnits="userSpaceOnUse" color-interpolation-filters="sRGB"><feFlood flood-opacity="0" result="BackgroundImageFix"/><feBlend in="SourceGraphic" in2="BackgroundImageFix" result="shape"/><feGaussianBlur stdDeviation="1" result="effect1_foregroundBlur"/></filter><radialGradient id="paint2_radial" cx="0" cy="0" r="1" gradientUnits="userSpaceOnUse" gradientTransform="rotate(90 -63.668 105.92) scale(2.84793)"><stop stop-color="#AFCCF4"/><stop offset="1" stop-color="#fff" stop-opacity="0"/></radialGradient><radialGradient id="paint3_radial" cx="0" cy="0" r="1" gradientUnits="userSpaceOnUse" gradientTransform="rotate(90 -63.668 105.92) scale(2.84793)"><stop stop-color="#AFCCF4"/><stop offset="1" stop-color="#fff" stop-opacity="0"/></radialGradient><radialGradient id="paint4_radial" cx="0" cy="0" r="1" gradientUnits="userSpaceOnUse" gradientTransform="rotate(90 55.916 174.673) scale(6.89227)"><stop stop-color="#AFCCF4"/><stop offset="1" stop-color="#fff" stop-opacity="0"/></radialGradient><radialGradient id="paint5_radial" cx="0" cy="0" r="1" gradientUnits="userSpaceOnUse" gradientTransform="rotate(90 12.354 65.7) scale(3.06281)"><stop stop-color="#fff"/><stop offset="1" stop-color="#fff" stop-opacity="0"/></radialGradient><linearGradient id="paint0_linear" x1="12.753" y1="90.531" x2="44.72" y2="364.933" gradientUnits="userSpaceOnUse"><stop stop-color="#9B51E0"/><stop offset=".934" stop-color="#AFCCF4"/></linearGradient><linearGradient id="paint1_linear" x1="371.478" y1="-201.33" x2="-249.386" y2="-57.795" gradientUnits="userSpaceOnUse"><stop stop-color="#fff" stop-opacity=".94"/><stop offset=".335" stop-color="#fff" stop-opacity="0"/><stop offset=".598" stop-color="#fff" stop-opacity="0"/><stop offset=".753" stop-color="#fff" stop-opacity=".83"/><stop offset="1" stop-color="#fff" stop-opacity="0"/></linearGradient></defs></svg>