<svg width="320" height="686" fill="none" xmlns="http://www.w3.org/2000/svg"><g opacity=".5"><g opacity=".3"><path d="M176.012 347.191l47.518-73.392 68.263 7.695m-115.781 65.697L62.334 376.475m113.678-29.284L39.017 439.889m138.111 22.049l100.483-134.826 79.529 13.712-60.742 73.705-136.982 143.617L39.017 439.889M37.6 237.101l24.735 139.374m0 0l-23.317 63.414m0 0L-194.2 210.818l-93.421 153.571-139.784 4.545 149.156 215.111 1.692-174.78 220.465-182.313-74.552 327.74L39.017 439.889z" stroke="#9B51E0"/><path d="M176.012 347.191l47.518-73.392 68.263 7.695m-115.781 65.697L62.334 376.475m113.678-29.284L39.017 439.889m138.111 22.049l100.483-134.826 79.529 13.712-60.742 73.705-136.982 143.617L39.017 439.889M37.6 237.101l24.735 139.374m0 0l-23.317 63.414m0 0L-194.2 210.818l-93.421 153.571-139.784 4.545 149.156 215.111 1.692-174.78 220.465-182.313-74.552 327.74L39.017 439.889z" stroke="url(#paint0_linear)"/><path d="M-237.632 562.137l168.763-104.153 79.064 21.384 105.478-38.703 60.999 21.268 78.245-51.31 42.035 101.47-385.823 81.158-212.66-136.65-25.865 89.222" stroke="#9B51E0"/></g><g filter="url(#filter0_f)"><circle cx="37.768" cy="237.214" r="3.132" fill="#AFCCF4"/></g><g filter="url(#filter1_f)"><circle cx="37.768" cy="237.214" r="3.132" fill="#93BEFA"/></g><g filter="url(#filter2_f)"><circle cx="37.768" cy="237.214" r="3.132" fill="#93BEFA"/></g><g filter="url(#filter3_f)"><circle cx="37.768" cy="237.214" r="3.132" fill="#93BEFA"/></g><g filter="url(#filter4_f)"><circle cx="256.125" cy="409.871" r="4.7" transform="rotate(176.908 256.125 409.871)" fill="url(#paint1_radial)"/></g><g filter="url(#filter5_f)" transform="rotate(176.908 296.816 511.965)"><circle cx="296.816" cy="511.965" r="3.851" fill="#AFCCF4"/><circle cx="296.816" cy="511.965" r="3.851" fill="url(#paint2_radial)"/></g><g filter="url(#filter6_f)" transform="rotate(176.908 115.261 441.32)"><circle cx="115.261" cy="441.32" r="9.247" fill="#C050D8"/><circle cx="115.261" cy="441.32" r="9.247" fill="url(#paint3_radial)"/></g><g filter="url(#filter7_f)" transform="rotate(176.908 115.261 441.32)"><circle cx="115.261" cy="441.32" r="9.247" fill="#C050D8"/><circle cx="115.261" cy="441.32" r="9.247" fill="url(#paint4_radial)"/></g><g filter="url(#filter8_f)" transform="rotate(176.908 296.383 414.31)"><circle cx="296.383" cy="414.31" r="2.718" fill="#03EEEE"/><circle cx="296.383" cy="414.31" r="2.718" fill="url(#paint5_radial)"/></g><g filter="url(#filter9_f)"><circle cx="10.57" cy="479.29" r="3.492" transform="rotate(176.908 10.57 479.29)" fill="#CAE0FD"/></g><g filter="url(#filter10_f)"><circle cx="10.57" cy="479.29" r="3.492" transform="rotate(176.908 10.57 479.29)" fill="#CAE0FD"/></g><g filter="url(#filter11_f)"><circle cx="223.134" cy="273.667" r="2.179" transform="rotate(176.908 223.134 273.667)" fill="#fff"/></g><g filter="url(#filter12_f)"><circle cx="175.881" cy="347.271" r="2.179" transform="rotate(176.908 175.881 347.271)" fill="#fff"/></g><g filter="url(#filter13_f)"><circle cx="268.402" cy="444.413" r="1.633" transform="rotate(176.908 268.402 444.413)" fill="#fff"/></g><g filter="url(#filter14_f)"><circle cx="268.402" cy="444.413" r="1.633" transform="rotate(176.908 268.402 444.413)" fill="#fff"/></g><g filter="url(#filter15_f)" transform="rotate(176.908 176.518 461.903)" fill="#AFCCF4"><circle cx="176.518" cy="461.903" r="1.546"/><circle cx="176.518" cy="461.903" r="1.546"/></g><g filter="url(#filter16_f)" transform="rotate(176.908 176.518 461.903)" fill="#AFCCF4"><circle cx="176.518" cy="461.903" r="1.546"/><circle cx="176.518" cy="461.903" r="1.546"/></g><g filter="url(#filter17_d)" transform="rotate(176.908 24.044 433.171)" fill="#E0EDFF"><g filter="url(#filter18_f)"><circle cx="24.044" cy="433.171" r="1.546"/><circle cx="24.044" cy="433.171" r="1.546"/></g><g filter="url(#filter19_f)"><circle cx="24.044" cy="433.171" r="1.546"/><circle cx="24.044" cy="433.171" r="1.546"/></g></g></g><g opacity=".5"><g opacity=".4"><path d="M540.504 547.404l-32.294 92.427L63.272 764.917l-188.798-189.104 43.93 99.552L5.25 607.031l62.987 25.851 113.206-34.734 81.991 27 183.529-100.016-149.371-12.757-1.016-98.024" stroke="#9B51E0"/><path d="M236.852 867.561l242.384-179.333 11.718-183.844 144.742 234.865-147.367-3.165-107.048 156.308-245.78-374.039m101.351 349.208l97.093-340.677L28.872 701.511m207.98 166.05l29.758 58.395 29.897-84.255M28.872 701.511V562.155L-91.07 791.075l-29.156-50.451-3.22-90.512 59.047-61.294 53.545-103.397m39.727 216.09l56.193 39.113" stroke="#9B51E0"/><path d="M236.852 867.561l242.384-179.333 11.718-183.844 144.742 234.865-147.367-3.165-107.048 156.308-245.78-374.039m101.351 349.208l97.093-340.677L28.872 701.511m207.98 166.05l29.758 58.395 29.897-84.255M28.872 701.511V562.155L-91.07 791.075l-29.156-50.451-3.22-90.512 59.047-61.294 53.545-103.397m39.727 216.09l56.193 39.113" stroke="url(#paint6_linear)"/></g><g filter="url(#filter20_f)"><circle cx="313.782" cy="597.783" r="4.027" fill="#C050D8"/><circle cx="313.782" cy="597.783" r="4.027" fill="url(#paint7_radial)"/></g><g filter="url(#filter21_f)"><circle cx="313.782" cy="597.783" r="4.027" fill="#C050D8"/><circle cx="313.782" cy="597.783" r="4.027" fill="url(#paint8_radial)"/></g><g filter="url(#filter22_f)"><circle cx="51.685" cy="519.601" r="3.583" fill="#fff"/><circle cx="51.685" cy="519.601" r="3.583" fill="url(#paint9_radial)"/></g><g filter="url(#filter23_f)"><circle cx="51.685" cy="519.601" r="3.583" fill="#fff"/><circle cx="51.685" cy="519.601" r="3.583" fill="url(#paint10_radial)"/></g><g filter="url(#filter24_f)"><circle cx="263.596" cy="625.009" r="2.54" fill="#AFCCF4"/></g><g filter="url(#filter25_f)"><circle cx="263.596" cy="625.009" r="2.54" fill="#93BEFA"/></g><g filter="url(#filter26_f)"><circle cx="181.037" cy="598.208" r="3.681" fill="#CAE0FD"/></g><g filter="url(#filter27_f)"><circle cx="181.037" cy="598.208" r="3.681" fill="#CAE0FD"/></g><g filter="url(#filter28_f)" fill="#AFCCF4"><circle cx="5.406" cy="607.071" r="1.63"/><circle cx="5.406" cy="607.071" r="1.63"/></g><g filter="url(#filter29_f)" fill="#AFCCF4"><circle cx="5.406" cy="607.071" r="1.63"/><circle cx="5.406" cy="607.071" r="1.63"/></g><g filter="url(#filter30_d)" fill="#E0EDFF"><g filter="url(#filter31_f)"><circle cx="164.236" cy="645.978" r="1.63"/><circle cx="164.236" cy="645.978" r="1.63"/></g><g filter="url(#filter32_f)"><circle cx="164.236" cy="645.978" r="1.63"/><circle cx="164.236" cy="645.978" r="1.63"/></g></g></g><g opacity=".3"><g opacity=".4"><path d="M3.119 758.491l122.821-66.932 54.87 18.069 75.759-23.245 49.789 31.869 50.482-60.3h-17.154L156.644 794.96-106.81 681.749l-14.813 60.309" stroke="#9B51E0"/><path d="M235.003 647.743l-83.999 68.129L51.54 519.329l6.404 231.349-114.549-70.636-66.58-64.841 107.554 66.465-20.89-207.925 386.983 131.052m-115.459 42.95l47.91 85.972 80.268-153.197 19.511 33.762 2.155 60.573-39.515 41.019-30.057 22.844m-80.272-90.973l86.846-128.912" stroke="#9B51E0"/><path d="M235.003 647.743l-83.999 68.129L51.54 519.329l6.404 231.349-114.549-70.636-66.58-64.841 107.554 66.465-20.89-207.925 386.983 131.052m-115.459 42.95l47.91 85.972 80.268-153.197 19.511 33.762 2.155 60.573-39.515 41.019-30.057 22.844m-80.272-90.973l86.846-128.912" stroke="url(#paint11_linear)"/></g><g filter="url(#filter33_f)" transform="rotate(-180 256.258 686.829)"><circle cx="256.258" cy="686.829" r="2.695" fill="#C050D8"/><circle cx="256.258" cy="686.829" r="2.695" fill="url(#paint12_radial)"/></g><g filter="url(#filter34_f)" transform="rotate(-180 256.258 686.829)"><circle cx="256.258" cy="686.829" r="2.695" fill="#C050D8"/><circle cx="256.258" cy="686.829" r="2.695" fill="url(#paint13_radial)"/></g><g filter="url(#filter35_f)"><circle cx="125.832" cy="691.651" r="1.7" transform="rotate(-180 125.832 691.651)" fill="#AFCCF4"/></g><g filter="url(#filter36_f)" transform="rotate(-180 160 556.096)"><circle cx="160" cy="556.096" r="3.943" fill="#AFCCF4"/><circle cx="160" cy="556.096" r="3.943" fill="url(#paint14_radial)"/></g><g filter="url(#filter37_f)" transform="rotate(-180 160 556.096)"><circle cx="160" cy="556.096" r="3.943" fill="#AFCCF4"/><circle cx="160" cy="556.096" r="3.943" fill="url(#paint15_radial)"/></g><g filter="url(#filter38_f)" transform="rotate(-180 235.036 648.133)"><circle cx="235.036" cy="648.133" r="1.537" fill="#03EEEE"/><circle cx="235.036" cy="648.133" r="1.537" fill="url(#paint16_radial)"/></g><g filter="url(#filter39_d)" transform="rotate(-180 192.325 677.62)" fill="#E0EDFF"><g filter="url(#filter40_f)"><circle cx="192.325" cy="677.62" r="2.254"/><circle cx="192.325" cy="677.62" r="2.254"/></g><g filter="url(#filter41_f)"><circle cx="192.325" cy="677.62" r="2.254"/><circle cx="192.325" cy="677.62" r="2.254"/></g></g></g><g opacity=".5"><g opacity=".4"><path d="M514.093-11.802L287.779 111.531 186.673 78.236 47.075 121.068l-77.67-31.877-107.093 84.264-45.485-157.793L323.219-62.61l266.4 192.247 39.822-113.975" stroke="#9B51E0"/><path d="M254.999 410.457l298.891-221.14 14.449-226.704 178.486 289.619-181.723-3.903-132.003 192.748L27.864-19.093m227.135 429.55L374.727-9.642-1.466 205.696m256.465 204.761L-1.466 205.696m0 0V33.852L-149.372 316.14l-35.952-62.212-3.971-111.613 72.812-75.584L27.864-60.257" stroke="#9B51E0"/><path d="M254.999 410.457l298.891-221.14 14.449-226.704 178.486 289.619-181.723-3.903-132.003 192.748L27.864-19.093m227.135 429.55L374.727-9.642-1.466 205.696m256.465 204.761L-1.466 205.696m0 0V33.852L-149.372 316.14l-35.952-62.212-3.971-111.613 72.812-75.584L27.864-60.257" stroke="url(#paint17_linear)"/></g><g filter="url(#filter42_f)"><circle cx="20.558" cy="337.75" r="8.616" fill="#C050D8"/><circle cx="20.558" cy="337.75" r="8.616" fill="url(#paint18_radial)"/></g><g filter="url(#filter43_f)"><circle cx="20.558" cy="337.75" r="8.616" fill="#C050D8"/><circle cx="20.558" cy="337.75" r="8.616" fill="url(#paint19_radial)"/></g><g filter="url(#filter44_f)"><circle cx="287.978" cy="111.36" r="3.132" fill="#AFCCF4"/></g><g filter="url(#filter45_f)"><circle cx="287.978" cy="111.36" r="3.132" fill="#93BEFA"/></g><g opacity=".6" filter="url(#filter46_f)"><g filter="url(#filter47_f)"><circle cx="37.768" cy="237.214" r="3.132" fill="#AFCCF4"/></g><g filter="url(#filter48_f)"><circle cx="37.768" cy="237.214" r="3.132" fill="#93BEFA"/></g></g><g filter="url(#filter49_f)"><circle cx="291.288" cy="281.629" r="5.341" fill="#AFCCF4"/><circle cx="291.288" cy="281.629" r="5.341" fill="url(#paint20_radial)"/></g><g filter="url(#filter50_f)"><circle cx="61.869" cy="376.842" r="5.045" fill="#AFCCF4"/><circle cx="61.869" cy="376.842" r="5.045" fill="url(#paint21_radial)"/></g><g filter="url(#filter51_f)"><circle cx="186.173" cy="78.311" r="4.539" fill="#CAE0FD"/></g><g filter="url(#filter52_f)"><circle cx="186.173" cy="78.311" r="4.539" fill="#CAE0FD"/></g><g filter="url(#filter53_d)" fill="#E0EDFF"><g filter="url(#filter54_f)"><circle cx="165.454" cy="137.217" r="2.01"/><circle cx="165.454" cy="137.217" r="2.01"/></g><g filter="url(#filter55_f)"><circle cx="165.454" cy="137.217" r="2.01"/><circle cx="165.454" cy="137.217" r="2.01"/></g></g></g><g opacity=".3"><g opacity=".4"><path d="M-33.223 275.96l151.454-82.536 67.662 22.282 93.421-28.664 61.396 39.298 62.251-74.357h-21.153" stroke="#9B51E0"/><path d="M252.719 139.393l59.08 106.015L410.78 56.496l24.06 41.633 2.657 74.694-48.727 50.582-37.064 28.17m-98.987-112.182l46.507-166.507m-46.507 166.507l-52.968 36.623m30.137 214.577L20.981-27.114l-88.34 128.99-121.612-2.611 119.446 193.817 11.183-151.093L140.168-6.622 115.804 80.57" stroke="#9B51E0"/><path d="M252.719 139.393l59.08 106.015L410.78 56.496l24.06 41.633 2.657 74.694-48.727 50.582-37.064 28.17m-98.987-112.182l46.507-166.507m-46.507 166.507l-52.968 36.623m30.137 214.577L20.981-27.114l-88.34 128.99-121.612-2.611 119.446 193.817 11.183-151.093L140.168-6.622 115.804 80.57" stroke="url(#paint22_linear)"/></g><g filter="url(#filter56_f)" transform="rotate(-180 278.931 187.591)"><circle cx="278.931" cy="187.591" r="3.323" fill="#C050D8"/><circle cx="278.931" cy="187.591" r="3.323" fill="url(#paint23_radial)"/></g><g filter="url(#filter57_f)" transform="rotate(-180 278.931 187.591)"><circle cx="278.931" cy="187.591" r="3.323" fill="#C050D8"/><circle cx="278.931" cy="187.591" r="3.323" fill="url(#paint24_radial)"/></g><g filter="url(#filter58_f)"><circle cx="118.099" cy="193.538" r="2.096" transform="rotate(-180 118.099 193.538)" fill="#AFCCF4"/></g><g filter="url(#filter59_f)"><circle cx="118.099" cy="193.538" r="2.096" transform="rotate(-180 118.099 193.538)" fill="#93BEFA"/></g><g filter="url(#filter60_f)" transform="rotate(-180 115.88 79.592)"><circle cx="115.88" cy="79.592" r="3.574" fill="#AFCCF4"/><circle cx="115.88" cy="79.592" r="3.574" fill="url(#paint25_radial)"/></g><g filter="url(#filter61_f)" transform="rotate(-180 252.761 139.875)"><circle cx="252.761" cy="139.875" r="1.896" fill="#03EEEE"/><circle cx="252.761" cy="139.875" r="1.896" fill="url(#paint26_radial)"/></g><g filter="url(#filter62_f)"><circle cx="186.226" cy="215.655" r="3.037" transform="rotate(-180 186.226 215.655)" fill="#CAE0FD"/></g><g filter="url(#filter63_f)"><circle cx="186.226" cy="215.655" r="3.037" transform="rotate(-180 186.226 215.655)" fill="#CAE0FD"/></g><g filter="url(#filter64_d)" transform="rotate(-180 200.093 176.235)" fill="#E0EDFF"><g filter="url(#filter65_f)"><circle cx="200.093" cy="176.235" r="2.779"/><circle cx="200.093" cy="176.235" r="2.779"/></g><g filter="url(#filter66_f)"><circle cx="200.093" cy="176.235" r="2.779"/><circle cx="200.093" cy="176.235" r="2.779"/></g></g></g><defs><filter id="filter0_f" x="26.636" y="226.083" width="22.264" height="22.264" filterUnits="userSpaceOnUse" color-interpolation-filters="sRGB"><feFlood flood-opacity="0" result="BackgroundImageFix"/><feBlend in="SourceGraphic" in2="BackgroundImageFix" result="shape"/><feGaussianBlur stdDeviation="4" result="effect1_foregroundBlur"/></filter><filter id="filter1_f" x="32.636" y="232.083" width="10.264" height="10.264" filterUnits="userSpaceOnUse" color-interpolation-filters="sRGB"><feFlood flood-opacity="0" result="BackgroundImageFix"/><feBlend in="SourceGraphic" in2="BackgroundImageFix" result="shape"/><feGaussianBlur stdDeviation="1" result="effect1_foregroundBlur"/></filter><filter id="filter2_f" x="32.636" y="232.083" width="10.264" height="10.264" filterUnits="userSpaceOnUse" color-interpolation-filters="sRGB"><feFlood flood-opacity="0" result="BackgroundImageFix"/><feBlend in="SourceGraphic" in2="BackgroundImageFix" result="shape"/><feGaussianBlur stdDeviation="1" result="effect1_foregroundBlur"/></filter><filter id="filter3_f" x="33.636" y="233.083" width="8.263" height="8.263" filterUnits="userSpaceOnUse" color-interpolation-filters="sRGB"><feFlood flood-opacity="0" result="BackgroundImageFix"/><feBlend in="SourceGraphic" in2="BackgroundImageFix" result="shape"/><feGaussianBlur stdDeviation=".5" result="effect1_foregroundBlur"/></filter><filter id="filter4_f" x="245.178" y="398.924" width="21.893" height="21.893" filterUnits="userSpaceOnUse" color-interpolation-filters="sRGB"><feFlood flood-opacity="0" result="BackgroundImageFix"/><feBlend in="SourceGraphic" in2="BackgroundImageFix" result="shape"/><feGaussianBlur stdDeviation="3" result="effect1_foregroundBlur"/></filter><filter id="filter5_f" x="288.763" y="503.912" width="16.106" height="16.106" filterUnits="userSpaceOnUse" color-interpolation-filters="sRGB"><feFlood flood-opacity="0" result="BackgroundImageFix"/><feBlend in="SourceGraphic" in2="BackgroundImageFix" result="shape"/><feGaussianBlur stdDeviation="2" result="effect1_foregroundBlur"/></filter><filter id="filter6_f" x="77.529" y="403.587" width="75.466" height="75.466" filterUnits="userSpaceOnUse" color-interpolation-filters="sRGB"><feFlood flood-opacity="0" result="BackgroundImageFix"/><feBlend in="SourceGraphic" in2="BackgroundImageFix" result="shape"/><feGaussianBlur stdDeviation="14" result="effect1_foregroundBlur"/></filter><filter id="filter7_f" x="96.529" y="422.587" width="37.466" height="37.466" filterUnits="userSpaceOnUse" color-interpolation-filters="sRGB"><feFlood flood-opacity="0" result="BackgroundImageFix"/><feBlend in="SourceGraphic" in2="BackgroundImageFix" result="shape"/><feGaussianBlur stdDeviation="4.5" result="effect1_foregroundBlur"/></filter><filter id="filter8_f" x="291.522" y="409.449" width="9.722" height="9.722" filterUnits="userSpaceOnUse" color-interpolation-filters="sRGB"><feFlood flood-opacity="0" result="BackgroundImageFix"/><feBlend in="SourceGraphic" in2="BackgroundImageFix" result="shape"/><feGaussianBlur stdDeviation="1" result="effect1_foregroundBlur"/></filter><filter id="filter9_f" x=".078" y="468.797" width="20.985" height="20.985" filterUnits="userSpaceOnUse" color-interpolation-filters="sRGB"><feFlood flood-opacity="0" result="BackgroundImageFix"/><feBlend in="SourceGraphic" in2="BackgroundImageFix" result="shape"/><feGaussianBlur stdDeviation="3.5" result="effect1_foregroundBlur"/></filter><filter id="filter10_f" x="5.078" y="473.797" width="10.985" height="10.985" filterUnits="userSpaceOnUse" color-interpolation-filters="sRGB"><feFlood flood-opacity="0" result="BackgroundImageFix"/><feBlend in="SourceGraphic" in2="BackgroundImageFix" result="shape"/><feGaussianBlur stdDeviation="1" result="effect1_foregroundBlur"/></filter><filter id="filter11_f" x="218.84" y="269.373" width="8.588" height="8.588" filterUnits="userSpaceOnUse" color-interpolation-filters="sRGB"><feFlood flood-opacity="0" result="BackgroundImageFix"/><feBlend in="SourceGraphic" in2="BackgroundImageFix" result="shape"/><feGaussianBlur stdDeviation="1" result="effect1_foregroundBlur"/></filter><filter id="filter12_f" x="171.587" y="342.977" width="8.588" height="8.588" filterUnits="userSpaceOnUse" color-interpolation-filters="sRGB"><feFlood flood-opacity="0" result="BackgroundImageFix"/><feBlend in="SourceGraphic" in2="BackgroundImageFix" result="shape"/><feGaussianBlur stdDeviation="1" result="effect1_foregroundBlur"/></filter><filter id="filter13_f" x="261.769" y="437.78" width="13.265" height="13.265" filterUnits="userSpaceOnUse" color-interpolation-filters="sRGB"><feFlood flood-opacity="0" result="BackgroundImageFix"/><feBlend in="SourceGraphic" in2="BackgroundImageFix" result="shape"/><feGaussianBlur stdDeviation="2.5" result="effect1_foregroundBlur"/></filter><filter id="filter14_f" x="264.769" y="440.78" width="7.266" height="7.266" filterUnits="userSpaceOnUse" color-interpolation-filters="sRGB"><feFlood flood-opacity="0" result="BackgroundImageFix"/><feBlend in="SourceGraphic" in2="BackgroundImageFix" result="shape"/><feGaussianBlur stdDeviation="1" result="effect1_foregroundBlur"/></filter><filter id="filter15_f" x="169.89" y="455.276" width="13.255" height="13.255" filterUnits="userSpaceOnUse" color-interpolation-filters="sRGB"><feFlood flood-opacity="0" result="BackgroundImageFix"/><feBlend in="SourceGraphic" in2="BackgroundImageFix" result="shape"/><feGaussianBlur stdDeviation="2.5" result="effect1_foregroundBlur"/></filter><filter id="filter16_f" x="172.89" y="458.276" width="7.255" height="7.255" filterUnits="userSpaceOnUse" color-interpolation-filters="sRGB"><feFlood flood-opacity="0" result="BackgroundImageFix"/><feBlend in="SourceGraphic" in2="BackgroundImageFix" result="shape"/><feGaussianBlur stdDeviation="1" result="effect1_foregroundBlur"/></filter><filter id="filter17_d" x="18.416" y="431.544" width="11.255" height="11.255" filterUnits="userSpaceOnUse" color-interpolation-filters="sRGB"><feFlood flood-opacity="0" result="BackgroundImageFix"/><feColorMatrix in="SourceAlpha" values="0 0 0 0 0 0 0 0 0 0 0 0 0 0 0 0 0 0 127 0"/><feOffset dy="4"/><feGaussianBlur stdDeviation="2"/><feColorMatrix values="0 0 0 0 0 0 0 0 0 0 0 0 0 0 0 0 0 0 0.25 0"/><feBlend in2="BackgroundImageFix" result="effect1_dropShadow"/><feBlend in="SourceGraphic" in2="effect1_dropShadow" result="shape"/></filter><filter id="filter18_f" x="13.416" y="422.544" width="21.255" height="21.255" filterUnits="userSpaceOnUse" color-interpolation-filters="sRGB"><feFlood flood-opacity="0" result="BackgroundImageFix"/><feBlend in="SourceGraphic" in2="BackgroundImageFix" result="shape"/><feGaussianBlur stdDeviation="4.5" result="effect1_foregroundBlur"/></filter><filter id="filter19_f" x="20.416" y="429.544" width="7.255" height="7.255" filterUnits="userSpaceOnUse" color-interpolation-filters="sRGB"><feFlood flood-opacity="0" result="BackgroundImageFix"/><feBlend in="SourceGraphic" in2="BackgroundImageFix" result="shape"/><feGaussianBlur stdDeviation="1" result="effect1_foregroundBlur"/></filter><filter id="filter20_f" x="295.754" y="579.755" width="36.054" height="36.054" filterUnits="userSpaceOnUse" color-interpolation-filters="sRGB"><feFlood flood-opacity="0" result="BackgroundImageFix"/><feBlend in="SourceGraphic" in2="BackgroundImageFix" result="shape"/><feGaussianBlur stdDeviation="7" result="effect1_foregroundBlur"/></filter><filter id="filter21_f" x="306.754" y="590.755" width="14.054" height="14.054" filterUnits="userSpaceOnUse" color-interpolation-filters="sRGB"><feFlood flood-opacity="0" result="BackgroundImageFix"/><feBlend in="SourceGraphic" in2="BackgroundImageFix" result="shape"/><feGaussianBlur stdDeviation="1.5" result="effect1_foregroundBlur"/></filter><filter id="filter22_f" x="34.102" y="502.017" width="35.166" height="35.166" filterUnits="userSpaceOnUse" color-interpolation-filters="sRGB"><feFlood flood-opacity="0" result="BackgroundImageFix"/><feBlend in="SourceGraphic" in2="BackgroundImageFix" result="shape"/><feGaussianBlur stdDeviation="7" result="effect1_foregroundBlur"/></filter><filter id="filter23_f" x="45.102" y="513.017" width="13.166" height="13.166" filterUnits="userSpaceOnUse" color-interpolation-filters="sRGB"><feFlood flood-opacity="0" result="BackgroundImageFix"/><feBlend in="SourceGraphic" in2="BackgroundImageFix" result="shape"/><feGaussianBlur stdDeviation="1.5" result="effect1_foregroundBlur"/></filter><filter id="filter24_f" x="253.056" y="614.469" width="21.079" height="21.079" filterUnits="userSpaceOnUse" color-interpolation-filters="sRGB"><feFlood flood-opacity="0" result="BackgroundImageFix"/><feBlend in="SourceGraphic" in2="BackgroundImageFix" result="shape"/><feGaussianBlur stdDeviation="4" result="effect1_foregroundBlur"/></filter><filter id="filter25_f" x="259.056" y="620.469" width="9.079" height="9.079" filterUnits="userSpaceOnUse" color-interpolation-filters="sRGB"><feFlood flood-opacity="0" result="BackgroundImageFix"/><feBlend in="SourceGraphic" in2="BackgroundImageFix" result="shape"/><feGaussianBlur stdDeviation="1" result="effect1_foregroundBlur"/></filter><filter id="filter26_f" x="170.357" y="587.528" width="21.361" height="21.361" filterUnits="userSpaceOnUse" color-interpolation-filters="sRGB"><feFlood flood-opacity="0" result="BackgroundImageFix"/><feBlend in="SourceGraphic" in2="BackgroundImageFix" result="shape"/><feGaussianBlur stdDeviation="3.5" result="effect1_foregroundBlur"/></filter><filter id="filter27_f" x="175.357" y="592.528" width="11.361" height="11.361" filterUnits="userSpaceOnUse" color-interpolation-filters="sRGB"><feFlood flood-opacity="0" result="BackgroundImageFix"/><feBlend in="SourceGraphic" in2="BackgroundImageFix" result="shape"/><feGaussianBlur stdDeviation="1" result="effect1_foregroundBlur"/></filter><filter id="filter28_f" x="-1.224" y="600.441" width="13.259" height="13.259" filterUnits="userSpaceOnUse" color-interpolation-filters="sRGB"><feFlood flood-opacity="0" result="BackgroundImageFix"/><feBlend in="SourceGraphic" in2="BackgroundImageFix" result="shape"/><feGaussianBlur stdDeviation="2.5" result="effect1_foregroundBlur"/></filter><filter id="filter29_f" x="1.776" y="603.441" width="7.259" height="7.259" filterUnits="userSpaceOnUse" color-interpolation-filters="sRGB"><feFlood flood-opacity="0" result="BackgroundImageFix"/><feBlend in="SourceGraphic" in2="BackgroundImageFix" result="shape"/><feGaussianBlur stdDeviation="1" result="effect1_foregroundBlur"/></filter><filter id="filter30_d" x="158.606" y="644.348" width="11.259" height="11.259" filterUnits="userSpaceOnUse" color-interpolation-filters="sRGB"><feFlood flood-opacity="0" result="BackgroundImageFix"/><feColorMatrix in="SourceAlpha" values="0 0 0 0 0 0 0 0 0 0 0 0 0 0 0 0 0 0 127 0"/><feOffset dy="4"/><feGaussianBlur stdDeviation="2"/><feColorMatrix values="0 0 0 0 0 0 0 0 0 0 0 0 0 0 0 0 0 0 0.25 0"/><feBlend in2="BackgroundImageFix" result="effect1_dropShadow"/><feBlend in="SourceGraphic" in2="effect1_dropShadow" result="shape"/></filter><filter id="filter31_f" x="153.606" y="635.348" width="21.259" height="21.259" filterUnits="userSpaceOnUse" color-interpolation-filters="sRGB"><feFlood flood-opacity="0" result="BackgroundImageFix"/><feBlend in="SourceGraphic" in2="BackgroundImageFix" result="shape"/><feGaussianBlur stdDeviation="4.5" result="effect1_foregroundBlur"/></filter><filter id="filter32_f" x="160.606" y="642.348" width="7.259" height="7.259" filterUnits="userSpaceOnUse" color-interpolation-filters="sRGB"><feFlood flood-opacity="0" result="BackgroundImageFix"/><feBlend in="SourceGraphic" in2="BackgroundImageFix" result="shape"/><feGaussianBlur stdDeviation="1" result="effect1_foregroundBlur"/></filter><filter id="filter33_f" x="239.563" y="670.134" width="33.39" height="33.39" filterUnits="userSpaceOnUse" color-interpolation-filters="sRGB"><feFlood flood-opacity="0" result="BackgroundImageFix"/><feBlend in="SourceGraphic" in2="BackgroundImageFix" result="shape"/><feGaussianBlur stdDeviation="7" result="effect1_foregroundBlur"/></filter><filter id="filter34_f" x="250.563" y="681.134" width="11.39" height="11.39" filterUnits="userSpaceOnUse" color-interpolation-filters="sRGB"><feFlood flood-opacity="0" result="BackgroundImageFix"/><feBlend in="SourceGraphic" in2="BackgroundImageFix" result="shape"/><feGaussianBlur stdDeviation="1.5" result="effect1_foregroundBlur"/></filter><filter id="filter35_f" x="116.133" y="681.952" width="19.399" height="19.399" filterUnits="userSpaceOnUse" color-interpolation-filters="sRGB"><feFlood flood-opacity="0" result="BackgroundImageFix"/><feBlend in="SourceGraphic" in2="BackgroundImageFix" result="shape"/><feGaussianBlur stdDeviation="4" result="effect1_foregroundBlur"/></filter><filter id="filter36_f" x="154.057" y="550.153" width="11.886" height="11.886" filterUnits="userSpaceOnUse" color-interpolation-filters="sRGB"><feFlood flood-opacity="0" result="BackgroundImageFix"/><feBlend in="SourceGraphic" in2="BackgroundImageFix" result="shape"/><feGaussianBlur stdDeviation="1" result="effect1_foregroundBlur"/></filter><filter id="filter37_f" x="152.057" y="548.153" width="15.886" height="15.886" filterUnits="userSpaceOnUse" color-interpolation-filters="sRGB"><feFlood flood-opacity="0" result="BackgroundImageFix"/><feBlend in="SourceGraphic" in2="BackgroundImageFix" result="shape"/><feGaussianBlur stdDeviation="2" result="effect1_foregroundBlur"/></filter><filter id="filter38_f" x="231.499" y="644.596" width="7.074" height="7.074" filterUnits="userSpaceOnUse" color-interpolation-filters="sRGB"><feFlood flood-opacity="0" result="BackgroundImageFix"/><feBlend in="SourceGraphic" in2="BackgroundImageFix" result="shape"/><feGaussianBlur stdDeviation="1" result="effect1_foregroundBlur"/></filter><filter id="filter39_d" x="186.071" y="675.365" width="12.508" height="12.508" filterUnits="userSpaceOnUse" color-interpolation-filters="sRGB"><feFlood flood-opacity="0" result="BackgroundImageFix"/><feColorMatrix in="SourceAlpha" values="0 0 0 0 0 0 0 0 0 0 0 0 0 0 0 0 0 0 127 0"/><feOffset dy="4"/><feGaussianBlur stdDeviation="2"/><feColorMatrix values="0 0 0 0 0 0 0 0 0 0 0 0 0 0 0 0 0 0 0.25 0"/><feBlend in2="BackgroundImageFix" result="effect1_dropShadow"/><feBlend in="SourceGraphic" in2="effect1_dropShadow" result="shape"/></filter><filter id="filter40_f" x="181.071" y="666.365" width="22.508" height="22.508" filterUnits="userSpaceOnUse" color-interpolation-filters="sRGB"><feFlood flood-opacity="0" result="BackgroundImageFix"/><feBlend in="SourceGraphic" in2="BackgroundImageFix" result="shape"/><feGaussianBlur stdDeviation="4.5" result="effect1_foregroundBlur"/></filter><filter id="filter41_f" x="188.071" y="673.365" width="8.508" height="8.508" filterUnits="userSpaceOnUse" color-interpolation-filters="sRGB"><feFlood flood-opacity="0" result="BackgroundImageFix"/><feBlend in="SourceGraphic" in2="BackgroundImageFix" result="shape"/><feGaussianBlur stdDeviation="1" result="effect1_foregroundBlur"/></filter><filter id="filter42_f" x="-16.058" y="301.134" width="73.232" height="73.232" filterUnits="userSpaceOnUse" color-interpolation-filters="sRGB"><feFlood flood-opacity="0" result="BackgroundImageFix"/><feBlend in="SourceGraphic" in2="BackgroundImageFix" result="shape"/><feGaussianBlur stdDeviation="14" result="effect1_foregroundBlur"/></filter><filter id="filter43_f" x="2.942" y="320.134" width="35.232" height="35.232" filterUnits="userSpaceOnUse" color-interpolation-filters="sRGB"><feFlood flood-opacity="0" result="BackgroundImageFix"/><feBlend in="SourceGraphic" in2="BackgroundImageFix" result="shape"/><feGaussianBlur stdDeviation="4.5" result="effect1_foregroundBlur"/></filter><filter id="filter44_f" x="276.846" y="100.228" width="22.264" height="22.264" filterUnits="userSpaceOnUse" color-interpolation-filters="sRGB"><feFlood flood-opacity="0" result="BackgroundImageFix"/><feBlend in="SourceGraphic" in2="BackgroundImageFix" result="shape"/><feGaussianBlur stdDeviation="4" result="effect1_foregroundBlur"/></filter><filter id="filter45_f" x="282.846" y="106.228" width="10.264" height="10.264" filterUnits="userSpaceOnUse" color-interpolation-filters="sRGB"><feFlood flood-opacity="0" result="BackgroundImageFix"/><feBlend in="SourceGraphic" in2="BackgroundImageFix" result="shape"/><feGaussianBlur stdDeviation="1" result="effect1_foregroundBlur"/></filter><filter id="filter46_f" x="29.636" y="229.083" width="16.264" height="16.264" filterUnits="userSpaceOnUse" color-interpolation-filters="sRGB"><feFlood flood-opacity="0" result="BackgroundImageFix"/><feBlend in="SourceGraphic" in2="BackgroundImageFix" result="shape"/><feGaussianBlur stdDeviation="2.5" result="effect1_foregroundBlur"/></filter><filter id="filter47_f" x="26.636" y="226.083" width="22.264" height="22.264" filterUnits="userSpaceOnUse" color-interpolation-filters="sRGB"><feFlood flood-opacity="0" result="BackgroundImageFix"/><feBlend in="SourceGraphic" in2="BackgroundImageFix" result="shape"/><feGaussianBlur stdDeviation="4" result="effect1_foregroundBlur"/></filter><filter id="filter48_f" x="32.636" y="232.083" width="10.264" height="10.264" filterUnits="userSpaceOnUse" color-interpolation-filters="sRGB"><feFlood flood-opacity="0" result="BackgroundImageFix"/><feBlend in="SourceGraphic" in2="BackgroundImageFix" result="shape"/><feGaussianBlur stdDeviation="1" result="effect1_foregroundBlur"/></filter><filter id="filter49_f" x="281.948" y="272.288" width="18.681" height="18.681" filterUnits="userSpaceOnUse" color-interpolation-filters="sRGB"><feFlood flood-opacity="0" result="BackgroundImageFix"/><feBlend in="SourceGraphic" in2="BackgroundImageFix" result="shape"/><feGaussianBlur stdDeviation="2" result="effect1_foregroundBlur"/></filter><filter id="filter50_f" x="52.825" y="367.797" width="18.089" height="18.089" filterUnits="userSpaceOnUse" color-interpolation-filters="sRGB"><feFlood flood-opacity="0" result="BackgroundImageFix"/><feBlend in="SourceGraphic" in2="BackgroundImageFix" result="shape"/><feGaussianBlur stdDeviation="2" result="effect1_foregroundBlur"/></filter><filter id="filter51_f" x="174.634" y="66.772" width="23.077" height="23.077" filterUnits="userSpaceOnUse" color-interpolation-filters="sRGB"><feFlood flood-opacity="0" result="BackgroundImageFix"/><feBlend in="SourceGraphic" in2="BackgroundImageFix" result="shape"/><feGaussianBlur stdDeviation="3.5" result="effect1_foregroundBlur"/></filter><filter id="filter52_f" x="179.634" y="71.772" width="13.077" height="13.077" filterUnits="userSpaceOnUse" color-interpolation-filters="sRGB"><feFlood flood-opacity="0" result="BackgroundImageFix"/><feBlend in="SourceGraphic" in2="BackgroundImageFix" result="shape"/><feGaussianBlur stdDeviation="1" result="effect1_foregroundBlur"/></filter><filter id="filter53_d" x="159.445" y="135.207" width="12.019" height="12.019" filterUnits="userSpaceOnUse" color-interpolation-filters="sRGB"><feFlood flood-opacity="0" result="BackgroundImageFix"/><feColorMatrix in="SourceAlpha" values="0 0 0 0 0 0 0 0 0 0 0 0 0 0 0 0 0 0 127 0"/><feOffset dy="4"/><feGaussianBlur stdDeviation="2"/><feColorMatrix values="0 0 0 0 0 0 0 0 0 0 0 0 0 0 0 0 0 0 0.25 0"/><feBlend in2="BackgroundImageFix" result="effect1_dropShadow"/><feBlend in="SourceGraphic" in2="effect1_dropShadow" result="shape"/></filter><filter id="filter54_f" x="154.445" y="126.207" width="22.019" height="22.019" filterUnits="userSpaceOnUse" color-interpolation-filters="sRGB"><feFlood flood-opacity="0" result="BackgroundImageFix"/><feBlend in="SourceGraphic" in2="BackgroundImageFix" result="shape"/><feGaussianBlur stdDeviation="4.5" result="effect1_foregroundBlur"/></filter><filter id="filter55_f" x="161.445" y="133.207" width="8.019" height="8.019" filterUnits="userSpaceOnUse" color-interpolation-filters="sRGB"><feFlood flood-opacity="0" result="BackgroundImageFix"/><feBlend in="SourceGraphic" in2="BackgroundImageFix" result="shape"/><feGaussianBlur stdDeviation="1" result="effect1_foregroundBlur"/></filter><filter id="filter56_f" x="261.607" y="170.268" width="34.647" height="34.647" filterUnits="userSpaceOnUse" color-interpolation-filters="sRGB"><feFlood flood-opacity="0" result="BackgroundImageFix"/><feBlend in="SourceGraphic" in2="BackgroundImageFix" result="shape"/><feGaussianBlur stdDeviation="7" result="effect1_foregroundBlur"/></filter><filter id="filter57_f" x="272.607" y="181.268" width="12.647" height="12.647" filterUnits="userSpaceOnUse" color-interpolation-filters="sRGB"><feFlood flood-opacity="0" result="BackgroundImageFix"/><feBlend in="SourceGraphic" in2="BackgroundImageFix" result="shape"/><feGaussianBlur stdDeviation="1.5" result="effect1_foregroundBlur"/></filter><filter id="filter58_f" x="108.003" y="183.442" width="20.192" height="20.192" filterUnits="userSpaceOnUse" color-interpolation-filters="sRGB"><feFlood flood-opacity="0" result="BackgroundImageFix"/><feBlend in="SourceGraphic" in2="BackgroundImageFix" result="shape"/><feGaussianBlur stdDeviation="4" result="effect1_foregroundBlur"/></filter><filter id="filter59_f" x="114.003" y="189.442" width="8.192" height="8.192" filterUnits="userSpaceOnUse" color-interpolation-filters="sRGB"><feFlood flood-opacity="0" result="BackgroundImageFix"/><feBlend in="SourceGraphic" in2="BackgroundImageFix" result="shape"/><feGaussianBlur stdDeviation="1" result="effect1_foregroundBlur"/></filter><filter id="filter60_f" x="108.306" y="72.018" width="15.148" height="15.148" filterUnits="userSpaceOnUse" color-interpolation-filters="sRGB"><feFlood flood-opacity="0" result="BackgroundImageFix"/><feBlend in="SourceGraphic" in2="BackgroundImageFix" result="shape"/><feGaussianBlur stdDeviation="2" result="effect1_foregroundBlur"/></filter><filter id="filter61_f" x="248.865" y="135.979" width="7.791" height="7.791" filterUnits="userSpaceOnUse" color-interpolation-filters="sRGB"><feFlood flood-opacity="0" result="BackgroundImageFix"/><feBlend in="SourceGraphic" in2="BackgroundImageFix" result="shape"/><feGaussianBlur stdDeviation="1" result="effect1_foregroundBlur"/></filter><filter id="filter62_f" x="176.188" y="205.618" width="20.075" height="20.075" filterUnits="userSpaceOnUse" color-interpolation-filters="sRGB"><feFlood flood-opacity="0" result="BackgroundImageFix"/><feBlend in="SourceGraphic" in2="BackgroundImageFix" result="shape"/><feGaussianBlur stdDeviation="3.5" result="effect1_foregroundBlur"/></filter><filter id="filter63_f" x="181.188" y="210.618" width="10.075" height="10.075" filterUnits="userSpaceOnUse" color-interpolation-filters="sRGB"><feFlood flood-opacity="0" result="BackgroundImageFix"/><feBlend in="SourceGraphic" in2="BackgroundImageFix" result="shape"/><feGaussianBlur stdDeviation="1" result="effect1_foregroundBlur"/></filter><filter id="filter64_d" x="193.313" y="173.455" width="13.559" height="13.559" filterUnits="userSpaceOnUse" color-interpolation-filters="sRGB"><feFlood flood-opacity="0" result="BackgroundImageFix"/><feColorMatrix in="SourceAlpha" values="0 0 0 0 0 0 0 0 0 0 0 0 0 0 0 0 0 0 127 0"/><feOffset dy="4"/><feGaussianBlur stdDeviation="2"/><feColorMatrix values="0 0 0 0 0 0 0 0 0 0 0 0 0 0 0 0 0 0 0.25 0"/><feBlend in2="BackgroundImageFix" result="effect1_dropShadow"/><feBlend in="SourceGraphic" in2="effect1_dropShadow" result="shape"/></filter><filter id="filter65_f" x="188.313" y="164.455" width="23.559" height="23.559" filterUnits="userSpaceOnUse" color-interpolation-filters="sRGB"><feFlood flood-opacity="0" result="BackgroundImageFix"/><feBlend in="SourceGraphic" in2="BackgroundImageFix" result="shape"/><feGaussianBlur stdDeviation="4.5" result="effect1_foregroundBlur"/></filter><filter id="filter66_f" x="195.313" y="171.455" width="9.559" height="9.559" filterUnits="userSpaceOnUse" color-interpolation-filters="sRGB"><feFlood flood-opacity="0" result="BackgroundImageFix"/><feBlend in="SourceGraphic" in2="BackgroundImageFix" result="shape"/><feGaussianBlur stdDeviation="1" result="effect1_foregroundBlur"/></filter><radialGradient id="paint1_radial" cx="0" cy="0" r="1" gradientUnits="userSpaceOnUse" gradientTransform="rotate(90 -76.873 332.998) scale(4.69988)"><stop offset=".276" stop-color="#AFCCF4"/><stop offset="1" stop-color="#AE44BA"/></radialGradient><radialGradient id="paint2_radial" cx="0" cy="0" r="1" gradientUnits="userSpaceOnUse" gradientTransform="rotate(90 -107.575 404.39) scale(3.85074)"><stop stop-color="#fff"/><stop offset="1" stop-color="#fff" stop-opacity="0"/></radialGradient><radialGradient id="paint3_radial" cx="0" cy="0" r="1" gradientUnits="userSpaceOnUse" gradientTransform="rotate(90 -163.03 278.29) scale(9.24744)"><stop stop-color="#AFCCF4"/><stop offset="1" stop-color="#fff" stop-opacity="0"/></radialGradient><radialGradient id="paint4_radial" cx="0" cy="0" r="1" gradientUnits="userSpaceOnUse" gradientTransform="rotate(90 -163.03 278.29) scale(9.24744)"><stop stop-color="#AFCCF4"/><stop offset="1" stop-color="#fff" stop-opacity="0"/></radialGradient><radialGradient id="paint5_radial" cx="0" cy="0" r="1" gradientUnits="userSpaceOnUse" gradientTransform="rotate(90 -58.964 355.347) scale(2.71838)"><stop stop-color="#fff"/><stop offset="1" stop-color="#fff" stop-opacity="0"/></radialGradient><radialGradient id="paint7_radial" cx="0" cy="0" r="1" gradientUnits="userSpaceOnUse" gradientTransform="rotate(90 -142 455.782) scale(4.02721)"><stop stop-color="#AFCCF4"/><stop offset="1" stop-color="#fff" stop-opacity="0"/></radialGradient><radialGradient id="paint8_radial" cx="0" cy="0" r="1" gradientUnits="userSpaceOnUse" gradientTransform="rotate(90 -142 455.782) scale(4.02721)"><stop stop-color="#AFCCF4"/><stop offset="1" stop-color="#fff" stop-opacity="0"/></radialGradient><radialGradient id="paint9_radial" cx="0" cy="0" r="1" gradientUnits="userSpaceOnUse" gradientTransform="rotate(90 -233.958 285.643) scale(3.58325)"><stop stop-color="#AFCCF4"/><stop offset="1" stop-color="#fff" stop-opacity="0"/></radialGradient><radialGradient id="paint10_radial" cx="0" cy="0" r="1" gradientUnits="userSpaceOnUse" gradientTransform="rotate(90 -233.958 285.643) scale(3.58325)"><stop stop-color="#AFCCF4"/><stop offset="1" stop-color="#fff" stop-opacity="0"/></radialGradient><radialGradient id="paint12_radial" cx="0" cy="0" r="1" gradientUnits="userSpaceOnUse" gradientTransform="rotate(90 -215.286 471.543) scale(2.69508)"><stop stop-color="#AFCCF4"/><stop offset="1" stop-color="#fff" stop-opacity="0"/></radialGradient><radialGradient id="paint13_radial" cx="0" cy="0" r="1" gradientUnits="userSpaceOnUse" gradientTransform="rotate(90 -215.286 471.543) scale(2.69508)"><stop stop-color="#AFCCF4"/><stop offset="1" stop-color="#fff" stop-opacity="0"/></radialGradient><radialGradient id="paint14_radial" cx="0" cy="0" r="1" gradientUnits="userSpaceOnUse" gradientTransform="matrix(0 3.94316 -3.94316 0 160 556.096)"><stop stop-color="#fff"/><stop offset="1" stop-color="#fff" stop-opacity="0"/></radialGradient><radialGradient id="paint15_radial" cx="0" cy="0" r="1" gradientUnits="userSpaceOnUse" gradientTransform="matrix(0 3.94316 -3.94316 0 160 556.096)"><stop stop-color="#fff"/><stop offset="1" stop-color="#fff" stop-opacity="0"/></radialGradient><radialGradient id="paint16_radial" cx="0" cy="0" r="1" gradientUnits="userSpaceOnUse" gradientTransform="rotate(90 -206.549 441.584) scale(1.53717)"><stop stop-color="#fff"/><stop offset="1" stop-color="#fff" stop-opacity="0"/></radialGradient><radialGradient id="paint18_radial" cx="0" cy="0" r="1" gradientUnits="userSpaceOnUse" gradientTransform="rotate(90 -158.596 179.154) scale(8.61596)"><stop stop-color="#AFCCF4"/><stop offset="1" stop-color="#fff" stop-opacity="0"/></radialGradient><radialGradient id="paint19_radial" cx="0" cy="0" r="1" gradientUnits="userSpaceOnUse" gradientTransform="rotate(90 -158.596 179.154) scale(8.61596)"><stop stop-color="#AFCCF4"/><stop offset="1" stop-color="#fff" stop-opacity="0"/></radialGradient><radialGradient id="paint20_radial" cx="0" cy="0" r="1" gradientUnits="userSpaceOnUse" gradientTransform="rotate(90 4.83 286.459) scale(5.34076)"><stop stop-color="#fff"/><stop offset="1" stop-color="#fff" stop-opacity="0"/></radialGradient><radialGradient id="paint21_radial" cx="0" cy="0" r="1" gradientUnits="userSpaceOnUse" gradientTransform="rotate(90 -157.486 219.356) scale(5.04471)"><stop stop-color="#fff"/><stop offset="1" stop-color="#fff" stop-opacity="0"/></radialGradient><radialGradient id="paint23_radial" cx="0" cy="0" r="1" gradientUnits="userSpaceOnUse" gradientTransform="rotate(90 45.67 233.261) scale(3.32337)"><stop stop-color="#AFCCF4"/><stop offset="1" stop-color="#fff" stop-opacity="0"/></radialGradient><radialGradient id="paint24_radial" cx="0" cy="0" r="1" gradientUnits="userSpaceOnUse" gradientTransform="rotate(90 45.67 233.261) scale(3.32337)"><stop stop-color="#AFCCF4"/><stop offset="1" stop-color="#fff" stop-opacity="0"/></radialGradient><radialGradient id="paint25_radial" cx="0" cy="0" r="1" gradientUnits="userSpaceOnUse" gradientTransform="rotate(90 18.144 97.736) scale(3.57413)"><stop stop-color="#fff"/><stop offset="1" stop-color="#fff" stop-opacity="0"/></radialGradient><radialGradient id="paint26_radial" cx="0" cy="0" r="1" gradientUnits="userSpaceOnUse" gradientTransform="rotate(90 56.443 196.318) scale(1.89552)"><stop stop-color="#fff"/><stop offset="1" stop-color="#fff" stop-opacity="0"/></radialGradient><linearGradient id="paint0_linear" x1="-15.646" y1="587.482" x2="-35.185" y2="225.822" gradientUnits="userSpaceOnUse"><stop stop-color="#7F2FCB"/><stop offset=".698" stop-color="#AFCCF4"/></linearGradient><linearGradient id="paint6_linear" x1="214.784" y1="485.837" x2="214.784" y2="867.561" gradientUnits="userSpaceOnUse"><stop stop-color="#7F2FCB"/><stop offset=".698" stop-color="#AFCCF4"/></linearGradient><linearGradient id="paint11_linear" x1="158.497" y1="784.788" x2="158.497" y2="529.332" gradientUnits="userSpaceOnUse"><stop stop-color="#7F2FCB"/><stop offset=".698" stop-color="#AFCCF4"/></linearGradient><linearGradient id="paint17_linear" x1="227.787" y1="-60.257" x2="227.787" y2="410.457" gradientUnits="userSpaceOnUse"><stop stop-color="#7F2FCB"/><stop offset=".698" stop-color="#AFCCF4"/></linearGradient><linearGradient id="paint22_linear" x1="158.378" y1="308.387" x2="158.378" y2="-6.623" gradientUnits="userSpaceOnUse"><stop stop-color="#7F2FCB"/><stop offset=".698" stop-color="#AFCCF4"/></linearGradient></defs></svg>