<svg width="320" height="323" fill="none" xmlns="http://www.w3.org/2000/svg"><g clip-path="url(#clip0)"><path d="M-160.562 48.273C-270.126 7.747-460.346-3.2-570 4.113V236h955V4.114c-33.568 15.847-20.366 23.8-97.885 79.834-77.52 56.034-234 43.361-447.677-35.675z" fill="#9B51E0"/><path d="M-160.562 48.273C-270.126 7.747-460.346-3.2-570 4.113V236h955V4.114c-33.568 15.847-20.366 23.8-97.885 79.834-77.52 56.034-234 43.361-447.677-35.675z" fill="url(#paint0_linear)"/><path d="M-160.562 48.273C-270.126 7.747-460.346-3.2-570 4.113V236h955V4.114c-33.568 15.847-20.366 23.8-97.885 79.834-77.52 56.034-234 43.361-447.677-35.675z" stroke="url(#paint1_linear)" stroke-opacity=".6" stroke-width="2"/><path fill="url(#paint2_linear)" d="M-570 234h955v87h-955z"/></g><defs><linearGradient id="paint0_linear" x1="-78.048" y1="18.849" x2="-27.972" y2="331.566" gradientUnits="userSpaceOnUse"><stop stop-color="#9B51E0"/><stop offset=".818" stop-color="#AFCCF4"/></linearGradient><linearGradient id="paint1_linear" x1="-594.025" y1="-187.297" x2="203.208" y2="98.029" gradientUnits="userSpaceOnUse"><stop stop-color="#fff" stop-opacity=".94"/><stop offset=".335" stop-color="#fff" stop-opacity="0"/><stop offset=".598" stop-color="#fff" stop-opacity="0"/><stop offset=".753" stop-color="#fff" stop-opacity=".83"/><stop offset="1" stop-color="#fff" stop-opacity="0"/></linearGradient><linearGradient id="paint2_linear" x1="-237" y1="2" x2="-165.62" y2="382.363" gradientUnits="userSpaceOnUse"><stop stop-color="#9B51E0"/><stop offset=".818" stop-color="#AFCCF4"/></linearGradient><clipPath id="clip0"><path fill="#fff" d="M0 0h320v323H0z"/></clipPath></defs></svg>