<svg width="320" height="350" fill="none" xmlns="http://www.w3.org/2000/svg"><g clip-path="url(#clip0)"><g clip-path="url(#clip1)"><path d="M116.534 80.69C-150.844 100.588-200.589 1.098-259.72 1.098V212.29h954.416V24.414c-33.547 14.537-111.863 89.914-149.358 70.33C380.874 8.849 274.452 68.939 116.534 80.69z" fill="#C050D8"/><path d="M116.534 80.69C-150.844 100.588-200.589 1.098-259.72 1.098V212.29h954.416V24.414c-33.547 14.537-111.863 89.914-149.358 70.33C380.874 8.849 274.452 68.939 116.534 80.69z" fill="url(#paint0_linear)"/><path d="M116.534 80.69C-150.844 100.588-200.589 1.098-259.72 1.098V212.29h954.416V24.414c-33.547 14.537-111.863 89.914-149.358 70.33C380.874 8.849 274.452 68.939 116.534 80.69z" stroke="url(#paint1_linear)" stroke-opacity=".6"/></g><path fill="url(#paint2_linear)" d="M0 210h320v186H0z"/></g><defs><linearGradient id="paint0_linear" x1="217.488" y1="17.033" x2="332.166" y2="166.804" gradientUnits="userSpaceOnUse"><stop offset=".087" stop-color="#AE44BA"/><stop offset="1" stop-color="#9B51E0"/></linearGradient><linearGradient id="paint1_linear" x1="-177.2" y1="-103.613" x2="557.458" y2="133.568" gradientUnits="userSpaceOnUse"><stop stop-color="#fff" stop-opacity="0"/><stop offset=".342" stop-color="#fff"/><stop offset=".595" stop-color="#fff" stop-opacity="0"/><stop offset="1" stop-color="#fff"/></linearGradient><linearGradient id="paint2_linear" x1="39.5" y1="115.5" x2="243.655" y2="192.659" gradientUnits="userSpaceOnUse"><stop offset=".097" stop-color="#AE44BA"/><stop offset="1" stop-color="#9B51E0"/></linearGradient><clipPath id="clip0"><path fill="#fff" d="M0 0h320v350H0z"/></clipPath><clipPath id="clip1"><path fill="#fff" d="M0 0h320v213H0z"/></clipPath></defs></svg>