<svg width="320" height="300" fill="none" xmlns="http://www.w3.org/2000/svg"><g clip-path="url(#clip0)"><g clip-path="url(#clip1)"><path d="M33.496 22.54c243.581 35.41 298.302 32.295 320.509-8.373v201.748h-694.518V14.167c24.412 17.842 14.811 26.794 71.187 89.879C-212.951 167.132-161.389-5.792 33.496 22.54z" fill="#9B51E0"/><path d="M33.496 22.54c243.581 35.41 298.302 32.295 320.509-8.373v201.748h-694.518V14.167c24.412 17.842 14.811 26.794 71.187 89.879C-212.951 167.132-161.389-5.792 33.496 22.54z" fill="url(#paint0_linear)"/><path d="M33.496 22.54c243.581 35.41 298.302 32.295 320.509-8.373v201.748h-694.518V14.167c24.412 17.842 14.811 26.794 71.187 89.879C-212.951 167.132-161.389-5.792 33.496 22.54z" stroke="url(#paint1_linear)" stroke-opacity=".6" stroke-width="2"/><g filter="url(#filter0_f)"><path d="M42.306 166.74a2.847 2.847 0 10-.11 5.693 2.847 2.847 0 00.11-5.693z" fill="#C050D8"/><path d="M42.306 166.74a2.847 2.847 0 10-.11 5.693 2.847 2.847 0 00.11-5.693z" fill="url(#paint2_radial)"/></g><g filter="url(#filter1_f)"><path d="M42.306 166.74a2.847 2.847 0 10-.11 5.693 2.847 2.847 0 00.11-5.693z" fill="#C050D8"/><path d="M42.306 166.74a2.847 2.847 0 10-.11 5.693 2.847 2.847 0 00.11-5.693z" fill="url(#paint3_radial)"/></g><g filter="url(#filter2_f)"><path d="M230.72 111.865a6.892 6.892 0 10-.262 13.782 6.892 6.892 0 10.262-13.782z" fill="#C050D8"/><path d="M230.72 111.865a6.892 6.892 0 10-.262 13.782 6.892 6.892 0 10.262-13.782z" fill="url(#paint4_radial)"/></g><g filter="url(#filter3_f)"><path d="M78.136 149.214a1.797 1.797 0 10-.067 3.593 1.797 1.797 0 00.067-3.593z" fill="#AFCCF4"/></g><g filter="url(#filter4_f)"><path d="M78.136 149.214a1.797 1.797 0 10-.067 3.593 1.797 1.797 0 00.067-3.593z" fill="#93BEFA"/></g><g filter="url(#filter5_f)"><path d="M78.113 50.284a3.063 3.063 0 10-.117 6.124 3.063 3.063 0 00.117-6.124z" fill="#AFCCF4"/><path d="M78.113 50.284a3.063 3.063 0 10-.117 6.124 3.063 3.063 0 00.117-6.124z" fill="url(#paint5_radial)"/></g><g filter="url(#filter6_f)"><path d="M108.229 194.445a2.601 2.601 0 00-2.651 2.553 2.601 2.601 0 002.553 2.651 2.601 2.601 0 002.651-2.553 2.601 2.601 0 00-2.553-2.651z" fill="#CAE0FD"/></g><g filter="url(#filter7_f)"><path d="M108.229 194.445a2.601 2.601 0 00-2.651 2.553 2.601 2.601 0 002.553 2.651 2.601 2.601 0 002.651-2.553 2.601 2.601 0 00-2.553-2.651z" fill="#CAE0FD"/></g><g filter="url(#filter8_f)"><path d="M302.554 69.985a1.624 1.624 0 10-.062 3.248 1.624 1.624 0 00.062-3.248z" fill="#fff"/></g><g filter="url(#filter9_f)" fill="#AFCCF4"><path d="M260.434 166.004a1.153 1.153 0 10-.043 2.305 1.153 1.153 0 00.043-2.305z"/><path d="M260.434 166.004a1.153 1.153 0 10-.043 2.305 1.153 1.153 0 00.043-2.305z"/></g><g filter="url(#filter10_f)" fill="#AFCCF4"><path d="M260.434 166.004a1.153 1.153 0 10-.043 2.305 1.153 1.153 0 00.043-2.305z"/><path d="M260.434 166.004a1.153 1.153 0 10-.043 2.305 1.153 1.153 0 00.043-2.305z"/></g></g><path fill="url(#paint6_linear)" d="M0 211h320v100H0z"/></g><defs><filter id="filter0_f" x="25.351" y="152.686" width="33.803" height="33.803" filterUnits="userSpaceOnUse" color-interpolation-filters="sRGB"><feFlood flood-opacity="0" result="BackgroundImageFix"/><feBlend in="SourceGraphic" in2="BackgroundImageFix" result="shape"/><feGaussianBlur stdDeviation="7" result="effect1_foregroundBlur"/></filter><filter id="filter1_f" x="36.35" y="163.686" width="11.803" height="11.803" filterUnits="userSpaceOnUse" color-interpolation-filters="sRGB"><feFlood flood-opacity="0" result="BackgroundImageFix"/><feBlend in="SourceGraphic" in2="BackgroundImageFix" result="shape"/><feGaussianBlur stdDeviation="1.5" result="effect1_foregroundBlur"/></filter><filter id="filter2_f" x="214.697" y="102.864" width="31.785" height="31.785" filterUnits="userSpaceOnUse" color-interpolation-filters="sRGB"><feFlood flood-opacity="0" result="BackgroundImageFix"/><feBlend in="SourceGraphic" in2="BackgroundImageFix" result="shape"/><feGaussianBlur stdDeviation="4.5" result="effect1_foregroundBlur"/></filter><filter id="filter3_f" x="68.272" y="141.18" width="19.66" height="19.66" filterUnits="userSpaceOnUse" color-interpolation-filters="sRGB"><feFlood flood-opacity="0" result="BackgroundImageFix"/><feBlend in="SourceGraphic" in2="BackgroundImageFix" result="shape"/><feGaussianBlur stdDeviation="4" result="effect1_foregroundBlur"/></filter><filter id="filter4_f" x="74.272" y="147.18" width="7.659" height="7.659" filterUnits="userSpaceOnUse" color-interpolation-filters="sRGB"><feFlood flood-opacity="0" result="BackgroundImageFix"/><feBlend in="SourceGraphic" in2="BackgroundImageFix" result="shape"/><feGaussianBlur stdDeviation="1" result="effect1_foregroundBlur"/></filter><filter id="filter5_f" x="70.992" y="46.283" width="14.126" height="14.126" filterUnits="userSpaceOnUse" color-interpolation-filters="sRGB"><feFlood flood-opacity="0" result="BackgroundImageFix"/><feBlend in="SourceGraphic" in2="BackgroundImageFix" result="shape"/><feGaussianBlur stdDeviation="2" result="effect1_foregroundBlur"/></filter><filter id="filter6_f" x="98.577" y="187.444" width="19.206" height="19.206" filterUnits="userSpaceOnUse" color-interpolation-filters="sRGB"><feFlood flood-opacity="0" result="BackgroundImageFix"/><feBlend in="SourceGraphic" in2="BackgroundImageFix" result="shape"/><feGaussianBlur stdDeviation="3.5" result="effect1_foregroundBlur"/></filter><filter id="filter7_f" x="103.577" y="192.444" width="9.206" height="9.206" filterUnits="userSpaceOnUse" color-interpolation-filters="sRGB"><feFlood flood-opacity="0" result="BackgroundImageFix"/><feBlend in="SourceGraphic" in2="BackgroundImageFix" result="shape"/><feGaussianBlur stdDeviation="1" result="effect1_foregroundBlur"/></filter><filter id="filter8_f" x="298.899" y="67.985" width="7.249" height="7.249" filterUnits="userSpaceOnUse" color-interpolation-filters="sRGB"><feFlood flood-opacity="0" result="BackgroundImageFix"/><feBlend in="SourceGraphic" in2="BackgroundImageFix" result="shape"/><feGaussianBlur stdDeviation="1" result="effect1_foregroundBlur"/></filter><filter id="filter9_f" x="254.26" y="161.004" width="12.305" height="12.305" filterUnits="userSpaceOnUse" color-interpolation-filters="sRGB"><feFlood flood-opacity="0" result="BackgroundImageFix"/><feBlend in="SourceGraphic" in2="BackgroundImageFix" result="shape"/><feGaussianBlur stdDeviation="2.5" result="effect1_foregroundBlur"/></filter><filter id="filter10_f" x="257.26" y="164.004" width="6.305" height="6.305" filterUnits="userSpaceOnUse" color-interpolation-filters="sRGB"><feFlood flood-opacity="0" result="BackgroundImageFix"/><feBlend in="SourceGraphic" in2="BackgroundImageFix" result="shape"/><feGaussianBlur stdDeviation="1" result="effect1_foregroundBlur"/></filter><radialGradient id="paint2_radial" cx="0" cy="0" r="1" gradientUnits="userSpaceOnUse" gradientTransform="rotate(-88.913 107.544 63.263) scale(2.84793)"><stop stop-color="#AFCCF4"/><stop offset="1" stop-color="#fff" stop-opacity="0"/></radialGradient><radialGradient id="paint3_radial" cx="0" cy="0" r="1" gradientUnits="userSpaceOnUse" gradientTransform="rotate(-88.913 107.544 63.263) scale(2.84793)"><stop stop-color="#AFCCF4"/><stop offset="1" stop-color="#fff" stop-opacity="0"/></radialGradient><radialGradient id="paint4_radial" cx="0" cy="0" r="1" gradientUnits="userSpaceOnUse" gradientTransform="rotate(-88.913 175.81 -58.125) scale(6.89227)"><stop stop-color="#AFCCF4"/><stop offset="1" stop-color="#fff" stop-opacity="0"/></radialGradient><radialGradient id="paint5_radial" cx="0" cy="0" r="1" gradientUnits="userSpaceOnUse" gradientTransform="rotate(-88.913 66.211 -13.102) scale(3.06281)"><stop stop-color="#fff"/><stop offset="1" stop-color="#fff" stop-opacity="0"/></radialGradient><linearGradient id="paint0_linear" x1="12.753" y1="90.531" x2="44.72" y2="364.933" gradientUnits="userSpaceOnUse"><stop stop-color="#9B51E0"/><stop offset=".934" stop-color="#AFCCF4"/></linearGradient><linearGradient id="paint1_linear" x1="371.478" y1="-201.33" x2="-249.386" y2="-57.795" gradientUnits="userSpaceOnUse"><stop stop-color="#fff" stop-opacity=".94"/><stop offset=".335" stop-color="#fff" stop-opacity="0"/><stop offset=".598" stop-color="#fff" stop-opacity="0"/><stop offset=".753" stop-color="#fff" stop-opacity=".83"/><stop offset="1" stop-color="#fff" stop-opacity="0"/></linearGradient><linearGradient id="paint6_linear" x1="139" y1="27" x2="183.498" y2="384.116" gradientUnits="userSpaceOnUse"><stop stop-color="#9B51E0"/><stop offset="1" stop-color="#AFCCF4"/></linearGradient><clipPath id="clip0"><path fill="#fff" d="M0 0h320v300H0z"/></clipPath><clipPath id="clip1"><path fill="#fff" d="M0 0h320v211H0z"/></clipPath></defs></svg>