<svg width="320" height="199" fill="none" xmlns="http://www.w3.org/2000/svg"><path d="M33.496 10.54c243.581 35.41 298.302 32.294 320.509-8.373v201.748h-694.518V2.167c24.412 17.842 14.811 26.794 71.187 89.88 56.375 63.085 107.937-109.839 302.822-81.507z" fill="#9B51E0"/><path d="M33.496 10.54c243.581 35.41 298.302 32.294 320.509-8.373v201.748h-694.518V2.167c24.412 17.842 14.811 26.794 71.187 89.88 56.375 63.085 107.937-109.839 302.822-81.507z" fill="url(#paint0_linear)"/><path d="M33.496 10.54c243.581 35.41 298.302 32.294 320.509-8.373v201.748h-694.518V2.167c24.412 17.842 14.811 26.794 71.187 89.88 56.375 63.085 107.937-109.839 302.822-81.507z" stroke="url(#paint1_linear)" stroke-opacity=".6" stroke-width="2"/><defs><linearGradient id="paint0_linear" x1="12.753" y1="78.531" x2="44.719" y2="352.932" gradientUnits="userSpaceOnUse"><stop stop-color="#9B51E0"/><stop offset=".934" stop-color="#AFCCF4"/></linearGradient><linearGradient id="paint1_linear" x1="371.477" y1="-213.33" x2="-249.386" y2="-69.795" gradientUnits="userSpaceOnUse"><stop stop-color="#fff" stop-opacity=".94"/><stop offset=".335" stop-color="#fff" stop-opacity="0"/><stop offset=".598" stop-color="#fff" stop-opacity="0"/><stop offset=".753" stop-color="#fff" stop-opacity=".83"/><stop offset="1" stop-color="#fff" stop-opacity="0"/></linearGradient></defs></svg>