<svg width="1440" height="352" fill="none" xmlns="http://www.w3.org/2000/svg"><path d="M514.625 133.08C72.26 166.001-10.041 1.4-107.872 1.4v349.406H1471.17l46.29-300.452c-55.5 24.05-128.93 169.61-256.03 113.19-342.351-151.975-485.536-49.907-746.805-30.464z" fill="#C050D8"/><path d="M514.625 133.08C72.26 166.001-10.041 1.4-107.872 1.4v349.406H1471.17l46.29-300.452c-55.5 24.05-128.93 169.61-256.03 113.19-342.351-151.975-485.536-49.907-746.805-30.464z" fill="url(#paint0_linear)"/><path d="M514.625 133.08C72.26 166.001-10.041 1.4-107.872 1.4v349.406H1471.17l46.29-300.452c-55.5 24.05-128.93 169.61-256.03 113.19-342.351-151.975-485.536-49.907-746.805-30.464z" stroke="url(#paint1_linear)" stroke-opacity=".6"/><defs><linearGradient id="paint0_linear" x1="681.65" y1="27.763" x2="871.38" y2="275.553" gradientUnits="userSpaceOnUse"><stop offset=".087" stop-color="#AE44BA"/><stop offset="1" stop-color="#9B51E0"/></linearGradient><linearGradient id="paint1_linear" x1="28.655" y1="-171.84" x2="1244.12" y2="220.566" gradientUnits="userSpaceOnUse"><stop stop-color="#fff" stop-opacity="0"/><stop offset=".342" stop-color="#fff"/><stop offset=".595" stop-color="#fff" stop-opacity="0"/><stop offset="1" stop-color="#fff"/></linearGradient></defs></svg>