<svg width="1440" height="380" fill="none" xmlns="http://www.w3.org/2000/svg"><g clip-path="url(#clip0)"><path d="M508.497 111.68C66.132 144.601-16.169-20-114-20v349.406h1579.04l46.29-300.452c-55.5 24.051-128.93 169.61-256.03 113.19C912.951-9.83 769.766 92.237 508.497 111.68z" fill="url(#paint0_linear)"/><path d="M508.497 111.68C66.132 144.601-16.169-20-114-20v349.406h1579.04l46.29-300.452c-55.5 24.051-128.93 169.61-256.03 113.19C912.951-9.83 769.766 92.237 508.497 111.68z" stroke="url(#paint1_linear)" stroke-opacity=".6"/><path fill="url(#paint2_linear)" d="M-114 314h998v66h-998z"/><path fill="#9B51E0" d="M884 314h580v66H884z"/></g><defs><linearGradient id="paint0_linear" x1="675.522" y1="6.364" x2="865.252" y2="254.153" gradientUnits="userSpaceOnUse"><stop offset=".087" stop-color="#AE44BA"/><stop offset="1" stop-color="#9B51E0"/></linearGradient><linearGradient id="paint1_linear" x1="22.527" y1="-193.24" x2="1237.99" y2="199.166" gradientUnits="userSpaceOnUse"><stop stop-color="#fff" stop-opacity="0"/><stop offset=".342" stop-color="#fff"/><stop offset=".595" stop-color="#fff" stop-opacity="0"/><stop offset="1" stop-color="#fff"/></linearGradient><linearGradient id="paint2_linear" x1="370.789" y1="318.98" x2="387.358" y2="389.324" gradientUnits="userSpaceOnUse"><stop offset=".087" stop-color="#AE44BA"/><stop offset="1" stop-color="#9B51E0"/></linearGradient><clipPath id="clip0"><path fill="#fff" d="M0 0h1440v380H0z"/></clipPath></defs></svg>