<svg width="200" height="50" viewBox="0 0 200 50" fill="none" xmlns="http://www.w3.org/2000/svg">
<rect x="2.72804" y="0.350342" width="197.395" height="36.9121" rx="8" transform="rotate(3.45219 2.72804 0.350342)" fill="#1E1D2F"/>
<rect x="2.72804" y="0.350342" width="197.395" height="36.9121" rx="8" transform="rotate(3.45219 2.72804 0.350342)" fill="url(#paint0_linear)"/>
<rect x="2.72804" y="0.350342" width="197.395" height="36.9121" rx="8" transform="rotate(3.45219 2.72804 0.350342)" fill="url(#paint1_linear)"/>
<path d="M74.7777 17.3582L74.5436 21.239L70.5595 20.9987L70.7936 17.1179L67.872 16.9417L67.2489 27.2707L70.1705 27.4469L70.4135 23.4186L74.3976 23.659L74.1546 27.6873L77.0762 27.8635L77.6993 17.5345L74.7777 17.3582Z" fill="#03EEEE"/>
<path d="M87.2342 28.4763L90.2739 28.6597L86.3227 18.0547L83.4453 17.8811L78.2627 27.9351L81.2434 28.1149L82.176 26.1571L86.5437 26.4206L87.2342 28.4763ZM83.1618 24.0544L84.6892 20.8292L85.8178 24.2146L83.1618 24.0544Z" fill="#03EEEE"/>
<path d="M97.3243 18.7184L97.0537 23.2041C96.523 23.4091 95.8814 23.4888 95.2026 23.4479C93.9189 23.3704 93.294 22.6811 93.375 21.3384L93.5468 18.4905L90.6694 18.3169L90.4781 21.4894C90.3196 24.1159 91.7983 25.6268 94.6904 25.8013C95.3692 25.8423 96.1002 25.7531 96.913 25.5355L96.7012 29.0474L99.5786 29.221L100.202 18.8919L97.3243 18.7184Z" fill="#03EEEE"/>
<path d="M109.728 29.8333L112.768 30.0166L108.817 19.4116L105.939 19.2381L100.757 29.2921L103.737 29.4719L104.67 27.514L109.038 27.7775L109.728 29.8333ZM105.656 25.4113L107.183 22.1861L108.312 25.5715L105.656 25.4113Z" fill="#03EEEE"/>
<path d="M122.378 20.2297L113.171 19.6743L113.031 21.9909L116.203 22.1823L115.72 30.1947L118.597 30.3683L119.081 22.3559L122.238 22.5464L122.378 20.2297Z" fill="#03EEEE"/>
<path d="M128.794 23.9193L126.404 23.7751L126.602 20.4846L123.725 20.311L123.102 30.64L127.986 30.9347C130.672 31.0967 132.415 29.943 132.561 27.5231C132.697 25.2654 131.303 24.0706 128.794 23.9193ZM127.921 28.8278L126.106 28.7183L126.278 25.8557L128.093 25.9652C129.082 26.0248 129.679 26.4311 129.621 27.405C129.562 28.3788 128.894 28.8865 127.921 28.8278Z" fill="#03EEEE"/>
<defs>
<linearGradient id="paint0_linear" x1="181.355" y1="207.647" x2="170.975" y2="-25.0279" gradientUnits="userSpaceOnUse">
<stop offset="0.302083" stop-color="#05E1E1"/>
<stop offset="0.59787" stop-color="white" stop-opacity="0"/>
</linearGradient>
<linearGradient id="paint1_linear" x1="77.9618" y1="-118.654" x2="116.701" y2="96.5618" gradientUnits="userSpaceOnUse">
<stop stop-color="white"/>
<stop offset="0.682988" stop-color="white" stop-opacity="0"/>
<stop offset="1" stop-color="#3AE7E7"/>
</linearGradient>
</defs>
</svg>
