<svg width="1440" height="253" viewBox="0 0 1440 253" fill="none" xmlns="http://www.w3.org/2000/svg">
<path d="M569.113 71.3352C387.954 9.83033 73.4362 -6.78379 -107.872 4.31667V276.278H1471.17V4.31667C1415.67 28.3677 1437.5 40.4357 1309.32 125.477C1181.15 210.518 922.418 191.285 569.113 71.3352Z" fill="#9B51E0"/>
<path d="M569.113 71.3352C387.954 9.83033 73.4362 -6.78379 -107.872 4.31667V276.278H1471.17V4.31667C1415.67 28.3677 1437.5 40.4357 1309.32 125.477C1181.15 210.518 922.418 191.285 569.113 71.3352Z" fill="url(#paint0_linear)"/>
<path d="M569.113 71.3352C387.954 9.83033 73.4362 -6.78379 -107.872 4.31667V276.278H1471.17V4.31667C1415.67 28.3677 1437.5 40.4357 1309.32 125.477C1181.15 210.518 922.418 191.285 569.113 71.3352Z" stroke="url(#paint1_linear)" stroke-opacity="0.6" stroke-width="2"/>
<defs>
<linearGradient id="paint0_linear" x1="705.545" y1="26.6793" x2="765.758" y2="461.919" gradientUnits="userSpaceOnUse">
<stop stop-color="#9B51E0"/>
<stop offset="1" stop-color="#AFCCF4"/>
</linearGradient>
<linearGradient id="paint1_linear" x1="-147.596" y1="-286.178" x2="1143.19" y2="217.122" gradientUnits="userSpaceOnUse">
<stop stop-color="white" stop-opacity="0.94"/>
<stop offset="0.334826" stop-color="white" stop-opacity="0"/>
<stop offset="0.597711" stop-color="white" stop-opacity="0"/>
<stop offset="0.753211" stop-color="white" stop-opacity="0.83"/>
<stop offset="1" stop-color="white" stop-opacity="0"/>
</linearGradient>
</defs>
</svg>
