<svg width="320" height="217" viewBox="0 0 320 217" fill="none" xmlns="http://www.w3.org/2000/svg">
<path d="M-160.381 43.5599C-269.879 6.38466 -459.982 -3.65737 -569.569 3.05206V215.764H384.847V3.05206C351.3 17.5892 364.494 24.8834 287.022 76.2845C209.55 127.686 53.1658 116.061 -160.381 43.5599Z" fill="#9B51E0"/>
<path d="M-160.381 43.5599C-269.879 6.38466 -459.982 -3.65737 -569.569 3.05206V215.764H384.847V3.05206C351.3 17.5892 364.494 24.8834 287.022 76.2845C209.55 127.686 53.1658 116.061 -160.381 43.5599Z" fill="url(#paint0_linear)"/>
<path d="M-160.381 43.5599C-269.879 6.38466 -459.982 -3.65737 -569.569 3.05206V215.764H384.847V3.05206C351.3 17.5892 364.494 24.8834 287.022 76.2845C209.55 127.686 53.1658 116.061 -160.381 43.5599Z" stroke="url(#paint1_linear)" stroke-opacity="0.6" stroke-width="2"/>
<defs>
<linearGradient id="paint0_linear" x1="-77.9179" y1="16.5686" x2="-35.5883" y2="304.561" gradientUnits="userSpaceOnUse">
<stop stop-color="#9B51E0"/>
<stop offset="0.817708" stop-color="#AFCCF4"/>
<stop offset="1" stop-color="#AE44BA"/>
</linearGradient>
<linearGradient id="paint1_linear" x1="-593.58" y1="-172.531" x2="186.604" y2="131.677" gradientUnits="userSpaceOnUse">
<stop stop-color="white" stop-opacity="0.94"/>
<stop offset="0.334826" stop-color="white" stop-opacity="0"/>
<stop offset="0.597711" stop-color="white" stop-opacity="0"/>
<stop offset="0.753211" stop-color="white" stop-opacity="0.83"/>
<stop offset="1" stop-color="white" stop-opacity="0"/>
</linearGradient>
</defs>
</svg>
