<svg width="320" height="300" viewBox="0 0 320 300" fill="none" xmlns="http://www.w3.org/2000/svg">
<g clip-path="url(#clip0)">
<g clip-path="url(#clip1)">
<path d="M-160.381 43.4469C-269.879 6.27163 -459.982 -3.7704 -569.569 2.93902V215.651H384.847V2.93902C351.3 17.4761 364.494 24.7704 287.022 76.1714C209.55 127.572 53.1658 115.948 -160.381 43.4469Z" fill="#9B51E0"/>
<path d="M-160.381 43.4469C-269.879 6.27163 -459.982 -3.7704 -569.569 2.93902V215.651H384.847V2.93902C351.3 17.4761 364.494 24.7704 287.022 76.1714C209.55 127.572 53.1658 115.948 -160.381 43.4469Z" fill="url(#paint0_linear)"/>
<path d="M-160.381 43.4469C-269.879 6.27163 -459.982 -3.7704 -569.569 2.93902V215.651H384.847V2.93902C351.3 17.4761 364.494 24.7704 287.022 76.1714C209.55 127.572 53.1658 115.948 -160.381 43.4469Z" stroke="url(#paint1_linear)" stroke-opacity="0.6" stroke-width="2"/>
<g filter="url(#filter0_f)">
<path d="M291.815 121.978C298.201 121.978 303.378 117.001 303.378 110.861C303.378 104.721 298.201 99.7439 291.815 99.7439C285.429 99.7439 280.252 104.721 280.252 110.861C280.252 117.001 285.429 121.978 291.815 121.978Z" fill="#AFCCF4"/>
<path d="M291.815 121.978C298.201 121.978 303.378 117.001 303.378 110.861C303.378 104.721 298.201 99.7439 291.815 99.7439C285.429 99.7439 280.252 104.721 280.252 110.861C280.252 117.001 285.429 121.978 291.815 121.978Z" fill="url(#paint2_radial)"/>
</g>
<g filter="url(#filter1_f)">
<path d="M291.816 119.054C296.523 119.054 300.338 115.385 300.338 110.86C300.338 106.335 296.523 102.666 291.816 102.666C287.109 102.666 283.294 106.335 283.294 110.86C283.294 115.385 287.109 119.054 291.816 119.054Z" fill="#AFCCF4"/>
<path d="M291.816 119.054C296.523 119.054 300.338 115.385 300.338 110.86C300.338 106.335 296.523 102.666 291.816 102.666C287.109 102.666 283.294 106.335 283.294 110.86C283.294 115.385 287.109 119.054 291.816 119.054Z" fill="url(#paint3_radial)"/>
</g>
<g filter="url(#filter2_f)">
<path d="M291.815 121.978C298.201 121.978 303.378 117.001 303.378 110.861C303.378 104.721 298.201 99.7439 291.815 99.7439C285.429 99.7439 280.252 104.721 280.252 110.861C280.252 117.001 285.429 121.978 291.815 121.978Z" fill="#AFCCF4"/>
<path d="M291.815 121.978C298.201 121.978 303.378 117.001 303.378 110.861C303.378 104.721 298.201 99.7439 291.815 99.7439C285.429 99.7439 280.252 104.721 280.252 110.861C280.252 117.001 285.429 121.978 291.815 121.978Z" fill="url(#paint4_radial)"/>
</g>
<g filter="url(#filter3_f)">
<path d="M291.816 119.054C296.523 119.054 300.338 115.385 300.338 110.86C300.338 106.335 296.523 102.666 291.816 102.666C287.109 102.666 283.294 106.335 283.294 110.86C283.294 115.385 287.109 119.054 291.816 119.054Z" fill="#AFCCF4"/>
<path d="M291.816 119.054C296.523 119.054 300.338 115.385 300.338 110.86C300.338 106.335 296.523 102.666 291.816 102.666C287.109 102.666 283.294 106.335 283.294 110.86C283.294 115.385 287.109 119.054 291.816 119.054Z" fill="url(#paint5_radial)"/>
</g>
</g>
<rect y="212" width="320" height="100" fill="url(#paint6_linear)"/>
</g>
<defs>
<filter id="filter0_f" x="265.252" y="84.7439" width="53.1254" height="52.2342" filterUnits="userSpaceOnUse" color-interpolation-filters="sRGB">
<feFlood flood-opacity="0" result="BackgroundImageFix"/>
<feBlend mode="normal" in="SourceGraphic" in2="BackgroundImageFix" result="shape"/>
<feGaussianBlur stdDeviation="7.5" result="effect1_foregroundBlur"/>
</filter>
<filter id="filter1_f" x="280.294" y="99.6663" width="23.0445" height="22.3877" filterUnits="userSpaceOnUse" color-interpolation-filters="sRGB">
<feFlood flood-opacity="0" result="BackgroundImageFix"/>
<feBlend mode="normal" in="SourceGraphic" in2="BackgroundImageFix" result="shape"/>
<feGaussianBlur stdDeviation="1.5" result="effect1_foregroundBlur"/>
</filter>
<filter id="filter2_f" x="265.252" y="84.7439" width="53.1254" height="52.2342" filterUnits="userSpaceOnUse" color-interpolation-filters="sRGB">
<feFlood flood-opacity="0" result="BackgroundImageFix"/>
<feBlend mode="normal" in="SourceGraphic" in2="BackgroundImageFix" result="shape"/>
<feGaussianBlur stdDeviation="7.5" result="effect1_foregroundBlur"/>
</filter>
<filter id="filter3_f" x="280.294" y="99.6663" width="23.0445" height="22.3877" filterUnits="userSpaceOnUse" color-interpolation-filters="sRGB">
<feFlood flood-opacity="0" result="BackgroundImageFix"/>
<feBlend mode="normal" in="SourceGraphic" in2="BackgroundImageFix" result="shape"/>
<feGaussianBlur stdDeviation="1.5" result="effect1_foregroundBlur"/>
</filter>
<linearGradient id="paint0_linear" x1="-77.9179" y1="16.4556" x2="-35.5883" y2="304.448" gradientUnits="userSpaceOnUse">
<stop stop-color="#9B51E0"/>
<stop offset="0.852692" stop-color="#AFCCF4"/>
<stop offset="1" stop-color="#AE44BA"/>
</linearGradient>
<linearGradient id="paint1_linear" x1="-593.58" y1="-172.644" x2="186.604" y2="131.564" gradientUnits="userSpaceOnUse">
<stop stop-color="white" stop-opacity="0.94"/>
<stop offset="0.334826" stop-color="white" stop-opacity="0"/>
<stop offset="0.597711" stop-color="white" stop-opacity="0"/>
<stop offset="0.753211" stop-color="white" stop-opacity="0.83"/>
<stop offset="1" stop-color="white" stop-opacity="0"/>
</linearGradient>
<radialGradient id="paint2_radial" cx="0" cy="0" r="1" gradientUnits="userSpaceOnUse" gradientTransform="translate(291.815 110.861) rotate(90) scale(11.1171 11.5627)">
<stop stop-color="#AFCCF4"/>
<stop offset="1" stop-color="white" stop-opacity="0"/>
</radialGradient>
<radialGradient id="paint3_radial" cx="0" cy="0" r="1" gradientUnits="userSpaceOnUse" gradientTransform="translate(291.816 110.86) rotate(90) scale(8.19384 8.52226)">
<stop stop-color="#AFCCF4"/>
<stop offset="1" stop-color="white" stop-opacity="0"/>
</radialGradient>
<radialGradient id="paint4_radial" cx="0" cy="0" r="1" gradientUnits="userSpaceOnUse" gradientTransform="translate(291.815 110.861) rotate(90) scale(11.1171 11.5627)">
<stop stop-color="#AFCCF4"/>
<stop offset="1" stop-color="white" stop-opacity="0"/>
</radialGradient>
<radialGradient id="paint5_radial" cx="0" cy="0" r="1" gradientUnits="userSpaceOnUse" gradientTransform="translate(291.816 110.86) rotate(90) scale(8.19384 8.52226)">
<stop stop-color="#AFCCF4"/>
<stop offset="1" stop-color="white" stop-opacity="0"/>
</radialGradient>
<linearGradient id="paint6_linear" x1="91" y1="-1.50002" x2="147.5" y2="340" gradientUnits="userSpaceOnUse">
<stop stop-color="#9B51E0"/>
<stop offset="0.702324" stop-color="#AFCCF4"/>
</linearGradient>
<clipPath id="clip0">
<rect width="320" height="300" fill="white"/>
</clipPath>
<clipPath id="clip1">
<rect width="320" height="217" fill="white"/>
</clipPath>
</defs>
</svg>
