<svg width="320" height="217" viewBox="0 0 320 217" fill="none" xmlns="http://www.w3.org/2000/svg">
<path d="M-160.381 43.4469C-269.879 6.27163 -459.982 -3.7704 -569.569 2.93902V215.651H384.847V2.93902C351.3 17.4761 364.494 24.7704 287.022 76.1714C209.55 127.572 53.1658 115.948 -160.381 43.4469Z" fill="#9B51E0"/>
<path d="M-160.381 43.4469C-269.879 6.27163 -459.982 -3.7704 -569.569 2.93902V215.651H384.847V2.93902C351.3 17.4761 364.494 24.7704 287.022 76.1714C209.55 127.572 53.1658 115.948 -160.381 43.4469Z" fill="url(#paint0_linear)"/>
<path d="M-160.381 43.4469C-269.879 6.27163 -459.982 -3.7704 -569.569 2.93902V215.651H384.847V2.93902C351.3 17.4761 364.494 24.7704 287.022 76.1714C209.55 127.572 53.1658 115.948 -160.381 43.4469Z" stroke="url(#paint1_linear)" stroke-opacity="0.6" stroke-width="2"/>
<g filter="url(#filter0_f)">
<ellipse cx="291.815" cy="110.861" rx="11.5627" ry="11.1171" fill="#AFCCF4"/>
<ellipse cx="291.815" cy="110.861" rx="11.5627" ry="11.1171" fill="url(#paint2_radial)"/>
</g>
<g filter="url(#filter1_f)">
<ellipse cx="291.816" cy="110.86" rx="8.52227" ry="8.19384" fill="#AFCCF4"/>
<ellipse cx="291.816" cy="110.86" rx="8.52227" ry="8.19384" fill="url(#paint3_radial)"/>
</g>
<g filter="url(#filter2_f)">
<ellipse cx="291.815" cy="110.861" rx="11.5627" ry="11.1171" fill="#AFCCF4"/>
<ellipse cx="291.815" cy="110.861" rx="11.5627" ry="11.1171" fill="url(#paint4_radial)"/>
</g>
<g filter="url(#filter3_f)">
<ellipse cx="291.816" cy="110.86" rx="8.52227" ry="8.19384" fill="#AFCCF4"/>
<ellipse cx="291.816" cy="110.86" rx="8.52227" ry="8.19384" fill="url(#paint5_radial)"/>
</g>
<defs>
<filter id="filter0_f" x="265.253" y="84.7434" width="53.1254" height="52.2342" filterUnits="userSpaceOnUse" color-interpolation-filters="sRGB">
<feFlood flood-opacity="0" result="BackgroundImageFix"/>
<feBlend mode="normal" in="SourceGraphic" in2="BackgroundImageFix" result="shape"/>
<feGaussianBlur stdDeviation="7.5" result="effect1_foregroundBlur"/>
</filter>
<filter id="filter1_f" x="280.293" y="99.6665" width="23.0445" height="22.3877" filterUnits="userSpaceOnUse" color-interpolation-filters="sRGB">
<feFlood flood-opacity="0" result="BackgroundImageFix"/>
<feBlend mode="normal" in="SourceGraphic" in2="BackgroundImageFix" result="shape"/>
<feGaussianBlur stdDeviation="1.5" result="effect1_foregroundBlur"/>
</filter>
<filter id="filter2_f" x="265.253" y="84.7434" width="53.1254" height="52.2342" filterUnits="userSpaceOnUse" color-interpolation-filters="sRGB">
<feFlood flood-opacity="0" result="BackgroundImageFix"/>
<feBlend mode="normal" in="SourceGraphic" in2="BackgroundImageFix" result="shape"/>
<feGaussianBlur stdDeviation="7.5" result="effect1_foregroundBlur"/>
</filter>
<filter id="filter3_f" x="280.293" y="99.6665" width="23.0445" height="22.3877" filterUnits="userSpaceOnUse" color-interpolation-filters="sRGB">
<feFlood flood-opacity="0" result="BackgroundImageFix"/>
<feBlend mode="normal" in="SourceGraphic" in2="BackgroundImageFix" result="shape"/>
<feGaussianBlur stdDeviation="1.5" result="effect1_foregroundBlur"/>
</filter>
<linearGradient id="paint0_linear" x1="-77.9179" y1="16.4556" x2="-35.5883" y2="304.448" gradientUnits="userSpaceOnUse">
<stop stop-color="#9B51E0"/>
<stop offset="0.817708" stop-color="#AFCCF4"/>
<stop offset="1" stop-color="#AE44BA"/>
</linearGradient>
<linearGradient id="paint1_linear" x1="-593.58" y1="-172.644" x2="186.604" y2="131.564" gradientUnits="userSpaceOnUse">
<stop stop-color="white" stop-opacity="0.94"/>
<stop offset="0.334826" stop-color="white" stop-opacity="0"/>
<stop offset="0.597711" stop-color="white" stop-opacity="0"/>
<stop offset="0.753211" stop-color="white" stop-opacity="0.83"/>
<stop offset="1" stop-color="white" stop-opacity="0"/>
</linearGradient>
<radialGradient id="paint2_radial" cx="0" cy="0" r="1" gradientUnits="userSpaceOnUse" gradientTransform="translate(291.815 110.861) rotate(90) scale(11.1171 11.5627)">
<stop stop-color="#AFCCF4"/>
<stop offset="1" stop-color="white" stop-opacity="0"/>
</radialGradient>
<radialGradient id="paint3_radial" cx="0" cy="0" r="1" gradientUnits="userSpaceOnUse" gradientTransform="translate(291.816 110.86) rotate(90) scale(8.19384 8.52227)">
<stop stop-color="#AFCCF4"/>
<stop offset="1" stop-color="white" stop-opacity="0"/>
</radialGradient>
<radialGradient id="paint4_radial" cx="0" cy="0" r="1" gradientUnits="userSpaceOnUse" gradientTransform="translate(291.815 110.861) rotate(90) scale(11.1171 11.5627)">
<stop stop-color="#AFCCF4"/>
<stop offset="1" stop-color="white" stop-opacity="0"/>
</radialGradient>
<radialGradient id="paint5_radial" cx="0" cy="0" r="1" gradientUnits="userSpaceOnUse" gradientTransform="translate(291.816 110.86) rotate(90) scale(8.19384 8.52227)">
<stop stop-color="#AFCCF4"/>
<stop offset="1" stop-color="white" stop-opacity="0"/>
</radialGradient>
</defs>
</svg>
