<svg width="1424" height="686" viewBox="0 0 1424 686" fill="none" xmlns="http://www.w3.org/2000/svg">
<path d="M442.417 490.033L783.878 250.57M442.417 490.033L584.413 -8.19891L232.614 255.171L217.603 532.757M442.417 490.033L381.178 725.428M783.878 250.57L888.578 438.45L1063.99 103.66L1322.24 266.007L1111.34 309.815L1072.25 349.546L959.302 449.38L1485.94 725.428M783.878 250.57L866.297 -44.5138M217.603 532.757L209.624 680.301L1.11279 179.454L216.634 184.082L373.189 -44.5138L743.337 717.501L217.603 532.757Z" stroke="#9B51E0"/>
<path d="M442.417 490.033L783.878 250.57M442.417 490.033L584.413 -8.19891L232.614 255.171L217.603 532.757M442.417 490.033L381.178 725.428M783.878 250.57L888.578 438.45L1063.99 103.66L1322.24 266.007L1111.34 309.815L1072.25 349.546L959.302 449.38L1485.94 725.428M783.878 250.57L866.297 -44.5138M217.603 532.757L209.624 680.301L1.11279 179.454L216.634 184.082L373.189 -44.5138L743.337 717.501L217.603 532.757Z" stroke="url(#paint0_linear)"/>
<g filter="url(#filter0_f)">
<circle cx="830.33" cy="335.987" r="5.88969" transform="rotate(-180 830.33 335.987)" fill="#C050D8"/>
<circle cx="830.33" cy="335.987" r="5.88969" transform="rotate(-180 830.33 335.987)" fill="url(#paint1_radial)"/>
</g>
<g filter="url(#filter1_f)">
<ellipse cx="216.367" cy="183.295" rx="4.81295" ry="4.62747" transform="rotate(-180 216.367 183.295)" fill="#AFCCF4"/>
<ellipse cx="216.367" cy="183.295" rx="4.81295" ry="4.62747" transform="rotate(-180 216.367 183.295)" fill="url(#paint2_radial)"/>
</g>
<g filter="url(#filter2_f)">
<circle cx="541.372" cy="144.59" r="6.33409" transform="rotate(-180 541.372 144.59)" fill="#AFCCF4"/>
<circle cx="541.372" cy="144.59" r="6.33409" transform="rotate(-180 541.372 144.59)" fill="url(#paint3_radial)"/>
</g>
<g filter="url(#filter3_f)">
<circle cx="783.953" cy="251.423" r="3.35925" transform="rotate(-180 783.953 251.423)" fill="#03EEEE"/>
<circle cx="783.953" cy="251.423" r="3.35925" transform="rotate(-180 783.953 251.423)" fill="url(#paint4_radial)"/>
</g>
<g filter="url(#filter4_f)">
<circle cx="1111.34" cy="309.477" r="4.19001" transform="rotate(-180 1111.34 309.477)" fill="#03EEEE"/>
<circle cx="1111.34" cy="309.477" r="4.19001" transform="rotate(-180 1111.34 309.477)" fill="url(#paint5_radial)"/>
</g>
<g filter="url(#filter5_f)">
<circle cx="1063.91" cy="105.943" r="3.35925" transform="rotate(-180 1063.91 105.943)" fill="white"/>
</g>
<g filter="url(#filter6_f)">
<circle cx="1072.45" cy="350.432" r="2.51663" transform="rotate(-180 1072.45 350.432)" fill="white"/>
</g>
<g filter="url(#filter7_f)">
<circle cx="1072.45" cy="350.432" r="2.51663" transform="rotate(-180 1072.45 350.432)" fill="white"/>
</g>
<g filter="url(#filter8_f)">
<circle cx="922.898" cy="372.761" r="2.38341" transform="rotate(-180 922.898 372.761)" fill="#AFCCF4"/>
<circle cx="922.898" cy="372.761" r="2.38341" transform="rotate(-180 922.898 372.761)" fill="#AFCCF4"/>
</g>
<g filter="url(#filter9_f)">
<circle cx="922.898" cy="372.761" r="2.38341" transform="rotate(-180 922.898 372.761)" fill="#AFCCF4"/>
<circle cx="922.898" cy="372.761" r="2.38341" transform="rotate(-180 922.898 372.761)" fill="#AFCCF4"/>
</g>
<g filter="url(#filter10_d)">
<g filter="url(#filter11_f)">
<circle cx="690.611" cy="315.861" r="2.38341" transform="rotate(-180 690.611 315.861)" fill="#E0EDFF"/>
<circle cx="690.611" cy="315.861" r="2.38341" transform="rotate(-180 690.611 315.861)" fill="#E0EDFF"/>
</g>
<g filter="url(#filter12_f)">
<circle cx="690.611" cy="315.861" r="2.38341" transform="rotate(-180 690.611 315.861)" fill="#E0EDFF"/>
<circle cx="690.611" cy="315.861" r="2.38341" transform="rotate(-180 690.611 315.861)" fill="#E0EDFF"/>
</g>
</g>
<defs>
<filter id="filter0_f" x="821.44" y="327.097" width="17.7794" height="17.7794" filterUnits="userSpaceOnUse" color-interpolation-filters="sRGB">
<feFlood flood-opacity="0" result="BackgroundImageFix"/>
<feBlend mode="normal" in="SourceGraphic" in2="BackgroundImageFix" result="shape"/>
<feGaussianBlur stdDeviation="1.5" result="effect1_foregroundBlur"/>
</filter>
<filter id="filter1_f" x="208.554" y="175.667" width="15.6259" height="15.2549" filterUnits="userSpaceOnUse" color-interpolation-filters="sRGB">
<feFlood flood-opacity="0" result="BackgroundImageFix"/>
<feBlend mode="normal" in="SourceGraphic" in2="BackgroundImageFix" result="shape"/>
<feGaussianBlur stdDeviation="1.5" result="effect1_foregroundBlur"/>
</filter>
<filter id="filter2_f" x="531.038" y="134.256" width="20.6682" height="20.6682" filterUnits="userSpaceOnUse" color-interpolation-filters="sRGB">
<feFlood flood-opacity="0" result="BackgroundImageFix"/>
<feBlend mode="normal" in="SourceGraphic" in2="BackgroundImageFix" result="shape"/>
<feGaussianBlur stdDeviation="2" result="effect1_foregroundBlur"/>
</filter>
<filter id="filter3_f" x="778.594" y="246.064" width="10.7185" height="10.7185" filterUnits="userSpaceOnUse" color-interpolation-filters="sRGB">
<feFlood flood-opacity="0" result="BackgroundImageFix"/>
<feBlend mode="normal" in="SourceGraphic" in2="BackgroundImageFix" result="shape"/>
<feGaussianBlur stdDeviation="1" result="effect1_foregroundBlur"/>
</filter>
<filter id="filter4_f" x="1105.15" y="303.287" width="12.38" height="12.38" filterUnits="userSpaceOnUse" color-interpolation-filters="sRGB">
<feFlood flood-opacity="0" result="BackgroundImageFix"/>
<feBlend mode="normal" in="SourceGraphic" in2="BackgroundImageFix" result="shape"/>
<feGaussianBlur stdDeviation="1" result="effect1_foregroundBlur"/>
</filter>
<filter id="filter5_f" x="1058.55" y="100.584" width="10.7185" height="10.7185" filterUnits="userSpaceOnUse" color-interpolation-filters="sRGB">
<feFlood flood-opacity="0" result="BackgroundImageFix"/>
<feBlend mode="normal" in="SourceGraphic" in2="BackgroundImageFix" result="shape"/>
<feGaussianBlur stdDeviation="1" result="effect1_foregroundBlur"/>
</filter>
<filter id="filter6_f" x="1064.93" y="342.916" width="15.0333" height="15.0333" filterUnits="userSpaceOnUse" color-interpolation-filters="sRGB">
<feFlood flood-opacity="0" result="BackgroundImageFix"/>
<feBlend mode="normal" in="SourceGraphic" in2="BackgroundImageFix" result="shape"/>
<feGaussianBlur stdDeviation="2.5" result="effect1_foregroundBlur"/>
</filter>
<filter id="filter7_f" x="1067.93" y="345.916" width="9.03327" height="9.03327" filterUnits="userSpaceOnUse" color-interpolation-filters="sRGB">
<feFlood flood-opacity="0" result="BackgroundImageFix"/>
<feBlend mode="normal" in="SourceGraphic" in2="BackgroundImageFix" result="shape"/>
<feGaussianBlur stdDeviation="1" result="effect1_foregroundBlur"/>
</filter>
<filter id="filter8_f" x="915.514" y="365.377" width="14.7668" height="14.7668" filterUnits="userSpaceOnUse" color-interpolation-filters="sRGB">
<feFlood flood-opacity="0" result="BackgroundImageFix"/>
<feBlend mode="normal" in="SourceGraphic" in2="BackgroundImageFix" result="shape"/>
<feGaussianBlur stdDeviation="2.5" result="effect1_foregroundBlur"/>
</filter>
<filter id="filter9_f" x="918.514" y="368.377" width="8.76682" height="8.76682" filterUnits="userSpaceOnUse" color-interpolation-filters="sRGB">
<feFlood flood-opacity="0" result="BackgroundImageFix"/>
<feBlend mode="normal" in="SourceGraphic" in2="BackgroundImageFix" result="shape"/>
<feGaussianBlur stdDeviation="1" result="effect1_foregroundBlur"/>
</filter>
<filter id="filter10_d" x="684.228" y="313.477" width="12.7668" height="12.7668" filterUnits="userSpaceOnUse" color-interpolation-filters="sRGB">
<feFlood flood-opacity="0" result="BackgroundImageFix"/>
<feColorMatrix in="SourceAlpha" type="matrix" values="0 0 0 0 0 0 0 0 0 0 0 0 0 0 0 0 0 0 127 0"/>
<feOffset dy="4"/>
<feGaussianBlur stdDeviation="2"/>
<feColorMatrix type="matrix" values="0 0 0 0 0 0 0 0 0 0 0 0 0 0 0 0 0 0 0.25 0"/>
<feBlend mode="normal" in2="BackgroundImageFix" result="effect1_dropShadow"/>
<feBlend mode="normal" in="SourceGraphic" in2="effect1_dropShadow" result="shape"/>
</filter>
<filter id="filter11_f" x="679.228" y="304.477" width="22.7668" height="22.7668" filterUnits="userSpaceOnUse" color-interpolation-filters="sRGB">
<feFlood flood-opacity="0" result="BackgroundImageFix"/>
<feBlend mode="normal" in="SourceGraphic" in2="BackgroundImageFix" result="shape"/>
<feGaussianBlur stdDeviation="4.5" result="effect1_foregroundBlur"/>
</filter>
<filter id="filter12_f" x="686.228" y="311.477" width="8.76682" height="8.76682" filterUnits="userSpaceOnUse" color-interpolation-filters="sRGB">
<feFlood flood-opacity="0" result="BackgroundImageFix"/>
<feBlend mode="normal" in="SourceGraphic" in2="BackgroundImageFix" result="shape"/>
<feGaussianBlur stdDeviation="1" result="effect1_foregroundBlur"/>
</filter>
<linearGradient id="paint0_linear" x1="616.687" y1="550.063" x2="616.687" y2="-8.19868" gradientUnits="userSpaceOnUse">
<stop stop-color="#7F2FCB"/>
<stop offset="0.697917" stop-color="#AFCCF4"/>
</linearGradient>
<radialGradient id="paint1_radial" cx="0" cy="0" r="1" gradientUnits="userSpaceOnUse" gradientTransform="translate(830.33 335.987) rotate(90) scale(5.88969)">
<stop stop-color="#AFCCF4"/>
<stop offset="1" stop-color="white" stop-opacity="0"/>
</radialGradient>
<radialGradient id="paint2_radial" cx="0" cy="0" r="1" gradientUnits="userSpaceOnUse" gradientTransform="translate(216.367 183.295) rotate(90) scale(4.62747 4.81295)">
<stop stop-color="#AFCCF4"/>
<stop offset="1" stop-color="white" stop-opacity="0"/>
</radialGradient>
<radialGradient id="paint3_radial" cx="0" cy="0" r="1" gradientUnits="userSpaceOnUse" gradientTransform="translate(541.372 144.59) rotate(90) scale(6.33409)">
<stop stop-color="white"/>
<stop offset="1" stop-color="white" stop-opacity="0"/>
</radialGradient>
<radialGradient id="paint4_radial" cx="0" cy="0" r="1" gradientUnits="userSpaceOnUse" gradientTransform="translate(783.953 251.423) rotate(90) scale(3.35925)">
<stop stop-color="white"/>
<stop offset="1" stop-color="white" stop-opacity="0"/>
</radialGradient>
<radialGradient id="paint5_radial" cx="0" cy="0" r="1" gradientUnits="userSpaceOnUse" gradientTransform="translate(1111.34 309.477) rotate(90) scale(4.19001)">
<stop stop-color="white"/>
<stop offset="1" stop-color="white" stop-opacity="0"/>
</radialGradient>
</defs>
</svg>
