<svg width="1487" height="772" viewBox="0 0 1487 772" fill="none" xmlns="http://www.w3.org/2000/svg">
<path d="M442.304 535.547L783.765 296.084M442.304 535.547L584.301 37.3148L232.501 300.685L217.49 578.27M442.304 535.547L381.065 770.941M783.765 296.084L888.465 483.964L1063.88 149.174L1322.13 311.521L1111.23 355.328L1072.14 395.06L959.189 494.893L1485.83 770.941M783.765 296.084L866.185 0.999878M217.49 578.27L209.511 725.815L1 224.968L216.521 229.596L373.076 0.999878L743.224 763.014L217.49 578.27Z" stroke="#9B51E0"/>
<path d="M442.304 535.547L783.765 296.084M442.304 535.547L584.301 37.3148L232.501 300.685L217.49 578.27M442.304 535.547L381.065 770.941M783.765 296.084L888.465 483.964L1063.88 149.174L1322.13 311.521L1111.23 355.328L1072.14 395.06L959.189 494.893L1485.83 770.941M783.765 296.084L866.185 0.999878M217.49 578.27L209.511 725.815L1 224.968L216.521 229.596L373.076 0.999878L743.224 763.014L217.49 578.27Z" stroke="url(#paint0_linear)"/>
<g filter="url(#filter0_f)">
<circle cx="830.217" cy="381.501" r="5.88969" transform="rotate(-180 830.217 381.501)" fill="#C050D8"/>
<circle cx="830.217" cy="381.501" r="5.88969" transform="rotate(-180 830.217 381.501)" fill="url(#paint1_radial)"/>
</g>
<g filter="url(#filter1_f)">
<ellipse cx="216.254" cy="228.808" rx="4.81295" ry="4.62747" transform="rotate(-180 216.254 228.808)" fill="#AFCCF4"/>
<ellipse cx="216.254" cy="228.808" rx="4.81295" ry="4.62747" transform="rotate(-180 216.254 228.808)" fill="url(#paint2_radial)"/>
</g>
<g filter="url(#filter2_f)">
<ellipse cx="216.254" cy="228.808" rx="4.81295" ry="4.62747" transform="rotate(-180 216.254 228.808)" fill="#AFCCF4"/>
<ellipse cx="216.254" cy="228.808" rx="4.81295" ry="4.62747" transform="rotate(-180 216.254 228.808)" fill="url(#paint3_radial)"/>
</g>
<g filter="url(#filter3_f)">
<circle cx="541.259" cy="190.104" r="6.33409" transform="rotate(-180 541.259 190.104)" fill="#AFCCF4"/>
<circle cx="541.259" cy="190.104" r="6.33409" transform="rotate(-180 541.259 190.104)" fill="url(#paint4_radial)"/>
</g>
<g filter="url(#filter4_f)">
<circle cx="783.84" cy="296.937" r="3.35925" transform="rotate(-180 783.84 296.937)" fill="#03EEEE"/>
<circle cx="783.84" cy="296.937" r="3.35925" transform="rotate(-180 783.84 296.937)" fill="url(#paint5_radial)"/>
</g>
<g filter="url(#filter5_f)">
<circle cx="1111.23" cy="354.99" r="4.19001" transform="rotate(-180 1111.23 354.99)" fill="#03EEEE"/>
<circle cx="1111.23" cy="354.99" r="4.19001" transform="rotate(-180 1111.23 354.99)" fill="url(#paint6_radial)"/>
</g>
<g filter="url(#filter6_f)">
<circle cx="1063.8" cy="151.457" r="3.35925" transform="rotate(-180 1063.8 151.457)" fill="white"/>
</g>
<g filter="url(#filter7_f)">
<circle cx="1072.33" cy="395.946" r="2.51663" transform="rotate(-180 1072.33 395.946)" fill="white"/>
</g>
<g filter="url(#filter8_f)">
<circle cx="1072.33" cy="395.946" r="2.51663" transform="rotate(-180 1072.33 395.946)" fill="white"/>
</g>
<g filter="url(#filter9_f)">
<circle cx="1321.23" cy="311.126" r="2.51663" transform="rotate(-180 1321.23 311.126)" fill="white"/>
</g>
<g filter="url(#filter10_f)">
<circle cx="1321.23" cy="311.126" r="2.51663" transform="rotate(-180 1321.23 311.126)" fill="white"/>
</g>
<g filter="url(#filter11_f)">
<circle cx="922.785" cy="418.274" r="2.38341" transform="rotate(-180 922.785 418.274)" fill="#AFCCF4"/>
<circle cx="922.785" cy="418.274" r="2.38341" transform="rotate(-180 922.785 418.274)" fill="#AFCCF4"/>
</g>
<g filter="url(#filter12_f)">
<circle cx="922.785" cy="418.274" r="2.38341" transform="rotate(-180 922.785 418.274)" fill="#AFCCF4"/>
<circle cx="922.785" cy="418.274" r="2.38341" transform="rotate(-180 922.785 418.274)" fill="#AFCCF4"/>
</g>
<g filter="url(#filter13_d)">
<g filter="url(#filter14_f)">
<circle cx="690.498" cy="361.374" r="2.38341" transform="rotate(-180 690.498 361.374)" fill="#E0EDFF"/>
<circle cx="690.498" cy="361.374" r="2.38341" transform="rotate(-180 690.498 361.374)" fill="#E0EDFF"/>
</g>
<g filter="url(#filter15_f)">
<circle cx="690.498" cy="361.374" r="2.38341" transform="rotate(-180 690.498 361.374)" fill="#E0EDFF"/>
<circle cx="690.498" cy="361.374" r="2.38341" transform="rotate(-180 690.498 361.374)" fill="#E0EDFF"/>
</g>
</g>
<defs>
<filter id="filter0_f" x="821.327" y="372.611" width="17.7794" height="17.7794" filterUnits="userSpaceOnUse" color-interpolation-filters="sRGB">
<feFlood flood-opacity="0" result="BackgroundImageFix"/>
<feBlend mode="normal" in="SourceGraphic" in2="BackgroundImageFix" result="shape"/>
<feGaussianBlur stdDeviation="1.5" result="effect1_foregroundBlur"/>
</filter>
<filter id="filter1_f" x="197.441" y="210.181" width="37.6259" height="37.2549" filterUnits="userSpaceOnUse" color-interpolation-filters="sRGB">
<feFlood flood-opacity="0" result="BackgroundImageFix"/>
<feBlend mode="normal" in="SourceGraphic" in2="BackgroundImageFix" result="shape"/>
<feGaussianBlur stdDeviation="7" result="effect1_foregroundBlur"/>
</filter>
<filter id="filter2_f" x="208.441" y="221.181" width="15.6259" height="15.2549" filterUnits="userSpaceOnUse" color-interpolation-filters="sRGB">
<feFlood flood-opacity="0" result="BackgroundImageFix"/>
<feBlend mode="normal" in="SourceGraphic" in2="BackgroundImageFix" result="shape"/>
<feGaussianBlur stdDeviation="1.5" result="effect1_foregroundBlur"/>
</filter>
<filter id="filter3_f" x="530.925" y="179.77" width="20.6682" height="20.6682" filterUnits="userSpaceOnUse" color-interpolation-filters="sRGB">
<feFlood flood-opacity="0" result="BackgroundImageFix"/>
<feBlend mode="normal" in="SourceGraphic" in2="BackgroundImageFix" result="shape"/>
<feGaussianBlur stdDeviation="2" result="effect1_foregroundBlur"/>
</filter>
<filter id="filter4_f" x="778.481" y="291.578" width="10.7185" height="10.7185" filterUnits="userSpaceOnUse" color-interpolation-filters="sRGB">
<feFlood flood-opacity="0" result="BackgroundImageFix"/>
<feBlend mode="normal" in="SourceGraphic" in2="BackgroundImageFix" result="shape"/>
<feGaussianBlur stdDeviation="1" result="effect1_foregroundBlur"/>
</filter>
<filter id="filter5_f" x="1105.04" y="348.8" width="12.38" height="12.38" filterUnits="userSpaceOnUse" color-interpolation-filters="sRGB">
<feFlood flood-opacity="0" result="BackgroundImageFix"/>
<feBlend mode="normal" in="SourceGraphic" in2="BackgroundImageFix" result="shape"/>
<feGaussianBlur stdDeviation="1" result="effect1_foregroundBlur"/>
</filter>
<filter id="filter6_f" x="1058.44" y="146.097" width="10.7185" height="10.7185" filterUnits="userSpaceOnUse" color-interpolation-filters="sRGB">
<feFlood flood-opacity="0" result="BackgroundImageFix"/>
<feBlend mode="normal" in="SourceGraphic" in2="BackgroundImageFix" result="shape"/>
<feGaussianBlur stdDeviation="1" result="effect1_foregroundBlur"/>
</filter>
<filter id="filter7_f" x="1064.82" y="388.429" width="15.0333" height="15.0333" filterUnits="userSpaceOnUse" color-interpolation-filters="sRGB">
<feFlood flood-opacity="0" result="BackgroundImageFix"/>
<feBlend mode="normal" in="SourceGraphic" in2="BackgroundImageFix" result="shape"/>
<feGaussianBlur stdDeviation="2.5" result="effect1_foregroundBlur"/>
</filter>
<filter id="filter8_f" x="1067.82" y="391.429" width="9.03327" height="9.03327" filterUnits="userSpaceOnUse" color-interpolation-filters="sRGB">
<feFlood flood-opacity="0" result="BackgroundImageFix"/>
<feBlend mode="normal" in="SourceGraphic" in2="BackgroundImageFix" result="shape"/>
<feGaussianBlur stdDeviation="1" result="effect1_foregroundBlur"/>
</filter>
<filter id="filter9_f" x="1313.72" y="303.61" width="15.0333" height="15.0333" filterUnits="userSpaceOnUse" color-interpolation-filters="sRGB">
<feFlood flood-opacity="0" result="BackgroundImageFix"/>
<feBlend mode="normal" in="SourceGraphic" in2="BackgroundImageFix" result="shape"/>
<feGaussianBlur stdDeviation="2.5" result="effect1_foregroundBlur"/>
</filter>
<filter id="filter10_f" x="1316.72" y="306.61" width="9.03327" height="9.03327" filterUnits="userSpaceOnUse" color-interpolation-filters="sRGB">
<feFlood flood-opacity="0" result="BackgroundImageFix"/>
<feBlend mode="normal" in="SourceGraphic" in2="BackgroundImageFix" result="shape"/>
<feGaussianBlur stdDeviation="1" result="effect1_foregroundBlur"/>
</filter>
<filter id="filter11_f" x="915.401" y="410.891" width="14.7668" height="14.7668" filterUnits="userSpaceOnUse" color-interpolation-filters="sRGB">
<feFlood flood-opacity="0" result="BackgroundImageFix"/>
<feBlend mode="normal" in="SourceGraphic" in2="BackgroundImageFix" result="shape"/>
<feGaussianBlur stdDeviation="2.5" result="effect1_foregroundBlur"/>
</filter>
<filter id="filter12_f" x="918.401" y="413.891" width="8.76682" height="8.76682" filterUnits="userSpaceOnUse" color-interpolation-filters="sRGB">
<feFlood flood-opacity="0" result="BackgroundImageFix"/>
<feBlend mode="normal" in="SourceGraphic" in2="BackgroundImageFix" result="shape"/>
<feGaussianBlur stdDeviation="1" result="effect1_foregroundBlur"/>
</filter>
<filter id="filter13_d" x="684.115" y="358.991" width="12.7668" height="12.7668" filterUnits="userSpaceOnUse" color-interpolation-filters="sRGB">
<feFlood flood-opacity="0" result="BackgroundImageFix"/>
<feColorMatrix in="SourceAlpha" type="matrix" values="0 0 0 0 0 0 0 0 0 0 0 0 0 0 0 0 0 0 127 0"/>
<feOffset dy="4"/>
<feGaussianBlur stdDeviation="2"/>
<feColorMatrix type="matrix" values="0 0 0 0 0 0 0 0 0 0 0 0 0 0 0 0 0 0 0.25 0"/>
<feBlend mode="normal" in2="BackgroundImageFix" result="effect1_dropShadow"/>
<feBlend mode="normal" in="SourceGraphic" in2="effect1_dropShadow" result="shape"/>
</filter>
<filter id="filter14_f" x="679.115" y="349.991" width="22.7668" height="22.7668" filterUnits="userSpaceOnUse" color-interpolation-filters="sRGB">
<feFlood flood-opacity="0" result="BackgroundImageFix"/>
<feBlend mode="normal" in="SourceGraphic" in2="BackgroundImageFix" result="shape"/>
<feGaussianBlur stdDeviation="4.5" result="effect1_foregroundBlur"/>
</filter>
<filter id="filter15_f" x="686.115" y="356.991" width="8.76682" height="8.76682" filterUnits="userSpaceOnUse" color-interpolation-filters="sRGB">
<feFlood flood-opacity="0" result="BackgroundImageFix"/>
<feBlend mode="normal" in="SourceGraphic" in2="BackgroundImageFix" result="shape"/>
<feGaussianBlur stdDeviation="1" result="effect1_foregroundBlur"/>
</filter>
<linearGradient id="paint0_linear" x1="616.574" y1="595.576" x2="616.574" y2="37.315" gradientUnits="userSpaceOnUse">
<stop stop-color="#7F2FCB"/>
<stop offset="0.697917" stop-color="#AFCCF4"/>
</linearGradient>
<radialGradient id="paint1_radial" cx="0" cy="0" r="1" gradientUnits="userSpaceOnUse" gradientTransform="translate(830.217 381.501) rotate(90) scale(5.88969)">
<stop stop-color="#AFCCF4"/>
<stop offset="1" stop-color="white" stop-opacity="0"/>
</radialGradient>
<radialGradient id="paint2_radial" cx="0" cy="0" r="1" gradientUnits="userSpaceOnUse" gradientTransform="translate(216.254 228.808) rotate(90) scale(4.62747 4.81295)">
<stop stop-color="#AFCCF4"/>
<stop offset="1" stop-color="white" stop-opacity="0"/>
</radialGradient>
<radialGradient id="paint3_radial" cx="0" cy="0" r="1" gradientUnits="userSpaceOnUse" gradientTransform="translate(216.254 228.808) rotate(90) scale(4.62747 4.81295)">
<stop stop-color="#AFCCF4"/>
<stop offset="1" stop-color="white" stop-opacity="0"/>
</radialGradient>
<radialGradient id="paint4_radial" cx="0" cy="0" r="1" gradientUnits="userSpaceOnUse" gradientTransform="translate(541.259 190.104) rotate(90) scale(6.33409)">
<stop stop-color="white"/>
<stop offset="1" stop-color="white" stop-opacity="0"/>
</radialGradient>
<radialGradient id="paint5_radial" cx="0" cy="0" r="1" gradientUnits="userSpaceOnUse" gradientTransform="translate(783.84 296.937) rotate(90) scale(3.35925)">
<stop stop-color="white"/>
<stop offset="1" stop-color="white" stop-opacity="0"/>
</radialGradient>
<radialGradient id="paint6_radial" cx="0" cy="0" r="1" gradientUnits="userSpaceOnUse" gradientTransform="translate(1111.23 354.99) rotate(90) scale(4.19001)">
<stop stop-color="white"/>
<stop offset="1" stop-color="white" stop-opacity="0"/>
</radialGradient>
</defs>
</svg>
