<svg width="426" height="71" viewBox="0 0 426 71" fill="none" xmlns="http://www.w3.org/2000/svg">
<path d="M164.05 15.2981H178.487V55.8606H170.402V21.1831L162.647 55.8606H151.482L143.59 21.1281V55.8606H135.477V15.2981H149.915L156.955 50.0856L164.05 15.2981Z" fill="white"/>
<path d="M164.05 15.2981H178.487V55.8606H170.402V21.1831L162.647 55.8606H151.482L143.59 21.1281V55.8606H135.477V15.2981H149.915L156.955 50.0856L164.05 15.2981Z" fill="url(#paint0_linear)"/>
<path d="M189.404 21.8981C188.084 21.8981 186.929 21.5498 185.939 20.8531C184.967 20.1564 184.482 19.1756 184.482 17.9106C184.482 16.6273 184.967 15.6373 185.939 14.9406C186.929 14.2439 188.084 13.8956 189.404 13.8956C190.724 13.8956 191.879 14.2439 192.869 14.9406C193.859 15.6373 194.354 16.6273 194.354 17.9106C194.354 19.1939 193.859 20.1839 192.869 20.8806C191.879 21.5589 190.724 21.8981 189.404 21.8981ZM185.197 55.8606V26.6556H193.639V55.8606H185.197Z" fill="white"/>
<path d="M189.404 21.8981C188.084 21.8981 186.929 21.5498 185.939 20.8531C184.967 20.1564 184.482 19.1756 184.482 17.9106C184.482 16.6273 184.967 15.6373 185.939 14.9406C186.929 14.2439 188.084 13.8956 189.404 13.8956C190.724 13.8956 191.879 14.2439 192.869 14.9406C193.859 15.6373 194.354 16.6273 194.354 17.9106C194.354 19.1939 193.859 20.1839 192.869 20.8806C191.879 21.5589 190.724 21.8981 189.404 21.8981ZM185.197 55.8606V26.6556H193.639V55.8606H185.197Z" fill="url(#paint1_linear)"/>
<path d="M199.921 55.8606V26.6556H208.446V31.1381C209.564 29.5614 210.994 28.3331 212.736 27.4531C214.478 26.5548 216.384 26.1056 218.456 26.1056C222.049 26.1056 224.699 27.1598 226.404 29.2681C228.127 31.3764 228.989 34.1448 228.989 37.5731V55.8606H220.491V40.0206C220.491 38.8106 220.335 37.7106 220.024 36.7206C219.712 35.7123 219.144 34.9056 218.319 34.3006C217.512 33.6956 216.357 33.3931 214.854 33.3931C212.874 33.3931 211.306 34.0623 210.151 35.4006C209.014 36.7206 208.446 38.4439 208.446 40.5706V55.8606H199.921Z" fill="white"/>
<path d="M199.921 55.8606V26.6556H208.446V31.1381C209.564 29.5614 210.994 28.3331 212.736 27.4531C214.478 26.5548 216.384 26.1056 218.456 26.1056C222.049 26.1056 224.699 27.1598 226.404 29.2681C228.127 31.3764 228.989 34.1448 228.989 37.5731V55.8606H220.491V40.0206C220.491 38.8106 220.335 37.7106 220.024 36.7206C219.712 35.7123 219.144 34.9056 218.319 34.3006C217.512 33.6956 216.357 33.3931 214.854 33.3931C212.874 33.3931 211.306 34.0623 210.151 35.4006C209.014 36.7206 208.446 38.4439 208.446 40.5706V55.8606H199.921Z" fill="url(#paint2_linear)"/>
<path d="M247.58 56.5206C245.142 56.5206 242.896 55.9431 240.843 54.7881C238.79 53.6148 237.14 51.8823 235.893 49.5906C234.646 47.2989 234.023 44.4756 234.023 41.1206C234.023 37.9123 234.655 35.1898 235.92 32.9531C237.204 30.7164 238.872 29.0206 240.925 27.8656C242.997 26.6923 245.215 26.1056 247.58 26.1056C249.322 26.1056 250.963 26.4539 252.503 27.1506C254.061 27.8289 255.418 28.7823 256.573 30.0106V12.8781H265.125V55.8606H256.573V52.4506C255.436 53.6973 254.089 54.6873 252.53 55.4206C250.99 56.1539 249.34 56.5206 247.58 56.5206ZM249.753 49.1231C250.926 49.1231 252.026 48.8481 253.053 48.2981C254.098 47.7298 254.941 46.9323 255.583 45.9056C256.243 44.8789 256.573 43.6689 256.573 42.2756V39.8831C256.573 38.5081 256.243 37.3256 255.583 36.3356C254.923 35.3456 254.07 34.5848 253.025 34.0531C251.98 33.5031 250.89 33.2281 249.753 33.2281C247.883 33.2281 246.251 33.8606 244.858 35.1256C243.483 36.3723 242.795 38.3706 242.795 41.1206C242.795 43.8706 243.483 45.8964 244.858 47.1981C246.251 48.4814 247.883 49.1231 249.753 49.1231Z" fill="white"/>
<path d="M247.58 56.5206C245.142 56.5206 242.896 55.9431 240.843 54.7881C238.79 53.6148 237.14 51.8823 235.893 49.5906C234.646 47.2989 234.023 44.4756 234.023 41.1206C234.023 37.9123 234.655 35.1898 235.92 32.9531C237.204 30.7164 238.872 29.0206 240.925 27.8656C242.997 26.6923 245.215 26.1056 247.58 26.1056C249.322 26.1056 250.963 26.4539 252.503 27.1506C254.061 27.8289 255.418 28.7823 256.573 30.0106V12.8781H265.125V55.8606H256.573V52.4506C255.436 53.6973 254.089 54.6873 252.53 55.4206C250.99 56.1539 249.34 56.5206 247.58 56.5206ZM249.753 49.1231C250.926 49.1231 252.026 48.8481 253.053 48.2981C254.098 47.7298 254.941 46.9323 255.583 45.9056C256.243 44.8789 256.573 43.6689 256.573 42.2756V39.8831C256.573 38.5081 256.243 37.3256 255.583 36.3356C254.923 35.3456 254.07 34.5848 253.025 34.0531C251.98 33.5031 250.89 33.2281 249.753 33.2281C247.883 33.2281 246.251 33.8606 244.858 35.1256C243.483 36.3723 242.795 38.3706 242.795 41.1206C242.795 43.8706 243.483 45.8964 244.858 47.1981C246.251 48.4814 247.883 49.1231 249.753 49.1231Z" fill="url(#paint3_linear)"/>
<path d="M280.453 12.8781V55.8606H272.038V12.8781H280.453Z" fill="white"/>
<path d="M280.453 12.8781V55.8606H272.038V12.8781H280.453Z" fill="url(#paint4_linear)"/>
<path d="M289.675 68.4831C288.758 68.4831 287.933 68.4464 287.2 68.3731C286.485 68.2998 286.036 68.2356 285.853 68.1806V61.7181C286.091 61.8281 286.503 61.9106 287.09 61.9656C287.695 62.0389 288.337 62.0756 289.015 62.0756C290.372 62.0756 291.518 61.6814 292.453 60.8931C293.406 60.1048 294.103 59.0506 294.543 57.7306L295.038 56.2456L284.973 26.6556H293.855L299.685 48.7106L305.323 26.6556H314.095L304.058 57.3181C303.306 59.6281 302.38 61.6173 301.28 63.2856C300.18 64.9723 298.713 66.2556 296.88 67.1356C295.047 68.034 292.645 68.4831 289.675 68.4831Z" fill="white"/>
<path d="M289.675 68.4831C288.758 68.4831 287.933 68.4464 287.2 68.3731C286.485 68.2998 286.036 68.2356 285.853 68.1806V61.7181C286.091 61.8281 286.503 61.9106 287.09 61.9656C287.695 62.0389 288.337 62.0756 289.015 62.0756C290.372 62.0756 291.518 61.6814 292.453 60.8931C293.406 60.1048 294.103 59.0506 294.543 57.7306L295.038 56.2456L284.973 26.6556H293.855L299.685 48.7106L305.323 26.6556H314.095L304.058 57.3181C303.306 59.6281 302.38 61.6173 301.28 63.2856C300.18 64.9723 298.713 66.2556 296.88 67.1356C295.047 68.034 292.645 68.4831 289.675 68.4831Z" fill="url(#paint5_linear)"/>
<path d="M331.889 55.8606V12.8781H340.441V30.0106C341.596 28.8006 342.944 27.8564 344.484 27.1781C346.042 26.4814 347.701 26.1331 349.461 26.1331C351.808 26.1331 354.008 26.7106 356.061 27.8656C358.133 29.0206 359.801 30.7164 361.066 32.9531C362.35 35.1898 362.991 37.9123 362.991 41.1206C362.991 44.4756 362.368 47.2989 361.121 49.5906C359.875 51.8639 358.225 53.5873 356.171 54.7606C354.118 55.9156 351.881 56.4931 349.461 56.4931C347.701 56.4931 346.042 56.1356 344.484 55.4206C342.944 54.6873 341.596 53.6881 340.441 52.4231V55.8606H331.889ZM347.261 33.2281C346.125 33.2281 345.034 33.5031 343.989 34.0531C342.944 34.5848 342.091 35.3456 341.431 36.3356C340.771 37.3256 340.441 38.5081 340.441 39.8831V42.3856C340.441 43.7423 340.771 44.9339 341.431 45.9606C342.091 46.9689 342.935 47.7481 343.961 48.2981C345.006 48.8481 346.106 49.1231 347.261 49.1231C349.131 49.1231 350.754 48.4814 352.129 47.1981C353.522 45.8964 354.219 43.8706 354.219 41.1206C354.219 38.3706 353.531 36.3723 352.156 35.1256C350.781 33.8606 349.15 33.2281 347.261 33.2281Z" fill="white"/>
<path d="M331.889 55.8606V12.8781H340.441V30.0106C341.596 28.8006 342.944 27.8564 344.484 27.1781C346.042 26.4814 347.701 26.1331 349.461 26.1331C351.808 26.1331 354.008 26.7106 356.061 27.8656C358.133 29.0206 359.801 30.7164 361.066 32.9531C362.35 35.1898 362.991 37.9123 362.991 41.1206C362.991 44.4756 362.368 47.2989 361.121 49.5906C359.875 51.8639 358.225 53.5873 356.171 54.7606C354.118 55.9156 351.881 56.4931 349.461 56.4931C347.701 56.4931 346.042 56.1356 344.484 55.4206C342.944 54.6873 341.596 53.6881 340.441 52.4231V55.8606H331.889ZM347.261 33.2281C346.125 33.2281 345.034 33.5031 343.989 34.0531C342.944 34.5848 342.091 35.3456 341.431 36.3356C340.771 37.3256 340.441 38.5081 340.441 39.8831V42.3856C340.441 43.7423 340.771 44.9339 341.431 45.9606C342.091 46.9689 342.935 47.7481 343.961 48.2981C345.006 48.8481 346.106 49.1231 347.261 49.1231C349.131 49.1231 350.754 48.4814 352.129 47.1981C353.522 45.8964 354.219 43.8706 354.219 41.1206C354.219 38.3706 353.531 36.3723 352.156 35.1256C350.781 33.8606 349.15 33.2281 347.261 33.2281Z" fill="url(#paint6_linear)"/>
<path d="M382.935 56.4931C379.782 56.4931 377.004 55.8423 374.602 54.5406C372.201 53.2389 370.322 51.4515 368.965 49.1781C367.627 46.8864 366.957 44.2464 366.957 41.2581C366.957 38.2881 367.627 35.6664 368.965 33.3931C370.322 31.1014 372.201 29.3231 374.602 28.0581C377.004 26.7748 379.782 26.1331 382.935 26.1331C386.088 26.1331 388.866 26.7748 391.267 28.0581C393.669 29.3231 395.539 31.1014 396.877 33.3931C398.234 35.6664 398.912 38.2881 398.912 41.2581C398.912 44.2464 398.234 46.8864 396.877 49.1781C395.539 51.4515 393.669 53.2389 391.267 54.5406C388.866 55.8423 386.088 56.4931 382.935 56.4931ZM382.935 49.7281C385.153 49.7281 386.932 48.9581 388.27 47.4181C389.608 45.8781 390.277 43.8248 390.277 41.2581C390.277 38.6914 389.608 36.6564 388.27 35.1531C386.932 33.6498 385.153 32.8981 382.935 32.8981C380.717 32.8981 378.938 33.6498 377.6 35.1531C376.262 36.6564 375.592 38.6914 375.592 41.2581C375.592 43.8248 376.262 45.8781 377.6 47.4181C378.938 48.9581 380.717 49.7281 382.935 49.7281Z" fill="white"/>
<path d="M382.935 56.4931C379.782 56.4931 377.004 55.8423 374.602 54.5406C372.201 53.2389 370.322 51.4515 368.965 49.1781C367.627 46.8864 366.957 44.2464 366.957 41.2581C366.957 38.2881 367.627 35.6664 368.965 33.3931C370.322 31.1014 372.201 29.3231 374.602 28.0581C377.004 26.7748 379.782 26.1331 382.935 26.1331C386.088 26.1331 388.866 26.7748 391.267 28.0581C393.669 29.3231 395.539 31.1014 396.877 33.3931C398.234 35.6664 398.912 38.2881 398.912 41.2581C398.912 44.2464 398.234 46.8864 396.877 49.1781C395.539 51.4515 393.669 53.2389 391.267 54.5406C388.866 55.8423 386.088 56.4931 382.935 56.4931ZM382.935 49.7281C385.153 49.7281 386.932 48.9581 388.27 47.4181C389.608 45.8781 390.277 43.8248 390.277 41.2581C390.277 38.6914 389.608 36.6564 388.27 35.1531C386.932 33.6498 385.153 32.8981 382.935 32.8981C380.717 32.8981 378.938 33.6498 377.6 35.1531C376.262 36.6564 375.592 38.6914 375.592 41.2581C375.592 43.8248 376.262 45.8781 377.6 47.4181C378.938 48.9581 380.717 49.7281 382.935 49.7281Z" fill="url(#paint7_linear)"/>
<path d="M418.324 56.4656C417.206 56.4656 416.051 56.3648 414.859 56.1631C413.686 55.9798 412.595 55.6039 411.587 55.0356C410.578 54.4489 409.753 53.5964 409.112 52.4781C408.488 51.3598 408.177 49.8839 408.177 48.0506V33.2556H401.439V26.6556H403.337C404.822 26.6556 405.903 26.5548 406.582 26.3531C407.278 26.1514 407.718 25.6381 407.901 24.8131C408.085 23.9698 408.177 22.6039 408.177 20.7156V17.0306H416.729V26.6556H425.227V33.2556H416.729V45.6306C416.729 46.8956 416.876 47.9223 417.169 48.7106C417.481 49.4989 418.242 49.8931 419.452 49.8931C420.057 49.8931 420.625 49.8381 421.156 49.7281C421.706 49.6181 422.119 49.5081 422.394 49.3981V55.8056C422.009 55.9706 421.468 56.1173 420.772 56.2456C420.075 56.3923 419.259 56.4656 418.324 56.4656Z" fill="white"/>
<path d="M418.324 56.4656C417.206 56.4656 416.051 56.3648 414.859 56.1631C413.686 55.9798 412.595 55.6039 411.587 55.0356C410.578 54.4489 409.753 53.5964 409.112 52.4781C408.488 51.3598 408.177 49.8839 408.177 48.0506V33.2556H401.439V26.6556H403.337C404.822 26.6556 405.903 26.5548 406.582 26.3531C407.278 26.1514 407.718 25.6381 407.901 24.8131C408.085 23.9698 408.177 22.6039 408.177 20.7156V17.0306H416.729V26.6556H425.227V33.2556H416.729V45.6306C416.729 46.8956 416.876 47.9223 417.169 48.7106C417.481 49.4989 418.242 49.8931 419.452 49.8931C420.057 49.8931 420.625 49.8381 421.156 49.7281C421.706 49.6181 422.119 49.5081 422.394 49.3981V55.8056C422.009 55.9706 421.468 56.1173 420.772 56.2456C420.075 56.3923 419.259 56.4656 418.324 56.4656Z" fill="url(#paint8_linear)"/>
<g filter="url(#filter0_f)">
<circle cx="189.424" cy="17.3241" r="5.83922" fill="#03EEEE"/>
<circle cx="189.424" cy="17.3241" r="5.83922" fill="url(#paint9_radial)"/>
</g>
<g filter="url(#filter1_f)">
<circle cx="189.424" cy="17.3241" r="5.83922" fill="#03EEEE"/>
<circle cx="189.424" cy="17.3241" r="5.83922" fill="url(#paint10_radial)"/>
</g>
<path fill-rule="evenodd" clip-rule="evenodd" d="M113.656 28.3548C118.034 33.3301 117.55 40.9127 112.574 45.2908L101.253 55.2536C98.8322 57.3836 95.6563 58.45 92.4408 58.2123C89.2253 57.9746 86.2407 56.4529 84.1596 53.9901L82.9356 52.5416L79.5146 55.025C76.9219 56.9071 73.716 57.6546 70.6149 57.1707L69.8436 61.2356C68.7544 66.9762 63.6888 71.0978 57.8466 70.9968C52.0045 70.8959 47.0843 66.6017 46.1941 60.8269L45.6004 56.9755C42.446 57.7414 39.0868 57.2004 36.3109 55.4276L31.7248 52.4989L30.8647 53.4346C26.4221 58.2681 18.9199 58.6342 14.0277 54.2564L4.70119 45.9105C-0.237543 41.4911 -0.65851 33.9048 3.76094 28.966C8.18039 24.0273 15.7667 23.6063 20.7054 28.0258L21.2158 28.4825C24.9138 24.7815 30.5735 23.9212 35.1844 26.2938L39.3049 9.93025C40.6991 4.39382 45.8009 0.606193 51.5038 0.873664C55.3696 1.05497 58.7859 3.06543 60.8568 6.09937C62.3724 5.37327 64.0582 4.9576 65.8264 4.92652C71.511 4.82661 76.4855 8.72961 77.741 14.2747L80.2219 25.2321C84.9645 23.2179 90.6146 24.4448 94.0725 28.5369L94.5891 29.1483L96.7197 27.2735C101.695 22.8953 109.278 23.3794 113.656 28.3548Z" fill="url(#paint11_linear)"/>
<path fill-rule="evenodd" clip-rule="evenodd" d="M107.274 33.97C108.551 35.4212 108.41 37.6327 106.959 38.9097L95.6374 48.8725C94.9314 49.4937 94.0051 49.8048 93.0673 49.7354C92.1294 49.6661 91.2589 49.2223 90.6519 48.504L84.3317 41.0245L74.521 48.1464C73.5688 48.8377 72.3329 49.0042 71.2316 48.5895C70.1304 48.1749 69.3112 47.2346 69.0513 46.0869L66.3391 34.1081L61.4925 59.6511C61.1748 61.3255 59.6973 62.5276 57.9934 62.4981C56.2894 62.4687 54.8544 61.2162 54.5947 59.5319L50.1154 30.4745L46.1635 46.1687C45.8888 47.2596 45.1064 48.152 44.0608 48.5671C43.0152 48.9822 41.8338 48.8693 40.8856 48.2638L30.291 41.498L24.6065 47.6825C23.3107 49.0923 21.1226 49.1991 19.6957 47.9222L10.3692 39.5764C8.92876 38.2874 8.80598 36.0747 10.095 34.6342C11.384 33.1938 13.5967 33.071 15.0371 34.36L21.79 40.4028L27.1238 34.5997C28.2729 33.3496 30.1534 33.1045 31.5845 34.0184L40.561 39.7509L47.5475 12.0059C47.9541 10.3911 49.4421 9.28634 51.1055 9.36435C52.7689 9.44237 54.147 10.6815 54.4007 12.3273L58.4109 38.3419L62.5985 16.2722C62.9076 14.643 64.3176 13.4544 65.9756 13.4252C67.6336 13.3961 69.0845 14.5345 69.4507 16.1518L74.7059 39.3622L82.8504 33.4498C84.3338 32.373 86.3968 32.623 87.5799 34.0232L93.6938 41.2584L102.335 33.6546C103.786 32.3777 105.997 32.5189 107.274 33.97Z" fill="white"/>
<defs>
<filter id="filter0_f" x="176.585" y="4.48486" width="25.6784" height="25.6784" filterUnits="userSpaceOnUse" color-interpolation-filters="sRGB">
<feFlood flood-opacity="0" result="BackgroundImageFix"/>
<feBlend mode="normal" in="SourceGraphic" in2="BackgroundImageFix" result="shape"/>
<feGaussianBlur stdDeviation="3.5" result="effect1_foregroundBlur"/>
</filter>
<filter id="filter1_f" x="181.585" y="9.48486" width="15.6784" height="15.6784" filterUnits="userSpaceOnUse" color-interpolation-filters="sRGB">
<feFlood flood-opacity="0" result="BackgroundImageFix"/>
<feBlend mode="normal" in="SourceGraphic" in2="BackgroundImageFix" result="shape"/>
<feGaussianBlur stdDeviation="1" result="effect1_foregroundBlur"/>
</filter>
<linearGradient id="paint0_linear" x1="547.066" y1="12.8606" x2="507.907" y2="152.135" gradientUnits="userSpaceOnUse">
<stop stop-color="#9B51E0"/>
<stop offset="1" stop-color="#AFCCF4"/>
</linearGradient>
<linearGradient id="paint1_linear" x1="547.066" y1="12.8606" x2="507.907" y2="152.135" gradientUnits="userSpaceOnUse">
<stop stop-color="#9B51E0"/>
<stop offset="1" stop-color="#AFCCF4"/>
</linearGradient>
<linearGradient id="paint2_linear" x1="547.066" y1="12.8606" x2="507.907" y2="152.135" gradientUnits="userSpaceOnUse">
<stop stop-color="#9B51E0"/>
<stop offset="1" stop-color="#AFCCF4"/>
</linearGradient>
<linearGradient id="paint3_linear" x1="547.066" y1="12.8606" x2="507.907" y2="152.135" gradientUnits="userSpaceOnUse">
<stop stop-color="#9B51E0"/>
<stop offset="1" stop-color="#AFCCF4"/>
</linearGradient>
<linearGradient id="paint4_linear" x1="547.066" y1="12.8606" x2="507.907" y2="152.135" gradientUnits="userSpaceOnUse">
<stop stop-color="#9B51E0"/>
<stop offset="1" stop-color="#AFCCF4"/>
</linearGradient>
<linearGradient id="paint5_linear" x1="547.066" y1="12.8606" x2="507.907" y2="152.135" gradientUnits="userSpaceOnUse">
<stop stop-color="#9B51E0"/>
<stop offset="1" stop-color="#AFCCF4"/>
</linearGradient>
<linearGradient id="paint6_linear" x1="547.066" y1="12.8606" x2="507.907" y2="152.135" gradientUnits="userSpaceOnUse">
<stop stop-color="#9B51E0"/>
<stop offset="1" stop-color="#AFCCF4"/>
</linearGradient>
<linearGradient id="paint7_linear" x1="547.066" y1="12.8606" x2="507.907" y2="152.135" gradientUnits="userSpaceOnUse">
<stop stop-color="#9B51E0"/>
<stop offset="1" stop-color="#AFCCF4"/>
</linearGradient>
<linearGradient id="paint8_linear" x1="547.066" y1="12.8606" x2="507.907" y2="152.135" gradientUnits="userSpaceOnUse">
<stop stop-color="#9B51E0"/>
<stop offset="1" stop-color="#AFCCF4"/>
</linearGradient>
<radialGradient id="paint9_radial" cx="0" cy="0" r="1" gradientUnits="userSpaceOnUse" gradientTransform="translate(189.424 17.3241) rotate(90) scale(5.83922)">
<stop stop-color="white"/>
<stop offset="1" stop-color="white" stop-opacity="0"/>
</radialGradient>
<radialGradient id="paint10_radial" cx="0" cy="0" r="1" gradientUnits="userSpaceOnUse" gradientTransform="translate(189.424 17.3241) rotate(90) scale(5.83922)">
<stop stop-color="white"/>
<stop offset="1" stop-color="white" stop-opacity="0"/>
</radialGradient>
<linearGradient id="paint11_linear" x1="104.647" y1="35.9296" x2="17.273" y2="55.9114" gradientUnits="userSpaceOnUse">
<stop stop-color="#03EEEE"/>
<stop offset="1" stop-color="#953CE8"/>
</linearGradient>
</defs>
</svg>
