<svg width="320" height="211" viewBox="0 0 320 211" fill="none" xmlns="http://www.w3.org/2000/svg">
<path d="M33.4964 22.5398C277.077 57.9504 331.798 54.8346 354.005 14.167L354.005 215.915L-340.513 215.915L-340.513 14.167C-316.101 32.0086 -325.702 40.961 -269.326 104.046C-212.951 167.132 -161.389 -5.79158 33.4964 22.5398Z" fill="#9B51E0"/>
<path d="M33.4964 22.5398C277.077 57.9504 331.798 54.8346 354.005 14.167L354.005 215.915L-340.513 215.915L-340.513 14.167C-316.101 32.0086 -325.702 40.961 -269.326 104.046C-212.951 167.132 -161.389 -5.79158 33.4964 22.5398Z" fill="url(#paint0_linear)"/>
<path d="M33.4964 22.5398C277.077 57.9504 331.798 54.8346 354.005 14.167L354.005 215.915L-340.513 215.915L-340.513 14.167C-316.101 32.0086 -325.702 40.961 -269.326 104.046C-212.951 167.132 -161.389 -5.79158 33.4964 22.5398Z" stroke="url(#paint1_linear)" stroke-opacity="0.6" stroke-width="2"/>
<g filter="url(#filter0_f)">
<circle cx="42.2519" cy="169.587" r="2.84793" transform="rotate(-178.913 42.2519 169.587)" fill="#C050D8"/>
<circle cx="42.2519" cy="169.587" r="2.84793" transform="rotate(-178.913 42.2519 169.587)" fill="url(#paint2_radial)"/>
</g>
<g filter="url(#filter1_f)">
<circle cx="42.2519" cy="169.587" r="2.84793" transform="rotate(-178.913 42.2519 169.587)" fill="#C050D8"/>
<circle cx="42.2519" cy="169.587" r="2.84793" transform="rotate(-178.913 42.2519 169.587)" fill="url(#paint3_radial)"/>
</g>
<g filter="url(#filter2_f)">
<circle cx="230.589" cy="118.756" r="6.89227" transform="rotate(-178.913 230.589 118.756)" fill="#C050D8"/>
<circle cx="230.589" cy="118.756" r="6.89227" transform="rotate(-178.913 230.589 118.756)" fill="url(#paint4_radial)"/>
</g>
<g filter="url(#filter3_f)">
<circle cx="78.1018" cy="151.01" r="1.79598" transform="rotate(-178.913 78.1018 151.01)" fill="#AFCCF4"/>
</g>
<g filter="url(#filter4_f)">
<circle cx="78.1018" cy="151.01" r="1.79598" transform="rotate(-178.913 78.1018 151.01)" fill="#93BEFA"/>
</g>
<g filter="url(#filter5_f)">
<circle cx="78.0546" cy="53.346" r="3.06281" transform="rotate(-178.913 78.0546 53.346)" fill="#AFCCF4"/>
<circle cx="78.0546" cy="53.346" r="3.06281" transform="rotate(-178.913 78.0546 53.346)" fill="url(#paint5_radial)"/>
</g>
<g filter="url(#filter6_f)">
<circle cx="108.18" cy="197.047" r="2.60277" transform="rotate(-178.913 108.18 197.047)" fill="#CAE0FD"/>
</g>
<g filter="url(#filter7_f)">
<circle cx="108.18" cy="197.047" r="2.60277" transform="rotate(-178.913 108.18 197.047)" fill="#CAE0FD"/>
</g>
<g filter="url(#filter8_f)">
<circle cx="302.523" cy="71.6095" r="1.62435" transform="rotate(-178.913 302.523 71.6095)" fill="white"/>
</g>
<g filter="url(#filter9_f)">
<circle cx="260.412" cy="167.156" r="1.15248" transform="rotate(-178.913 260.412 167.156)" fill="#AFCCF4"/>
<circle cx="260.412" cy="167.156" r="1.15248" transform="rotate(-178.913 260.412 167.156)" fill="#AFCCF4"/>
</g>
<g filter="url(#filter10_f)">
<circle cx="260.412" cy="167.156" r="1.15248" transform="rotate(-178.913 260.412 167.156)" fill="#AFCCF4"/>
<circle cx="260.412" cy="167.156" r="1.15248" transform="rotate(-178.913 260.412 167.156)" fill="#AFCCF4"/>
</g>
<defs>
<filter id="filter0_f" x="25.3505" y="152.686" width="33.8029" height="33.8029" filterUnits="userSpaceOnUse" color-interpolation-filters="sRGB">
<feFlood flood-opacity="0" result="BackgroundImageFix"/>
<feBlend mode="normal" in="SourceGraphic" in2="BackgroundImageFix" result="shape"/>
<feGaussianBlur stdDeviation="7" result="effect1_foregroundBlur"/>
</filter>
<filter id="filter1_f" x="36.3505" y="163.686" width="11.8029" height="11.8029" filterUnits="userSpaceOnUse" color-interpolation-filters="sRGB">
<feFlood flood-opacity="0" result="BackgroundImageFix"/>
<feBlend mode="normal" in="SourceGraphic" in2="BackgroundImageFix" result="shape"/>
<feGaussianBlur stdDeviation="1.5" result="effect1_foregroundBlur"/>
</filter>
<filter id="filter2_f" x="214.567" y="102.734" width="32.0435" height="32.0435" filterUnits="userSpaceOnUse" color-interpolation-filters="sRGB">
<feFlood flood-opacity="0" result="BackgroundImageFix"/>
<feBlend mode="normal" in="SourceGraphic" in2="BackgroundImageFix" result="shape"/>
<feGaussianBlur stdDeviation="4.5" result="effect1_foregroundBlur"/>
</filter>
<filter id="filter3_f" x="68.2721" y="141.18" width="19.6594" height="19.6594" filterUnits="userSpaceOnUse" color-interpolation-filters="sRGB">
<feFlood flood-opacity="0" result="BackgroundImageFix"/>
<feBlend mode="normal" in="SourceGraphic" in2="BackgroundImageFix" result="shape"/>
<feGaussianBlur stdDeviation="4" result="effect1_foregroundBlur"/>
</filter>
<filter id="filter4_f" x="74.2721" y="147.18" width="7.65944" height="7.65944" filterUnits="userSpaceOnUse" color-interpolation-filters="sRGB">
<feFlood flood-opacity="0" result="BackgroundImageFix"/>
<feBlend mode="normal" in="SourceGraphic" in2="BackgroundImageFix" result="shape"/>
<feGaussianBlur stdDeviation="1" result="effect1_foregroundBlur"/>
</filter>
<filter id="filter5_f" x="70.9343" y="46.2256" width="14.2407" height="14.2407" filterUnits="userSpaceOnUse" color-interpolation-filters="sRGB">
<feFlood flood-opacity="0" result="BackgroundImageFix"/>
<feBlend mode="normal" in="SourceGraphic" in2="BackgroundImageFix" result="shape"/>
<feGaussianBlur stdDeviation="2" result="effect1_foregroundBlur"/>
</filter>
<filter id="filter6_f" x="98.5285" y="187.395" width="19.3033" height="19.3033" filterUnits="userSpaceOnUse" color-interpolation-filters="sRGB">
<feFlood flood-opacity="0" result="BackgroundImageFix"/>
<feBlend mode="normal" in="SourceGraphic" in2="BackgroundImageFix" result="shape"/>
<feGaussianBlur stdDeviation="3.5" result="effect1_foregroundBlur"/>
</filter>
<filter id="filter7_f" x="103.529" y="192.395" width="9.30333" height="9.30333" filterUnits="userSpaceOnUse" color-interpolation-filters="sRGB">
<feFlood flood-opacity="0" result="BackgroundImageFix"/>
<feBlend mode="normal" in="SourceGraphic" in2="BackgroundImageFix" result="shape"/>
<feGaussianBlur stdDeviation="1" result="effect1_foregroundBlur"/>
</filter>
<filter id="filter8_f" x="298.869" y="67.9546" width="7.30973" height="7.30973" filterUnits="userSpaceOnUse" color-interpolation-filters="sRGB">
<feFlood flood-opacity="0" result="BackgroundImageFix"/>
<feBlend mode="normal" in="SourceGraphic" in2="BackgroundImageFix" result="shape"/>
<feGaussianBlur stdDeviation="1" result="effect1_foregroundBlur"/>
</filter>
<filter id="filter9_f" x="254.238" y="160.982" width="12.3483" height="12.3483" filterUnits="userSpaceOnUse" color-interpolation-filters="sRGB">
<feFlood flood-opacity="0" result="BackgroundImageFix"/>
<feBlend mode="normal" in="SourceGraphic" in2="BackgroundImageFix" result="shape"/>
<feGaussianBlur stdDeviation="2.5" result="effect1_foregroundBlur"/>
</filter>
<filter id="filter10_f" x="257.238" y="163.982" width="6.34827" height="6.34827" filterUnits="userSpaceOnUse" color-interpolation-filters="sRGB">
<feFlood flood-opacity="0" result="BackgroundImageFix"/>
<feBlend mode="normal" in="SourceGraphic" in2="BackgroundImageFix" result="shape"/>
<feGaussianBlur stdDeviation="1" result="effect1_foregroundBlur"/>
</filter>
<linearGradient id="paint0_linear" x1="12.7531" y1="90.5308" x2="44.7196" y2="364.933" gradientUnits="userSpaceOnUse">
<stop stop-color="#9B51E0"/>
<stop offset="0.93365" stop-color="#AFCCF4"/>
</linearGradient>
<linearGradient id="paint1_linear" x1="371.478" y1="-201.33" x2="-249.386" y2="-57.7946" gradientUnits="userSpaceOnUse">
<stop stop-color="white" stop-opacity="0.94"/>
<stop offset="0.334826" stop-color="white" stop-opacity="0"/>
<stop offset="0.597711" stop-color="white" stop-opacity="0"/>
<stop offset="0.753211" stop-color="white" stop-opacity="0.83"/>
<stop offset="1" stop-color="white" stop-opacity="0"/>
</linearGradient>
<radialGradient id="paint2_radial" cx="0" cy="0" r="1" gradientUnits="userSpaceOnUse" gradientTransform="translate(42.2519 169.587) rotate(90) scale(2.84793)">
<stop stop-color="#AFCCF4"/>
<stop offset="1" stop-color="white" stop-opacity="0"/>
</radialGradient>
<radialGradient id="paint3_radial" cx="0" cy="0" r="1" gradientUnits="userSpaceOnUse" gradientTransform="translate(42.2519 169.587) rotate(90) scale(2.84793)">
<stop stop-color="#AFCCF4"/>
<stop offset="1" stop-color="white" stop-opacity="0"/>
</radialGradient>
<radialGradient id="paint4_radial" cx="0" cy="0" r="1" gradientUnits="userSpaceOnUse" gradientTransform="translate(230.589 118.756) rotate(90) scale(6.89227)">
<stop stop-color="#AFCCF4"/>
<stop offset="1" stop-color="white" stop-opacity="0"/>
</radialGradient>
<radialGradient id="paint5_radial" cx="0" cy="0" r="1" gradientUnits="userSpaceOnUse" gradientTransform="translate(78.0546 53.346) rotate(90) scale(3.06281)">
<stop stop-color="white"/>
<stop offset="1" stop-color="white" stop-opacity="0"/>
</radialGradient>
</defs>
</svg>
