<svg width="320" height="686" viewBox="0 0 320 686" fill="none" xmlns="http://www.w3.org/2000/svg">
<g opacity="0.5">
<g opacity="0.3">
<path d="M176.012 347.191L223.53 273.799L291.793 281.494M176.012 347.191L62.3338 376.475M176.012 347.191L39.0174 439.889M177.128 461.938L277.611 327.112L357.14 340.824L296.398 414.529L159.416 558.146L39.0174 439.889M37.5988 237.101L62.3338 376.475M62.3338 376.475L39.0174 439.889M39.0174 439.889L-194.201 210.818L-287.622 364.389L-427.406 368.934L-278.25 584.045L-276.558 409.265L-56.0931 226.952L-130.645 554.692L39.0174 439.889Z" stroke="#9B51E0"/>
<path d="M176.012 347.191L223.53 273.799L291.793 281.494M176.012 347.191L62.3338 376.475M176.012 347.191L39.0174 439.889M177.128 461.938L277.611 327.112L357.14 340.824L296.398 414.529L159.416 558.146L39.0174 439.889M37.5988 237.101L62.3338 376.475M62.3338 376.475L39.0174 439.889M39.0174 439.889L-194.201 210.818L-287.622 364.389L-427.406 368.934L-278.25 584.045L-276.558 409.265L-56.0931 226.952L-130.645 554.692L39.0174 439.889Z" stroke="url(#paint0_linear)"/>
<path d="M-237.632 562.137L-68.8692 457.984L10.1945 479.368L115.673 440.665L176.672 461.933L254.917 410.623L296.952 512.093L-88.8708 593.251L-301.531 456.601L-327.396 545.823" stroke="#9B51E0"/>
</g>
<g filter="url(#filter0_f)">
<circle cx="37.7679" cy="237.214" r="3.13173" fill="#AFCCF4"/>
</g>
<g filter="url(#filter1_f)">
<circle cx="37.7679" cy="237.214" r="3.13173" fill="#93BEFA"/>
</g>
<g filter="url(#filter2_f)">
<circle cx="37.7679" cy="237.214" r="3.13173" fill="#93BEFA"/>
</g>
<g filter="url(#filter3_f)">
<circle cx="37.7679" cy="237.214" r="3.13173" fill="#93BEFA"/>
</g>
<g filter="url(#filter4_f)">
<circle cx="256.125" cy="409.871" r="4.69988" transform="rotate(176.908 256.125 409.871)" fill="url(#paint1_radial)"/>
</g>
<g filter="url(#filter5_f)">
<circle cx="296.816" cy="511.965" r="3.85074" transform="rotate(176.908 296.816 511.965)" fill="#AFCCF4"/>
<circle cx="296.816" cy="511.965" r="3.85074" transform="rotate(176.908 296.816 511.965)" fill="url(#paint2_radial)"/>
</g>
<g filter="url(#filter6_f)">
<circle cx="115.261" cy="441.32" r="9.24744" transform="rotate(176.908 115.261 441.32)" fill="#C050D8"/>
<circle cx="115.261" cy="441.32" r="9.24744" transform="rotate(176.908 115.261 441.32)" fill="url(#paint3_radial)"/>
</g>
<g filter="url(#filter7_f)">
<circle cx="115.261" cy="441.32" r="9.24744" transform="rotate(176.908 115.261 441.32)" fill="#C050D8"/>
<circle cx="115.261" cy="441.32" r="9.24744" transform="rotate(176.908 115.261 441.32)" fill="url(#paint4_radial)"/>
</g>
<g filter="url(#filter8_f)">
<circle cx="296.383" cy="414.31" r="2.71838" transform="rotate(176.908 296.383 414.31)" fill="#03EEEE"/>
<circle cx="296.383" cy="414.31" r="2.71838" transform="rotate(176.908 296.383 414.31)" fill="url(#paint5_radial)"/>
</g>
<g filter="url(#filter9_f)">
<circle cx="10.5703" cy="479.29" r="3.49216" transform="rotate(176.908 10.5703 479.29)" fill="#CAE0FD"/>
</g>
<g filter="url(#filter10_f)">
<circle cx="10.5703" cy="479.29" r="3.49216" transform="rotate(176.908 10.5703 479.29)" fill="#CAE0FD"/>
</g>
<g filter="url(#filter11_f)">
<circle cx="223.134" cy="273.667" r="2.1794" transform="rotate(176.908 223.134 273.667)" fill="white"/>
</g>
<g filter="url(#filter12_f)">
<circle cx="175.881" cy="347.271" r="2.1794" transform="rotate(176.908 175.881 347.271)" fill="white"/>
</g>
<g filter="url(#filter13_f)">
<circle cx="268.402" cy="444.413" r="1.63273" transform="rotate(176.908 268.402 444.413)" fill="white"/>
</g>
<g filter="url(#filter14_f)">
<circle cx="268.402" cy="444.413" r="1.63273" transform="rotate(176.908 268.402 444.413)" fill="white"/>
</g>
<g filter="url(#filter15_f)">
<circle cx="176.518" cy="461.903" r="1.5463" transform="rotate(176.908 176.518 461.903)" fill="#AFCCF4"/>
<circle cx="176.518" cy="461.903" r="1.5463" transform="rotate(176.908 176.518 461.903)" fill="#AFCCF4"/>
</g>
<g filter="url(#filter16_f)">
<circle cx="176.518" cy="461.903" r="1.5463" transform="rotate(176.908 176.518 461.903)" fill="#AFCCF4"/>
<circle cx="176.518" cy="461.903" r="1.5463" transform="rotate(176.908 176.518 461.903)" fill="#AFCCF4"/>
</g>
<g filter="url(#filter17_d)">
<g filter="url(#filter18_f)">
<circle cx="24.0436" cy="433.171" r="1.5463" transform="rotate(176.908 24.0436 433.171)" fill="#E0EDFF"/>
<circle cx="24.0436" cy="433.171" r="1.5463" transform="rotate(176.908 24.0436 433.171)" fill="#E0EDFF"/>
</g>
<g filter="url(#filter19_f)">
<circle cx="24.0436" cy="433.171" r="1.5463" transform="rotate(176.908 24.0436 433.171)" fill="#E0EDFF"/>
<circle cx="24.0436" cy="433.171" r="1.5463" transform="rotate(176.908 24.0436 433.171)" fill="#E0EDFF"/>
</g>
</g>
</g>
<g opacity="0.5">
<g opacity="0.4">
<path d="M540.504 547.404L508.21 639.831L63.2718 764.917L-125.526 575.813L-81.5963 675.365L5.24991 607.031L68.2367 632.882L181.443 598.148L263.434 625.148L446.963 525.132L297.592 512.375L296.576 414.351" stroke="#9B51E0"/>
<path d="M236.852 867.561L479.236 688.228L490.954 504.384L635.696 739.249L488.329 736.084L381.281 892.392L135.501 518.353L176.963 461.359M236.852 867.561L333.945 526.884L28.8723 701.511M236.852 867.561L266.61 925.956L296.507 841.701M28.8723 701.511V562.155L-91.0713 791.075L-120.227 740.624L-123.447 650.112L-64.4 588.818L-10.8547 485.421M28.8723 701.511L85.0654 740.624" stroke="#9B51E0"/>
<path d="M236.852 867.561L479.236 688.228L490.954 504.384L635.696 739.249L488.329 736.084L381.281 892.392L135.501 518.353L176.963 461.359M236.852 867.561L333.945 526.884L28.8723 701.511M236.852 867.561L266.61 925.956L296.507 841.701M28.8723 701.511V562.155L-91.0713 791.075L-120.227 740.624L-123.447 650.112L-64.4 588.818L-10.8547 485.421M28.8723 701.511L85.0654 740.624" stroke="url(#paint6_linear)"/>
</g>
<g filter="url(#filter20_f)">
<circle cx="313.782" cy="597.783" r="4.02721" fill="#C050D8"/>
<circle cx="313.782" cy="597.783" r="4.02721" fill="url(#paint7_radial)"/>
</g>
<g filter="url(#filter21_f)">
<circle cx="313.782" cy="597.783" r="4.02721" fill="#C050D8"/>
<circle cx="313.782" cy="597.783" r="4.02721" fill="url(#paint8_radial)"/>
</g>
<g filter="url(#filter22_f)">
<circle cx="51.6848" cy="519.601" r="3.58325" fill="white"/>
<circle cx="51.6848" cy="519.601" r="3.58325" fill="url(#paint9_radial)"/>
</g>
<g filter="url(#filter23_f)">
<circle cx="51.6848" cy="519.601" r="3.58325" fill="white"/>
<circle cx="51.6848" cy="519.601" r="3.58325" fill="url(#paint10_radial)"/>
</g>
<g filter="url(#filter24_f)">
<circle cx="263.596" cy="625.009" r="2.53967" fill="#AFCCF4"/>
</g>
<g filter="url(#filter25_f)">
<circle cx="263.596" cy="625.009" r="2.53967" fill="#93BEFA"/>
</g>
<g filter="url(#filter26_f)">
<circle cx="181.037" cy="598.208" r="3.68053" fill="#CAE0FD"/>
</g>
<g filter="url(#filter27_f)">
<circle cx="181.037" cy="598.208" r="3.68053" fill="#CAE0FD"/>
</g>
<g filter="url(#filter28_f)">
<circle cx="5.40577" cy="607.071" r="1.62971" fill="#AFCCF4"/>
<circle cx="5.40577" cy="607.071" r="1.62971" fill="#AFCCF4"/>
</g>
<g filter="url(#filter29_f)">
<circle cx="5.40577" cy="607.071" r="1.62971" fill="#AFCCF4"/>
<circle cx="5.40577" cy="607.071" r="1.62971" fill="#AFCCF4"/>
</g>
<g filter="url(#filter30_d)">
<g filter="url(#filter31_f)">
<circle cx="164.236" cy="645.978" r="1.62971" fill="#E0EDFF"/>
<circle cx="164.236" cy="645.978" r="1.62971" fill="#E0EDFF"/>
</g>
<g filter="url(#filter32_f)">
<circle cx="164.236" cy="645.978" r="1.62971" fill="#E0EDFF"/>
<circle cx="164.236" cy="645.978" r="1.62971" fill="#E0EDFF"/>
</g>
</g>
</g>
<g opacity="0.3">
<g opacity="0.4">
<path d="M3.11888 758.491L125.94 691.559L180.81 709.628L256.569 686.383L306.358 718.252L356.84 657.952H339.686L156.644 794.96L-106.81 681.749L-121.623 742.058" stroke="#9B51E0"/>
<path d="M235.003 647.743L151.004 715.872L51.5401 519.329L57.9435 750.678L-56.6046 680.042L-123.185 615.201L-15.631 681.666L-36.5207 473.741L350.462 604.793M235.003 647.743L282.913 733.715L363.181 580.518L382.692 614.28L384.847 674.853L345.332 715.872L315.275 738.716M235.003 647.743L321.849 518.831" stroke="#9B51E0"/>
<path d="M235.003 647.743L151.004 715.872L51.5401 519.329L57.9435 750.678L-56.6046 680.042L-123.185 615.201L-15.631 681.666L-36.5207 473.741L350.462 604.793M235.003 647.743L282.913 733.715L363.181 580.518L382.692 614.28L384.847 674.853L345.332 715.872L315.275 738.716M235.003 647.743L321.849 518.831" stroke="url(#paint11_linear)"/>
</g>
<g filter="url(#filter33_f)">
<circle cx="256.258" cy="686.829" r="2.69508" transform="rotate(-180 256.258 686.829)" fill="#C050D8"/>
<circle cx="256.258" cy="686.829" r="2.69508" transform="rotate(-180 256.258 686.829)" fill="url(#paint12_radial)"/>
</g>
<g filter="url(#filter34_f)">
<circle cx="256.258" cy="686.829" r="2.69508" transform="rotate(-180 256.258 686.829)" fill="#C050D8"/>
<circle cx="256.258" cy="686.829" r="2.69508" transform="rotate(-180 256.258 686.829)" fill="url(#paint13_radial)"/>
</g>
<g filter="url(#filter35_f)">
<circle cx="125.832" cy="691.651" r="1.69959" transform="rotate(-180 125.832 691.651)" fill="#AFCCF4"/>
</g>
<g filter="url(#filter36_f)">
<circle cx="160" cy="556.096" r="3.94316" transform="rotate(-180 160 556.096)" fill="#AFCCF4"/>
<circle cx="160" cy="556.096" r="3.94316" transform="rotate(-180 160 556.096)" fill="url(#paint14_radial)"/>
</g>
<g filter="url(#filter37_f)">
<circle cx="160" cy="556.096" r="3.94316" transform="rotate(-180 160 556.096)" fill="#AFCCF4"/>
<circle cx="160" cy="556.096" r="3.94316" transform="rotate(-180 160 556.096)" fill="url(#paint15_radial)"/>
</g>
<g filter="url(#filter38_f)">
<circle cx="235.036" cy="648.133" r="1.53717" transform="rotate(-180 235.036 648.133)" fill="#03EEEE"/>
<circle cx="235.036" cy="648.133" r="1.53717" transform="rotate(-180 235.036 648.133)" fill="url(#paint16_radial)"/>
</g>
<g filter="url(#filter39_d)">
<g filter="url(#filter40_f)">
<circle cx="192.325" cy="677.62" r="2.25402" transform="rotate(-180 192.325 677.62)" fill="#E0EDFF"/>
<circle cx="192.325" cy="677.62" r="2.25402" transform="rotate(-180 192.325 677.62)" fill="#E0EDFF"/>
</g>
<g filter="url(#filter41_f)">
<circle cx="192.325" cy="677.62" r="2.25402" transform="rotate(-180 192.325 677.62)" fill="#E0EDFF"/>
<circle cx="192.325" cy="677.62" r="2.25402" transform="rotate(-180 192.325 677.62)" fill="#E0EDFF"/>
</g>
</g>
</g>
<g opacity="0.5">
<g opacity="0.4">
<path d="M514.093 -11.8016L287.779 111.531L186.673 78.2361L47.0751 121.068L-30.5954 89.1906L-137.688 173.455L-183.173 15.6623L323.219 -62.6096L589.619 129.637L629.441 15.6623" stroke="#9B51E0"/>
<path d="M254.999 410.457L553.89 189.317L568.339 -37.3866L746.825 252.232L565.102 248.329L433.099 441.077L27.8639 -19.0938M254.999 410.457L374.727 -9.64163L-1.46608 205.696M254.999 410.457L-1.46608 205.696M-1.46608 205.696V33.8524L-149.372 316.14L-185.324 253.928L-189.295 142.315L-116.483 66.7313L27.8639 -60.2571" stroke="#9B51E0"/>
<path d="M254.999 410.457L553.89 189.317L568.339 -37.3866L746.825 252.232L565.102 248.329L433.099 441.077L27.8639 -19.0938M254.999 410.457L374.727 -9.64163L-1.46608 205.696M254.999 410.457L-1.46608 205.696M-1.46608 205.696V33.8524L-149.372 316.14L-185.324 253.928L-189.295 142.315L-116.483 66.7313L27.8639 -60.2571" stroke="url(#paint17_linear)"/>
</g>
<g filter="url(#filter42_f)">
<circle cx="20.5585" cy="337.75" r="8.61596" fill="#C050D8"/>
<circle cx="20.5585" cy="337.75" r="8.61596" fill="url(#paint18_radial)"/>
</g>
<g filter="url(#filter43_f)">
<circle cx="20.5585" cy="337.75" r="8.61596" fill="#C050D8"/>
<circle cx="20.5585" cy="337.75" r="8.61596" fill="url(#paint19_radial)"/>
</g>
<g filter="url(#filter44_f)">
<circle cx="287.978" cy="111.36" r="3.13173" fill="#AFCCF4"/>
</g>
<g filter="url(#filter45_f)">
<circle cx="287.978" cy="111.36" r="3.13173" fill="#93BEFA"/>
</g>
<g opacity="0.6" filter="url(#filter46_f)">
<g filter="url(#filter47_f)">
<circle cx="37.7678" cy="237.214" r="3.13173" fill="#AFCCF4"/>
</g>
<g filter="url(#filter48_f)">
<circle cx="37.7678" cy="237.214" r="3.13173" fill="#93BEFA"/>
</g>
</g>
<g filter="url(#filter49_f)">
<circle cx="291.288" cy="281.629" r="5.34076" fill="#AFCCF4"/>
<circle cx="291.288" cy="281.629" r="5.34076" fill="url(#paint20_radial)"/>
</g>
<g filter="url(#filter50_f)">
<circle cx="61.8694" cy="376.842" r="5.04471" fill="#AFCCF4"/>
<circle cx="61.8694" cy="376.842" r="5.04471" fill="url(#paint21_radial)"/>
</g>
<g filter="url(#filter51_f)">
<circle cx="186.173" cy="78.311" r="4.53856" fill="#CAE0FD"/>
</g>
<g filter="url(#filter52_f)">
<circle cx="186.173" cy="78.311" r="4.53856" fill="#CAE0FD"/>
</g>
<g filter="url(#filter53_d)">
<g filter="url(#filter54_f)">
<circle cx="165.454" cy="137.217" r="2.00964" fill="#E0EDFF"/>
<circle cx="165.454" cy="137.217" r="2.00964" fill="#E0EDFF"/>
</g>
<g filter="url(#filter55_f)">
<circle cx="165.454" cy="137.217" r="2.00964" fill="#E0EDFF"/>
<circle cx="165.454" cy="137.217" r="2.00964" fill="#E0EDFF"/>
</g>
</g>
</g>
<g opacity="0.3">
<g opacity="0.4">
<path d="M-33.2228 275.96L118.231 193.424L185.893 215.706L279.314 187.042L340.71 226.34L402.961 151.983H381.808" stroke="#9B51E0"/>
<path d="M252.719 139.393L311.799 245.408L410.78 56.4961L434.84 98.1295L437.497 172.823L388.77 223.405L351.706 251.575M252.719 139.393L299.226 -27.1137M252.719 139.393L199.751 176.016M229.888 390.593L20.9805 -27.1137L-67.3588 101.876L-188.971 99.2647L-69.5251 293.082L-58.342 141.989L140.168 -6.62238L115.804 80.5712" stroke="#9B51E0"/>
<path d="M252.719 139.393L311.799 245.408L410.78 56.4961L434.84 98.1295L437.497 172.823L388.77 223.405L351.706 251.575M252.719 139.393L299.226 -27.1137M252.719 139.393L199.751 176.016M229.888 390.593L20.9805 -27.1137L-67.3588 101.876L-188.971 99.2647L-69.5251 293.082L-58.342 141.989L140.168 -6.62238L115.804 80.5712" stroke="url(#paint22_linear)"/>
</g>
<g filter="url(#filter56_f)">
<circle cx="278.931" cy="187.591" r="3.32337" transform="rotate(-180 278.931 187.591)" fill="#C050D8"/>
<circle cx="278.931" cy="187.591" r="3.32337" transform="rotate(-180 278.931 187.591)" fill="url(#paint23_radial)"/>
</g>
<g filter="url(#filter57_f)">
<circle cx="278.931" cy="187.591" r="3.32337" transform="rotate(-180 278.931 187.591)" fill="#C050D8"/>
<circle cx="278.931" cy="187.591" r="3.32337" transform="rotate(-180 278.931 187.591)" fill="url(#paint24_radial)"/>
</g>
<g filter="url(#filter58_f)">
<circle cx="118.099" cy="193.538" r="2.09581" transform="rotate(-180 118.099 193.538)" fill="#AFCCF4"/>
</g>
<g filter="url(#filter59_f)">
<circle cx="118.099" cy="193.538" r="2.09581" transform="rotate(-180 118.099 193.538)" fill="#93BEFA"/>
</g>
<g filter="url(#filter60_f)">
<circle cx="115.88" cy="79.5919" r="3.57413" transform="rotate(-180 115.88 79.5919)" fill="#AFCCF4"/>
<circle cx="115.88" cy="79.5919" r="3.57413" transform="rotate(-180 115.88 79.5919)" fill="url(#paint25_radial)"/>
</g>
<g filter="url(#filter61_f)">
<circle cx="252.761" cy="139.875" r="1.89552" transform="rotate(-180 252.761 139.875)" fill="#03EEEE"/>
<circle cx="252.761" cy="139.875" r="1.89552" transform="rotate(-180 252.761 139.875)" fill="url(#paint26_radial)"/>
</g>
<g filter="url(#filter62_f)">
<circle cx="186.226" cy="215.655" r="3.03729" transform="rotate(-180 186.226 215.655)" fill="#CAE0FD"/>
</g>
<g filter="url(#filter63_f)">
<circle cx="186.226" cy="215.655" r="3.03729" transform="rotate(-180 186.226 215.655)" fill="#CAE0FD"/>
</g>
<g filter="url(#filter64_d)">
<g filter="url(#filter65_f)">
<circle cx="200.093" cy="176.235" r="2.77949" transform="rotate(-180 200.093 176.235)" fill="#E0EDFF"/>
<circle cx="200.093" cy="176.235" r="2.77949" transform="rotate(-180 200.093 176.235)" fill="#E0EDFF"/>
</g>
<g filter="url(#filter66_f)">
<circle cx="200.093" cy="176.235" r="2.77949" transform="rotate(-180 200.093 176.235)" fill="#E0EDFF"/>
<circle cx="200.093" cy="176.235" r="2.77949" transform="rotate(-180 200.093 176.235)" fill="#E0EDFF"/>
</g>
</g>
</g>
<defs>
<filter id="filter0_f" x="26.6362" y="226.083" width="22.2635" height="22.2635" filterUnits="userSpaceOnUse" color-interpolation-filters="sRGB">
<feFlood flood-opacity="0" result="BackgroundImageFix"/>
<feBlend mode="normal" in="SourceGraphic" in2="BackgroundImageFix" result="shape"/>
<feGaussianBlur stdDeviation="4" result="effect1_foregroundBlur"/>
</filter>
<filter id="filter1_f" x="32.6362" y="232.083" width="10.2635" height="10.2635" filterUnits="userSpaceOnUse" color-interpolation-filters="sRGB">
<feFlood flood-opacity="0" result="BackgroundImageFix"/>
<feBlend mode="normal" in="SourceGraphic" in2="BackgroundImageFix" result="shape"/>
<feGaussianBlur stdDeviation="1" result="effect1_foregroundBlur"/>
</filter>
<filter id="filter2_f" x="32.6362" y="232.083" width="10.2635" height="10.2635" filterUnits="userSpaceOnUse" color-interpolation-filters="sRGB">
<feFlood flood-opacity="0" result="BackgroundImageFix"/>
<feBlend mode="normal" in="SourceGraphic" in2="BackgroundImageFix" result="shape"/>
<feGaussianBlur stdDeviation="1" result="effect1_foregroundBlur"/>
</filter>
<filter id="filter3_f" x="33.6362" y="233.083" width="8.26346" height="8.26346" filterUnits="userSpaceOnUse" color-interpolation-filters="sRGB">
<feFlood flood-opacity="0" result="BackgroundImageFix"/>
<feBlend mode="normal" in="SourceGraphic" in2="BackgroundImageFix" result="shape"/>
<feGaussianBlur stdDeviation="0.5" result="effect1_foregroundBlur"/>
</filter>
<filter id="filter4_f" x="245.178" y="398.924" width="21.8932" height="21.8932" filterUnits="userSpaceOnUse" color-interpolation-filters="sRGB">
<feFlood flood-opacity="0" result="BackgroundImageFix"/>
<feBlend mode="normal" in="SourceGraphic" in2="BackgroundImageFix" result="shape"/>
<feGaussianBlur stdDeviation="3" result="effect1_foregroundBlur"/>
</filter>
<filter id="filter5_f" x="288.763" y="503.912" width="16.1057" height="16.1057" filterUnits="userSpaceOnUse" color-interpolation-filters="sRGB">
<feFlood flood-opacity="0" result="BackgroundImageFix"/>
<feBlend mode="normal" in="SourceGraphic" in2="BackgroundImageFix" result="shape"/>
<feGaussianBlur stdDeviation="2" result="effect1_foregroundBlur"/>
</filter>
<filter id="filter6_f" x="77.5286" y="403.587" width="75.4657" height="75.4657" filterUnits="userSpaceOnUse" color-interpolation-filters="sRGB">
<feFlood flood-opacity="0" result="BackgroundImageFix"/>
<feBlend mode="normal" in="SourceGraphic" in2="BackgroundImageFix" result="shape"/>
<feGaussianBlur stdDeviation="14" result="effect1_foregroundBlur"/>
</filter>
<filter id="filter7_f" x="96.5286" y="422.587" width="37.4657" height="37.4657" filterUnits="userSpaceOnUse" color-interpolation-filters="sRGB">
<feFlood flood-opacity="0" result="BackgroundImageFix"/>
<feBlend mode="normal" in="SourceGraphic" in2="BackgroundImageFix" result="shape"/>
<feGaussianBlur stdDeviation="4.5" result="effect1_foregroundBlur"/>
</filter>
<filter id="filter8_f" x="291.522" y="409.449" width="9.72212" height="9.72212" filterUnits="userSpaceOnUse" color-interpolation-filters="sRGB">
<feFlood flood-opacity="0" result="BackgroundImageFix"/>
<feBlend mode="normal" in="SourceGraphic" in2="BackgroundImageFix" result="shape"/>
<feGaussianBlur stdDeviation="1" result="effect1_foregroundBlur"/>
</filter>
<filter id="filter9_f" x="0.0780029" y="468.797" width="20.9845" height="20.9845" filterUnits="userSpaceOnUse" color-interpolation-filters="sRGB">
<feFlood flood-opacity="0" result="BackgroundImageFix"/>
<feBlend mode="normal" in="SourceGraphic" in2="BackgroundImageFix" result="shape"/>
<feGaussianBlur stdDeviation="3.5" result="effect1_foregroundBlur"/>
</filter>
<filter id="filter10_f" x="5.078" y="473.797" width="10.9845" height="10.9845" filterUnits="userSpaceOnUse" color-interpolation-filters="sRGB">
<feFlood flood-opacity="0" result="BackgroundImageFix"/>
<feBlend mode="normal" in="SourceGraphic" in2="BackgroundImageFix" result="shape"/>
<feGaussianBlur stdDeviation="1" result="effect1_foregroundBlur"/>
</filter>
<filter id="filter11_f" x="218.84" y="269.373" width="8.5876" height="8.5876" filterUnits="userSpaceOnUse" color-interpolation-filters="sRGB">
<feFlood flood-opacity="0" result="BackgroundImageFix"/>
<feBlend mode="normal" in="SourceGraphic" in2="BackgroundImageFix" result="shape"/>
<feGaussianBlur stdDeviation="1" result="effect1_foregroundBlur"/>
</filter>
<filter id="filter12_f" x="171.587" y="342.977" width="8.5876" height="8.5876" filterUnits="userSpaceOnUse" color-interpolation-filters="sRGB">
<feFlood flood-opacity="0" result="BackgroundImageFix"/>
<feBlend mode="normal" in="SourceGraphic" in2="BackgroundImageFix" result="shape"/>
<feGaussianBlur stdDeviation="1" result="effect1_foregroundBlur"/>
</filter>
<filter id="filter13_f" x="261.769" y="437.78" width="13.2655" height="13.2655" filterUnits="userSpaceOnUse" color-interpolation-filters="sRGB">
<feFlood flood-opacity="0" result="BackgroundImageFix"/>
<feBlend mode="normal" in="SourceGraphic" in2="BackgroundImageFix" result="shape"/>
<feGaussianBlur stdDeviation="2.5" result="effect1_foregroundBlur"/>
</filter>
<filter id="filter14_f" x="264.769" y="440.78" width="7.26555" height="7.26555" filterUnits="userSpaceOnUse" color-interpolation-filters="sRGB">
<feFlood flood-opacity="0" result="BackgroundImageFix"/>
<feBlend mode="normal" in="SourceGraphic" in2="BackgroundImageFix" result="shape"/>
<feGaussianBlur stdDeviation="1" result="effect1_foregroundBlur"/>
</filter>
<filter id="filter15_f" x="169.89" y="455.276" width="13.2549" height="13.2549" filterUnits="userSpaceOnUse" color-interpolation-filters="sRGB">
<feFlood flood-opacity="0" result="BackgroundImageFix"/>
<feBlend mode="normal" in="SourceGraphic" in2="BackgroundImageFix" result="shape"/>
<feGaussianBlur stdDeviation="2.5" result="effect1_foregroundBlur"/>
</filter>
<filter id="filter16_f" x="172.89" y="458.276" width="7.25493" height="7.25493" filterUnits="userSpaceOnUse" color-interpolation-filters="sRGB">
<feFlood flood-opacity="0" result="BackgroundImageFix"/>
<feBlend mode="normal" in="SourceGraphic" in2="BackgroundImageFix" result="shape"/>
<feGaussianBlur stdDeviation="1" result="effect1_foregroundBlur"/>
</filter>
<filter id="filter17_d" x="18.4161" y="431.544" width="11.2549" height="11.2549" filterUnits="userSpaceOnUse" color-interpolation-filters="sRGB">
<feFlood flood-opacity="0" result="BackgroundImageFix"/>
<feColorMatrix in="SourceAlpha" type="matrix" values="0 0 0 0 0 0 0 0 0 0 0 0 0 0 0 0 0 0 127 0"/>
<feOffset dy="4"/>
<feGaussianBlur stdDeviation="2"/>
<feColorMatrix type="matrix" values="0 0 0 0 0 0 0 0 0 0 0 0 0 0 0 0 0 0 0.25 0"/>
<feBlend mode="normal" in2="BackgroundImageFix" result="effect1_dropShadow"/>
<feBlend mode="normal" in="SourceGraphic" in2="effect1_dropShadow" result="shape"/>
</filter>
<filter id="filter18_f" x="13.4161" y="422.544" width="21.2549" height="21.2549" filterUnits="userSpaceOnUse" color-interpolation-filters="sRGB">
<feFlood flood-opacity="0" result="BackgroundImageFix"/>
<feBlend mode="normal" in="SourceGraphic" in2="BackgroundImageFix" result="shape"/>
<feGaussianBlur stdDeviation="4.5" result="effect1_foregroundBlur"/>
</filter>
<filter id="filter19_f" x="20.4161" y="429.544" width="7.25493" height="7.25493" filterUnits="userSpaceOnUse" color-interpolation-filters="sRGB">
<feFlood flood-opacity="0" result="BackgroundImageFix"/>
<feBlend mode="normal" in="SourceGraphic" in2="BackgroundImageFix" result="shape"/>
<feGaussianBlur stdDeviation="1" result="effect1_foregroundBlur"/>
</filter>
<filter id="filter20_f" x="295.754" y="579.755" width="36.0544" height="36.0544" filterUnits="userSpaceOnUse" color-interpolation-filters="sRGB">
<feFlood flood-opacity="0" result="BackgroundImageFix"/>
<feBlend mode="normal" in="SourceGraphic" in2="BackgroundImageFix" result="shape"/>
<feGaussianBlur stdDeviation="7" result="effect1_foregroundBlur"/>
</filter>
<filter id="filter21_f" x="306.754" y="590.755" width="14.0544" height="14.0544" filterUnits="userSpaceOnUse" color-interpolation-filters="sRGB">
<feFlood flood-opacity="0" result="BackgroundImageFix"/>
<feBlend mode="normal" in="SourceGraphic" in2="BackgroundImageFix" result="shape"/>
<feGaussianBlur stdDeviation="1.5" result="effect1_foregroundBlur"/>
</filter>
<filter id="filter22_f" x="34.1016" y="502.017" width="35.1665" height="35.1665" filterUnits="userSpaceOnUse" color-interpolation-filters="sRGB">
<feFlood flood-opacity="0" result="BackgroundImageFix"/>
<feBlend mode="normal" in="SourceGraphic" in2="BackgroundImageFix" result="shape"/>
<feGaussianBlur stdDeviation="7" result="effect1_foregroundBlur"/>
</filter>
<filter id="filter23_f" x="45.1016" y="513.017" width="13.1665" height="13.1665" filterUnits="userSpaceOnUse" color-interpolation-filters="sRGB">
<feFlood flood-opacity="0" result="BackgroundImageFix"/>
<feBlend mode="normal" in="SourceGraphic" in2="BackgroundImageFix" result="shape"/>
<feGaussianBlur stdDeviation="1.5" result="effect1_foregroundBlur"/>
</filter>
<filter id="filter24_f" x="253.056" y="614.469" width="21.0793" height="21.0793" filterUnits="userSpaceOnUse" color-interpolation-filters="sRGB">
<feFlood flood-opacity="0" result="BackgroundImageFix"/>
<feBlend mode="normal" in="SourceGraphic" in2="BackgroundImageFix" result="shape"/>
<feGaussianBlur stdDeviation="4" result="effect1_foregroundBlur"/>
</filter>
<filter id="filter25_f" x="259.056" y="620.469" width="9.07933" height="9.07933" filterUnits="userSpaceOnUse" color-interpolation-filters="sRGB">
<feFlood flood-opacity="0" result="BackgroundImageFix"/>
<feBlend mode="normal" in="SourceGraphic" in2="BackgroundImageFix" result="shape"/>
<feGaussianBlur stdDeviation="1" result="effect1_foregroundBlur"/>
</filter>
<filter id="filter26_f" x="170.357" y="587.528" width="21.3611" height="21.3611" filterUnits="userSpaceOnUse" color-interpolation-filters="sRGB">
<feFlood flood-opacity="0" result="BackgroundImageFix"/>
<feBlend mode="normal" in="SourceGraphic" in2="BackgroundImageFix" result="shape"/>
<feGaussianBlur stdDeviation="3.5" result="effect1_foregroundBlur"/>
</filter>
<filter id="filter27_f" x="175.357" y="592.528" width="11.3611" height="11.3611" filterUnits="userSpaceOnUse" color-interpolation-filters="sRGB">
<feFlood flood-opacity="0" result="BackgroundImageFix"/>
<feBlend mode="normal" in="SourceGraphic" in2="BackgroundImageFix" result="shape"/>
<feGaussianBlur stdDeviation="1" result="effect1_foregroundBlur"/>
</filter>
<filter id="filter28_f" x="-1.22394" y="600.441" width="13.2594" height="13.2594" filterUnits="userSpaceOnUse" color-interpolation-filters="sRGB">
<feFlood flood-opacity="0" result="BackgroundImageFix"/>
<feBlend mode="normal" in="SourceGraphic" in2="BackgroundImageFix" result="shape"/>
<feGaussianBlur stdDeviation="2.5" result="effect1_foregroundBlur"/>
</filter>
<filter id="filter29_f" x="1.77606" y="603.441" width="7.25942" height="7.25942" filterUnits="userSpaceOnUse" color-interpolation-filters="sRGB">
<feFlood flood-opacity="0" result="BackgroundImageFix"/>
<feBlend mode="normal" in="SourceGraphic" in2="BackgroundImageFix" result="shape"/>
<feGaussianBlur stdDeviation="1" result="effect1_foregroundBlur"/>
</filter>
<filter id="filter30_d" x="158.606" y="644.348" width="11.2594" height="11.2594" filterUnits="userSpaceOnUse" color-interpolation-filters="sRGB">
<feFlood flood-opacity="0" result="BackgroundImageFix"/>
<feColorMatrix in="SourceAlpha" type="matrix" values="0 0 0 0 0 0 0 0 0 0 0 0 0 0 0 0 0 0 127 0"/>
<feOffset dy="4"/>
<feGaussianBlur stdDeviation="2"/>
<feColorMatrix type="matrix" values="0 0 0 0 0 0 0 0 0 0 0 0 0 0 0 0 0 0 0.25 0"/>
<feBlend mode="normal" in2="BackgroundImageFix" result="effect1_dropShadow"/>
<feBlend mode="normal" in="SourceGraphic" in2="effect1_dropShadow" result="shape"/>
</filter>
<filter id="filter31_f" x="153.606" y="635.348" width="21.2594" height="21.2594" filterUnits="userSpaceOnUse" color-interpolation-filters="sRGB">
<feFlood flood-opacity="0" result="BackgroundImageFix"/>
<feBlend mode="normal" in="SourceGraphic" in2="BackgroundImageFix" result="shape"/>
<feGaussianBlur stdDeviation="4.5" result="effect1_foregroundBlur"/>
</filter>
<filter id="filter32_f" x="160.606" y="642.348" width="7.25942" height="7.25942" filterUnits="userSpaceOnUse" color-interpolation-filters="sRGB">
<feFlood flood-opacity="0" result="BackgroundImageFix"/>
<feBlend mode="normal" in="SourceGraphic" in2="BackgroundImageFix" result="shape"/>
<feGaussianBlur stdDeviation="1" result="effect1_foregroundBlur"/>
</filter>
<filter id="filter33_f" x="239.563" y="670.134" width="33.3902" height="33.3902" filterUnits="userSpaceOnUse" color-interpolation-filters="sRGB">
<feFlood flood-opacity="0" result="BackgroundImageFix"/>
<feBlend mode="normal" in="SourceGraphic" in2="BackgroundImageFix" result="shape"/>
<feGaussianBlur stdDeviation="7" result="effect1_foregroundBlur"/>
</filter>
<filter id="filter34_f" x="250.563" y="681.134" width="11.3902" height="11.3902" filterUnits="userSpaceOnUse" color-interpolation-filters="sRGB">
<feFlood flood-opacity="0" result="BackgroundImageFix"/>
<feBlend mode="normal" in="SourceGraphic" in2="BackgroundImageFix" result="shape"/>
<feGaussianBlur stdDeviation="1.5" result="effect1_foregroundBlur"/>
</filter>
<filter id="filter35_f" x="116.133" y="681.952" width="19.3992" height="19.3992" filterUnits="userSpaceOnUse" color-interpolation-filters="sRGB">
<feFlood flood-opacity="0" result="BackgroundImageFix"/>
<feBlend mode="normal" in="SourceGraphic" in2="BackgroundImageFix" result="shape"/>
<feGaussianBlur stdDeviation="4" result="effect1_foregroundBlur"/>
</filter>
<filter id="filter36_f" x="154.057" y="550.153" width="11.8863" height="11.8863" filterUnits="userSpaceOnUse" color-interpolation-filters="sRGB">
<feFlood flood-opacity="0" result="BackgroundImageFix"/>
<feBlend mode="normal" in="SourceGraphic" in2="BackgroundImageFix" result="shape"/>
<feGaussianBlur stdDeviation="1" result="effect1_foregroundBlur"/>
</filter>
<filter id="filter37_f" x="152.057" y="548.153" width="15.8863" height="15.8863" filterUnits="userSpaceOnUse" color-interpolation-filters="sRGB">
<feFlood flood-opacity="0" result="BackgroundImageFix"/>
<feBlend mode="normal" in="SourceGraphic" in2="BackgroundImageFix" result="shape"/>
<feGaussianBlur stdDeviation="2" result="effect1_foregroundBlur"/>
</filter>
<filter id="filter38_f" x="231.499" y="644.596" width="7.07434" height="7.07434" filterUnits="userSpaceOnUse" color-interpolation-filters="sRGB">
<feFlood flood-opacity="0" result="BackgroundImageFix"/>
<feBlend mode="normal" in="SourceGraphic" in2="BackgroundImageFix" result="shape"/>
<feGaussianBlur stdDeviation="1" result="effect1_foregroundBlur"/>
</filter>
<filter id="filter39_d" x="186.071" y="675.365" width="12.508" height="12.508" filterUnits="userSpaceOnUse" color-interpolation-filters="sRGB">
<feFlood flood-opacity="0" result="BackgroundImageFix"/>
<feColorMatrix in="SourceAlpha" type="matrix" values="0 0 0 0 0 0 0 0 0 0 0 0 0 0 0 0 0 0 127 0"/>
<feOffset dy="4"/>
<feGaussianBlur stdDeviation="2"/>
<feColorMatrix type="matrix" values="0 0 0 0 0 0 0 0 0 0 0 0 0 0 0 0 0 0 0.25 0"/>
<feBlend mode="normal" in2="BackgroundImageFix" result="effect1_dropShadow"/>
<feBlend mode="normal" in="SourceGraphic" in2="effect1_dropShadow" result="shape"/>
</filter>
<filter id="filter40_f" x="181.071" y="666.365" width="22.508" height="22.508" filterUnits="userSpaceOnUse" color-interpolation-filters="sRGB">
<feFlood flood-opacity="0" result="BackgroundImageFix"/>
<feBlend mode="normal" in="SourceGraphic" in2="BackgroundImageFix" result="shape"/>
<feGaussianBlur stdDeviation="4.5" result="effect1_foregroundBlur"/>
</filter>
<filter id="filter41_f" x="188.071" y="673.365" width="8.50803" height="8.50803" filterUnits="userSpaceOnUse" color-interpolation-filters="sRGB">
<feFlood flood-opacity="0" result="BackgroundImageFix"/>
<feBlend mode="normal" in="SourceGraphic" in2="BackgroundImageFix" result="shape"/>
<feGaussianBlur stdDeviation="1" result="effect1_foregroundBlur"/>
</filter>
<filter id="filter42_f" x="-16.0575" y="301.134" width="73.2319" height="73.2319" filterUnits="userSpaceOnUse" color-interpolation-filters="sRGB">
<feFlood flood-opacity="0" result="BackgroundImageFix"/>
<feBlend mode="normal" in="SourceGraphic" in2="BackgroundImageFix" result="shape"/>
<feGaussianBlur stdDeviation="14" result="effect1_foregroundBlur"/>
</filter>
<filter id="filter43_f" x="2.9425" y="320.134" width="35.2319" height="35.2319" filterUnits="userSpaceOnUse" color-interpolation-filters="sRGB">
<feFlood flood-opacity="0" result="BackgroundImageFix"/>
<feBlend mode="normal" in="SourceGraphic" in2="BackgroundImageFix" result="shape"/>
<feGaussianBlur stdDeviation="4.5" result="effect1_foregroundBlur"/>
</filter>
<filter id="filter44_f" x="276.846" y="100.228" width="22.2635" height="22.2635" filterUnits="userSpaceOnUse" color-interpolation-filters="sRGB">
<feFlood flood-opacity="0" result="BackgroundImageFix"/>
<feBlend mode="normal" in="SourceGraphic" in2="BackgroundImageFix" result="shape"/>
<feGaussianBlur stdDeviation="4" result="effect1_foregroundBlur"/>
</filter>
<filter id="filter45_f" x="282.846" y="106.228" width="10.2635" height="10.2635" filterUnits="userSpaceOnUse" color-interpolation-filters="sRGB">
<feFlood flood-opacity="0" result="BackgroundImageFix"/>
<feBlend mode="normal" in="SourceGraphic" in2="BackgroundImageFix" result="shape"/>
<feGaussianBlur stdDeviation="1" result="effect1_foregroundBlur"/>
</filter>
<filter id="filter46_f" x="29.6361" y="229.083" width="16.2635" height="16.2635" filterUnits="userSpaceOnUse" color-interpolation-filters="sRGB">
<feFlood flood-opacity="0" result="BackgroundImageFix"/>
<feBlend mode="normal" in="SourceGraphic" in2="BackgroundImageFix" result="shape"/>
<feGaussianBlur stdDeviation="2.5" result="effect1_foregroundBlur"/>
</filter>
<filter id="filter47_f" x="26.6361" y="226.083" width="22.2635" height="22.2635" filterUnits="userSpaceOnUse" color-interpolation-filters="sRGB">
<feFlood flood-opacity="0" result="BackgroundImageFix"/>
<feBlend mode="normal" in="SourceGraphic" in2="BackgroundImageFix" result="shape"/>
<feGaussianBlur stdDeviation="4" result="effect1_foregroundBlur"/>
</filter>
<filter id="filter48_f" x="32.6361" y="232.083" width="10.2635" height="10.2635" filterUnits="userSpaceOnUse" color-interpolation-filters="sRGB">
<feFlood flood-opacity="0" result="BackgroundImageFix"/>
<feBlend mode="normal" in="SourceGraphic" in2="BackgroundImageFix" result="shape"/>
<feGaussianBlur stdDeviation="1" result="effect1_foregroundBlur"/>
</filter>
<filter id="filter49_f" x="281.948" y="272.288" width="18.6815" height="18.6815" filterUnits="userSpaceOnUse" color-interpolation-filters="sRGB">
<feFlood flood-opacity="0" result="BackgroundImageFix"/>
<feBlend mode="normal" in="SourceGraphic" in2="BackgroundImageFix" result="shape"/>
<feGaussianBlur stdDeviation="2" result="effect1_foregroundBlur"/>
</filter>
<filter id="filter50_f" x="52.8246" y="367.797" width="18.0894" height="18.0894" filterUnits="userSpaceOnUse" color-interpolation-filters="sRGB">
<feFlood flood-opacity="0" result="BackgroundImageFix"/>
<feBlend mode="normal" in="SourceGraphic" in2="BackgroundImageFix" result="shape"/>
<feGaussianBlur stdDeviation="2" result="effect1_foregroundBlur"/>
</filter>
<filter id="filter51_f" x="174.634" y="66.7725" width="23.0771" height="23.0771" filterUnits="userSpaceOnUse" color-interpolation-filters="sRGB">
<feFlood flood-opacity="0" result="BackgroundImageFix"/>
<feBlend mode="normal" in="SourceGraphic" in2="BackgroundImageFix" result="shape"/>
<feGaussianBlur stdDeviation="3.5" result="effect1_foregroundBlur"/>
</filter>
<filter id="filter52_f" x="179.634" y="71.7725" width="13.0771" height="13.0771" filterUnits="userSpaceOnUse" color-interpolation-filters="sRGB">
<feFlood flood-opacity="0" result="BackgroundImageFix"/>
<feBlend mode="normal" in="SourceGraphic" in2="BackgroundImageFix" result="shape"/>
<feGaussianBlur stdDeviation="1" result="effect1_foregroundBlur"/>
</filter>
<filter id="filter53_d" x="159.445" y="135.207" width="12.0193" height="12.0193" filterUnits="userSpaceOnUse" color-interpolation-filters="sRGB">
<feFlood flood-opacity="0" result="BackgroundImageFix"/>
<feColorMatrix in="SourceAlpha" type="matrix" values="0 0 0 0 0 0 0 0 0 0 0 0 0 0 0 0 0 0 127 0"/>
<feOffset dy="4"/>
<feGaussianBlur stdDeviation="2"/>
<feColorMatrix type="matrix" values="0 0 0 0 0 0 0 0 0 0 0 0 0 0 0 0 0 0 0.25 0"/>
<feBlend mode="normal" in2="BackgroundImageFix" result="effect1_dropShadow"/>
<feBlend mode="normal" in="SourceGraphic" in2="effect1_dropShadow" result="shape"/>
</filter>
<filter id="filter54_f" x="154.445" y="126.207" width="22.0193" height="22.0193" filterUnits="userSpaceOnUse" color-interpolation-filters="sRGB">
<feFlood flood-opacity="0" result="BackgroundImageFix"/>
<feBlend mode="normal" in="SourceGraphic" in2="BackgroundImageFix" result="shape"/>
<feGaussianBlur stdDeviation="4.5" result="effect1_foregroundBlur"/>
</filter>
<filter id="filter55_f" x="161.445" y="133.207" width="8.01928" height="8.01928" filterUnits="userSpaceOnUse" color-interpolation-filters="sRGB">
<feFlood flood-opacity="0" result="BackgroundImageFix"/>
<feBlend mode="normal" in="SourceGraphic" in2="BackgroundImageFix" result="shape"/>
<feGaussianBlur stdDeviation="1" result="effect1_foregroundBlur"/>
</filter>
<filter id="filter56_f" x="261.607" y="170.268" width="34.6467" height="34.6467" filterUnits="userSpaceOnUse" color-interpolation-filters="sRGB">
<feFlood flood-opacity="0" result="BackgroundImageFix"/>
<feBlend mode="normal" in="SourceGraphic" in2="BackgroundImageFix" result="shape"/>
<feGaussianBlur stdDeviation="7" result="effect1_foregroundBlur"/>
</filter>
<filter id="filter57_f" x="272.607" y="181.268" width="12.6467" height="12.6467" filterUnits="userSpaceOnUse" color-interpolation-filters="sRGB">
<feFlood flood-opacity="0" result="BackgroundImageFix"/>
<feBlend mode="normal" in="SourceGraphic" in2="BackgroundImageFix" result="shape"/>
<feGaussianBlur stdDeviation="1.5" result="effect1_foregroundBlur"/>
</filter>
<filter id="filter58_f" x="108.003" y="183.442" width="20.1916" height="20.1916" filterUnits="userSpaceOnUse" color-interpolation-filters="sRGB">
<feFlood flood-opacity="0" result="BackgroundImageFix"/>
<feBlend mode="normal" in="SourceGraphic" in2="BackgroundImageFix" result="shape"/>
<feGaussianBlur stdDeviation="4" result="effect1_foregroundBlur"/>
</filter>
<filter id="filter59_f" x="114.003" y="189.442" width="8.19162" height="8.19162" filterUnits="userSpaceOnUse" color-interpolation-filters="sRGB">
<feFlood flood-opacity="0" result="BackgroundImageFix"/>
<feBlend mode="normal" in="SourceGraphic" in2="BackgroundImageFix" result="shape"/>
<feGaussianBlur stdDeviation="1" result="effect1_foregroundBlur"/>
</filter>
<filter id="filter60_f" x="108.306" y="72.0178" width="15.1483" height="15.1483" filterUnits="userSpaceOnUse" color-interpolation-filters="sRGB">
<feFlood flood-opacity="0" result="BackgroundImageFix"/>
<feBlend mode="normal" in="SourceGraphic" in2="BackgroundImageFix" result="shape"/>
<feGaussianBlur stdDeviation="2" result="effect1_foregroundBlur"/>
</filter>
<filter id="filter61_f" x="248.865" y="135.979" width="7.79105" height="7.79105" filterUnits="userSpaceOnUse" color-interpolation-filters="sRGB">
<feFlood flood-opacity="0" result="BackgroundImageFix"/>
<feBlend mode="normal" in="SourceGraphic" in2="BackgroundImageFix" result="shape"/>
<feGaussianBlur stdDeviation="1" result="effect1_foregroundBlur"/>
</filter>
<filter id="filter62_f" x="176.188" y="205.618" width="20.0746" height="20.0746" filterUnits="userSpaceOnUse" color-interpolation-filters="sRGB">
<feFlood flood-opacity="0" result="BackgroundImageFix"/>
<feBlend mode="normal" in="SourceGraphic" in2="BackgroundImageFix" result="shape"/>
<feGaussianBlur stdDeviation="3.5" result="effect1_foregroundBlur"/>
</filter>
<filter id="filter63_f" x="181.188" y="210.618" width="10.0746" height="10.0746" filterUnits="userSpaceOnUse" color-interpolation-filters="sRGB">
<feFlood flood-opacity="0" result="BackgroundImageFix"/>
<feBlend mode="normal" in="SourceGraphic" in2="BackgroundImageFix" result="shape"/>
<feGaussianBlur stdDeviation="1" result="effect1_foregroundBlur"/>
</filter>
<filter id="filter64_d" x="193.313" y="173.455" width="13.559" height="13.559" filterUnits="userSpaceOnUse" color-interpolation-filters="sRGB">
<feFlood flood-opacity="0" result="BackgroundImageFix"/>
<feColorMatrix in="SourceAlpha" type="matrix" values="0 0 0 0 0 0 0 0 0 0 0 0 0 0 0 0 0 0 127 0"/>
<feOffset dy="4"/>
<feGaussianBlur stdDeviation="2"/>
<feColorMatrix type="matrix" values="0 0 0 0 0 0 0 0 0 0 0 0 0 0 0 0 0 0 0.25 0"/>
<feBlend mode="normal" in2="BackgroundImageFix" result="effect1_dropShadow"/>
<feBlend mode="normal" in="SourceGraphic" in2="effect1_dropShadow" result="shape"/>
</filter>
<filter id="filter65_f" x="188.313" y="164.455" width="23.559" height="23.559" filterUnits="userSpaceOnUse" color-interpolation-filters="sRGB">
<feFlood flood-opacity="0" result="BackgroundImageFix"/>
<feBlend mode="normal" in="SourceGraphic" in2="BackgroundImageFix" result="shape"/>
<feGaussianBlur stdDeviation="4.5" result="effect1_foregroundBlur"/>
</filter>
<filter id="filter66_f" x="195.313" y="171.455" width="9.55898" height="9.55898" filterUnits="userSpaceOnUse" color-interpolation-filters="sRGB">
<feFlood flood-opacity="0" result="BackgroundImageFix"/>
<feBlend mode="normal" in="SourceGraphic" in2="BackgroundImageFix" result="shape"/>
<feGaussianBlur stdDeviation="1" result="effect1_foregroundBlur"/>
</filter>
<linearGradient id="paint0_linear" x1="-15.6462" y1="587.482" x2="-35.1846" y2="225.822" gradientUnits="userSpaceOnUse">
<stop stop-color="#7F2FCB"/>
<stop offset="0.697917" stop-color="#AFCCF4"/>
</linearGradient>
<radialGradient id="paint1_radial" cx="0" cy="0" r="1" gradientUnits="userSpaceOnUse" gradientTransform="translate(256.125 409.871) rotate(90) scale(4.69988)">
<stop offset="0.276042" stop-color="#AFCCF4"/>
<stop offset="1" stop-color="#AE44BA"/>
</radialGradient>
<radialGradient id="paint2_radial" cx="0" cy="0" r="1" gradientUnits="userSpaceOnUse" gradientTransform="translate(296.816 511.965) rotate(90) scale(3.85074)">
<stop stop-color="white"/>
<stop offset="1" stop-color="white" stop-opacity="0"/>
</radialGradient>
<radialGradient id="paint3_radial" cx="0" cy="0" r="1" gradientUnits="userSpaceOnUse" gradientTransform="translate(115.261 441.32) rotate(90) scale(9.24744)">
<stop stop-color="#AFCCF4"/>
<stop offset="1" stop-color="white" stop-opacity="0"/>
</radialGradient>
<radialGradient id="paint4_radial" cx="0" cy="0" r="1" gradientUnits="userSpaceOnUse" gradientTransform="translate(115.261 441.32) rotate(90) scale(9.24744)">
<stop stop-color="#AFCCF4"/>
<stop offset="1" stop-color="white" stop-opacity="0"/>
</radialGradient>
<radialGradient id="paint5_radial" cx="0" cy="0" r="1" gradientUnits="userSpaceOnUse" gradientTransform="translate(296.383 414.31) rotate(90) scale(2.71838)">
<stop stop-color="white"/>
<stop offset="1" stop-color="white" stop-opacity="0"/>
</radialGradient>
<linearGradient id="paint6_linear" x1="214.784" y1="485.837" x2="214.784" y2="867.561" gradientUnits="userSpaceOnUse">
<stop stop-color="#7F2FCB"/>
<stop offset="0.697917" stop-color="#AFCCF4"/>
</linearGradient>
<radialGradient id="paint7_radial" cx="0" cy="0" r="1" gradientUnits="userSpaceOnUse" gradientTransform="translate(313.782 597.783) rotate(90) scale(4.02721)">
<stop stop-color="#AFCCF4"/>
<stop offset="1" stop-color="white" stop-opacity="0"/>
</radialGradient>
<radialGradient id="paint8_radial" cx="0" cy="0" r="1" gradientUnits="userSpaceOnUse" gradientTransform="translate(313.782 597.783) rotate(90) scale(4.02721)">
<stop stop-color="#AFCCF4"/>
<stop offset="1" stop-color="white" stop-opacity="0"/>
</radialGradient>
<radialGradient id="paint9_radial" cx="0" cy="0" r="1" gradientUnits="userSpaceOnUse" gradientTransform="translate(51.6848 519.601) rotate(90) scale(3.58325)">
<stop stop-color="#AFCCF4"/>
<stop offset="1" stop-color="white" stop-opacity="0"/>
</radialGradient>
<radialGradient id="paint10_radial" cx="0" cy="0" r="1" gradientUnits="userSpaceOnUse" gradientTransform="translate(51.6848 519.601) rotate(90) scale(3.58325)">
<stop stop-color="#AFCCF4"/>
<stop offset="1" stop-color="white" stop-opacity="0"/>
</radialGradient>
<linearGradient id="paint11_linear" x1="158.497" y1="784.788" x2="158.497" y2="529.332" gradientUnits="userSpaceOnUse">
<stop stop-color="#7F2FCB"/>
<stop offset="0.697917" stop-color="#AFCCF4"/>
</linearGradient>
<radialGradient id="paint12_radial" cx="0" cy="0" r="1" gradientUnits="userSpaceOnUse" gradientTransform="translate(256.258 686.829) rotate(90) scale(2.69508)">
<stop stop-color="#AFCCF4"/>
<stop offset="1" stop-color="white" stop-opacity="0"/>
</radialGradient>
<radialGradient id="paint13_radial" cx="0" cy="0" r="1" gradientUnits="userSpaceOnUse" gradientTransform="translate(256.258 686.829) rotate(90) scale(2.69508)">
<stop stop-color="#AFCCF4"/>
<stop offset="1" stop-color="white" stop-opacity="0"/>
</radialGradient>
<radialGradient id="paint14_radial" cx="0" cy="0" r="1" gradientUnits="userSpaceOnUse" gradientTransform="translate(160 556.096) rotate(90) scale(3.94316)">
<stop stop-color="white"/>
<stop offset="1" stop-color="white" stop-opacity="0"/>
</radialGradient>
<radialGradient id="paint15_radial" cx="0" cy="0" r="1" gradientUnits="userSpaceOnUse" gradientTransform="translate(160 556.096) rotate(90) scale(3.94316)">
<stop stop-color="white"/>
<stop offset="1" stop-color="white" stop-opacity="0"/>
</radialGradient>
<radialGradient id="paint16_radial" cx="0" cy="0" r="1" gradientUnits="userSpaceOnUse" gradientTransform="translate(235.036 648.133) rotate(90) scale(1.53717)">
<stop stop-color="white"/>
<stop offset="1" stop-color="white" stop-opacity="0"/>
</radialGradient>
<linearGradient id="paint17_linear" x1="227.787" y1="-60.2571" x2="227.787" y2="410.457" gradientUnits="userSpaceOnUse">
<stop stop-color="#7F2FCB"/>
<stop offset="0.697917" stop-color="#AFCCF4"/>
</linearGradient>
<radialGradient id="paint18_radial" cx="0" cy="0" r="1" gradientUnits="userSpaceOnUse" gradientTransform="translate(20.5585 337.75) rotate(90) scale(8.61596)">
<stop stop-color="#AFCCF4"/>
<stop offset="1" stop-color="white" stop-opacity="0"/>
</radialGradient>
<radialGradient id="paint19_radial" cx="0" cy="0" r="1" gradientUnits="userSpaceOnUse" gradientTransform="translate(20.5585 337.75) rotate(90) scale(8.61596)">
<stop stop-color="#AFCCF4"/>
<stop offset="1" stop-color="white" stop-opacity="0"/>
</radialGradient>
<radialGradient id="paint20_radial" cx="0" cy="0" r="1" gradientUnits="userSpaceOnUse" gradientTransform="translate(291.288 281.629) rotate(90) scale(5.34076)">
<stop stop-color="white"/>
<stop offset="1" stop-color="white" stop-opacity="0"/>
</radialGradient>
<radialGradient id="paint21_radial" cx="0" cy="0" r="1" gradientUnits="userSpaceOnUse" gradientTransform="translate(61.8694 376.842) rotate(90) scale(5.04471)">
<stop stop-color="white"/>
<stop offset="1" stop-color="white" stop-opacity="0"/>
</radialGradient>
<linearGradient id="paint22_linear" x1="158.378" y1="308.387" x2="158.378" y2="-6.62295" gradientUnits="userSpaceOnUse">
<stop stop-color="#7F2FCB"/>
<stop offset="0.697917" stop-color="#AFCCF4"/>
</linearGradient>
<radialGradient id="paint23_radial" cx="0" cy="0" r="1" gradientUnits="userSpaceOnUse" gradientTransform="translate(278.931 187.591) rotate(90) scale(3.32337)">
<stop stop-color="#AFCCF4"/>
<stop offset="1" stop-color="white" stop-opacity="0"/>
</radialGradient>
<radialGradient id="paint24_radial" cx="0" cy="0" r="1" gradientUnits="userSpaceOnUse" gradientTransform="translate(278.931 187.591) rotate(90) scale(3.32337)">
<stop stop-color="#AFCCF4"/>
<stop offset="1" stop-color="white" stop-opacity="0"/>
</radialGradient>
<radialGradient id="paint25_radial" cx="0" cy="0" r="1" gradientUnits="userSpaceOnUse" gradientTransform="translate(115.88 79.5919) rotate(90) scale(3.57413)">
<stop stop-color="white"/>
<stop offset="1" stop-color="white" stop-opacity="0"/>
</radialGradient>
<radialGradient id="paint26_radial" cx="0" cy="0" r="1" gradientUnits="userSpaceOnUse" gradientTransform="translate(252.761 139.875) rotate(90) scale(1.89552)">
<stop stop-color="white"/>
<stop offset="1" stop-color="white" stop-opacity="0"/>
</radialGradient>
</defs>
</svg>
