<svg width="320" height="236" viewBox="0 0 320 236" fill="none" xmlns="http://www.w3.org/2000/svg">
<path d="M-160.562 47.2732C-270.126 6.74683 -460.346 -4.20043 -570 3.11381V235H385V3.11381C351.432 18.9614 364.634 26.9131 287.115 82.9477C209.595 138.982 53.1157 126.309 -160.562 47.2732Z" fill="#9B51E0"/>
<path d="M-160.562 47.2732C-270.126 6.74683 -460.346 -4.20043 -570 3.11381V235H385V3.11381C351.432 18.9614 364.634 26.9131 287.115 82.9477C209.595 138.982 53.1157 126.309 -160.562 47.2732Z" fill="url(#paint0_linear)"/>
<path d="M-160.562 47.2732C-270.126 6.74683 -460.346 -4.20043 -570 3.11381V235H385V3.11381C351.432 18.9614 364.634 26.9131 287.115 82.9477C209.595 138.982 53.1157 126.309 -160.562 47.2732Z" stroke="url(#paint1_linear)" stroke-opacity="0.6" stroke-width="2"/>
<defs>
<linearGradient id="paint0_linear" x1="-78.0481" y1="17.8488" x2="-27.9718" y2="330.566" gradientUnits="userSpaceOnUse">
<stop stop-color="#9B51E0"/>
<stop offset="0.817708" stop-color="#AFCCF4"/>
<stop offset="1" stop-color="#AE44BA"/>
</linearGradient>
<linearGradient id="paint1_linear" x1="-594.025" y1="-188.297" x2="203.208" y2="97.0288" gradientUnits="userSpaceOnUse">
<stop stop-color="white" stop-opacity="0.94"/>
<stop offset="0.334826" stop-color="white" stop-opacity="0"/>
<stop offset="0.597711" stop-color="white" stop-opacity="0"/>
<stop offset="0.753211" stop-color="white" stop-opacity="0.83"/>
<stop offset="1" stop-color="white" stop-opacity="0"/>
</linearGradient>
</defs>
</svg>
