<svg width="320" height="213" viewBox="0 0 320 213" fill="none" xmlns="http://www.w3.org/2000/svg">
<path d="M116.534 80.6897C-150.844 100.588 -200.589 1.09814 -259.72 1.09814V212.289H694.696V24.4138C661.149 38.9509 582.833 114.328 545.338 94.7445C380.874 8.84751 274.452 68.9377 116.534 80.6897Z" fill="#C050D8"/>
<path d="M116.534 80.6897C-150.844 100.588 -200.589 1.09814 -259.72 1.09814V212.289H694.696V24.4138C661.149 38.9509 582.833 114.328 545.338 94.7445C380.874 8.84751 274.452 68.9377 116.534 80.6897Z" fill="url(#paint0_linear)"/>
<path d="M116.534 80.6897C-150.844 100.588 -200.589 1.09814 -259.72 1.09814V212.289H694.696V24.4138C661.149 38.9509 582.833 114.328 545.338 94.7445C380.874 8.84751 274.452 68.9377 116.534 80.6897Z" stroke="url(#paint1_linear)" stroke-opacity="0.6"/>
<defs>
<linearGradient id="paint0_linear" x1="217.488" y1="17.0331" x2="332.166" y2="166.804" gradientUnits="userSpaceOnUse">
<stop offset="0.0866609" stop-color="#AE44BA"/>
<stop offset="1" stop-color="#9B51E0"/>
</linearGradient>
<linearGradient id="paint1_linear" x1="-177.2" y1="-103.613" x2="557.458" y2="133.568" gradientUnits="userSpaceOnUse">
<stop stop-color="white" stop-opacity="0"/>
<stop offset="0.341996" stop-color="white"/>
<stop offset="0.594617" stop-color="white" stop-opacity="0"/>
<stop offset="1" stop-color="white"/>
</linearGradient>
</defs>
</svg>
