<svg width="320" height="350" viewBox="0 0 320 350" fill="none" xmlns="http://www.w3.org/2000/svg">
<g clip-path="url(#clip0)">
<g clip-path="url(#clip1)">
<path d="M116.534 80.6897C-150.844 100.588 -200.589 1.09814 -259.72 1.09814V212.289H694.696V24.4138C661.149 38.9509 582.833 114.328 545.338 94.7445C380.874 8.84752 274.452 68.9377 116.534 80.6897Z" fill="#C050D8"/>
<path d="M116.534 80.6897C-150.844 100.588 -200.589 1.09814 -259.72 1.09814V212.289H694.696V24.4138C661.149 38.9509 582.833 114.328 545.338 94.7445C380.874 8.84752 274.452 68.9377 116.534 80.6897Z" fill="url(#paint0_linear)"/>
<path d="M116.534 80.6897C-150.844 100.588 -200.589 1.09814 -259.72 1.09814V212.289H694.696V24.4138C661.149 38.9509 582.833 114.328 545.338 94.7445C380.874 8.84752 274.452 68.9377 116.534 80.6897Z" stroke="url(#paint1_linear)" stroke-opacity="0.6"/>
</g>
<rect y="210" width="320" height="186" fill="url(#paint2_linear)"/>
</g>
<defs>
<linearGradient id="paint0_linear" x1="217.488" y1="17.0331" x2="332.166" y2="166.804" gradientUnits="userSpaceOnUse">
<stop offset="0.0866609" stop-color="#AE44BA"/>
<stop offset="1" stop-color="#9B51E0"/>
</linearGradient>
<linearGradient id="paint1_linear" x1="-177.2" y1="-103.613" x2="557.458" y2="133.568" gradientUnits="userSpaceOnUse">
<stop stop-color="white" stop-opacity="0"/>
<stop offset="0.341996" stop-color="white"/>
<stop offset="0.594617" stop-color="white" stop-opacity="0"/>
<stop offset="1" stop-color="white"/>
</linearGradient>
<linearGradient id="paint2_linear" x1="39.5" y1="115.5" x2="243.655" y2="192.659" gradientUnits="userSpaceOnUse">
<stop offset="0.0970021" stop-color="#AE44BA"/>
<stop offset="1" stop-color="#9B51E0"/>
</linearGradient>
<clipPath id="clip0">
<rect width="320" height="350" fill="white"/>
</clipPath>
<clipPath id="clip1">
<rect width="320" height="213" fill="white"/>
</clipPath>
</defs>
</svg>
