<svg width="320" height="199" viewBox="0 0 320 199" fill="none" xmlns="http://www.w3.org/2000/svg">
<path d="M33.4963 10.5397C277.077 45.9503 331.798 42.8345 354.005 2.16687V203.915H-340.513V2.16687C-316.101 20.0085 -325.702 28.9609 -269.326 92.0463C-212.951 155.132 -161.389 -17.7917 33.4963 10.5397Z" fill="#9B51E0"/>
<path d="M33.4963 10.5397C277.077 45.9503 331.798 42.8345 354.005 2.16687V203.915H-340.513V2.16687C-316.101 20.0085 -325.702 28.9609 -269.326 92.0463C-212.951 155.132 -161.389 -17.7917 33.4963 10.5397Z" fill="url(#paint0_linear)"/>
<path d="M33.4963 10.5397C277.077 45.9503 331.798 42.8345 354.005 2.16687V203.915H-340.513V2.16687C-316.101 20.0085 -325.702 28.9609 -269.326 92.0463C-212.951 155.132 -161.389 -17.7917 33.4963 10.5397Z" stroke="url(#paint1_linear)" stroke-opacity="0.6" stroke-width="2"/>
<defs>
<linearGradient id="paint0_linear" x1="12.7529" y1="78.5307" x2="44.7195" y2="352.932" gradientUnits="userSpaceOnUse">
<stop stop-color="#9B51E0"/>
<stop offset="0.93365" stop-color="#AFCCF4"/>
</linearGradient>
<linearGradient id="paint1_linear" x1="371.477" y1="-213.33" x2="-249.386" y2="-69.7948" gradientUnits="userSpaceOnUse">
<stop stop-color="white" stop-opacity="0.94"/>
<stop offset="0.334826" stop-color="white" stop-opacity="0"/>
<stop offset="0.597711" stop-color="white" stop-opacity="0"/>
<stop offset="0.753211" stop-color="white" stop-opacity="0.83"/>
<stop offset="1" stop-color="white" stop-opacity="0"/>
</linearGradient>
</defs>
</svg>
