<svg width="320" height="686" viewBox="0 0 320 686" fill="none" xmlns="http://www.w3.org/2000/svg">
<g clip-path="url(#clip0)">
<g opacity="0.5">
<g opacity="0.3">
<path opacity="0.3" d="M176.012 347.191L223.53 273.799L291.793 281.494L176.012 347.191ZM176.012 347.191L62.3338 376.475L176.012 347.191ZM176.012 347.191L39.0174 439.889L176.012 347.191ZM177.128 461.938L277.611 327.112L357.14 340.824L296.398 414.529L159.416 558.146L39.0174 439.889L177.128 461.938ZM37.5988 237.101L62.3338 376.475L37.5988 237.101ZM62.3338 376.475L39.0174 439.889L62.3338 376.475ZM39.0174 439.889L-194.201 210.818L-287.622 364.389L-427.406 368.934L-278.25 584.045L-276.558 409.265L-56.0931 226.952L-130.645 554.692L39.0174 439.889Z" stroke="#9B51E0"/>
<path opacity="0.3" d="M176.012 347.191L223.53 273.799L291.793 281.494L176.012 347.191ZM176.012 347.191L62.3338 376.475L176.012 347.191ZM176.012 347.191L39.0174 439.889L176.012 347.191ZM177.128 461.938L277.611 327.112L357.14 340.824L296.398 414.529L159.416 558.146L39.0174 439.889L177.128 461.938ZM37.5988 237.101L62.3338 376.475L37.5988 237.101ZM62.3338 376.475L39.0174 439.889L62.3338 376.475ZM39.0174 439.889L-194.201 210.818L-287.622 364.389L-427.406 368.934L-278.25 584.045L-276.558 409.265L-56.0931 226.952L-130.645 554.692L39.0174 439.889Z" stroke="url(#paint0_linear)"/>
<path opacity="0.3" d="M-237.632 562.137L-68.8692 457.984L10.1945 479.368L115.673 440.665L176.672 461.933L254.917 410.623L296.952 512.093L-88.8708 593.251L-301.531 456.601L-327.396 545.823" stroke="#9B51E0"/>
</g>
<g opacity="0.5" filter="url(#filter0_f)">
<path opacity="0.5" d="M37.7679 240.345C39.4975 240.345 40.8996 238.943 40.8996 237.214C40.8996 235.484 39.4975 234.082 37.7679 234.082C36.0383 234.082 34.6362 235.484 34.6362 237.214C34.6362 238.943 36.0383 240.345 37.7679 240.345Z" fill="#AFCCF4"/>
</g>
<g opacity="0.5" filter="url(#filter1_f)">
<path opacity="0.5" d="M37.7679 240.345C39.4975 240.345 40.8996 238.943 40.8996 237.214C40.8996 235.484 39.4975 234.082 37.7679 234.082C36.0383 234.082 34.6362 235.484 34.6362 237.214C34.6362 238.943 36.0383 240.345 37.7679 240.345Z" fill="#93BEFA"/>
</g>
<g opacity="0.5" filter="url(#filter2_f)">
<path opacity="0.5" d="M37.7679 240.345C39.4975 240.345 40.8996 238.943 40.8996 237.214C40.8996 235.484 39.4975 234.082 37.7679 234.082C36.0383 234.082 34.6362 235.484 34.6362 237.214C34.6362 238.943 36.0383 240.345 37.7679 240.345Z" fill="#93BEFA"/>
</g>
<g opacity="0.5" filter="url(#filter3_f)">
<path opacity="0.5" d="M37.7679 240.345C39.4975 240.345 40.8996 238.943 40.8996 237.214C40.8996 235.484 39.4975 234.082 37.7679 234.082C36.0383 234.082 34.6362 235.484 34.6362 237.214C34.6362 238.943 36.0383 240.345 37.7679 240.345Z" fill="#93BEFA"/>
</g>
<g opacity="0.5" filter="url(#filter4_f)">
<path opacity="0.5" d="M255.872 405.178C253.28 405.318 251.292 407.532 251.432 410.124C251.572 412.716 253.787 414.704 256.379 414.564C258.97 414.424 260.958 412.209 260.818 409.617C260.678 407.025 258.463 405.038 255.872 405.178Z" fill="url(#paint1_radial)"/>
</g>
<g opacity="0.5" filter="url(#filter5_f)">
<path opacity="0.5" d="M296.608 508.12C294.485 508.234 292.856 510.049 292.971 512.173C293.086 514.296 294.9 515.925 297.024 515.81C299.147 515.695 300.776 513.881 300.661 511.757C300.546 509.634 298.732 508.005 296.608 508.12Z" fill="#AFCCF4"/>
<path opacity="0.5" d="M296.608 508.12C294.485 508.234 292.856 510.049 292.971 512.173C293.086 514.296 294.9 515.925 297.024 515.81C299.147 515.695 300.776 513.881 300.661 511.757C300.546 509.634 298.732 508.005 296.608 508.12Z" fill="url(#paint2_radial)"/>
</g>
<g opacity="0.5" filter="url(#filter6_f)">
<path opacity="0.5" d="M114.762 432.086C109.662 432.362 105.752 436.719 106.027 441.819C106.302 446.919 110.66 450.829 115.76 450.554C120.86 450.278 124.77 445.921 124.495 440.821C124.219 435.721 119.862 431.811 114.762 432.086Z" fill="#C050D8"/>
<path opacity="0.5" d="M114.762 432.086C109.662 432.362 105.752 436.719 106.027 441.819C106.302 446.919 110.66 450.829 115.76 450.554C120.86 450.278 124.77 445.921 124.495 440.821C124.219 435.721 119.862 431.811 114.762 432.086Z" fill="url(#paint3_radial)"/>
</g>
<g opacity="0.5" filter="url(#filter7_f)">
<path opacity="0.5" d="M114.762 432.086C109.662 432.362 105.752 436.719 106.027 441.819C106.302 446.919 110.66 450.829 115.76 450.554C120.86 450.278 124.77 445.921 124.495 440.821C124.219 435.721 119.862 431.811 114.762 432.086Z" fill="#C050D8"/>
<path opacity="0.5" d="M114.762 432.086C109.662 432.362 105.752 436.719 106.027 441.819C106.302 446.919 110.66 450.829 115.76 450.554C120.86 450.278 124.77 445.921 124.495 440.821C124.219 435.721 119.862 431.811 114.762 432.086Z" fill="url(#paint4_radial)"/>
</g>
<g opacity="0.5" filter="url(#filter8_f)">
<path opacity="0.5" d="M296.236 411.595C294.737 411.676 293.588 412.957 293.669 414.457C293.75 415.956 295.031 417.105 296.53 417.024C298.029 416.943 299.178 415.662 299.097 414.163C299.016 412.664 297.736 411.514 296.236 411.595Z" fill="#03EEEE"/>
<path opacity="0.5" d="M296.236 411.595C294.737 411.676 293.588 412.957 293.669 414.457C293.75 415.956 295.031 417.105 296.53 417.024C298.029 416.943 299.178 415.662 299.097 414.163C299.016 412.664 297.736 411.514 296.236 411.595Z" fill="url(#paint5_radial)"/>
</g>
<g opacity="0.5" filter="url(#filter9_f)">
<path opacity="0.5" d="M10.382 475.803C8.45612 475.907 6.97924 477.552 7.08327 479.478C7.1873 481.404 8.83285 482.881 10.7587 482.777C12.6846 482.673 14.1615 481.027 14.0574 479.102C13.9534 477.176 12.3078 475.699 10.382 475.803Z" fill="#CAE0FD"/>
</g>
<g opacity="0.5" filter="url(#filter10_f)">
<path opacity="0.5" d="M10.382 475.803C8.45612 475.907 6.97924 477.552 7.08327 479.478C7.1873 481.404 8.83285 482.881 10.7587 482.777C12.6846 482.673 14.1615 481.027 14.0574 479.102C13.9534 477.176 12.3078 475.699 10.382 475.803Z" fill="#CAE0FD"/>
</g>
<g opacity="0.5" filter="url(#filter11_f)">
<path opacity="0.5" d="M223.016 271.491C221.815 271.556 220.893 272.583 220.958 273.784C221.023 274.986 222.05 275.908 223.252 275.843C224.453 275.778 225.375 274.751 225.31 273.549C225.245 272.347 224.218 271.426 223.016 271.491Z" fill="white"/>
</g>
<g opacity="0.5" filter="url(#filter12_f)">
<path opacity="0.5" d="M175.763 345.095C174.562 345.16 173.64 346.187 173.705 347.388C173.77 348.59 174.797 349.512 175.999 349.447C177.2 349.382 178.122 348.355 178.057 347.153C177.992 345.951 176.965 345.03 175.763 345.095Z" fill="white"/>
</g>
<g opacity="0.5" filter="url(#filter13_f)">
<path opacity="0.5" d="M268.314 442.783C267.413 442.831 266.723 443.601 266.772 444.501C266.82 445.402 267.59 446.092 268.49 446.043C269.39 445.995 270.081 445.225 270.032 444.325C269.984 443.425 269.214 442.734 268.314 442.783Z" fill="white"/>
</g>
<g opacity="0.5" filter="url(#filter14_f)">
<path opacity="0.5" d="M268.314 442.783C267.413 442.831 266.723 443.601 266.772 444.501C266.82 445.402 267.59 446.092 268.49 446.043C269.39 445.995 270.081 445.225 270.032 444.325C269.984 443.425 269.214 442.734 268.314 442.783Z" fill="white"/>
</g>
<g opacity="0.5" filter="url(#filter15_f)">
<path opacity="0.5" d="M176.435 460.359C175.582 460.405 174.928 461.134 174.974 461.986C175.02 462.839 175.749 463.493 176.601 463.447C177.454 463.401 178.108 462.672 178.062 461.819C178.016 460.967 177.287 460.313 176.435 460.359Z" fill="#AFCCF4"/>
<path opacity="0.5" d="M176.435 460.359C175.582 460.405 174.928 461.134 174.974 461.986C175.02 462.839 175.749 463.493 176.601 463.447C177.454 463.401 178.108 462.672 178.062 461.819C178.016 460.967 177.287 460.313 176.435 460.359Z" fill="#AFCCF4"/>
</g>
</g>
<g opacity="0.5">
<g opacity="0.4">
<path opacity="0.4" d="M540.504 547.404L508.21 639.831L63.2718 764.917L-125.526 575.813L-81.5963 675.365L5.24991 607.031L68.2367 632.882L181.443 598.148L263.434 625.148L446.963 525.132L297.592 512.375L296.576 414.351" stroke="#9B51E0"/>
<path opacity="0.4" d="M28.8723 701.511L85.0654 740.624M236.852 867.561L479.236 688.228L490.954 504.384L635.696 739.249L488.329 736.084L381.281 892.392L135.501 518.353L176.963 461.359L236.852 867.561ZM236.852 867.561L333.945 526.884L28.8723 701.511L236.852 867.561ZM236.852 867.561L266.61 925.956L296.507 841.701L236.852 867.561ZM28.8723 701.511V562.155L-91.0713 791.075L-120.227 740.624L-123.447 650.112L-64.4 588.818L-10.8547 485.421L28.8723 701.511Z" stroke="#9B51E0"/>
<path opacity="0.4" d="M28.8723 701.511L85.0654 740.624M236.852 867.561L479.236 688.228L490.954 504.384L635.696 739.249L488.329 736.084L381.281 892.392L135.501 518.353L176.963 461.359L236.852 867.561ZM236.852 867.561L333.945 526.884L28.8723 701.511L236.852 867.561ZM236.852 867.561L266.61 925.956L296.507 841.701L236.852 867.561ZM28.8723 701.511V562.155L-91.0713 791.075L-120.227 740.624L-123.447 650.112L-64.4 588.818L-10.8547 485.421L28.8723 701.511Z" stroke="url(#paint6_linear)"/>
</g>
<g opacity="0.5" filter="url(#filter16_f)">
<path opacity="0.5" d="M313.782 601.81C316.006 601.81 317.809 600.007 317.809 597.783C317.809 595.559 316.006 593.756 313.782 593.756C311.558 593.756 309.755 595.559 309.755 597.783C309.755 600.007 311.558 601.81 313.782 601.81Z" fill="#C050D8"/>
<path opacity="0.5" d="M313.782 601.81C316.006 601.81 317.809 600.007 317.809 597.783C317.809 595.559 316.006 593.756 313.782 593.756C311.558 593.756 309.755 595.559 309.755 597.783C309.755 600.007 311.558 601.81 313.782 601.81Z" fill="url(#paint7_radial)"/>
</g>
<g opacity="0.5" filter="url(#filter17_f)">
<path opacity="0.5" d="M313.782 601.81C316.006 601.81 317.809 600.007 317.809 597.783C317.809 595.559 316.006 593.756 313.782 593.756C311.558 593.756 309.755 595.559 309.755 597.783C309.755 600.007 311.558 601.81 313.782 601.81Z" fill="#C050D8"/>
<path opacity="0.5" d="M313.782 601.81C316.006 601.81 317.809 600.007 317.809 597.783C317.809 595.559 316.006 593.756 313.782 593.756C311.558 593.756 309.755 595.559 309.755 597.783C309.755 600.007 311.558 601.81 313.782 601.81Z" fill="url(#paint8_radial)"/>
</g>
<g opacity="0.5" filter="url(#filter18_f)">
<path opacity="0.5" d="M51.6848 523.184C53.6638 523.184 55.2681 521.58 55.2681 519.601C55.2681 517.622 53.6638 516.018 51.6848 516.018C49.7058 516.018 48.1016 517.622 48.1016 519.601C48.1016 521.58 49.7058 523.184 51.6848 523.184Z" fill="white"/>
<path opacity="0.5" d="M51.6848 523.184C53.6638 523.184 55.2681 521.58 55.2681 519.601C55.2681 517.622 53.6638 516.018 51.6848 516.018C49.7058 516.018 48.1016 517.622 48.1016 519.601C48.1016 521.58 49.7058 523.184 51.6848 523.184Z" fill="url(#paint9_radial)"/>
</g>
<g opacity="0.5" filter="url(#filter19_f)">
<path opacity="0.5" d="M51.6848 523.184C53.6638 523.184 55.2681 521.58 55.2681 519.601C55.2681 517.622 53.6638 516.018 51.6848 516.018C49.7058 516.018 48.1016 517.622 48.1016 519.601C48.1016 521.58 49.7058 523.184 51.6848 523.184Z" fill="white"/>
<path opacity="0.5" d="M51.6848 523.184C53.6638 523.184 55.2681 521.58 55.2681 519.601C55.2681 517.622 53.6638 516.018 51.6848 516.018C49.7058 516.018 48.1016 517.622 48.1016 519.601C48.1016 521.58 49.7058 523.184 51.6848 523.184Z" fill="url(#paint10_radial)"/>
</g>
<g opacity="0.5" filter="url(#filter20_f)">
<path opacity="0.5" d="M263.596 627.549C264.999 627.549 266.136 626.412 266.136 625.009C266.136 623.606 264.999 622.469 263.596 622.469C262.193 622.469 261.056 623.606 261.056 625.009C261.056 626.412 262.193 627.549 263.596 627.549Z" fill="#AFCCF4"/>
</g>
<g opacity="0.5" filter="url(#filter21_f)">
<path opacity="0.5" d="M263.596 627.549C264.999 627.549 266.136 626.412 266.136 625.009C266.136 623.606 264.999 622.469 263.596 622.469C262.193 622.469 261.056 623.606 261.056 625.009C261.056 626.412 262.193 627.549 263.596 627.549Z" fill="#93BEFA"/>
</g>
<g opacity="0.5" filter="url(#filter22_f)">
<path opacity="0.5" d="M181.037 601.889C183.07 601.889 184.717 600.241 184.717 598.208C184.717 596.175 183.07 594.528 181.037 594.528C179.004 594.528 177.356 596.175 177.356 598.208C177.356 600.241 179.004 601.889 181.037 601.889Z" fill="#CAE0FD"/>
</g>
<g opacity="0.5" filter="url(#filter23_f)">
<path opacity="0.5" d="M181.037 601.889C183.07 601.889 184.717 600.241 184.717 598.208C184.717 596.175 183.07 594.528 181.037 594.528C179.004 594.528 177.356 596.175 177.356 598.208C177.356 600.241 179.004 601.889 181.037 601.889Z" fill="#CAE0FD"/>
</g>
<g opacity="0.5" filter="url(#filter24_f)">
<path opacity="0.5" d="M5.40577 608.701C6.30584 608.701 7.03548 607.971 7.03548 607.071C7.03548 606.171 6.30584 605.441 5.40577 605.441C4.50571 605.441 3.77606 606.171 3.77606 607.071C3.77606 607.971 4.50571 608.701 5.40577 608.701Z" fill="#AFCCF4"/>
<path opacity="0.5" d="M5.40577 608.701C6.30584 608.701 7.03548 607.971 7.03548 607.071C7.03548 606.171 6.30584 605.441 5.40577 605.441C4.50571 605.441 3.77606 606.171 3.77606 607.071C3.77606 607.971 4.50571 608.701 5.40577 608.701Z" fill="#AFCCF4"/>
</g>
<g opacity="0.5" filter="url(#filter25_f)">
<path opacity="0.5" d="M5.40577 608.701C6.30584 608.701 7.03548 607.971 7.03548 607.071C7.03548 606.171 6.30584 605.441 5.40577 605.441C4.50571 605.441 3.77606 606.171 3.77606 607.071C3.77606 607.971 4.50571 608.701 5.40577 608.701Z" fill="#AFCCF4"/>
<path opacity="0.5" d="M5.40577 608.701C6.30584 608.701 7.03548 607.971 7.03548 607.071C7.03548 606.171 6.30584 605.441 5.40577 605.441C4.50571 605.441 3.77606 606.171 3.77606 607.071C3.77606 607.971 4.50571 608.701 5.40577 608.701Z" fill="#AFCCF4"/>
</g>
<g opacity="0.5" filter="url(#filter26_d)">
<g opacity="0.5" filter="url(#filter27_f)">
<path opacity="0.5" d="M164.236 647.608C165.136 647.608 165.866 646.878 165.866 645.978C165.866 645.078 165.136 644.348 164.236 644.348C163.336 644.348 162.606 645.078 162.606 645.978C162.606 646.878 163.336 647.608 164.236 647.608Z" fill="#E0EDFF"/>
<path opacity="0.5" d="M164.236 647.608C165.136 647.608 165.866 646.878 165.866 645.978C165.866 645.078 165.136 644.348 164.236 644.348C163.336 644.348 162.606 645.078 162.606 645.978C162.606 646.878 163.336 647.608 164.236 647.608Z" fill="#E0EDFF"/>
</g>
<g opacity="0.5" filter="url(#filter28_f)">
<path opacity="0.5" d="M164.236 647.608C165.136 647.608 165.866 646.878 165.866 645.978C165.866 645.078 165.136 644.348 164.236 644.348C163.336 644.348 162.606 645.078 162.606 645.978C162.606 646.878 163.336 647.608 164.236 647.608Z" fill="#E0EDFF"/>
<path opacity="0.5" d="M164.236 647.608C165.136 647.608 165.866 646.878 165.866 645.978C165.866 645.078 165.136 644.348 164.236 644.348C163.336 644.348 162.606 645.078 162.606 645.978C162.606 646.878 163.336 647.608 164.236 647.608Z" fill="#E0EDFF"/>
</g>
</g>
</g>
<g opacity="0.3">
<g opacity="0.4">
<path opacity="0.4" d="M3.1189 758.491L125.94 691.559L180.81 709.628L256.569 686.383L306.358 718.252L356.84 657.952H339.686L156.644 794.96L-106.81 681.749L-121.623 742.058" stroke="#9B51E0"/>
<path opacity="0.4" d="M235.003 647.743L321.849 518.831M235.003 647.743L151.004 715.872L51.5401 519.329L57.9435 750.678L-56.6046 680.042L-123.185 615.201L-15.631 681.666L-36.5207 473.741L350.462 604.793L235.003 647.743ZM235.003 647.743L282.913 733.715L363.181 580.518L382.692 614.28L384.847 674.853L345.332 715.872L315.275 738.716L235.003 647.743Z" stroke="#9B51E0"/>
<path opacity="0.4" d="M235.003 647.743L321.849 518.831M235.003 647.743L151.004 715.872L51.5401 519.329L57.9435 750.678L-56.6046 680.042L-123.185 615.201L-15.631 681.666L-36.5207 473.741L350.462 604.793L235.003 647.743ZM235.003 647.743L282.913 733.715L363.181 580.518L382.692 614.28L384.847 674.853L345.332 715.872L315.275 738.716L235.003 647.743Z" stroke="url(#paint11_linear)"/>
</g>
<g opacity="0.3" filter="url(#filter29_f)">
<path opacity="0.3" d="M256.258 684.134C254.769 684.134 253.563 685.34 253.563 686.829C253.563 688.317 254.769 689.524 256.258 689.524C257.746 689.524 258.953 688.317 258.953 686.829C258.953 685.34 257.746 684.134 256.258 684.134Z" fill="#C050D8"/>
<path opacity="0.3" d="M256.258 684.134C254.769 684.134 253.563 685.34 253.563 686.829C253.563 688.317 254.769 689.524 256.258 689.524C257.746 689.524 258.953 688.317 258.953 686.829C258.953 685.34 257.746 684.134 256.258 684.134Z" fill="url(#paint12_radial)"/>
</g>
<g opacity="0.3" filter="url(#filter30_f)">
<path opacity="0.3" d="M256.258 684.134C254.769 684.134 253.563 685.34 253.563 686.829C253.563 688.317 254.769 689.524 256.258 689.524C257.746 689.524 258.953 688.317 258.953 686.829C258.953 685.34 257.746 684.134 256.258 684.134Z" fill="#C050D8"/>
<path opacity="0.3" d="M256.258 684.134C254.769 684.134 253.563 685.34 253.563 686.829C253.563 688.317 254.769 689.524 256.258 689.524C257.746 689.524 258.953 688.317 258.953 686.829C258.953 685.34 257.746 684.134 256.258 684.134Z" fill="url(#paint13_radial)"/>
</g>
<g opacity="0.3" filter="url(#filter31_f)">
</g>
<g opacity="0.3" filter="url(#filter32_f)">
<path opacity="0.3" d="M160 552.153C157.822 552.153 156.057 553.918 156.057 556.096C156.057 558.274 157.822 560.039 160 560.039C162.178 560.039 163.943 558.274 163.943 556.096C163.943 553.918 162.178 552.153 160 552.153Z" fill="#AFCCF4"/>
<path opacity="0.3" d="M160 552.153C157.822 552.153 156.057 553.918 156.057 556.096C156.057 558.274 157.822 560.039 160 560.039C162.178 560.039 163.943 558.274 163.943 556.096C163.943 553.918 162.178 552.153 160 552.153Z" fill="url(#paint14_radial)"/>
</g>
<g opacity="0.3" filter="url(#filter33_f)">
<path opacity="0.3" d="M160 552.153C157.822 552.153 156.057 553.918 156.057 556.096C156.057 558.274 157.822 560.039 160 560.039C162.178 560.039 163.943 558.274 163.943 556.096C163.943 553.918 162.178 552.153 160 552.153Z" fill="#AFCCF4"/>
<path opacity="0.3" d="M160 552.153C157.822 552.153 156.057 553.918 156.057 556.096C156.057 558.274 157.822 560.039 160 560.039C162.178 560.039 163.943 558.274 163.943 556.096C163.943 553.918 162.178 552.153 160 552.153Z" fill="url(#paint15_radial)"/>
</g>
<g opacity="0.3" filter="url(#filter34_f)">
<path opacity="0.3" d="M235.036 646.596C234.187 646.596 233.499 647.284 233.499 648.133C233.499 648.982 234.187 649.67 235.036 649.67C235.885 649.67 236.573 648.982 236.573 648.133C236.573 647.284 235.885 646.596 235.036 646.596Z" fill="#03EEEE"/>
<path opacity="0.3" d="M235.036 646.596C234.187 646.596 233.499 647.284 233.499 648.133C233.499 648.982 234.187 649.67 235.036 649.67C235.885 649.67 236.573 648.982 236.573 648.133C236.573 647.284 235.885 646.596 235.036 646.596Z" fill="url(#paint16_radial)"/>
</g>
<g opacity="0.3" filter="url(#filter35_d)">
<g opacity="0.3" filter="url(#filter36_f)">
<path opacity="0.3" d="M192.325 675.366C191.08 675.366 190.071 676.375 190.071 677.62C190.071 678.865 191.08 679.874 192.325 679.874C193.57 679.874 194.579 678.865 194.579 677.62C194.579 676.375 193.57 675.366 192.325 675.366Z" fill="#E0EDFF"/>
<path opacity="0.3" d="M192.325 675.366C191.08 675.366 190.071 676.375 190.071 677.62C190.071 678.865 191.08 679.874 192.325 679.874C193.57 679.874 194.579 678.865 194.579 677.62C194.579 676.375 193.57 675.366 192.325 675.366Z" fill="#E0EDFF"/>
</g>
<g opacity="0.3" filter="url(#filter37_f)">
<path opacity="0.3" d="M192.325 675.366C191.08 675.366 190.071 676.375 190.071 677.62C190.071 678.865 191.08 679.874 192.325 679.874C193.57 679.874 194.579 678.865 194.579 677.62C194.579 676.375 193.57 675.366 192.325 675.366Z" fill="#E0EDFF"/>
<path opacity="0.3" d="M192.325 675.366C191.08 675.366 190.071 676.375 190.071 677.62C190.071 678.865 191.08 679.874 192.325 679.874C193.57 679.874 194.579 678.865 194.579 677.62C194.579 676.375 193.57 675.366 192.325 675.366Z" fill="#E0EDFF"/>
</g>
</g>
</g>
<g opacity="0.5">
<g opacity="0.4">
<path opacity="0.4" d="M514.093 -11.8016L287.779 111.531L186.673 78.2361L47.0751 121.068L-30.5954 89.1906L-137.688 173.455L-183.173 15.6623L323.219 -62.6096L589.619 129.637L629.441 15.6623" stroke="#9B51E0"/>
<path opacity="0.4" d="M-1.46606 205.696V33.8524L-149.372 316.14L-185.324 253.928L-189.295 142.315L-116.483 66.7313L27.8639 -60.2571M254.999 410.457L553.89 189.317L568.339 -37.3866L746.825 252.232L565.102 248.329L433.099 441.077L27.8639 -19.0938L254.999 410.457ZM254.999 410.457L374.727 -9.64161L-1.46606 205.696L254.999 410.457ZM254.999 410.457L-1.46606 205.696L254.999 410.457Z" stroke="#9B51E0"/>
<path opacity="0.4" d="M-1.46606 205.696V33.8524L-149.372 316.14L-185.324 253.928L-189.295 142.315L-116.483 66.7313L27.8639 -60.2571M254.999 410.457L553.89 189.317L568.339 -37.3866L746.825 252.232L565.102 248.329L433.099 441.077L27.8639 -19.0938L254.999 410.457ZM254.999 410.457L374.727 -9.64161L-1.46606 205.696L254.999 410.457ZM254.999 410.457L-1.46606 205.696L254.999 410.457Z" stroke="url(#paint17_linear)"/>
</g>
<g opacity="0.5" filter="url(#filter38_f)">
<path opacity="0.5" d="M20.5585 346.366C25.317 346.366 29.1745 342.508 29.1745 337.75C29.1745 332.992 25.317 329.134 20.5585 329.134C15.8001 329.134 11.9426 332.992 11.9426 337.75C11.9426 342.508 15.8001 346.366 20.5585 346.366Z" fill="#C050D8"/>
<path opacity="0.5" d="M20.5585 346.366C25.317 346.366 29.1745 342.508 29.1745 337.75C29.1745 332.992 25.317 329.134 20.5585 329.134C15.8001 329.134 11.9426 332.992 11.9426 337.75C11.9426 342.508 15.8001 346.366 20.5585 346.366Z" fill="url(#paint18_radial)"/>
</g>
<g opacity="0.5" filter="url(#filter39_f)">
<path opacity="0.5" d="M20.5585 346.366C25.317 346.366 29.1745 342.508 29.1745 337.75C29.1745 332.992 25.317 329.134 20.5585 329.134C15.8001 329.134 11.9426 332.992 11.9426 337.75C11.9426 342.508 15.8001 346.366 20.5585 346.366Z" fill="#C050D8"/>
<path opacity="0.5" d="M20.5585 346.366C25.317 346.366 29.1745 342.508 29.1745 337.75C29.1745 332.992 25.317 329.134 20.5585 329.134C15.8001 329.134 11.9426 332.992 11.9426 337.75C11.9426 342.508 15.8001 346.366 20.5585 346.366Z" fill="url(#paint19_radial)"/>
</g>
<g opacity="0.5" filter="url(#filter40_f)">
<path opacity="0.5" d="M287.978 114.492C289.708 114.492 291.11 113.09 291.11 111.36C291.11 109.63 289.708 108.228 287.978 108.228C286.248 108.228 284.846 109.63 284.846 111.36C284.846 113.09 286.248 114.492 287.978 114.492Z" fill="#AFCCF4"/>
</g>
<g opacity="0.5" filter="url(#filter41_f)">
<path opacity="0.5" d="M287.978 114.492C289.708 114.492 291.11 113.09 291.11 111.36C291.11 109.63 289.708 108.228 287.978 108.228C286.248 108.228 284.846 109.63 284.846 111.36C284.846 113.09 286.248 114.492 287.978 114.492Z" fill="#93BEFA"/>
</g>
<g opacity="0.6" filter="url(#filter42_f)">
<g opacity="0.6" filter="url(#filter43_f)">
<path opacity="0.6" d="M37.7678 240.346C39.4974 240.346 40.8996 238.944 40.8996 237.214C40.8996 235.484 39.4974 234.082 37.7678 234.082C36.0382 234.082 34.6361 235.484 34.6361 237.214C34.6361 238.944 36.0382 240.346 37.7678 240.346Z" fill="#AFCCF4"/>
</g>
<g opacity="0.6" filter="url(#filter44_f)">
<path opacity="0.6" d="M37.7678 240.346C39.4974 240.346 40.8996 238.944 40.8996 237.214C40.8996 235.484 39.4974 234.082 37.7678 234.082C36.0382 234.082 34.6361 235.484 34.6361 237.214C34.6361 238.944 36.0382 240.346 37.7678 240.346Z" fill="#93BEFA"/>
</g>
</g>
<g opacity="0.5" filter="url(#filter45_f)">
<path opacity="0.5" d="M291.288 286.97C294.238 286.97 296.629 284.578 296.629 281.629C296.629 278.679 294.238 276.288 291.288 276.288C288.338 276.288 285.947 278.679 285.947 281.629C285.947 284.578 288.338 286.97 291.288 286.97Z" fill="#AFCCF4"/>
<path opacity="0.5" d="M291.288 286.97C294.238 286.97 296.629 284.578 296.629 281.629C296.629 278.679 294.238 276.288 291.288 276.288C288.338 276.288 285.947 278.679 285.947 281.629C285.947 284.578 288.338 286.97 291.288 286.97Z" fill="url(#paint20_radial)"/>
</g>
<g opacity="0.5" filter="url(#filter46_f)">
<path opacity="0.5" d="M61.8694 381.887C64.6555 381.887 66.9141 379.628 66.9141 376.842C66.9141 374.056 64.6555 371.797 61.8694 371.797C59.0833 371.797 56.8247 374.056 56.8247 376.842C56.8247 379.628 59.0833 381.887 61.8694 381.887Z" fill="#AFCCF4"/>
<path opacity="0.5" d="M61.8694 381.887C64.6555 381.887 66.9141 379.628 66.9141 376.842C66.9141 374.056 64.6555 371.797 61.8694 371.797C59.0833 371.797 56.8247 374.056 56.8247 376.842C56.8247 379.628 59.0833 381.887 61.8694 381.887Z" fill="url(#paint21_radial)"/>
</g>
<g opacity="0.5" filter="url(#filter47_f)">
<path opacity="0.5" d="M186.173 82.8496C188.68 82.8496 190.712 80.8176 190.712 78.311C190.712 75.8044 188.68 73.7725 186.173 73.7725C183.666 73.7725 181.634 75.8044 181.634 78.311C181.634 80.8176 183.666 82.8496 186.173 82.8496Z" fill="#CAE0FD"/>
</g>
<g opacity="0.5" filter="url(#filter48_f)">
<path opacity="0.5" d="M186.173 82.8496C188.68 82.8496 190.712 80.8176 190.712 78.311C190.712 75.8044 188.68 73.7725 186.173 73.7725C183.666 73.7725 181.634 75.8044 181.634 78.311C181.634 80.8176 183.666 82.8496 186.173 82.8496Z" fill="#CAE0FD"/>
</g>
<g opacity="0.5" filter="url(#filter49_d)">
<g opacity="0.5" filter="url(#filter50_f)">
<path opacity="0.5" d="M165.454 139.227C166.564 139.227 167.464 138.327 167.464 137.217C167.464 136.107 166.564 135.207 165.454 135.207C164.344 135.207 163.444 136.107 163.444 137.217C163.444 138.327 164.344 139.227 165.454 139.227Z" fill="#E0EDFF"/>
<path opacity="0.5" d="M165.454 139.227C166.564 139.227 167.464 138.327 167.464 137.217C167.464 136.107 166.564 135.207 165.454 135.207C164.344 135.207 163.444 136.107 163.444 137.217C163.444 138.327 164.344 139.227 165.454 139.227Z" fill="#E0EDFF"/>
</g>
<g opacity="0.5" filter="url(#filter51_f)">
<path opacity="0.5" d="M165.454 139.227C166.564 139.227 167.464 138.327 167.464 137.217C167.464 136.107 166.564 135.207 165.454 135.207C164.344 135.207 163.444 136.107 163.444 137.217C163.444 138.327 164.344 139.227 165.454 139.227Z" fill="#E0EDFF"/>
<path opacity="0.5" d="M165.454 139.227C166.564 139.227 167.464 138.327 167.464 137.217C167.464 136.107 166.564 135.207 165.454 135.207C164.344 135.207 163.444 136.107 163.444 137.217C163.444 138.327 164.344 139.227 165.454 139.227Z" fill="#E0EDFF"/>
</g>
</g>
</g>
<g opacity="0.6" filter="url(#filter52_f)">
<g opacity="0.6" filter="url(#filter53_f)">
<path opacity="0.6" d="M19.1317 439.263C20.8613 439.263 22.2635 437.861 22.2635 436.132C22.2635 434.402 20.8613 433 19.1317 433C17.4021 433 16 434.402 16 436.132C16 437.861 17.4021 439.263 19.1317 439.263Z" fill="#AFCCF4"/>
</g>
<g opacity="0.6" filter="url(#filter54_f)">
<path opacity="0.6" d="M19.1317 439.263C20.8613 439.263 22.2635 437.861 22.2635 436.132C22.2635 434.402 20.8613 433 19.1317 433C17.4021 433 16 434.402 16 436.132C16 437.861 17.4021 439.263 19.1317 439.263Z" fill="#93BEFA"/>
</g>
</g>
<g opacity="0.6" filter="url(#filter55_f)">
<g opacity="0.6" filter="url(#filter56_f)">
<path opacity="0.6" d="M19.1317 439.263C20.8613 439.263 22.2635 437.861 22.2635 436.132C22.2635 434.402 20.8613 433 19.1317 433C17.4021 433 16 434.402 16 436.132C16 437.861 17.4021 439.263 19.1317 439.263Z" fill="#AFCCF4"/>
</g>
<g opacity="0.6" filter="url(#filter57_f)">
<path opacity="0.6" d="M19.1317 439.263C20.8613 439.263 22.2635 437.861 22.2635 436.132C22.2635 434.402 20.8613 433 19.1317 433C17.4021 433 16 434.402 16 436.132C16 437.861 17.4021 439.263 19.1317 439.263Z" fill="#93BEFA"/>
</g>
</g>
<g opacity="0.3">
<g opacity="0.4">
<path opacity="0.4" d="M-33.2228 275.96L118.231 193.424L185.893 215.706L279.314 187.042L340.71 226.34L402.961 151.983H381.808" stroke="#9B51E0"/>
<path opacity="0.4" d="M229.888 390.593L20.9805 -27.1138L-67.3588 101.876L-188.971 99.2646L-69.5251 293.082L-58.342 141.989L140.168 -6.62245L115.804 80.5711M252.719 139.393L311.799 245.408L410.78 56.496L434.84 98.1294L437.497 172.823L388.77 223.405L351.706 251.575L252.719 139.393ZM252.719 139.393L299.226 -27.1138L252.719 139.393ZM252.719 139.393L199.751 176.016L252.719 139.393Z" stroke="#9B51E0"/>
<path opacity="0.4" d="M229.888 390.593L20.9805 -27.1138L-67.3588 101.876L-188.971 99.2646L-69.5251 293.082L-58.342 141.989L140.168 -6.62245L115.804 80.5711M252.719 139.393L311.799 245.408L410.78 56.496L434.84 98.1294L437.497 172.823L388.77 223.405L351.706 251.575L252.719 139.393ZM252.719 139.393L299.226 -27.1138L252.719 139.393ZM252.719 139.393L199.751 176.016L252.719 139.393Z" stroke="url(#paint22_linear)"/>
</g>
<g opacity="0.3" filter="url(#filter58_f)">
<path opacity="0.3" d="M278.931 184.268C277.096 184.268 275.608 185.755 275.608 187.591C275.608 189.426 277.096 190.914 278.931 190.914C280.766 190.914 282.254 189.426 282.254 187.591C282.254 185.755 280.766 184.268 278.931 184.268Z" fill="#C050D8"/>
<path opacity="0.3" d="M278.931 184.268C277.096 184.268 275.608 185.755 275.608 187.591C275.608 189.426 277.096 190.914 278.931 190.914C280.766 190.914 282.254 189.426 282.254 187.591C282.254 185.755 280.766 184.268 278.931 184.268Z" fill="url(#paint23_radial)"/>
</g>
<g opacity="0.3" filter="url(#filter59_f)">
<path opacity="0.3" d="M278.931 184.268C277.096 184.268 275.608 185.755 275.608 187.591C275.608 189.426 277.096 190.914 278.931 190.914C280.766 190.914 282.254 189.426 282.254 187.591C282.254 185.755 280.766 184.268 278.931 184.268Z" fill="#C050D8"/>
<path opacity="0.3" d="M278.931 184.268C277.096 184.268 275.608 185.755 275.608 187.591C275.608 189.426 277.096 190.914 278.931 190.914C280.766 190.914 282.254 189.426 282.254 187.591C282.254 185.755 280.766 184.268 278.931 184.268Z" fill="url(#paint24_radial)"/>
</g>
<g opacity="0.3" filter="url(#filter60_f)">
<path opacity="0.3" d="M118.099 191.442C116.942 191.442 116.003 192.38 116.003 193.538C116.003 194.695 116.942 195.634 118.099 195.634C119.256 195.634 120.195 194.695 120.195 193.538C120.195 192.38 119.256 191.442 118.099 191.442Z" fill="#AFCCF4"/>
</g>
<g opacity="0.3" filter="url(#filter61_f)">
<path opacity="0.3" d="M118.099 191.442C116.942 191.442 116.003 192.38 116.003 193.538C116.003 194.695 116.942 195.634 118.099 195.634C119.256 195.634 120.195 194.695 120.195 193.538C120.195 192.38 119.256 191.442 118.099 191.442Z" fill="#93BEFA"/>
</g>
<g opacity="0.3" filter="url(#filter62_f)">
<path opacity="0.3" d="M115.88 76.0175C113.906 76.0175 112.306 77.6177 112.306 79.5916C112.306 81.5656 113.906 83.1658 115.88 83.1658C117.854 83.1658 119.454 81.5656 119.454 79.5916C119.454 77.6177 117.854 76.0175 115.88 76.0175Z" fill="#AFCCF4"/>
<path opacity="0.3" d="M115.88 76.0175C113.906 76.0175 112.306 77.6177 112.306 79.5916C112.306 81.5656 113.906 83.1658 115.88 83.1658C117.854 83.1658 119.454 81.5656 119.454 79.5916C119.454 77.6177 117.854 76.0175 115.88 76.0175Z" fill="url(#paint25_radial)"/>
</g>
<g opacity="0.3" filter="url(#filter63_f)">
<path opacity="0.3" d="M252.761 137.979C251.714 137.979 250.865 138.828 250.865 139.875C250.865 140.922 251.714 141.771 252.761 141.771C253.808 141.771 254.656 140.922 254.656 139.875C254.656 138.828 253.808 137.979 252.761 137.979Z" fill="#03EEEE"/>
<path opacity="0.3" d="M252.761 137.979C251.714 137.979 250.865 138.828 250.865 139.875C250.865 140.922 251.714 141.771 252.761 141.771C253.808 141.771 254.656 140.922 254.656 139.875C254.656 138.828 253.808 137.979 252.761 137.979Z" fill="url(#paint26_radial)"/>
</g>
<g opacity="0.3" filter="url(#filter64_f)">
<path opacity="0.3" d="M186.226 212.618C184.549 212.618 183.189 213.978 183.189 215.655C183.189 217.333 184.549 218.692 186.226 218.692C187.903 218.692 189.263 217.333 189.263 215.655C189.263 213.978 187.903 212.618 186.226 212.618Z" fill="#CAE0FD"/>
</g>
<g opacity="0.3" filter="url(#filter65_f)">
<path opacity="0.3" d="M186.226 212.618C184.549 212.618 183.189 213.978 183.189 215.655C183.189 217.333 184.549 218.692 186.226 218.692C187.903 218.692 189.263 217.333 189.263 215.655C189.263 213.978 187.903 212.618 186.226 212.618Z" fill="#CAE0FD"/>
</g>
<g opacity="0.3" filter="url(#filter66_d)">
<g opacity="0.3" filter="url(#filter67_f)">
<path opacity="0.3" d="M200.093 173.456C198.558 173.456 197.313 174.7 197.313 176.235C197.313 177.77 198.558 179.015 200.093 179.015C201.628 179.015 202.872 177.77 202.872 176.235C202.872 174.7 201.628 173.456 200.093 173.456Z" fill="#E0EDFF"/>
<path opacity="0.3" d="M200.093 173.456C198.558 173.456 197.313 174.7 197.313 176.235C197.313 177.77 198.558 179.015 200.093 179.015C201.628 179.015 202.872 177.77 202.872 176.235C202.872 174.7 201.628 173.456 200.093 173.456Z" fill="#E0EDFF"/>
</g>
<g opacity="0.3" filter="url(#filter68_f)">
<path opacity="0.3" d="M200.093 173.456C198.558 173.456 197.313 174.7 197.313 176.235C197.313 177.77 198.558 179.015 200.093 179.015C201.628 179.015 202.872 177.77 202.872 176.235C202.872 174.7 201.628 173.456 200.093 173.456Z" fill="#E0EDFF"/>
<path opacity="0.3" d="M200.093 173.456C198.558 173.456 197.313 174.7 197.313 176.235C197.313 177.77 198.558 179.015 200.093 179.015C201.628 179.015 202.872 177.77 202.872 176.235C202.872 174.7 201.628 173.456 200.093 173.456Z" fill="#E0EDFF"/>
</g>
</g>
</g>
</g>
<defs>
<filter id="filter0_f" x="26.6362" y="226.082" width="22.2635" height="22.2635" filterUnits="userSpaceOnUse" color-interpolation-filters="sRGB">
<feFlood flood-opacity="0" result="BackgroundImageFix"/>
<feBlend mode="normal" in="SourceGraphic" in2="BackgroundImageFix" result="shape"/>
<feGaussianBlur stdDeviation="4" result="effect1_foregroundBlur"/>
</filter>
<filter id="filter1_f" x="32.6362" y="232.082" width="10.2635" height="10.2635" filterUnits="userSpaceOnUse" color-interpolation-filters="sRGB">
<feFlood flood-opacity="0" result="BackgroundImageFix"/>
<feBlend mode="normal" in="SourceGraphic" in2="BackgroundImageFix" result="shape"/>
<feGaussianBlur stdDeviation="1" result="effect1_foregroundBlur"/>
</filter>
<filter id="filter2_f" x="32.6362" y="232.082" width="10.2635" height="10.2635" filterUnits="userSpaceOnUse" color-interpolation-filters="sRGB">
<feFlood flood-opacity="0" result="BackgroundImageFix"/>
<feBlend mode="normal" in="SourceGraphic" in2="BackgroundImageFix" result="shape"/>
<feGaussianBlur stdDeviation="1" result="effect1_foregroundBlur"/>
</filter>
<filter id="filter3_f" x="33.6362" y="233.082" width="8.26346" height="8.26346" filterUnits="userSpaceOnUse" color-interpolation-filters="sRGB">
<feFlood flood-opacity="0" result="BackgroundImageFix"/>
<feBlend mode="normal" in="SourceGraphic" in2="BackgroundImageFix" result="shape"/>
<feGaussianBlur stdDeviation="0.5" result="effect1_foregroundBlur"/>
</filter>
<filter id="filter4_f" x="245.425" y="399.171" width="21.4" height="21.4" filterUnits="userSpaceOnUse" color-interpolation-filters="sRGB">
<feFlood flood-opacity="0" result="BackgroundImageFix"/>
<feBlend mode="normal" in="SourceGraphic" in2="BackgroundImageFix" result="shape"/>
<feGaussianBlur stdDeviation="3" result="effect1_foregroundBlur"/>
</filter>
<filter id="filter5_f" x="288.965" y="504.114" width="15.7017" height="15.7017" filterUnits="userSpaceOnUse" color-interpolation-filters="sRGB">
<feFlood flood-opacity="0" result="BackgroundImageFix"/>
<feBlend mode="normal" in="SourceGraphic" in2="BackgroundImageFix" result="shape"/>
<feGaussianBlur stdDeviation="2" result="effect1_foregroundBlur"/>
</filter>
<filter id="filter6_f" x="78.0133" y="404.072" width="74.4954" height="74.4954" filterUnits="userSpaceOnUse" color-interpolation-filters="sRGB">
<feFlood flood-opacity="0" result="BackgroundImageFix"/>
<feBlend mode="normal" in="SourceGraphic" in2="BackgroundImageFix" result="shape"/>
<feGaussianBlur stdDeviation="14" result="effect1_foregroundBlur"/>
</filter>
<filter id="filter7_f" x="97.0133" y="423.072" width="36.4954" height="36.4954" filterUnits="userSpaceOnUse" color-interpolation-filters="sRGB">
<feFlood flood-opacity="0" result="BackgroundImageFix"/>
<feBlend mode="normal" in="SourceGraphic" in2="BackgroundImageFix" result="shape"/>
<feGaussianBlur stdDeviation="4.5" result="effect1_foregroundBlur"/>
</filter>
<filter id="filter8_f" x="291.665" y="409.592" width="9.43691" height="9.43691" filterUnits="userSpaceOnUse" color-interpolation-filters="sRGB">
<feFlood flood-opacity="0" result="BackgroundImageFix"/>
<feBlend mode="normal" in="SourceGraphic" in2="BackgroundImageFix" result="shape"/>
<feGaussianBlur stdDeviation="1" result="effect1_foregroundBlur"/>
</filter>
<filter id="filter9_f" x="0.078125" y="468.798" width="20.9845" height="20.9845" filterUnits="userSpaceOnUse" color-interpolation-filters="sRGB">
<feFlood flood-opacity="0" result="BackgroundImageFix"/>
<feBlend mode="normal" in="SourceGraphic" in2="BackgroundImageFix" result="shape"/>
<feGaussianBlur stdDeviation="3.5" result="effect1_foregroundBlur"/>
</filter>
<filter id="filter10_f" x="5.07812" y="473.798" width="10.9845" height="10.9845" filterUnits="userSpaceOnUse" color-interpolation-filters="sRGB">
<feFlood flood-opacity="0" result="BackgroundImageFix"/>
<feBlend mode="normal" in="SourceGraphic" in2="BackgroundImageFix" result="shape"/>
<feGaussianBlur stdDeviation="1" result="effect1_foregroundBlur"/>
</filter>
<filter id="filter11_f" x="218.955" y="269.488" width="8.35891" height="8.35891" filterUnits="userSpaceOnUse" color-interpolation-filters="sRGB">
<feFlood flood-opacity="0" result="BackgroundImageFix"/>
<feBlend mode="normal" in="SourceGraphic" in2="BackgroundImageFix" result="shape"/>
<feGaussianBlur stdDeviation="1" result="effect1_foregroundBlur"/>
</filter>
<filter id="filter12_f" x="171.702" y="343.092" width="8.35891" height="8.35891" filterUnits="userSpaceOnUse" color-interpolation-filters="sRGB">
<feFlood flood-opacity="0" result="BackgroundImageFix"/>
<feBlend mode="normal" in="SourceGraphic" in2="BackgroundImageFix" result="shape"/>
<feGaussianBlur stdDeviation="1" result="effect1_foregroundBlur"/>
</filter>
<filter id="filter13_f" x="261.769" y="437.78" width="13.2656" height="13.2655" filterUnits="userSpaceOnUse" color-interpolation-filters="sRGB">
<feFlood flood-opacity="0" result="BackgroundImageFix"/>
<feBlend mode="normal" in="SourceGraphic" in2="BackgroundImageFix" result="shape"/>
<feGaussianBlur stdDeviation="2.5" result="effect1_foregroundBlur"/>
</filter>
<filter id="filter14_f" x="264.769" y="440.78" width="7.26556" height="7.26553" filterUnits="userSpaceOnUse" color-interpolation-filters="sRGB">
<feFlood flood-opacity="0" result="BackgroundImageFix"/>
<feBlend mode="normal" in="SourceGraphic" in2="BackgroundImageFix" result="shape"/>
<feGaussianBlur stdDeviation="1" result="effect1_foregroundBlur"/>
</filter>
<filter id="filter15_f" x="169.972" y="455.356" width="13.0927" height="13.0927" filterUnits="userSpaceOnUse" color-interpolation-filters="sRGB">
<feFlood flood-opacity="0" result="BackgroundImageFix"/>
<feBlend mode="normal" in="SourceGraphic" in2="BackgroundImageFix" result="shape"/>
<feGaussianBlur stdDeviation="2.5" result="effect1_foregroundBlur"/>
</filter>
<filter id="filter16_f" x="295.755" y="579.756" width="36.0544" height="36.0544" filterUnits="userSpaceOnUse" color-interpolation-filters="sRGB">
<feFlood flood-opacity="0" result="BackgroundImageFix"/>
<feBlend mode="normal" in="SourceGraphic" in2="BackgroundImageFix" result="shape"/>
<feGaussianBlur stdDeviation="7" result="effect1_foregroundBlur"/>
</filter>
<filter id="filter17_f" x="306.755" y="590.756" width="14.0544" height="14.0544" filterUnits="userSpaceOnUse" color-interpolation-filters="sRGB">
<feFlood flood-opacity="0" result="BackgroundImageFix"/>
<feBlend mode="normal" in="SourceGraphic" in2="BackgroundImageFix" result="shape"/>
<feGaussianBlur stdDeviation="1.5" result="effect1_foregroundBlur"/>
</filter>
<filter id="filter18_f" x="34.1016" y="502.018" width="35.1665" height="35.1665" filterUnits="userSpaceOnUse" color-interpolation-filters="sRGB">
<feFlood flood-opacity="0" result="BackgroundImageFix"/>
<feBlend mode="normal" in="SourceGraphic" in2="BackgroundImageFix" result="shape"/>
<feGaussianBlur stdDeviation="7" result="effect1_foregroundBlur"/>
</filter>
<filter id="filter19_f" x="45.1016" y="513.018" width="13.1665" height="13.1665" filterUnits="userSpaceOnUse" color-interpolation-filters="sRGB">
<feFlood flood-opacity="0" result="BackgroundImageFix"/>
<feBlend mode="normal" in="SourceGraphic" in2="BackgroundImageFix" result="shape"/>
<feGaussianBlur stdDeviation="1.5" result="effect1_foregroundBlur"/>
</filter>
<filter id="filter20_f" x="253.056" y="614.469" width="21.0793" height="21.0793" filterUnits="userSpaceOnUse" color-interpolation-filters="sRGB">
<feFlood flood-opacity="0" result="BackgroundImageFix"/>
<feBlend mode="normal" in="SourceGraphic" in2="BackgroundImageFix" result="shape"/>
<feGaussianBlur stdDeviation="4" result="effect1_foregroundBlur"/>
</filter>
<filter id="filter21_f" x="259.056" y="620.469" width="9.07935" height="9.07928" filterUnits="userSpaceOnUse" color-interpolation-filters="sRGB">
<feFlood flood-opacity="0" result="BackgroundImageFix"/>
<feBlend mode="normal" in="SourceGraphic" in2="BackgroundImageFix" result="shape"/>
<feGaussianBlur stdDeviation="1" result="effect1_foregroundBlur"/>
</filter>
<filter id="filter22_f" x="170.356" y="587.528" width="21.3611" height="21.3611" filterUnits="userSpaceOnUse" color-interpolation-filters="sRGB">
<feFlood flood-opacity="0" result="BackgroundImageFix"/>
<feBlend mode="normal" in="SourceGraphic" in2="BackgroundImageFix" result="shape"/>
<feGaussianBlur stdDeviation="3.5" result="effect1_foregroundBlur"/>
</filter>
<filter id="filter23_f" x="175.356" y="592.528" width="11.3611" height="11.3611" filterUnits="userSpaceOnUse" color-interpolation-filters="sRGB">
<feFlood flood-opacity="0" result="BackgroundImageFix"/>
<feBlend mode="normal" in="SourceGraphic" in2="BackgroundImageFix" result="shape"/>
<feGaussianBlur stdDeviation="1" result="effect1_foregroundBlur"/>
</filter>
<filter id="filter24_f" x="-1.22394" y="600.441" width="13.2594" height="13.2594" filterUnits="userSpaceOnUse" color-interpolation-filters="sRGB">
<feFlood flood-opacity="0" result="BackgroundImageFix"/>
<feBlend mode="normal" in="SourceGraphic" in2="BackgroundImageFix" result="shape"/>
<feGaussianBlur stdDeviation="2.5" result="effect1_foregroundBlur"/>
</filter>
<filter id="filter25_f" x="1.77606" y="603.441" width="7.25942" height="7.2594" filterUnits="userSpaceOnUse" color-interpolation-filters="sRGB">
<feFlood flood-opacity="0" result="BackgroundImageFix"/>
<feBlend mode="normal" in="SourceGraphic" in2="BackgroundImageFix" result="shape"/>
<feGaussianBlur stdDeviation="1" result="effect1_foregroundBlur"/>
</filter>
<filter id="filter26_d" x="158.606" y="644.348" width="11.2594" height="11.2595" filterUnits="userSpaceOnUse" color-interpolation-filters="sRGB">
<feFlood flood-opacity="0" result="BackgroundImageFix"/>
<feColorMatrix in="SourceAlpha" type="matrix" values="0 0 0 0 0 0 0 0 0 0 0 0 0 0 0 0 0 0 127 0"/>
<feOffset dy="4"/>
<feGaussianBlur stdDeviation="2"/>
<feColorMatrix type="matrix" values="0 0 0 0 0 0 0 0 0 0 0 0 0 0 0 0 0 0 0.25 0"/>
<feBlend mode="normal" in2="BackgroundImageFix" result="effect1_dropShadow"/>
<feBlend mode="normal" in="SourceGraphic" in2="effect1_dropShadow" result="shape"/>
</filter>
<filter id="filter27_f" x="153.606" y="635.348" width="21.2594" height="21.2595" filterUnits="userSpaceOnUse" color-interpolation-filters="sRGB">
<feFlood flood-opacity="0" result="BackgroundImageFix"/>
<feBlend mode="normal" in="SourceGraphic" in2="BackgroundImageFix" result="shape"/>
<feGaussianBlur stdDeviation="4.5" result="effect1_foregroundBlur"/>
</filter>
<filter id="filter28_f" x="160.606" y="642.348" width="7.25941" height="7.25946" filterUnits="userSpaceOnUse" color-interpolation-filters="sRGB">
<feFlood flood-opacity="0" result="BackgroundImageFix"/>
<feBlend mode="normal" in="SourceGraphic" in2="BackgroundImageFix" result="shape"/>
<feGaussianBlur stdDeviation="1" result="effect1_foregroundBlur"/>
</filter>
<filter id="filter29_f" x="239.563" y="670.134" width="33.3902" height="33.3902" filterUnits="userSpaceOnUse" color-interpolation-filters="sRGB">
<feFlood flood-opacity="0" result="BackgroundImageFix"/>
<feBlend mode="normal" in="SourceGraphic" in2="BackgroundImageFix" result="shape"/>
<feGaussianBlur stdDeviation="7" result="effect1_foregroundBlur"/>
</filter>
<filter id="filter30_f" x="250.563" y="681.134" width="11.3902" height="11.3902" filterUnits="userSpaceOnUse" color-interpolation-filters="sRGB">
<feFlood flood-opacity="0" result="BackgroundImageFix"/>
<feBlend mode="normal" in="SourceGraphic" in2="BackgroundImageFix" result="shape"/>
<feGaussianBlur stdDeviation="1.5" result="effect1_foregroundBlur"/>
</filter>
<filter id="filter31_f" x="116.132" y="681.951" width="19.3992" height="19.3992" filterUnits="userSpaceOnUse" color-interpolation-filters="sRGB">
<feFlood flood-opacity="0" result="BackgroundImageFix"/>
<feBlend mode="normal" in="SourceGraphic" in2="BackgroundImageFix" result="shape"/>
<feGaussianBlur stdDeviation="4" result="effect1_foregroundBlur"/>
</filter>
<filter id="filter32_f" x="154.057" y="550.153" width="11.8863" height="11.8864" filterUnits="userSpaceOnUse" color-interpolation-filters="sRGB">
<feFlood flood-opacity="0" result="BackgroundImageFix"/>
<feBlend mode="normal" in="SourceGraphic" in2="BackgroundImageFix" result="shape"/>
<feGaussianBlur stdDeviation="1" result="effect1_foregroundBlur"/>
</filter>
<filter id="filter33_f" x="152.057" y="548.153" width="15.8863" height="15.8864" filterUnits="userSpaceOnUse" color-interpolation-filters="sRGB">
<feFlood flood-opacity="0" result="BackgroundImageFix"/>
<feBlend mode="normal" in="SourceGraphic" in2="BackgroundImageFix" result="shape"/>
<feGaussianBlur stdDeviation="2" result="effect1_foregroundBlur"/>
</filter>
<filter id="filter34_f" x="231.499" y="644.596" width="7.07434" height="7.07434" filterUnits="userSpaceOnUse" color-interpolation-filters="sRGB">
<feFlood flood-opacity="0" result="BackgroundImageFix"/>
<feBlend mode="normal" in="SourceGraphic" in2="BackgroundImageFix" result="shape"/>
<feGaussianBlur stdDeviation="1" result="effect1_foregroundBlur"/>
</filter>
<filter id="filter35_d" x="186.071" y="675.366" width="12.508" height="12.5081" filterUnits="userSpaceOnUse" color-interpolation-filters="sRGB">
<feFlood flood-opacity="0" result="BackgroundImageFix"/>
<feColorMatrix in="SourceAlpha" type="matrix" values="0 0 0 0 0 0 0 0 0 0 0 0 0 0 0 0 0 0 127 0"/>
<feOffset dy="4"/>
<feGaussianBlur stdDeviation="2"/>
<feColorMatrix type="matrix" values="0 0 0 0 0 0 0 0 0 0 0 0 0 0 0 0 0 0 0.25 0"/>
<feBlend mode="normal" in2="BackgroundImageFix" result="effect1_dropShadow"/>
<feBlend mode="normal" in="SourceGraphic" in2="effect1_dropShadow" result="shape"/>
</filter>
<filter id="filter36_f" x="181.071" y="666.366" width="22.508" height="22.5081" filterUnits="userSpaceOnUse" color-interpolation-filters="sRGB">
<feFlood flood-opacity="0" result="BackgroundImageFix"/>
<feBlend mode="normal" in="SourceGraphic" in2="BackgroundImageFix" result="shape"/>
<feGaussianBlur stdDeviation="4.5" result="effect1_foregroundBlur"/>
</filter>
<filter id="filter37_f" x="188.071" y="673.366" width="8.50804" height="8.50806" filterUnits="userSpaceOnUse" color-interpolation-filters="sRGB">
<feFlood flood-opacity="0" result="BackgroundImageFix"/>
<feBlend mode="normal" in="SourceGraphic" in2="BackgroundImageFix" result="shape"/>
<feGaussianBlur stdDeviation="1" result="effect1_foregroundBlur"/>
</filter>
<filter id="filter38_f" x="-16.0574" y="301.134" width="73.2319" height="73.2319" filterUnits="userSpaceOnUse" color-interpolation-filters="sRGB">
<feFlood flood-opacity="0" result="BackgroundImageFix"/>
<feBlend mode="normal" in="SourceGraphic" in2="BackgroundImageFix" result="shape"/>
<feGaussianBlur stdDeviation="14" result="effect1_foregroundBlur"/>
</filter>
<filter id="filter39_f" x="2.94257" y="320.134" width="35.2319" height="35.2319" filterUnits="userSpaceOnUse" color-interpolation-filters="sRGB">
<feFlood flood-opacity="0" result="BackgroundImageFix"/>
<feBlend mode="normal" in="SourceGraphic" in2="BackgroundImageFix" result="shape"/>
<feGaussianBlur stdDeviation="4.5" result="effect1_foregroundBlur"/>
</filter>
<filter id="filter40_f" x="276.846" y="100.228" width="22.2635" height="22.2635" filterUnits="userSpaceOnUse" color-interpolation-filters="sRGB">
<feFlood flood-opacity="0" result="BackgroundImageFix"/>
<feBlend mode="normal" in="SourceGraphic" in2="BackgroundImageFix" result="shape"/>
<feGaussianBlur stdDeviation="4" result="effect1_foregroundBlur"/>
</filter>
<filter id="filter41_f" x="282.846" y="106.228" width="10.2635" height="10.2635" filterUnits="userSpaceOnUse" color-interpolation-filters="sRGB">
<feFlood flood-opacity="0" result="BackgroundImageFix"/>
<feBlend mode="normal" in="SourceGraphic" in2="BackgroundImageFix" result="shape"/>
<feGaussianBlur stdDeviation="1" result="effect1_foregroundBlur"/>
</filter>
<filter id="filter42_f" x="29.6361" y="229.082" width="16.2635" height="16.2635" filterUnits="userSpaceOnUse" color-interpolation-filters="sRGB">
<feFlood flood-opacity="0" result="BackgroundImageFix"/>
<feBlend mode="normal" in="SourceGraphic" in2="BackgroundImageFix" result="shape"/>
<feGaussianBlur stdDeviation="2.5" result="effect1_foregroundBlur"/>
</filter>
<filter id="filter43_f" x="26.6361" y="226.082" width="22.2635" height="22.2635" filterUnits="userSpaceOnUse" color-interpolation-filters="sRGB">
<feFlood flood-opacity="0" result="BackgroundImageFix"/>
<feBlend mode="normal" in="SourceGraphic" in2="BackgroundImageFix" result="shape"/>
<feGaussianBlur stdDeviation="4" result="effect1_foregroundBlur"/>
</filter>
<filter id="filter44_f" x="32.6361" y="232.082" width="10.2635" height="10.2635" filterUnits="userSpaceOnUse" color-interpolation-filters="sRGB">
<feFlood flood-opacity="0" result="BackgroundImageFix"/>
<feBlend mode="normal" in="SourceGraphic" in2="BackgroundImageFix" result="shape"/>
<feGaussianBlur stdDeviation="1" result="effect1_foregroundBlur"/>
</filter>
<filter id="filter45_f" x="281.947" y="272.288" width="18.6815" height="18.6815" filterUnits="userSpaceOnUse" color-interpolation-filters="sRGB">
<feFlood flood-opacity="0" result="BackgroundImageFix"/>
<feBlend mode="normal" in="SourceGraphic" in2="BackgroundImageFix" result="shape"/>
<feGaussianBlur stdDeviation="2" result="effect1_foregroundBlur"/>
</filter>
<filter id="filter46_f" x="52.8247" y="367.797" width="18.0894" height="18.0894" filterUnits="userSpaceOnUse" color-interpolation-filters="sRGB">
<feFlood flood-opacity="0" result="BackgroundImageFix"/>
<feBlend mode="normal" in="SourceGraphic" in2="BackgroundImageFix" result="shape"/>
<feGaussianBlur stdDeviation="2" result="effect1_foregroundBlur"/>
</filter>
<filter id="filter47_f" x="174.634" y="66.7725" width="23.0771" height="23.0771" filterUnits="userSpaceOnUse" color-interpolation-filters="sRGB">
<feFlood flood-opacity="0" result="BackgroundImageFix"/>
<feBlend mode="normal" in="SourceGraphic" in2="BackgroundImageFix" result="shape"/>
<feGaussianBlur stdDeviation="3.5" result="effect1_foregroundBlur"/>
</filter>
<filter id="filter48_f" x="179.634" y="71.7725" width="13.0771" height="13.0771" filterUnits="userSpaceOnUse" color-interpolation-filters="sRGB">
<feFlood flood-opacity="0" result="BackgroundImageFix"/>
<feBlend mode="normal" in="SourceGraphic" in2="BackgroundImageFix" result="shape"/>
<feGaussianBlur stdDeviation="1" result="effect1_foregroundBlur"/>
</filter>
<filter id="filter49_d" x="159.444" y="135.207" width="12.0193" height="12.0193" filterUnits="userSpaceOnUse" color-interpolation-filters="sRGB">
<feFlood flood-opacity="0" result="BackgroundImageFix"/>
<feColorMatrix in="SourceAlpha" type="matrix" values="0 0 0 0 0 0 0 0 0 0 0 0 0 0 0 0 0 0 127 0"/>
<feOffset dy="4"/>
<feGaussianBlur stdDeviation="2"/>
<feColorMatrix type="matrix" values="0 0 0 0 0 0 0 0 0 0 0 0 0 0 0 0 0 0 0.25 0"/>
<feBlend mode="normal" in2="BackgroundImageFix" result="effect1_dropShadow"/>
<feBlend mode="normal" in="SourceGraphic" in2="effect1_dropShadow" result="shape"/>
</filter>
<filter id="filter50_f" x="154.444" y="126.207" width="22.0193" height="22.0193" filterUnits="userSpaceOnUse" color-interpolation-filters="sRGB">
<feFlood flood-opacity="0" result="BackgroundImageFix"/>
<feBlend mode="normal" in="SourceGraphic" in2="BackgroundImageFix" result="shape"/>
<feGaussianBlur stdDeviation="4.5" result="effect1_foregroundBlur"/>
</filter>
<filter id="filter51_f" x="161.444" y="133.207" width="8.01927" height="8.01927" filterUnits="userSpaceOnUse" color-interpolation-filters="sRGB">
<feFlood flood-opacity="0" result="BackgroundImageFix"/>
<feBlend mode="normal" in="SourceGraphic" in2="BackgroundImageFix" result="shape"/>
<feGaussianBlur stdDeviation="1" result="effect1_foregroundBlur"/>
</filter>
<filter id="filter52_f" x="11" y="428" width="16.2635" height="16.2635" filterUnits="userSpaceOnUse" color-interpolation-filters="sRGB">
<feFlood flood-opacity="0" result="BackgroundImageFix"/>
<feBlend mode="normal" in="SourceGraphic" in2="BackgroundImageFix" result="shape"/>
<feGaussianBlur stdDeviation="2.5" result="effect1_foregroundBlur"/>
</filter>
<filter id="filter53_f" x="8" y="425" width="22.2635" height="22.2635" filterUnits="userSpaceOnUse" color-interpolation-filters="sRGB">
<feFlood flood-opacity="0" result="BackgroundImageFix"/>
<feBlend mode="normal" in="SourceGraphic" in2="BackgroundImageFix" result="shape"/>
<feGaussianBlur stdDeviation="4" result="effect1_foregroundBlur"/>
</filter>
<filter id="filter54_f" x="14" y="431" width="10.2635" height="10.2635" filterUnits="userSpaceOnUse" color-interpolation-filters="sRGB">
<feFlood flood-opacity="0" result="BackgroundImageFix"/>
<feBlend mode="normal" in="SourceGraphic" in2="BackgroundImageFix" result="shape"/>
<feGaussianBlur stdDeviation="1" result="effect1_foregroundBlur"/>
</filter>
<filter id="filter55_f" x="11" y="428" width="16.2635" height="16.2635" filterUnits="userSpaceOnUse" color-interpolation-filters="sRGB">
<feFlood flood-opacity="0" result="BackgroundImageFix"/>
<feBlend mode="normal" in="SourceGraphic" in2="BackgroundImageFix" result="shape"/>
<feGaussianBlur stdDeviation="2.5" result="effect1_foregroundBlur"/>
</filter>
<filter id="filter56_f" x="8" y="425" width="22.2635" height="22.2635" filterUnits="userSpaceOnUse" color-interpolation-filters="sRGB">
<feFlood flood-opacity="0" result="BackgroundImageFix"/>
<feBlend mode="normal" in="SourceGraphic" in2="BackgroundImageFix" result="shape"/>
<feGaussianBlur stdDeviation="4" result="effect1_foregroundBlur"/>
</filter>
<filter id="filter57_f" x="14" y="431" width="10.2635" height="10.2635" filterUnits="userSpaceOnUse" color-interpolation-filters="sRGB">
<feFlood flood-opacity="0" result="BackgroundImageFix"/>
<feBlend mode="normal" in="SourceGraphic" in2="BackgroundImageFix" result="shape"/>
<feGaussianBlur stdDeviation="1" result="effect1_foregroundBlur"/>
</filter>
<filter id="filter58_f" x="261.608" y="170.268" width="34.6467" height="34.6467" filterUnits="userSpaceOnUse" color-interpolation-filters="sRGB">
<feFlood flood-opacity="0" result="BackgroundImageFix"/>
<feBlend mode="normal" in="SourceGraphic" in2="BackgroundImageFix" result="shape"/>
<feGaussianBlur stdDeviation="7" result="effect1_foregroundBlur"/>
</filter>
<filter id="filter59_f" x="272.608" y="181.268" width="12.6467" height="12.6467" filterUnits="userSpaceOnUse" color-interpolation-filters="sRGB">
<feFlood flood-opacity="0" result="BackgroundImageFix"/>
<feBlend mode="normal" in="SourceGraphic" in2="BackgroundImageFix" result="shape"/>
<feGaussianBlur stdDeviation="1.5" result="effect1_foregroundBlur"/>
</filter>
<filter id="filter60_f" x="108.003" y="183.442" width="20.1916" height="20.1916" filterUnits="userSpaceOnUse" color-interpolation-filters="sRGB">
<feFlood flood-opacity="0" result="BackgroundImageFix"/>
<feBlend mode="normal" in="SourceGraphic" in2="BackgroundImageFix" result="shape"/>
<feGaussianBlur stdDeviation="4" result="effect1_foregroundBlur"/>
</filter>
<filter id="filter61_f" x="114.003" y="189.442" width="8.19162" height="8.19162" filterUnits="userSpaceOnUse" color-interpolation-filters="sRGB">
<feFlood flood-opacity="0" result="BackgroundImageFix"/>
<feBlend mode="normal" in="SourceGraphic" in2="BackgroundImageFix" result="shape"/>
<feGaussianBlur stdDeviation="1" result="effect1_foregroundBlur"/>
</filter>
<filter id="filter62_f" x="108.306" y="72.0176" width="15.1483" height="15.1483" filterUnits="userSpaceOnUse" color-interpolation-filters="sRGB">
<feFlood flood-opacity="0" result="BackgroundImageFix"/>
<feBlend mode="normal" in="SourceGraphic" in2="BackgroundImageFix" result="shape"/>
<feGaussianBlur stdDeviation="2" result="effect1_foregroundBlur"/>
</filter>
<filter id="filter63_f" x="248.865" y="135.979" width="7.79105" height="7.79105" filterUnits="userSpaceOnUse" color-interpolation-filters="sRGB">
<feFlood flood-opacity="0" result="BackgroundImageFix"/>
<feBlend mode="normal" in="SourceGraphic" in2="BackgroundImageFix" result="shape"/>
<feGaussianBlur stdDeviation="1" result="effect1_foregroundBlur"/>
</filter>
<filter id="filter64_f" x="176.189" y="205.618" width="20.0746" height="20.0746" filterUnits="userSpaceOnUse" color-interpolation-filters="sRGB">
<feFlood flood-opacity="0" result="BackgroundImageFix"/>
<feBlend mode="normal" in="SourceGraphic" in2="BackgroundImageFix" result="shape"/>
<feGaussianBlur stdDeviation="3.5" result="effect1_foregroundBlur"/>
</filter>
<filter id="filter65_f" x="181.189" y="210.618" width="10.0746" height="10.0746" filterUnits="userSpaceOnUse" color-interpolation-filters="sRGB">
<feFlood flood-opacity="0" result="BackgroundImageFix"/>
<feBlend mode="normal" in="SourceGraphic" in2="BackgroundImageFix" result="shape"/>
<feGaussianBlur stdDeviation="1" result="effect1_foregroundBlur"/>
</filter>
<filter id="filter66_d" x="193.313" y="173.456" width="13.559" height="13.559" filterUnits="userSpaceOnUse" color-interpolation-filters="sRGB">
<feFlood flood-opacity="0" result="BackgroundImageFix"/>
<feColorMatrix in="SourceAlpha" type="matrix" values="0 0 0 0 0 0 0 0 0 0 0 0 0 0 0 0 0 0 127 0"/>
<feOffset dy="4"/>
<feGaussianBlur stdDeviation="2"/>
<feColorMatrix type="matrix" values="0 0 0 0 0 0 0 0 0 0 0 0 0 0 0 0 0 0 0.25 0"/>
<feBlend mode="normal" in2="BackgroundImageFix" result="effect1_dropShadow"/>
<feBlend mode="normal" in="SourceGraphic" in2="effect1_dropShadow" result="shape"/>
</filter>
<filter id="filter67_f" x="188.313" y="164.456" width="23.559" height="23.559" filterUnits="userSpaceOnUse" color-interpolation-filters="sRGB">
<feFlood flood-opacity="0" result="BackgroundImageFix"/>
<feBlend mode="normal" in="SourceGraphic" in2="BackgroundImageFix" result="shape"/>
<feGaussianBlur stdDeviation="4.5" result="effect1_foregroundBlur"/>
</filter>
<filter id="filter68_f" x="195.313" y="171.456" width="9.55899" height="9.55899" filterUnits="userSpaceOnUse" color-interpolation-filters="sRGB">
<feFlood flood-opacity="0" result="BackgroundImageFix"/>
<feBlend mode="normal" in="SourceGraphic" in2="BackgroundImageFix" result="shape"/>
<feGaussianBlur stdDeviation="1" result="effect1_foregroundBlur"/>
</filter>
<linearGradient id="paint0_linear" x1="-15.6462" y1="587.482" x2="-35.1846" y2="225.822" gradientUnits="userSpaceOnUse">
<stop stop-color="#7F2FCB"/>
<stop offset="0.697917" stop-color="#AFCCF4"/>
</linearGradient>
<radialGradient id="paint1_radial" cx="0" cy="0" r="1" gradientUnits="userSpaceOnUse" gradientTransform="translate(256.125 409.871) rotate(-93.092) scale(4.69989)">
<stop offset="0.276042" stop-color="#AFCCF4"/>
<stop offset="1" stop-color="#AE44BA"/>
</radialGradient>
<radialGradient id="paint2_radial" cx="0" cy="0" r="1" gradientUnits="userSpaceOnUse" gradientTransform="translate(296.816 511.965) rotate(-93.092) scale(3.85074)">
<stop stop-color="white"/>
<stop offset="1" stop-color="white" stop-opacity="0"/>
</radialGradient>
<radialGradient id="paint3_radial" cx="0" cy="0" r="1" gradientUnits="userSpaceOnUse" gradientTransform="translate(115.261 441.32) rotate(-93.092) scale(9.24744)">
<stop stop-color="#AFCCF4"/>
<stop offset="1" stop-color="white" stop-opacity="0"/>
</radialGradient>
<radialGradient id="paint4_radial" cx="0" cy="0" r="1" gradientUnits="userSpaceOnUse" gradientTransform="translate(115.261 441.32) rotate(-93.092) scale(9.24744)">
<stop stop-color="#AFCCF4"/>
<stop offset="1" stop-color="white" stop-opacity="0"/>
</radialGradient>
<radialGradient id="paint5_radial" cx="0" cy="0" r="1" gradientUnits="userSpaceOnUse" gradientTransform="translate(296.383 414.31) rotate(-93.092) scale(2.71838)">
<stop stop-color="white"/>
<stop offset="1" stop-color="white" stop-opacity="0"/>
</radialGradient>
<linearGradient id="paint6_linear" x1="214.784" y1="485.837" x2="214.784" y2="867.561" gradientUnits="userSpaceOnUse">
<stop stop-color="#7F2FCB"/>
<stop offset="0.697917" stop-color="#AFCCF4"/>
</linearGradient>
<radialGradient id="paint7_radial" cx="0" cy="0" r="1" gradientUnits="userSpaceOnUse" gradientTransform="translate(313.782 597.783) rotate(90) scale(4.02719)">
<stop stop-color="#AFCCF4"/>
<stop offset="1" stop-color="white" stop-opacity="0"/>
</radialGradient>
<radialGradient id="paint8_radial" cx="0" cy="0" r="1" gradientUnits="userSpaceOnUse" gradientTransform="translate(313.782 597.783) rotate(90) scale(4.02719)">
<stop stop-color="#AFCCF4"/>
<stop offset="1" stop-color="white" stop-opacity="0"/>
</radialGradient>
<radialGradient id="paint9_radial" cx="0" cy="0" r="1" gradientUnits="userSpaceOnUse" gradientTransform="translate(51.6848 519.601) rotate(90) scale(3.58325)">
<stop stop-color="#AFCCF4"/>
<stop offset="1" stop-color="white" stop-opacity="0"/>
</radialGradient>
<radialGradient id="paint10_radial" cx="0" cy="0" r="1" gradientUnits="userSpaceOnUse" gradientTransform="translate(51.6848 519.601) rotate(90) scale(3.58325)">
<stop stop-color="#AFCCF4"/>
<stop offset="1" stop-color="white" stop-opacity="0"/>
</radialGradient>
<linearGradient id="paint11_linear" x1="158.497" y1="784.788" x2="158.497" y2="529.332" gradientUnits="userSpaceOnUse">
<stop stop-color="#7F2FCB"/>
<stop offset="0.697917" stop-color="#AFCCF4"/>
</linearGradient>
<radialGradient id="paint12_radial" cx="0" cy="0" r="1" gradientUnits="userSpaceOnUse" gradientTransform="translate(256.258 686.829) rotate(-90) scale(2.6951)">
<stop stop-color="#AFCCF4"/>
<stop offset="1" stop-color="white" stop-opacity="0"/>
</radialGradient>
<radialGradient id="paint13_radial" cx="0" cy="0" r="1" gradientUnits="userSpaceOnUse" gradientTransform="translate(256.258 686.829) rotate(-90) scale(2.6951)">
<stop stop-color="#AFCCF4"/>
<stop offset="1" stop-color="white" stop-opacity="0"/>
</radialGradient>
<radialGradient id="paint14_radial" cx="0" cy="0" r="1" gradientUnits="userSpaceOnUse" gradientTransform="translate(160 556.096) rotate(-90) scale(3.94318)">
<stop stop-color="white"/>
<stop offset="1" stop-color="white" stop-opacity="0"/>
</radialGradient>
<radialGradient id="paint15_radial" cx="0" cy="0" r="1" gradientUnits="userSpaceOnUse" gradientTransform="translate(160 556.096) rotate(-90) scale(3.94318)">
<stop stop-color="white"/>
<stop offset="1" stop-color="white" stop-opacity="0"/>
</radialGradient>
<radialGradient id="paint16_radial" cx="0" cy="0" r="1" gradientUnits="userSpaceOnUse" gradientTransform="translate(235.036 648.133) rotate(-90) scale(1.53717)">
<stop stop-color="white"/>
<stop offset="1" stop-color="white" stop-opacity="0"/>
</radialGradient>
<linearGradient id="paint17_linear" x1="227.787" y1="-60.2571" x2="227.787" y2="410.457" gradientUnits="userSpaceOnUse">
<stop stop-color="#7F2FCB"/>
<stop offset="0.697917" stop-color="#AFCCF4"/>
</linearGradient>
<radialGradient id="paint18_radial" cx="0" cy="0" r="1" gradientUnits="userSpaceOnUse" gradientTransform="translate(20.5585 337.75) rotate(90) scale(8.61597)">
<stop stop-color="#AFCCF4"/>
<stop offset="1" stop-color="white" stop-opacity="0"/>
</radialGradient>
<radialGradient id="paint19_radial" cx="0" cy="0" r="1" gradientUnits="userSpaceOnUse" gradientTransform="translate(20.5585 337.75) rotate(90) scale(8.61597)">
<stop stop-color="#AFCCF4"/>
<stop offset="1" stop-color="white" stop-opacity="0"/>
</radialGradient>
<radialGradient id="paint20_radial" cx="0" cy="0" r="1" gradientUnits="userSpaceOnUse" gradientTransform="translate(291.288 281.629) rotate(90) scale(5.34076)">
<stop stop-color="white"/>
<stop offset="1" stop-color="white" stop-opacity="0"/>
</radialGradient>
<radialGradient id="paint21_radial" cx="0" cy="0" r="1" gradientUnits="userSpaceOnUse" gradientTransform="translate(61.8694 376.842) rotate(90) scale(5.04471)">
<stop stop-color="white"/>
<stop offset="1" stop-color="white" stop-opacity="0"/>
</radialGradient>
<linearGradient id="paint22_linear" x1="158.378" y1="308.387" x2="158.378" y2="-6.62301" gradientUnits="userSpaceOnUse">
<stop stop-color="#7F2FCB"/>
<stop offset="0.697917" stop-color="#AFCCF4"/>
</linearGradient>
<radialGradient id="paint23_radial" cx="0" cy="0" r="1" gradientUnits="userSpaceOnUse" gradientTransform="translate(278.931 187.591) rotate(-90) scale(3.32337)">
<stop stop-color="#AFCCF4"/>
<stop offset="1" stop-color="white" stop-opacity="0"/>
</radialGradient>
<radialGradient id="paint24_radial" cx="0" cy="0" r="1" gradientUnits="userSpaceOnUse" gradientTransform="translate(278.931 187.591) rotate(-90) scale(3.32337)">
<stop stop-color="#AFCCF4"/>
<stop offset="1" stop-color="white" stop-opacity="0"/>
</radialGradient>
<radialGradient id="paint25_radial" cx="0" cy="0" r="1" gradientUnits="userSpaceOnUse" gradientTransform="translate(115.88 79.5916) rotate(-90) scale(3.57413)">
<stop stop-color="white"/>
<stop offset="1" stop-color="white" stop-opacity="0"/>
</radialGradient>
<radialGradient id="paint26_radial" cx="0" cy="0" r="1" gradientUnits="userSpaceOnUse" gradientTransform="translate(252.761 139.875) rotate(-90) scale(1.89552)">
<stop stop-color="white"/>
<stop offset="1" stop-color="white" stop-opacity="0"/>
</radialGradient>
<clipPath id="clip0">
<rect width="320" height="686" fill="white"/>
</clipPath>
</defs>
</svg>
