<svg width="1440" height="380" viewBox="0 0 1440 380" fill="none" xmlns="http://www.w3.org/2000/svg">
<g clip-path="url(#clip0)">
<path d="M508.497 111.68C66.1315 144.601 -16.1691 -20 -114 -20V329.406H1465.04L1511.33 28.954C1455.83 53.0051 1382.4 198.564 1255.3 142.144C912.951 -9.83043 769.766 92.2375 508.497 111.68Z" fill="url(#paint0_linear)"/>
<path d="M508.497 111.68C66.1315 144.601 -16.1691 -20 -114 -20V329.406H1465.04L1511.33 28.954C1455.83 53.0051 1382.4 198.564 1255.3 142.144C912.951 -9.83043 769.766 92.2375 508.497 111.68Z" stroke="url(#paint1_linear)" stroke-opacity="0.6"/>
<rect x="-114" y="314" width="998" height="66" fill="url(#paint2_linear)"/>
<rect x="884" y="314" width="580" height="66" fill="#9B51E0"/>
</g>
<defs>
<linearGradient id="paint0_linear" x1="675.522" y1="6.3636" x2="865.252" y2="254.153" gradientUnits="userSpaceOnUse">
<stop offset="0.0866609" stop-color="#AE44BA"/>
<stop offset="1" stop-color="#9B51E0"/>
</linearGradient>
<linearGradient id="paint1_linear" x1="22.5266" y1="-193.24" x2="1237.99" y2="199.166" gradientUnits="userSpaceOnUse">
<stop stop-color="white" stop-opacity="0"/>
<stop offset="0.341996" stop-color="white"/>
<stop offset="0.594617" stop-color="white" stop-opacity="0"/>
<stop offset="1" stop-color="white"/>
</linearGradient>
<linearGradient id="paint2_linear" x1="370.789" y1="318.98" x2="387.358" y2="389.324" gradientUnits="userSpaceOnUse">
<stop offset="0.0866609" stop-color="#AE44BA"/>
<stop offset="1" stop-color="#9B51E0"/>
</linearGradient>
<clipPath id="clip0">
<rect width="1440" height="380" fill="white"/>
</clipPath>
</defs>
</svg>
