<svg width="1440" height="352" viewBox="0 0 1440 352" fill="none" xmlns="http://www.w3.org/2000/svg">
<path d="M514.625 133.08C72.2595 166.001 -10.0411 1.39954 -107.872 1.39954V350.806H1471.17L1517.46 50.3535C1461.96 74.4046 1388.53 219.964 1261.43 163.544C919.079 11.5691 775.894 113.637 514.625 133.08Z" fill="#C050D8"/>
<path d="M514.625 133.08C72.2595 166.001 -10.0411 1.39954 -107.872 1.39954V350.806H1471.17L1517.46 50.3535C1461.96 74.4046 1388.53 219.964 1261.43 163.544C919.079 11.5691 775.894 113.637 514.625 133.08Z" fill="url(#paint0_linear)"/>
<path d="M514.625 133.08C72.2595 166.001 -10.0411 1.39954 -107.872 1.39954V350.806H1471.17L1517.46 50.3535C1461.96 74.4046 1388.53 219.964 1261.43 163.544C919.079 11.5691 775.894 113.637 514.625 133.08Z" stroke="url(#paint1_linear)" stroke-opacity="0.6"/>
<defs>
<linearGradient id="paint0_linear" x1="681.65" y1="27.7631" x2="871.38" y2="275.553" gradientUnits="userSpaceOnUse">
<stop offset="0.0866609" stop-color="#AE44BA"/>
<stop offset="1" stop-color="#9B51E0"/>
</linearGradient>
<linearGradient id="paint1_linear" x1="28.6546" y1="-171.84" x2="1244.12" y2="220.566" gradientUnits="userSpaceOnUse">
<stop stop-color="white" stop-opacity="0"/>
<stop offset="0.341996" stop-color="white"/>
<stop offset="0.594617" stop-color="white" stop-opacity="0"/>
<stop offset="1" stop-color="white"/>
</linearGradient>
</defs>
</svg>
